<?xml version="1.0" encoding="UTF-8"?>
<svg width="16px" height="16px" viewBox="0 0 16 16" version="1.1" xmlns="http://www.w3.org/2000/svg" xmlns:xlink="http://www.w3.org/1999/xlink">
    <!-- Generator: Sketch 48.2 (47327) - http://www.bohemiancoding.com/sketch -->
    <title>Android_phone_active_16px</title>
    <desc>Created with Sketch.</desc>
    <defs></defs>
    <g id="UI图标" stroke="none" stroke-width="1" fill="none" fill-rule="evenodd">
        <g id="Android_phone_active_16px">
            <rect id="Rectangle-1" fill-opacity="0.5" fill="#A1A1A1" opacity="0" x="0" y="0" width="16" height="16"></rect>
            <g id="手机" transform="translate(3.000000, 1.000000)" fill="#2CA7F8">
                <path d="M0.901393202,0.552786405 C0.429629501,0.788668255 0.163668255,1.0546295 0.0527864045,1.2763932 C0.0180725459,1.34582092 0,1.42237745 0,1.5 L0,12.5 C0,12.5776225 0.0180725459,12.6541791 0.0527864045,12.7236068 C0.163668255,12.9453705 0.429629501,13.2113317 0.901393202,13.4472136 C1.60176594,13.7974 3.61476612,14 5,14 C6.38523388,14 8.39823406,13.7974 9.0986068,13.4472136 C9.5703705,13.2113317 9.83633174,12.9453705 9.9472136,12.7236068 C9.98192745,12.6541791 10,12.5776225 10,12.5 L10,1.5 C10,1.42237745 9.98192745,1.34582092 9.9472136,1.2763932 C9.83633174,1.0546295 9.5703705,0.788668255 9.0986068,0.552786405 C8.39823406,0.202600036 6.38523388,3.0758371e-16 5,0 C3.61476612,-3.0758371e-16 1.60176594,0.202600036 0.901393202,0.552786405 Z M8.6513932,1.4472136 C8.9296295,1.58633174 9.03866826,1.6953705 9.0527864,1.7236068 L9,1.5 L9,12.5 L9.0527864,12.2763932 C9.03866826,12.3046295 8.9296295,12.4136683 8.6513932,12.5527864 C8.10176594,12.8276 6.23976612,13 5,13 C3.76023388,13 1.89823406,12.8276 1.3486068,12.5527864 C1.0703705,12.4136683 0.961331745,12.3046295 0.947213595,12.2763932 L1,12.5 L1,1.5 L0.947213595,1.7236068 C0.961331745,1.6953705 1.0703705,1.58633174 1.3486068,1.4472136 C1.89823406,1.17239996 3.76023388,1 5,1 C6.23976612,1 8.10176594,1.17239996 8.6513932,1.4472136 Z" id="Path-33" fill-rule="nonzero"></path>
                <rect id="Rectangle-112" x="1" y="1" width="8" height="1"></rect>
                <rect id="Rectangle-115" x="2" y="3" width="6" height="8"></rect>
                <rect id="Rectangle-112" x="1" y="12" width="8" height="1"></rect>
            </g>
        </g>
    </g>
</svg>