<?xml version="1.0" encoding="UTF-8"?>
<svg width="16px" height="16px" viewBox="0 0 16 16" version="1.1" xmlns="http://www.w3.org/2000/svg" xmlns:xlink="http://www.w3.org/1999/xlink">
    <!-- Generator: Sketch 48.2 (47327) - http://www.bohemiancoding.com/sketch -->
    <title>home_active_16px</title>
    <desc>Created with Sketch.</desc>
    <defs></defs>
    <g id="UI图标" stroke="none" stroke-width="1" fill="none" fill-rule="evenodd">
        <g id="home_active_16px">
            <rect id="Rectangle-1" fill-opacity="0.5" fill="#A1A1A1" opacity="0" x="0" y="0" width="16" height="16"></rect>
            <g transform="translate(0.000000, 1.000000)" fill="#2CA7F8" fill-rule="nonzero" id="Combined-Shape">
                <path d="M2.0010066,8 L0.501006573,8 C0.0471961051,8 -0.171913085,7.44411553 0.159847448,7.13447237 L7.65984745,0.134472366 C7.85195083,-0.044824122 8.15006232,-0.044824122 8.3421657,0.134472366 L15.8421657,7.13447237 C16.1739262,7.44411553 15.954817,8 15.5010066,8 L14.0010061,8 L14.0010066,13.5 C14.0010066,13.7761424 13.7771489,14 13.5010066,14 L2.50100657,14 C2.2248642,14 2.00100657,13.7761424 2.00100657,13.5 L2.0010066,8 Z M7.60420015,6.41092894 C7.0208936,5.86302369 6.07543127,5.86302369 5.49212472,6.41092894 C4.83595843,7.02758276 4.83595843,8.02672861 5.49212472,8.64338243 L8.00021429,11 L10.5078753,8.64338243 C11.1640416,8.02672861 11.1640416,7.02758276 10.5078753,6.41092894 C9.92499732,5.86302369 8.9791064,5.86302369 8.39622844,6.41092894 L8.00021429,6.78300452 L7.60420015,6.41092894 Z"></path>
            </g>
        </g>
    </g>
</svg>