<?xml version="1.0" encoding="UTF-8"?>
<svg width="14px" height="14px" viewBox="0 0 14 14" version="1.1" xmlns="http://www.w3.org/2000/svg" xmlns:xlink="http://www.w3.org/1999/xlink">
    <!-- Generator: Sketch 46.2 (44496) - http://www.bohemiancoding.com/sketch -->
    <title>input_clear_dark_press</title>
    <desc>Created with Sketch.</desc>
    <defs></defs>
    <g id="输入框" stroke="none" stroke-width="1" fill="none" fill-rule="evenodd">
        <g id="input_clear_dark_press">
            <circle id="清除" fill="#2CA7F8" cx="7" cy="7" r="7"></circle>
            <path d="M4.35355339,3.64643911 C4.15829124,3.45117696 3.84170876,3.45117696 3.64644661,3.64643911 C3.45118446,3.84170126 3.45118446,4.15828374 3.64644661,4.35354589 L9.64644661,10.3535459 C9.84170876,10.548808 10.1582912,10.548808 10.3535534,10.3535459 C10.5488155,10.1582837 10.5488155,9.84170126 10.3535534,9.64643911 L4.35355339,3.64643911 Z" id="Stroke-13" fill="#FFFFFF"></path>
            <path d="M10.3535534,4.35354589 C10.5488155,4.15828374 10.5488155,3.84170126 10.3535534,3.64643911 C10.1582912,3.45117696 9.84170876,3.45117696 9.64644661,3.64643911 L3.64644661,9.64643911 C3.45118446,9.84170126 3.45118446,10.1582837 3.64644661,10.3535459 C3.84170876,10.548808 4.15829124,10.548808 4.35355339,10.3535459 L10.3535534,4.35354589 Z" id="Path" fill="#FFFFFF"></path>
        </g>
    </g>
</svg>