<?xml version="1.0" encoding="UTF-8"?>
<svg width="30px" height="30px" viewBox="0 0 30 30" version="1.1" xmlns="http://www.w3.org/2000/svg" xmlns:xlink="http://www.w3.org/1999/xlink">
    <title>button/tab_close_normal_dark</title>
    <defs>
        <linearGradient x1="50%" y1="0%" x2="50%" y2="95.6533653%" id="linearGradient-1">
            <stop stop-color="#484848" offset="0%"></stop>
            <stop stop-color="#414141" offset="100%"></stop>
        </linearGradient>
        <circle id="path-2" cx="11.0000013" cy="11.0000013" r="11"></circle>
        <filter x="-31.8%" y="-22.7%" width="163.6%" height="163.6%" filterUnits="objectBoundingBox" id="filter-3">
            <feOffset dx="0" dy="2" in="SourceAlpha" result="shadowOffsetOuter1"></feOffset>
            <feGaussianBlur stdDeviation="2" in="shadowOffsetOuter1" result="shadowBlurOuter1"></feGaussianBlur>
            <feComposite in="shadowBlurOuter1" in2="SourceAlpha" operator="out" result="shadowBlurOuter1"></feComposite>
            <feColorMatrix values="0 0 0 0 0   0 0 0 0 0   0 0 0 0 0  0 0 0 0.05 0" type="matrix" in="shadowBlurOuter1"></feColorMatrix>
        </filter>
    </defs>
    <g id="主界面" stroke="none" stroke-width="1" fill="none" fill-rule="evenodd">
        <g id="button/tab_close_normal_dark" transform="translate(4.000000, 3.000000)">
            <g id="清除" transform="translate(0.000000, -1.000000)">
                <g>
                    <use fill="black" fill-opacity="1" filter="url(#filter-3)" xlink:href="#path-2"></use>
                    <use fill-opacity="0.08" fill="#000000" fill-rule="evenodd" xlink:href="#path-2"></use>
                    <circle stroke-opacity="0.03" stroke="#FFFFFF" stroke-width="1" stroke-linejoin="square" fill="url(#linearGradient-1)" fill-rule="evenodd" cx="11.0000013" cy="11.0000013" r="10.5"></circle>
                </g>
                <path d="M7.64644661,7.64643911 C7.84170876,7.45117696 8.15829124,7.45117696 8.35355339,7.64643911 L11,10.2929925 L13.6464466,7.64643911 C13.820013,7.47287276 14.0894374,7.45358761 14.2843055,7.58858366 L14.3535534,7.64643911 C14.5488155,7.84170126 14.5488155,8.15828374 14.3535534,8.35354589 L11.707,10.9999925 L14.3535534,13.6464391 C14.5271197,13.8200055 14.5464049,14.0894299 14.4114088,14.284298 L14.3535534,14.3535459 C14.1582912,14.548808 13.8417088,14.548808 13.6464466,14.3535459 L11,11.7069925 L8.35355339,14.3535459 C8.17998704,14.5271122 7.91056264,14.5463974 7.7156945,14.4114013 L7.64644661,14.3535459 C7.45118446,14.1582837 7.45118446,13.8417013 7.64644661,13.6464391 L10.293,10.9999925 L7.64644661,8.35354589 C7.47288026,8.17997954 7.45359511,7.91055514 7.58859116,7.715687 Z" id="形状结合" fill="#C0C6D4"></path>
            </g>
        </g>
    </g>
</svg>