<svg xmlns="http://www.w3.org/2000/svg" width="88" height="100" viewBox="0 0 88 100">
  <path fill-opacity=".1" fill-rule="evenodd" d="M268,166 C274.627417,166 280,171.372583 280,178 L280,244 C280,249.224533 276.661207,253.669249 272.000916,255.316853 L272,262 C272,264.209139 270.209139,266 268,266 L262,266 C259.790861,266 258,264.209139 258,262 L258,256 L216,256 L216,262 C216,264.209139 214.209139,266 212,266 L206,266 C203.790861,266 202,264.209139 202,262 L202.000187,255.834115 C196.324668,254.882036 192,249.946058 192,244 L192,178 C192,171.372583 197.372583,166 204,166 L268,166 Z M268,172 L204,172 C200.761603,172 198.122428,174.565575 198.004138,177.775062 L198,178 L198,185 L196,185 C194.945638,185 194.081835,185.815878 194.005486,186.850738 L194,187 L194,205 C194,206.054362 194.815878,206.918165 195.850738,206.994514 L196,207 L198,207 L198,215 L196,215 C194.945638,215 194.081835,215.815878 194.005486,216.850738 L194,217 L194,235 C194,236.054362 194.815878,236.918165 195.850738,236.994514 L196,237 L198,237 L198,244 C198,247.238397 200.565575,249.877572 203.775062,249.995862 L204,250 L268,250 C271.238397,250 273.877572,247.434425 273.995862,244.224938 L274,244 L274,178 C274,174.686292 271.313708,172 268,172 Z M267,177 C268.104569,177 269,177.895431 269,179 L269,243 C269,244.104569 268.104569,245 267,245 L205,245 C203.895431,245 203,244.104569 203,243 L203,237 L205,237 C206.054362,237 206.918165,236.184122 206.994514,235.149262 L207,235 L207,217 C207,215.945638 206.184122,215.081835 205.149262,215.005486 L205,215 L203,215 L203,207 L205,207 C206.054362,207 206.918165,206.184122 206.994514,205.149262 L207,205 L207,187 C207,185.945638 206.184122,185.081835 205.149262,185.005486 L205,185 L203,185 L203,179 C203,177.895431 203.895431,177 205,177 L267,177 Z M203.5,218 C203.776142,218 204,218.223858 204,218.5 L204,233.5 C204,233.776142 203.776142,234 203.5,234 L197.5,234 C197.223858,234 197,233.776142 197,233.5 L197,218.5 C197,218.223858 197.223858,218 197.5,218 L203.5,218 Z M228,195 C219.163444,195 212,202.163444 212,211 C212,219.836556 219.163444,227 228,227 C236.836556,227 244,219.836556 244,211 C244,202.163444 236.836556,195 228,195 Z M262,197 L258,197 C257.487164,197 257.064493,197.38604 257.006728,197.883379 L257,198 L257,224 C257,224.512836 257.38604,224.935507 257.883379,224.993272 L258,225 L262,225 C262.512836,225 262.935507,224.61396 262.993272,224.116621 L263,224 L263,198 C263,197.447715 262.552285,197 262,197 Z M220.603621,218.5 C221.708191,218.5 222.603621,219.395431 222.603621,220.5 C222.603621,221.604569 221.708191,222.5 220.603621,222.5 C219.499052,222.5 218.603621,221.604569 218.603621,220.5 C218.603621,219.395431 219.499052,218.5 220.603621,218.5 Z M235.507457,218.10742 C236.612027,218.10742 237.507457,219.00285 237.507457,220.10742 C237.507457,221.211989 236.612027,222.10742 235.507457,222.10742 C234.402888,222.10742 233.507457,221.211989 233.507457,220.10742 C233.507457,219.00285 234.402888,218.10742 235.507457,218.10742 Z M228,203 C232.418278,203 236,206.581722 236,211 C236,215.418278 232.418278,219 228,219 C223.581722,219 220,215.418278 220,211 C220,206.581722 223.581722,203 228,203 Z M216.512982,206 C217.617551,206 218.512982,206.895431 218.512982,208 C218.512982,209.104569 217.617551,210 216.512982,210 C215.408412,210 214.512982,209.104569 214.512982,208 C214.512982,206.895431 215.408412,206 216.512982,206 Z M239.24981,205 C240.354379,205 241.24981,205.895431 241.24981,207 C241.24981,208.104569 240.354379,209 239.24981,209 C238.14524,209 237.24981,208.104569 237.24981,207 C237.24981,205.895431 238.14524,205 239.24981,205 Z M203.5,188 C203.776142,188 204,188.223858 204,188.5 L204,203.5 C204,203.776142 203.776142,204 203.5,204 L197.5,204 C197.223858,204 197,203.776142 197,203.5 L197,188.5 C197,188.223858 197.223858,188 197.5,188 L203.5,188 Z M228,197 C229.104569,197 230,197.895431 230,199 C230,200.104569 229.104569,201 228,201 C226.895431,201 226,200.104569 226,199 C226,197.895431 226.895431,197 228,197 Z" transform="translate(-192 -166)"/>
</svg>
