<svg xmlns="http://www.w3.org/2000/svg" width="16" height="16" viewBox="0 0 16 16">
  <path fill="#536076" fill-rule="evenodd" d="M11,1 C12.1045695,1 13,1.8954305 13,3 L13,13 C13,14.1045695 12.1045695,15 11,15 L6,15 C4.8954305,15 4,14.1045695 4,13 L4,3 C4,1.8954305 4.8954305,1 6,1 L11,1 Z M11,2 L6,2 C5.44771525,2 5,2.44771525 5,3 L5,3 L5,13 C5,13.5522847 5.44771525,14 6,14 L6,14 L11,14 C11.5522847,14 12,13.5522847 12,13 L12,13 L12,3 C12,2.44771525 11.5522847,2 11,2 L11,2 Z M9.5,3 C9.77614237,3 10,3.22385763 10,3.5 C10,3.77614237 9.77614237,4 9.5,4 L7.5,4 C7.22385763,4 7,3.77614237 7,3.5 C7,3.22385763 7.22385763,3 7.5,3 L9.5,3 Z"/>
</svg>
