<?xml version="1.0" encoding="UTF-8"?>
<svg width="64px" height="64px" viewBox="0 0 64 64" version="1.1" xmlns="http://www.w3.org/2000/svg" xmlns:xlink="http://www.w3.org/1999/xlink">
    <title>icon-update</title>
    <defs>
        <path d="M0,0 L64,0 L64,64 L0,64 L0,0 Z" id="path-1"></path>
        <linearGradient x1="50%" y1="0%" x2="50%" y2="100%" id="linearGradient-2">
            <stop stop-color="#ABEC51" offset="0%"></stop>
            <stop stop-color="#3D9321" offset="100%"></stop>
        </linearGradient>
        <linearGradient x1="50%" y1="0%" x2="50%" y2="100%" id="linearGradient-3">
            <stop stop-color="#97E60B" offset="0%"></stop>
            <stop stop-color="#2A7B09" offset="100%"></stop>
        </linearGradient>
    </defs>
    <g id="icon-update" stroke="none" fill="none" xlink:href="#path-1" fill-rule="nonzero" stroke-width="1">
        <path d="M43.882441,3.88157476 L43.8824407,3.88157461 C47.5984608,5.47131493 50.8347878,7.6454141 53.5946869,10.4053131 C56.3545859,13.1652122 58.5286851,16.4015392 60.1184254,20.1175593 C61.7061356,23.8288417 62.5,27.7882371 62.5,32 C62.5,36.2117629 61.7061356,40.1711583 60.1184252,43.882441 C58.5286851,47.5984608 56.3545859,50.8347878 53.5946869,53.5946869 C50.8347931,56.3545822 47.5984678,58.528679 43.8824404,60.1184255 C40.1711632,61.7061366 36.2117687,62.5 32,62.5 C27.7882313,62.5 23.8288368,61.7061366 20.1175593,60.1184254 C16.4015322,58.528679 13.1652069,56.3545822 10.4053132,53.594687 C7.64541782,50.8347931 5.47132098,47.5984678 3.88157448,43.8824404 C2.29386345,40.1711632 1.5,36.2117687 1.5,32 C1.5,27.7882313 2.29386345,23.8288368 3.88157462,20.1175593 C5.47132098,16.4015322 7.64541782,13.1652069 10.405313,10.4053132 C13.1652122,7.6454141 16.4015392,5.47131493 20.1175593,3.88157461 C23.8288417,2.29386437 27.7882371,1.5 32,1.5 C36.2117629,1.5 40.1711583,2.29386437 43.882441,3.88157476 Z M30.3267851,16.0116741 L30.1195747,16.168309 L18.4529247,25.8606039 C17.2714207,26.8421612 17.1744899,28.5421774 18.2409994,29.6360334 L18.3819249,29.7703531 C19.4597262,30.7180272 21.1169471,30.7428837 22.2137754,29.8316725 L29.5000001,23.7784271 L29.5,45.6425648 C29.5,47.2041286 30.5993909,48.5 32,48.5 L32.1635346,48.4936521 C33.5036097,48.3826273 34.5,47.1275332 34.5,45.6425648 L34.5,23.7784272 L41.7862223,29.8316706 C42.9439938,30.7935116 44.7143169,30.707504 45.7590006,29.6360334 C46.8255101,28.5421774 46.7285793,26.8421612 45.5470753,25.8606039 L33.8804253,16.168309 C32.8748679,15.3329227 31.3920056,15.2807111 30.3267851,16.0116741 Z" id="形状结合" stroke="url(#linearGradient-3)" fill="url(#linearGradient-2)"></path>
    </g>
</svg>