<?xml version="1.0" encoding="UTF-8"?>
<svg width="64px" height="64px" viewBox="0 0 64 64" version="1.1" xmlns="http://www.w3.org/2000/svg" xmlns:xlink="http://www.w3.org/1999/xlink">
    <title>places/64/safebox</title>
    <defs>
        <filter x="-9.6%" y="-7.7%" width="119.2%" height="119.2%" filterUnits="objectBoundingBox" id="filter-1">
            <feOffset dx="0" dy="1" in="SourceAlpha" result="shadowOffsetOuter1"></feOffset>
            <feGaussianBlur stdDeviation="1.5" in="shadowOffsetOuter1" result="shadowBlurOuter1"></feGaussianBlur>
            <feColorMatrix values="0 0 0 0 0   0 0 0 0 0   0 0 0 0 0  0 0 0 0.2 0" type="matrix" in="shadowBlurOuter1" result="shadowMatrixOuter1"></feColorMatrix>
            <feMerge>
                <feMergeNode in="shadowMatrixOuter1"></feMergeNode>
                <feMergeNode in="SourceGraphic"></feMergeNode>
            </feMerge>
        </filter>
        <linearGradient x1="50%" y1="0%" x2="50%" y2="100%" id="linearGradient-2">
            <stop stop-color="#B4B3B9" offset="0%"></stop>
            <stop stop-color="#5D5D65" offset="100%"></stop>
        </linearGradient>
        <linearGradient x1="0%" y1="32.2660607%" x2="100%" y2="32.2660607%" id="linearGradient-3">
            <stop stop-color="#888888" offset="0%"></stop>
            <stop stop-color="#595959" offset="100%"></stop>
        </linearGradient>
        <rect id="path-4" x="45" y="18" width="1" height="16" rx="0.5"></rect>
        <filter x="-450.0%" y="-28.1%" width="1000.0%" height="156.2%" filterUnits="objectBoundingBox" id="filter-5">
            <feOffset dx="9" dy="0" in="SourceAlpha" result="shadowOffsetInner1"></feOffset>
            <feComposite in="shadowOffsetInner1" in2="SourceAlpha" operator="arithmetic" k2="-1" k3="1" result="shadowInnerInner1"></feComposite>
            <feColorMatrix values="0 0 0 0 1   0 0 0 0 1   0 0 0 0 1  0 0 0 0.3 0" type="matrix" in="shadowInnerInner1"></feColorMatrix>
        </filter>
        <linearGradient x1="50%" y1="0%" x2="50%" y2="100%" id="linearGradient-6">
            <stop stop-color="#030303" offset="0%"></stop>
            <stop stop-color="#414141" offset="100%"></stop>
        </linearGradient>
        <linearGradient x1="50%" y1="0%" x2="50%" y2="100%" id="linearGradient-7">
            <stop stop-color="#000000" offset="0%"></stop>
            <stop stop-color="#ABABBB" offset="100%"></stop>
        </linearGradient>
        <linearGradient x1="50%" y1="0%" x2="50%" y2="100%" id="linearGradient-8">
            <stop stop-color="#DCDBE3" offset="0%"></stop>
            <stop stop-color="#ACACB4" offset="100%"></stop>
        </linearGradient>
    </defs>
    <g id="主页" stroke="none" stroke-width="1" fill="none" fill-rule="evenodd">
        <g id="文管-计算机" transform="translate(-518, -658)">
            <g id="文管" transform="translate(300, 140)">
                <g id="内置磁盘" transform="translate(200, 463)">
                    <g id="视频" transform="translate(0, 49)">
                        <g id="编组" transform="translate(24, 12)" filter="url(#filter-1)">
                            <rect id="矩形" fill="url(#linearGradient-2)" x="0" y="0" width="52" height="52" rx="14.56"></rect>
                            <path d="M37.04,3 C43.6453256,3 49,8.35467441 49,14.96 L49,37.04 C49,43.6453256 43.6453256,49 37.04,49 L14.96,49 C8.35467441,49 3,43.6453256 3,37.04 L3,14.96 C3,8.35467441 8.35467441,3 14.96,3 L37.04,3 Z M37.04,4 L14.96,4 C8.90695916,4 4,8.90695916 4,14.96 L4,37.04 C4,43.0930408 8.90695916,48 14.96,48 L37.04,48 C43.0930408,48 48,43.0930408 48,37.04 L48,14.96 C48,8.90695916 43.0930408,4 37.04,4 Z" id="矩形" fill-opacity="0.8" fill="#000000" fill-rule="nonzero"></path>
                            <g id="矩形">
                                <use fill="url(#linearGradient-3)" fill-rule="evenodd" xlink:href="#path-4"></use>
                                <use fill="black" fill-opacity="1" filter="url(#filter-5)" xlink:href="#path-4"></use>
                            </g>
                            <path d="M45.5,17 C46.3284271,17 47,17.6715729 47,18.5 L47,33.5 C47,34.3284271 46.3284271,35 45.5,35 C44.6715729,35 44,34.3284271 44,33.5 L44,18.5 C44,17.6715729 44.6715729,17 45.5,17 Z M45.5,18 C45.2238576,18 45,18.2238576 45,18.5 L45,33.5 C45,33.7761424 45.2238576,34 45.5,34 C45.7761424,34 46,33.7761424 46,33.5 L46,18.5 C46,18.2238576 45.7761424,18 45.5,18 Z" id="矩形" fill="#323232" fill-rule="nonzero"></path>
                            <g id="编组-2" transform="translate(9, 9)">
                                <circle id="椭圆形" fill="url(#linearGradient-6)" cx="17" cy="17" r="16"></circle>
                                <path d="M17,0 C26.3888407,0 34,7.61115925 34,17 C34,26.3888407 26.3888407,34 17,34 C7.61115925,34 0,26.3888407 0,17 C0,7.61115925 7.61115925,0 17,0 Z M17,1 C8.163444,1 1,8.163444 1,17 C1,25.836556 8.163444,33 17,33 C25.836556,33 33,25.836556 33,17 C33,8.163444 25.836556,1 17,1 Z" id="椭圆形" fill="url(#linearGradient-7)" fill-rule="nonzero"></path>
                                <path d="M16.765,2.9 L17.235,2.9 L17.235,4.31 L16.765,4.31 Z M19.2170095,3.07340336 L19.6798691,3.155018 L19.4350252,4.54359694 L18.9721656,4.46198229 Z M21.6016563,3.66995931 L22.0433118,3.83070878 L21.5610634,5.15567538 L21.1194079,4.99492591 Z M23.846484,4.67154181 L24.253516,4.90654181 L23.548516,6.12763763 L23.141484,5.89263763 Z M25.8832849,6.04771826 L26.2433257,6.34982844 L25.3369952,7.42995111 L24.9769543,7.12784093 Z M27.6501716,7.75667426 L27.9522817,8.11671515 L26.8721591,9.02304568 L26.5700489,8.66300479 Z M29.0934582,9.74648403 L29.3284582,10.153516 L28.1073624,10.858516 L27.8723624,10.451484 Z M30.1692912,11.9566882 L30.3300407,12.3983437 L29.0050741,12.8805921 L28.8443246,12.4389366 Z M30.844982,14.3201309 L30.9265966,14.7829905 L29.5380177,15.0278344 L29.4564031,14.5649748 Z M31.1,16.765 L31.1,17.235 L29.69,17.235 L29.69,16.765 Z M30.9265966,19.2170095 L30.844982,19.6798691 L29.4564031,19.4350252 L29.5380177,18.9721656 Z M30.3300407,21.6016563 L30.1692912,22.0433118 L28.8443246,21.5610634 L29.0050741,21.1194079 Z M29.3284582,23.846484 L29.0934582,24.253516 L27.8723624,23.548516 L28.1073624,23.141484 Z M27.9522817,25.8832849 L27.6501716,26.2433257 L26.5700489,25.3369952 L26.8721591,24.9769543 Z M26.2433257,27.6501716 L25.8832849,27.9522817 L24.9769543,26.8721591 L25.3369952,26.5700489 Z M24.253516,29.0934582 L23.846484,29.3284582 L23.141484,28.1073624 L23.548516,27.8723624 Z M22.0433118,30.1692912 L21.6016563,30.3300407 L21.1194079,29.0050741 L21.5610634,28.8443246 Z M19.6798691,30.844982 L19.2170095,30.9265966 L18.9721656,29.5380177 L19.4350252,29.4564031 Z M17.235,31.1 L16.765,31.1 L16.765,29.69 L17.235,29.69 Z M14.7829905,30.9265966 L14.3201309,30.844982 L14.5649748,29.4564031 L15.0278344,29.5380177 Z M12.3983437,30.3300407 L11.9566882,30.1692912 L12.4389366,28.8443246 L12.8805921,29.0050741 Z M10.153516,29.3284582 L9.74648403,29.0934582 L10.451484,27.8723624 L10.858516,28.1073624 Z M8.11671515,27.9522817 L7.75667426,27.6501716 L8.66300479,26.5700489 L9.02304568,26.8721591 Z M6.34982844,26.2433257 L6.04771826,25.8832849 L7.12784093,24.9769543 L7.42995111,25.3369952 Z M4.90654181,24.253516 L4.67154181,23.846484 L5.89263763,23.141484 L6.12763763,23.548516 Z M3.83070878,22.0433118 L3.66995931,21.6016563 L4.99492591,21.1194079 L5.15567538,21.5610634 Z M3.155018,19.6798691 L3.07340336,19.2170095 L4.46198229,18.9721656 L4.54359694,19.4350252 Z M2.9,17.235 L2.9,16.765 L4.31,16.765 L4.31,17.235 Z M3.07340336,14.7829905 L3.155018,14.3201309 L4.54359694,14.5649748 L4.46198229,15.0278344 Z M3.66995931,12.3983437 L3.83070878,11.9566882 L5.15567538,12.4389366 L4.99492591,12.8805921 Z M4.67154181,10.153516 L4.90654181,9.74648403 L6.12763763,10.451484 L5.89263763,10.858516 Z M6.04771826,8.11671515 L6.34982844,7.75667426 L7.42995111,8.66300479 L7.12784093,9.02304568 Z M7.75667426,6.34982844 L8.11671515,6.04771826 L9.02304568,7.12784093 L8.66300479,7.42995111 Z M9.74648403,4.90654181 L10.153516,4.67154181 L10.858516,5.89263763 L10.451484,6.12763763 Z M11.9566882,3.83070878 L12.3983437,3.66995931 L12.8805921,4.99492591 L12.4389366,5.15567538 Z M14.3201309,3.155018 L14.7829905,3.07340336 L15.0278344,4.46198229 L14.5649748,4.54359694 Z" id="形状结合" fill-opacity="0.4" fill="#FFFFFF"></path>
                                <circle id="椭圆形" fill="url(#linearGradient-8)" cx="17" cy="17" r="9"></circle>
                                <circle id="椭圆形" fill="url(#linearGradient-6)" cx="17" cy="17" r="4"></circle>
                                <circle id="椭圆形" fill="url(#linearGradient-8)" cx="17" cy="17" r="2"></circle>
                            </g>
                        </g>
                    </g>
                </g>
            </g>
        </g>
    </g>
</svg>