<?xml version="1.0" encoding="UTF-8" standalone="no"?>
<svg width="22px" height="22px" viewBox="0 0 22 22" version="1.1" xmlns="http://www.w3.org/2000/svg" xmlns:xlink="http://www.w3.org/1999/xlink">
    <!-- Generator: Sketch 3.8.3 (29802) - http://www.bohemiancoding.com/sketch -->
    <title>Android_phone_active_22px</title>
    <desc>Created with Sketch.</desc>
    <defs></defs>
    <g id="Page-1" stroke="none" stroke-width="1" fill="none" fill-rule="evenodd">
        <g id="Android_phone_active_22px">
            <rect id="Rectangle-1" opacity="0" x="0" y="0" width="22" height="22"></rect>
            <g id="手机" transform="translate(4.000000, 1.000000)" fill="#FFFFFF">
                <path d="M1.41545708,0.522110496 C0.731498539,0.732559276 0.332114481,0.960778738 0.146446609,1.14644661 C0.0526784202,1.2402148 0,1.36739176 0,1.5 L0,18.5 C0,18.6326082 0.0526784202,18.7597852 0.146446609,18.8535534 C0.332114481,19.0392213 0.731498539,19.2674407 1.41545708,19.4778895 C2.48250347,19.8062115 4.98436456,20 7,20 C9.01563544,20 11.5174965,19.8062115 12.5845429,19.4778895 C13.2685015,19.2674407 13.6678855,19.0392213 13.8535534,18.8535534 C13.9473216,18.7597852 14,18.6326082 14,18.5 L14,1.5 C14,1.36739176 13.9473216,1.2402148 13.8535534,1.14644661 C13.6678855,0.960778738 13.2685015,0.732559276 12.5845429,0.522110496 C11.5174965,0.193788528 9.01563544,3.97831977e-16 7,0 C4.98436456,-4.47560975e-16 2.48250347,0.193788528 1.41545708,0.522110496 Z M12.2904571,1.4778895 C12.6117188,1.57673927 12.8532506,1.67951875 13.025368,1.77787157 C13.1104581,1.82649448 13.1471686,1.85427539 13.1464466,1.85355339 L13,1.5 L13,18.5 L13.1464466,18.1464466 C13.1471686,18.1457246 13.1104581,18.1735055 13.025368,18.2221284 C12.8532506,18.3204813 12.6117188,18.4232607 12.2904571,18.5221105 C11.3262535,18.8187885 8.92186456,19 7,19 C5.07813544,19 2.67374653,18.8187885 1.70954292,18.5221105 C1.38828118,18.4232607 1.14674941,18.3204813 0.974631969,18.2221284 C0.889541886,18.1735055 0.852831388,18.1457246 0.853553391,18.1464466 L1,18.5 L1,1.5 L0.853553391,1.85355339 C0.852831388,1.85427539 0.889541886,1.82649448 0.974631969,1.77787157 C1.14674941,1.67951875 1.38828118,1.57673927 1.70954292,1.4778895 C2.67374653,1.18121147 5.07813544,1 7,1 C8.92186456,1 11.3262535,1.18121147 12.2904571,1.4778895 Z" id="Path-33"></path>
                <path d="M2,16.5 C2,16.7761424 2.22385763,17 2.5,17 L11.5,17 C11.7761424,17 12,16.7761424 12,16.5 L12,3.5 C12,3.22385763 11.7761424,3 11.5,3 L2.5,3 C2.22385763,3 2,3.22385763 2,3.5 L2,16.5 Z" id="Path-37"></path>
            </g>
        </g>
    </g>
</svg>