<?xml version="1.0" encoding="UTF-8" standalone="no"?>
<svg width="22px" height="22px" viewBox="0 0 22 22" version="1.1" xmlns="http://www.w3.org/2000/svg" xmlns:xlink="http://www.w3.org/1999/xlink">
    <!-- Generator: Sketch 3.6.1 (26313) - http://www.bohemiancoding.com/sketch -->
    <title>bookmarks_active_22px</title>
    <desc>Created with Sketch.</desc>
    <defs></defs>
    <g id="Page-1" stroke="none" stroke-width="1" fill="none" fill-rule="evenodd">
        <g id="bookmarks_active_22px">
            <rect id="Rectangle-1" opacity="0" x="0" y="0" width="22" height="22"></rect>
            <path d="M2,17.55 C2,17.7985281 2.22385763,18 2.5,18 L18.5,18 C18.7761424,18 19,17.7985281 19,17.55 L19,6.45 C19,6.20147186 18.7761424,6 18.5,6 L7,6 L2.5,6 C2.22385763,6 2,6.20147186 2,6.45 L2,17.55 Z M9,6 L9,15 L7.5,13.425 L6,15 L6,6 L9,6 Z M3,4.5 C3,4.22385763 3.22385763,4 3.5,4 L10,4 L9.7763932,4.0527864 L11.7763932,3.0527864 C11.8458209,3.01807255 11.9223775,3 12,3 L17.5,3 C17.7761424,3 18,3.22385763 18,3.5 L18,5 L3,5 L3,4.5 Z" id="Combined-Shape" fill="#FFFFFF"></path>
        </g>
    </g>
</svg>