<?xml version="1.0" encoding="UTF-8" standalone="no"?>
<svg width="16px" height="16px" viewBox="0 0 16 16" version="1.1" xmlns="http://www.w3.org/2000/svg" xmlns:xlink="http://www.w3.org/1999/xlink">
    <!-- Generator: Sketch 3.6.1 (26313) - http://www.bohemiancoding.com/sketch -->
    <title>disk_active_16px</title>
    <desc>Created with Sketch.</desc>
    <defs></defs>
    <g id="Page-1" stroke="none" stroke-width="1" fill="none" fill-rule="evenodd">
        <g id="disk_active_16px">
            <rect id="Rectangle-1" opacity="0" x="0" y="0" width="16" height="16"></rect>
            <g id="硬盘" transform="translate(2.000000, 1.000000)" fill="#FFFFFF">
                <path d="M0,0.5 L0,13.5 C0,13.7761424 0.223857625,14 0.5,14 L11.5,14 C11.7761424,14 12,13.7761424 12,13.5 L12,0.5 C12,0.223857625 11.7761424,0 11.5,0 L0.5,0 C0.223857625,0 0,0.223857625 0,0.5 L0,0.5 L0,0.5 Z M1,0.5 L0.5,1 L11.5,1 L11,0.5 L11,13.5 L11.5,13 L0.5,13 L1,13.5 L1,0.5 Z M1,9 L11,9 L11,13 L1,13 L1,9 Z M2.5,12 L9.5,12 C9.77614237,12 10,11.7761424 10,11.5 C10,11.2238576 9.77614237,11 9.5,11 L2.5,11 C2.22385763,11 2,11.2238576 2,11.5 C2,11.7761424 2.22385763,12 2.5,12 Z" id="Combined-Shape"></path>
            </g>
        </g>
    </g>
</svg>