<?xml version="1.0" encoding="UTF-8"?>
<svg width="14px" height="14px" viewBox="0 0 14 14" version="1.1" xmlns="http://www.w3.org/2000/svg" xmlns:xlink="http://www.w3.org/1999/xlink">
    <!-- Generator: Sketch 40.3 (33839) - http://www.bohemiancoding.com/sketch -->
    <title>input_clear_hover</title>
    <desc>Created with Sketch.</desc>
    <defs></defs>
    <g id="输入框" stroke="none" stroke-width="1" fill="none" fill-rule="evenodd" fill-opacity="0.7">
        <g id="input_clear_hover" fill="#000000">
            <path d="M7,6.29288572 L9.64644661,3.64643911 C9.84170876,3.45117696 10.1582912,3.45117696 10.3535534,3.64643911 C10.5488155,3.84170126 10.5488155,4.15828374 10.3535534,4.35354589 L7.70710678,6.9999925 L10.3535534,9.64643911 C10.5488155,9.84170126 10.5488155,10.1582837 10.3535534,10.3535459 C10.1582912,10.548808 9.84170876,10.548808 9.64644661,10.3535459 L7,7.70709928 L4.35355339,10.3535459 C4.15829124,10.548808 3.84170876,10.548808 3.64644661,10.3535459 C3.45118446,10.1582837 3.45118446,9.84170126 3.64644661,9.64643911 L6.29289322,6.9999925 L3.64644661,4.35354589 C3.45118446,4.15828374 3.45118446,3.84170126 3.64644661,3.64643911 C3.84170876,3.45117696 4.15829124,3.45117696 4.35355339,3.64643911 L7,6.29288572 Z M7,14 C10.8659932,14 14,10.8659932 14,7 C14,3.13400675 10.8659932,0 7,0 C3.13400675,0 0,3.13400675 0,7 C0,10.8659932 3.13400675,14 7,14 Z" id="input_clear_"></path>
        </g>
    </g>
</svg>