<?xml version="1.0" encoding="UTF-8" standalone="no"?>
<svg width="22px" height="22px" viewBox="0 0 22 22" version="1.1" xmlns="http://www.w3.org/2000/svg" xmlns:xlink="http://www.w3.org/1999/xlink">
    <!-- Generator: Sketch 3.6.1 (26313) - http://www.bohemiancoding.com/sketch -->
    <title>music_active_22px</title>
    <desc>Created with Sketch.</desc>
    <defs></defs>
    <g id="Page-1" stroke="none" stroke-width="1" fill="none" fill-rule="evenodd">
        <g id="music_active_22px">
            <rect id="Rectangle-1" opacity="0" x="0" y="0" width="22" height="22"></rect>
            <path d="M5.90738527,7.45993579 L5.90738527,17.5000593 L5.86622213,17.5412224 C5.69547491,18.4877396 4.89164188,19.3660352 3.77364792,19.7729517 C2.24099859,20.3307904 0.591199582,19.8304898 0.121343037,18.5395695 C-0.348513507,17.2486493 0.593718812,15.8049264 2.12636814,15.2470877 C3.1226251,14.8844798 4.16838126,14.9689671 4.90738527,15.4270743 L4.90738527,6.25005927 L4.90738527,3.50005927 C4.90738527,3.24528467 5.09895317,3.03125256 5.35216951,3.00311741 L17.3521695,2.00311741 C17.6483525,1.97020819 17.9073853,2.20205363 17.9073853,2.50005927 L17.9073853,5.25005927 L17.9073853,16.5000593 L17.8650637,16.5423808 C17.6938132,17.488227 16.890342,18.3657333 15.7730625,18.7723897 C14.2406509,19.3301419 12.5911079,18.8299189 12.1213242,17.539199 C11.6515406,16.248479 12.5936267,14.8049801 14.1260383,14.2472279 C15.1224828,13.8845517 16.1684529,13.9692086 16.9073853,14.4276587 L16.9073853,6.54326912 L5.90738527,7.45993579 Z" id="Combined-Shape" fill="#FFFFFF"></path>
        </g>
    </g>
</svg>