<?xml version="1.0" encoding="UTF-8" standalone="no"?>
<svg width="22px" height="22px" viewBox="0 0 22 22" version="1.1" xmlns="http://www.w3.org/2000/svg" xmlns:xlink="http://www.w3.org/1999/xlink">
    <!-- Generator: Sketch 3.6.1 (26313) - http://www.bohemiancoding.com/sketch -->
    <title>pictures_active_22px</title>
    <desc>Created with Sketch.</desc>
    <defs></defs>
    <g id="Page-1" stroke="none" stroke-width="1" fill="none" fill-rule="evenodd">
        <g id="pictures_active_22px">
            <rect id="Rectangle-1" opacity="0" x="0" y="0" width="22" height="22"></rect>
            <path d="M2,4.49907684 C2,4.22344431 2.22758651,4 2.50020972,4 L19.4997903,4 C19.7760485,4 20,4.2236826 20,4.49907684 L20,18.5009232 C20,18.7765557 19.7724135,19 19.4997903,19 L2.50020972,19 C2.22395152,19 2,18.7763174 2,18.5009232 L2,4.49907684 Z M17.5,17 C17.8886472,17 18.1287038,16.5619279 17.9287465,16.2175933 L13.4999997,9.2508199 C13.3111504,8.92561388 12.8588347,8.91449296 12.6552281,9.2300498 L9.78000559,13.4858718 C9.62536287,13.7147695 9.35069051,13.7360546 9.16710151,13.5340666 L8,12.25 C8,12.25 7.49999993,11.6000061 6.99999993,12.3999939 C6.49999993,13 4.09313326,16.1831134 4.09313326,16.1831134 C3.85675167,16.5250426 4.09331372,17 4.5,17 L17.5,17 Z M7.5,11 C8.88071187,11 10,9.88071187 10,8.5 C10,7.11928813 8.88071187,6 7.5,6 C6.11928813,6 5,7.11928813 5,8.5 C5,9.88071187 6.11928813,11 7.5,11 Z" id="Combined-Shape" fill="#FFFFFF"></path>
        </g>
    </g>
</svg>