<?xml version="1.0" encoding="UTF-8" standalone="no"?>
<svg width="22px" height="22px" viewBox="0 0 22 22" version="1.1" xmlns="http://www.w3.org/2000/svg" xmlns:xlink="http://www.w3.org/1999/xlink">
    <!-- Generator: Sketch 3.6.1 (26313) - http://www.bohemiancoding.com/sketch -->
    <title>trash_active_22px</title>
    <desc>Created with Sketch.</desc>
    <defs></defs>
    <g id="Page-1" stroke="none" stroke-width="1" fill="none" fill-rule="evenodd">
        <g id="trash_active_22px">
            <rect id="Rectangle-1" opacity="0" x="0" y="0" width="22" height="22"></rect>
            <path d="M3.95833333,5 L17.9583333,5 L17.9583333,19.5009232 C17.9583333,19.7765557 17.7384268,20 17.4600659,20 L4.45660075,20 C4.18141525,20 3.95833333,19.7763174 3.95833333,19.5009232 L3.95833333,5 Z M8.95833333,6.60049163 C8.95833333,6.28976797 8.73447571,6.03787667 8.45833333,6.03787667 C8.18219096,6.03787667 7.95833333,6.28976797 7.95833333,6.60049163 L7.95833333,17.3512034 C7.95833333,17.6619271 8.18219096,17.9138184 8.45833333,17.9138184 C8.73447571,17.9138184 8.95833333,17.6619271 8.95833333,17.3512034 L8.95833333,6.60049163 Z M13.9583333,6.60049163 C13.9583333,6.28976797 13.7344757,6.03787667 13.4583333,6.03787667 C13.182191,6.03787667 12.9583333,6.28976797 12.9583333,6.60049163 L12.9583333,17.3512034 C12.9583333,17.6619271 13.182191,17.9138184 13.4583333,17.9138184 C13.7344757,17.9138184 13.9583333,17.6619271 13.9583333,17.3512034 L13.9583333,6.60049163 Z M14.5172414,3 C14.7838616,3 15,2.77614237 15,2.5 C15,2.22385763 14.7838616,2 14.5172414,2 L7.48275862,2 C7.2161384,2 7,2.22385763 7,2.5 C7,2.77614237 7.2161384,3 7.48275862,3 L14.5172414,3 Z M19.4166667,5 C19.692809,5 19.9166667,4.77614237 19.9166667,4.5 C19.9166667,4.22385763 19.692809,4 19.4166667,4 L2.5,4 C2.22385763,4 2,4.22385763 2,4.5 C2,4.77614237 2.22385763,5 2.5,5 L19.4166667,5 Z" id="Combined-Shape" fill="#FFFFFF"></path>
        </g>
    </g>
</svg>