<?xml version="1.0" encoding="UTF-8" standalone="no"?>
<svg width="22px" height="22px" viewBox="0 0 22 22" version="1.1" xmlns="http://www.w3.org/2000/svg" xmlns:xlink="http://www.w3.org/1999/xlink">
    <!-- Generator: Sketch 3.6.1 (26313) - http://www.bohemiancoding.com/sketch -->
    <title>videos_active_22px</title>
    <desc>Created with Sketch.</desc>
    <defs></defs>
    <g id="Page-1" stroke="none" stroke-width="1" fill="none" fill-rule="evenodd">
        <g id="videos_active_22px">
            <rect id="Rectangle-1" opacity="0" x="0" y="0" width="22" height="22"></rect>
            <path d="M4,19 L18.0000002,19 L18.0000002,4 L4,4 L4,19 Z M3,3.49425479 C3,3.22128541 3.22900057,3 3.50034732,3 L18.4996527,3 C18.7759869,3 19,3.22563934 19,3.49374104 L19,19.506259 C19,19.7789446 18.7709994,20 18.4996527,20 L3.50034732,20 C3.22401312,20 3,19.7792181 3,19.5048272 L3,3.49425479 Z M4,4 L8,4 L8,7 L4,7 L4,4 L4,4 Z M4,8 L8,8 L8,11 L4,11 L4,8 L4,8 Z M4,12 L8,12 L8,15 L4,15 L4,12 L4,12 Z M4,16 L8,16 L8,19 L4,19 L4,16 L4,16 Z M14,4 L18,4 L18,7 L14,7 L14,4 L14,4 Z M14,8 L18,8 L18,11 L14,11 L14,8 L14,8 Z M14,12 L18,12 L18,15 L14,15 L14,12 L14,12 Z M14,16 L18,16 L18,19 L14,19 L14,16 L14,16 Z M9,4 L13,4 L13,11 L9,11 L9,4 L9,4 Z M9,12 L13,12 L13,19 L9,19 L9,12 L9,12 Z" id="Combined-Shape" fill="#FFFFFF"></path>
        </g>
    </g>
</svg>