<?xml version="1.0" encoding="UTF-8" standalone="no"?>
<svg width="48px" height="48px" viewBox="0 0 48 48" version="1.1" xmlns="http://www.w3.org/2000/svg" xmlns:xlink="http://www.w3.org/1999/xlink">
    <!-- Generator: Sketch 3.8.3 (29802) - http://www.bohemiancoding.com/sketch -->
    <title>drive-removable-media</title>
    <desc>Created with Sketch.</desc>
    <defs>
        <filter x="-50%" y="-50%" width="200%" height="200%" filterUnits="objectBoundingBox" id="filter-1">
            <feOffset dx="0" dy="1" in="SourceAlpha" result="shadowOffsetOuter1"></feOffset>
            <feGaussianBlur stdDeviation="1" in="shadowOffsetOuter1" result="shadowBlurOuter1"></feGaussianBlur>
            <feColorMatrix values="0 0 0 0 0   0 0 0 0 0   0 0 0 0 0  0 0 0 0.3 0" type="matrix" in="shadowBlurOuter1" result="shadowMatrixOuter1"></feColorMatrix>
            <feMerge>
                <feMergeNode in="shadowMatrixOuter1"></feMergeNode>
                <feMergeNode in="SourceGraphic"></feMergeNode>
            </feMerge>
        </filter>
        <linearGradient x1="50%" y1="1.4588648%" x2="50%" y2="97.9233099%" id="linearGradient-2">
            <stop stop-color="#CE85FE" offset="0%"></stop>
            <stop stop-color="#A170FC" offset="100%"></stop>
        </linearGradient>
    </defs>
    <g id="Page-1" stroke="none" stroke-width="1" fill="none" fill-rule="evenodd">
        <g id="drive-removable-media">
            <g id="Group-3" filter="url(#filter-1)" transform="translate(7.000000, 4.000000)">
                <rect id="Rectangle-1" fill="url(#linearGradient-2)" x="0" y="0" width="34" height="35" rx="1"></rect>
                <g id="Group" transform="translate(9.000000, 8.000000)" fill="#FFFFFF">
                    <path d="M14.987,11.929 C14.987,11.414 14.569,10.996 14.054,10.996 L1.92,10.996 C1.405,10.996 0.987,11.414 0.987,11.929 L0.987,12.063 C0.987,12.578 1.405,12.996 1.92,12.996 L14.054,12.996 C14.569,12.996 14.987,12.578 14.987,12.063 L14.987,11.929 L14.987,11.929 Z" id="Shape"></path>
                    <path d="M2.24,8.996 L13.738,8.996 C14.096,8.996 14.417,8.973 14.574,8.662 C14.729,8.357 14.697,8.079 14.483,7.787 L8.742,0.365 C8.389,-0.12 7.579,-0.093 7.244,0.367 L1.486,7.877 C1.281,8.158 1.25,8.356 1.404,8.659 C1.561,8.969 1.882,8.996 2.24,8.996 L2.24,8.996 Z" id="Shape"></path>
                </g>
                <rect id="Rectangle-3" fill="#FFFFFF" x="0" y="30" width="34" height="6"></rect>
                <rect id="Rectangle-1" fill="#DCDDDD" x="0" y="34" width="34" height="6" rx="1"></rect>
                <g id="Group" transform="translate(19.000000, 35.000000)" fill="#A744FF">
                    <rect id="Rectangle-path" x="10.987" y="0.996" width="1" height="2"></rect>
                    <rect id="Rectangle-path" x="8.987" y="0.996" width="1" height="2"></rect>
                    <rect id="Rectangle-path" x="6.987" y="0.996" width="1" height="2"></rect>
                    <rect id="Rectangle-path" x="4.987" y="0.996" width="1" height="2"></rect>
                    <rect id="Rectangle-path" x="2.987" y="0.996" width="1" height="2"></rect>
                    <rect id="Rectangle-path" x="0.987" y="0.996" width="1" height="2"></rect>
                </g>
                <circle id="Oval" fill="#A743FF" cx="5" cy="37" r="1"></circle>
            </g>
        </g>
    </g>
</svg>