<?xml version="1.0" encoding="iso-8859-1"?>
<!-- Generator: Adobe Illustrator 18.0.0, SVG Export Plug-In . SVG Version: 6.00 Build 0)  -->
<!DOCTYPE svg PUBLIC "-//W3C//DTD SVG 1.1//EN" "http://www.w3.org/Graphics/SVG/1.1/DTD/svg11.dtd">
<svg version="1.1" id="&#x56FE;&#x5C42;_1" xmlns="http://www.w3.org/2000/svg" xmlns:xlink="http://www.w3.org/1999/xlink" x="0px"
	 y="0px" viewBox="0 0 69 20" enable-background="new 0 0 69 20" xml:space="preserve">
<g>
	<path fill="#727171" d="M19.108,16.491L10.825,2.484C10.437,1.829,9.487,1.83,9.101,2.487L0.884,16.494
		C0.492,17.161,0.973,18,1.746,18h16.501C19.021,18,19.502,17.158,19.108,16.491z M11,15.008C11,15.556,10.556,16,10.008,16H9.992
		C9.444,16,9,15.556,9,15.008v-0.016C9,14.444,9.444,14,9.992,14h0.016C10.556,14,11,14.444,11,14.992V15.008z M11,12.076
		C11,12.586,10.584,13,10.072,13H9.928C9.416,13,9,12.586,9,12.076V7.949C9,7.438,9.416,7,9.928,7h0.144C10.584,7,11,7.438,11,7.949
		V12.076z"/>
	<g>
		<g>
			<path fill="#727171" d="M26.182,16.058h-1.125L24.4,13.573h-2.063l-0.656,2.484h-1.125L22.9,7.948h0.938L26.182,16.058z
				 M24.166,12.683l-0.75-2.859h-0.094l-0.75,2.859H24.166z"/>
			<path fill="#727171" d="M30.572,15.917c-0.156,0.063-0.336,0.117-0.539,0.164s-0.477,0.07-0.82,0.07
				c-0.563,0-1.016-0.156-1.359-0.469s-0.516-0.75-0.516-1.313v-2.813h-1.594v-0.75h1.594V8.979h0.938v1.828h1.922v0.75h-1.922
				v2.859c0,0.25,0.063,0.461,0.188,0.633s0.359,0.258,0.703,0.258s0.625-0.031,0.844-0.094s0.406-0.141,0.563-0.234V15.917z"/>
			<path fill="#727171" d="M36.307,15.917c-0.156,0.063-0.336,0.117-0.539,0.164s-0.477,0.07-0.82,0.07
				c-0.563,0-1.016-0.156-1.359-0.469s-0.516-0.75-0.516-1.313v-2.813h-1.594v-0.75h1.594V8.979h0.938v1.828h1.922v0.75H34.01v2.859
				c0,0.25,0.063,0.461,0.188,0.633s0.359,0.258,0.703,0.258s0.625-0.031,0.844-0.094s0.406-0.141,0.563-0.234V15.917z"/>
			<path fill="#727171" d="M41.557,14.276c-0.063,0.563-0.313,1.016-0.75,1.359s-0.953,0.516-1.547,0.516
				c-0.75,0-1.367-0.242-1.852-0.727s-0.727-1.148-0.727-1.992s0.242-1.508,0.727-1.992s1.102-0.727,1.852-0.727
				c0.656,0,1.195,0.211,1.617,0.633s0.633,1.117,0.633,2.086h-3.797c0,0.688,0.148,1.172,0.445,1.453s0.664,0.422,1.102,0.422
				c0.344,0,0.625-0.086,0.844-0.258s0.359-0.43,0.422-0.773H41.557z M40.432,12.683c-0.063-0.438-0.203-0.742-0.422-0.914
				s-0.5-0.258-0.844-0.258c-0.313,0-0.594,0.086-0.844,0.258s-0.438,0.477-0.563,0.914H40.432z"/>
			<path fill="#727171" d="M47.119,16.058h-0.938v-3.375c0-0.375-0.094-0.672-0.281-0.891s-0.438-0.328-0.75-0.328
				c-0.406,0-0.789,0.211-1.148,0.633s-0.539,0.945-0.539,1.57v2.391h-0.938v-5.25h0.938v0.984c0.25-0.344,0.523-0.609,0.82-0.797
				s0.68-0.281,1.148-0.281c0.563,0,0.984,0.156,1.266,0.469s0.422,0.703,0.422,1.172V16.058z"/>
			<path fill="#727171" d="M52.51,15.917c-0.156,0.063-0.336,0.117-0.539,0.164s-0.477,0.07-0.82,0.07
				c-0.563,0-1.016-0.156-1.359-0.469s-0.516-0.75-0.516-1.313v-2.813h-1.594v-0.75h1.594V8.979h0.938v1.828h1.922v0.75h-1.922
				v2.859c0,0.25,0.063,0.461,0.188,0.633s0.359,0.258,0.703,0.258s0.625-0.031,0.844-0.094s0.406-0.141,0.563-0.234V15.917z"/>
			<path fill="#727171" d="M54.479,9.308h-0.938V8.089h0.938V9.308z M54.479,16.058h-0.938v-5.25h0.938V16.058z"/>
			<path fill="#727171" d="M60.557,13.433c0,0.813-0.25,1.469-0.75,1.969s-1.094,0.75-1.781,0.75s-1.281-0.25-1.781-0.75
				s-0.75-1.156-0.75-1.969s0.25-1.469,0.75-1.969s1.094-0.75,1.781-0.75s1.281,0.25,1.781,0.75S60.557,12.62,60.557,13.433z
				 M59.525,13.433c0-0.625-0.156-1.094-0.469-1.406s-0.656-0.469-1.031-0.469s-0.719,0.156-1.031,0.469s-0.469,0.781-0.469,1.406
				s0.156,1.094,0.469,1.406s0.656,0.469,1.031,0.469s0.719-0.156,1.031-0.469S59.525,14.058,59.525,13.433z"/>
			<path fill="#727171" d="M66.135,16.058h-0.938v-3.375c0-0.375-0.094-0.672-0.281-0.891s-0.438-0.328-0.75-0.328
				c-0.406,0-0.789,0.211-1.148,0.633s-0.539,0.945-0.539,1.57v2.391h-0.938v-5.25h0.938v0.984c0.25-0.344,0.523-0.609,0.82-0.797
				s0.68-0.281,1.148-0.281c0.563,0,0.984,0.156,1.266,0.469s0.422,0.703,0.422,1.172V16.058z"/>
		</g>
	</g>
</g>
</svg>
