<?xml version="1.0" encoding="UTF-8" standalone="no"?>
<svg width="22px" height="22px" viewBox="0 0 22 22" version="1.1" xmlns="http://www.w3.org/2000/svg" xmlns:xlink="http://www.w3.org/1999/xlink">
    <!-- Generator: Sketch 3.8.3 (29802) - http://www.bohemiancoding.com/sketch -->
    <title>network_server_symbolic_normal_22px</title>
    <desc>Created with Sketch.</desc>
    <defs></defs>
    <g id="Page-1" stroke="none" stroke-width="1" fill="none" fill-rule="evenodd">
        <g id="network_server_symbolic_normal_22px">
            <rect id="Rectangle-1" opacity="0" x="0" y="0" width="22" height="22"></rect>
            <g id="Page-1" transform="translate(2.000000, 2.000000)">
                <path d="M17.4722,8.9722 C17.4722,13.6662 13.6662,17.4722 8.9722,17.4722 C4.2782,17.4722 0.4722,13.6662 0.4722,8.9722 C0.4722,4.2782 4.2782,0.4722 8.9722,0.4722 C13.6662,0.4722 17.4722,4.2782 17.4722,8.9722 L17.4722,8.9722 Z" id="Stroke-1" stroke="#2CA7F8" stroke-width="0.944"></path>
                <path d="M17.1966,11.1223 C7.1716,12.9643 2.6716,6.6013 1.5916,4.7493" id="Stroke-3" stroke="#2CA7F8"></path>
                <path d="M1.8102,13.5488 C2.2212,11.3958 4.2842,4.1378 13.6212,1.8568" id="Stroke-5" stroke="#2CA7F8"></path>
                <path d="M13.5357,16.1432 C14.3237,6.4222 7.5997,2.2082 5.5917,1.1732" id="Stroke-7" stroke="#2CA7F8"></path>
                <path d="M13.308,11.4479 C13.308,11.4479 8.832,13.7799 6.383,17.0689" id="Stroke-9" stroke="#2CA7F8"></path>
                <path d="M10.4526,3.6628 C10.4526,4.4908 9.7806,5.1628 8.9526,5.1628 C8.1246,5.1628 7.4526,4.4908 7.4526,3.6628 C7.4526,2.8348 8.1246,2.1628 8.9526,2.1628 C9.7806,2.1628 10.4526,2.8348 10.4526,3.6628" id="Fill-11" fill="#2CA7F8"></path>
                <path d="M5.793,7.856 C5.793,8.684 5.121,9.356 4.293,9.356 C3.465,9.356 2.793,8.684 2.793,7.856 C2.793,7.028 3.465,6.356 4.293,6.356 C5.121,6.356 5.793,7.028 5.793,7.856" id="Fill-13" fill="#2CA7F8"></path>
                <path d="M14.808,11.4533 C14.808,12.2813 14.136,12.9533 13.308,12.9533 C12.48,12.9533 11.808,12.2813 11.808,11.4533 C11.808,10.6253 12.48,9.9533 13.308,9.9533 C14.136,9.9533 14.808,10.6253 14.808,11.4533" id="Fill-15" fill="#2CA7F8"></path>
            </g>
        </g>
    </g>
</svg>