<?xml version="1.0" encoding="UTF-8"?>
<svg width="16px" height="16px" viewBox="0 0 16 16" version="1.1" xmlns="http://www.w3.org/2000/svg" xmlns:xlink="http://www.w3.org/1999/xlink">
    <!-- Generator: Sketch 40.3 (33839) - http://www.bohemiancoding.com/sketch -->
    <title>media-optical-symbolic-active-16px</title>
    <desc>Created with Sketch.</desc>
    <defs></defs>
    <g id="Page-1" stroke="none" stroke-width="1" fill="none" fill-rule="evenodd">
        <g id="media-optical-symbolic-active-16px">
            <rect id="Rectangle-1" fill-opacity="0.5" fill="#A1A1A1" opacity="0" x="0" y="0" width="16" height="16"></rect>
            <path d="M8,15 C11.8659932,15 15,11.8659932 15,8 C15,4.13400675 11.8659932,1 8,1 C4.13400675,1 1,4.13400675 1,8 C1,11.8659932 4.13400675,15 8,15 Z M8,3 C5.23857625,3 3,5.23857625 3,8 C3,8.27614237 3.22385763,8.5 3.5,8.5 C3.77614237,8.5 4,8.27614237 4,8 C4,5.790861 5.790861,4 8,4 C8.27614237,4 8.5,3.77614237 8.5,3.5 C8.5,3.22385763 8.27614237,3 8,3 Z M8,11 C9.65685425,11 11,9.65685425 11,8 C11,6.34314575 9.65685425,5 8,5 C6.34314575,5 5,6.34314575 5,8 C5,9.65685425 6.34314575,11 8,11 Z M8,10 C9.1045695,10 10,9.1045695 10,8 C10,6.8954305 9.1045695,6 8,6 C6.8954305,6 6,6.8954305 6,8 C6,9.1045695 6.8954305,10 8,10 Z M8,9 C7.44771525,9 7,8.55228475 7,8 C7,7.44771525 7.44771525,7 8,7 C8.55228475,7 9,7.44771525 9,8 C9,8.55228475 8.55228475,9 8,9 Z" id="Combined-Shape" fill="#2CA7F8"></path>
        </g>
    </g>
</svg>