<?xml version="1.0" encoding="UTF-8"?>
<svg width="16px" height="16px" viewBox="0 0 16 16" version="1.1" xmlns="http://www.w3.org/2000/svg" xmlns:xlink="http://www.w3.org/1999/xlink">
    <!-- Generator: Sketch 40.3 (33839) - http://www.bohemiancoding.com/sketch -->
    <title>home-active-16px</title>
    <desc>Created with Sketch.</desc>
    <defs></defs>
    <g id="Page-1" stroke="none" stroke-width="1" fill="none" fill-rule="evenodd">
        <g id="home-active-16px">
            <rect id="Rectangle-1" fill-opacity="0.5" fill="#A1A1A1" opacity="0" x="0" y="0" width="16" height="16"></rect>
            <g id="home_active_16px" transform="translate(0.000000, 1.000000)" fill="#2CA7F8">
                <path d="M2.0010066,8 L2.00100657,13.5 C2.00100657,13.7761424 2.2248642,14 2.50100657,14 L13.5010066,14 C13.7771489,14 14.0010066,13.7761424 14.0010066,13.5 L14.0010061,8 L15.5010066,8 C15.954817,8 16.1739262,7.44411553 15.8421657,7.13447237 L8.3421657,0.134472366 C8.15006232,-0.044824122 7.85195083,-0.044824122 7.65984745,0.134472366 L0.159847448,7.13447237 C-0.171913085,7.44411553 0.0471961051,8 0.501006573,8 L2.0010066,8 Z M7.60420015,6.41092894 L8.00021429,6.78300452 L8.39622844,6.41092894 C8.9791064,5.86302369 9.92499732,5.86302369 10.5078753,6.41092894 C11.1640416,7.02758276 11.1640416,8.02672861 10.5078753,8.64338243 L8.00021429,11 L5.49212472,8.64338243 C4.83595843,8.02672861 4.83595843,7.02758276 5.49212472,6.41092894 C6.07543127,5.86302369 7.0208936,5.86302369 7.60420015,6.41092894 Z" id="Combined-Shape"></path>
            </g>
        </g>
    </g>
</svg>