<?xml version="1.0" encoding="UTF-8" standalone="no"?>
<svg width="48px" height="48px" viewBox="0 0 48 48" version="1.1" xmlns="http://www.w3.org/2000/svg" xmlns:xlink="http://www.w3.org/1999/xlink">
    <!-- Generator: Sketch 3.8.3 (29802) - http://www.bohemiancoding.com/sketch -->
    <title>drive-optical</title>
    <desc>Created with Sketch.</desc>
    <defs>
        <filter x="-50%" y="-50%" width="200%" height="200%" filterUnits="objectBoundingBox" id="filter-1">
            <feOffset dx="0" dy="1" in="SourceAlpha" result="shadowOffsetOuter1"></feOffset>
            <feGaussianBlur stdDeviation="1" in="shadowOffsetOuter1" result="shadowBlurOuter1"></feGaussianBlur>
            <feColorMatrix values="0 0 0 0 0   0 0 0 0 0   0 0 0 0 0  0 0 0 0.3 0" type="matrix" in="shadowBlurOuter1" result="shadowMatrixOuter1"></feColorMatrix>
            <feMerge>
                <feMergeNode in="shadowMatrixOuter1"></feMergeNode>
                <feMergeNode in="SourceGraphic"></feMergeNode>
            </feMerge>
        </filter>
        <linearGradient x1="50%" y1="0.410554847%" x2="50%" y2="100%" id="linearGradient-2">
            <stop stop-color="#9DDA00" offset="0%"></stop>
            <stop stop-color="#73C300" offset="100%"></stop>
        </linearGradient>
    </defs>
    <g id="Page-1" stroke="none" stroke-width="1" fill="none" fill-rule="evenodd">
        <g id="drive-optical">
            <g id="Group-3" filter="url(#filter-1)" transform="translate(7.000000, 4.000000)">
                <rect id="Rectangle-1" fill="url(#linearGradient-2)" x="0" y="0" width="34" height="35" rx="1"></rect>
                <g id="Group" transform="translate(9.000000, 7.000000)">
                    <path d="M8.001,1.173 C9,1.173 9.946,1.393 10.801,1.779 L10.814,1.75 C9.952,1.359 8.999,1.135 7.993,1.135 C4.212,1.135 1.137,4.212 1.137,7.996 C1.137,9.002 1.36,9.956 1.751,10.818 L1.787,10.802 C1.4,9.946 1.179,8.998 1.179,7.997 C1.178,4.228 4.233,1.173 8.001,1.173 L8.001,1.173 Z" id="Shape"></path>
                    <path d="M14.214,5.187 C14.603,6.045 14.824,6.994 14.824,7.997 C14.824,11.765 11.769,14.82 8.001,14.82 C6.996,14.82 6.045,14.597 5.186,14.207 L5.17,14.242 C6.032,14.633 6.986,14.857 7.992,14.857 C11.773,14.857 14.848,11.78 14.848,7.996 C14.848,6.99 14.625,6.038 14.235,5.176 L14.214,5.187 L14.214,5.187 Z" id="Shape"></path>
                    <circle id="Oval" fill="#FFFFFF" cx="7.993" cy="7.996" r="1.144"></circle>
                    <path d="M11.602,6.533 L14.619,5.004 C13.89,3.395 12.594,2.101 10.984,1.374 L9.478,4.341 C10.43,4.791 11.606,6.543 11.602,6.533 L11.602,6.533 Z" id="Shape" fill="#FFFFFF" opacity="0.5"></path>
                    <path d="M4.504,9.392 L1.381,10.985 C2.107,12.591 3.398,13.883 5.003,14.612 L6.617,11.575 C5.679,11.131 4.925,10.357 4.504,9.392 L4.504,9.392 Z" id="Shape" fill="#FFFFFF" opacity="0.5"></path>
                    <path id="Shape" fill="#FFFFFF"></path>
                    <circle id="Oval" stroke="#FFFFFF" cx="8.004" cy="7.997" r="7.5"></circle>
                    <circle id="Oval" stroke="#FFFFFF" cx="8.004" cy="7.997" r="3.5"></circle>
                </g>
                <rect id="Rectangle-3" fill="#FFFFFF" x="0" y="30" width="34" height="6"></rect>
                <rect id="Rectangle-1" fill="#DCDDDD" x="0" y="34" width="34" height="6" rx="1"></rect>
            </g>
            <polygon id="Rectangle-path" fill="#75C500" transform="translate(24.063602, 41.423681) rotate(-0.166157) translate(-24.063602, -41.423681) " points="9.00103866 41.0436797 39.1261653 41.0436797 39.1261653 41.8036828 9.00103866 41.8036828"></polygon>
        </g>
    </g>
</svg>