<?xml version="1.0" encoding="UTF-8" standalone="no"?>
<svg width="48px" height="48px" viewBox="0 0 48 48" version="1.1" xmlns="http://www.w3.org/2000/svg" xmlns:xlink="http://www.w3.org/1999/xlink">
    <!-- Generator: Sketch 3.8.3 (29802) - http://www.bohemiancoding.com/sketch -->
    <title>media-flash</title>
    <desc>Created with Sketch.</desc>
    <defs>
        <path d="M0,23 L0,6 L0,1.99791312 C0,0.894496173 0.897026226,0 2.00494659,0 L21.9950534,0 C23.1023548,0 24.6277466,0.627746582 25.4118241,1.41182411 L32,8 L32,11 L30,12 L30,16 L32,17 L32,37.008845 C32,38.1085295 31.1107383,39 29.9982567,39 L2.00174332,39 C0.89621101,39 0,38.1054862 0,37.0059397 L0,23 Z" id="path-1"></path>
        <filter x="-50%" y="-50%" width="200%" height="200%" filterUnits="objectBoundingBox" id="filter-2">
            <feOffset dx="0" dy="1" in="SourceAlpha" result="shadowOffsetOuter1"></feOffset>
            <feGaussianBlur stdDeviation="1" in="shadowOffsetOuter1" result="shadowBlurOuter1"></feGaussianBlur>
            <feColorMatrix values="0 0 0 0 0   0 0 0 0 0   0 0 0 0 0  0 0 0 0.3 0" type="matrix" in="shadowBlurOuter1"></feColorMatrix>
        </filter>
    </defs>
    <g id="Page-1" stroke="none" stroke-width="1" fill="none" fill-rule="evenodd">
        <g id="media-flash">
            <g id="Group" transform="translate(8.000000, 5.000000)">
                <g id="Rectangle-91">
                    <use fill="black" fill-opacity="1" filter="url(#filter-2)" xlink:href="#path-1"></use>
                    <use fill="#493F6C" fill-rule="evenodd" xlink:href="#path-1"></use>
                </g>
                <rect id="Rectangle-95" fill="#F5B600" x="3" y="3" width="3" height="8.25"></rect>
                <rect id="Rectangle-95" fill="#F5B600" x="8" y="3" width="3" height="8.25"></rect>
                <rect id="Rectangle-95" fill="#F5B600" x="13" y="3" width="3" height="8.25"></rect>
                <rect id="Rectangle-95" fill="#F5B600" x="18" y="3" width="3" height="8.25"></rect>
                <rect id="Rectangle-96" fill="#FFFFFF" x="3" y="15" width="23" height="21"></rect>
                <rect id="Rectangle-96" fill="#8784F4" x="3" y="14" width="23" height="5"></rect>
                <text id="SD" font-family="Baskerville-Bold, Baskerville" font-size="12" font-weight="bold" fill="#8784F4">
                    <tspan x="8" y="34">SD</tspan>
                </text>
            </g>
        </g>
    </g>
</svg>