<?xml version="1.0" encoding="UTF-8" standalone="no"?>
<svg width="16px" height="16px" viewBox="0 0 16 16" version="1.1" xmlns="http://www.w3.org/2000/svg" xmlns:xlink="http://www.w3.org/1999/xlink">
    <!-- Generator: Sketch 3.6.1 (26313) - http://www.bohemiancoding.com/sketch -->
    <title>file_active_16px</title>
    <desc>Created with Sketch.</desc>
    <defs></defs>
    <g id="Page-1" stroke="none" stroke-width="1" fill="none" fill-rule="evenodd">
        <g id="file_active_16px">
            <rect id="Rectangle-1" opacity="0" x="0" y="0" width="16" height="16"></rect>
            <g transform="translate(1.500000, 3.000000)" id="Line" fill="#FFFFFF">
                <path d="M0.5,1 L13.5,1 C13.7761424,1 14,0.776142375 14,0.5 C14,0.223857625 13.7761424,0 13.5,0 L0.5,0 C0.223857625,0 0,0.223857625 0,0.5 C0,0.776142375 0.223857625,1 0.5,1 L0.5,1 Z"></path>
                <path d="M0.5,6 L13.5,6 C13.7761424,6 14,5.77614237 14,5.5 C14,5.22385763 13.7761424,5 13.5,5 L0.5,5 C0.223857625,5 0,5.22385763 0,5.5 C0,5.77614237 0.223857625,6 0.5,6 L0.5,6 Z"></path>
                <path d="M0.5,11 L13.5,11 C13.7761424,11 14,10.7761424 14,10.5 C14,10.2238576 13.7761424,10 13.5,10 L0.5,10 C0.223857625,10 0,10.2238576 0,10.5 C0,10.7761424 0.223857625,11 0.5,11 L0.5,11 Z"></path>
            </g>
        </g>
    </g>
</svg>