<?xml version="1.0" encoding="UTF-8" standalone="no"?>
<svg width="16px" height="16px" viewBox="0 0 16 16" version="1.1" xmlns="http://www.w3.org/2000/svg" xmlns:xlink="http://www.w3.org/1999/xlink">
    <!-- Generator: Sketch 3.6.1 (26313) - http://www.bohemiancoding.com/sketch -->
    <title>icon_view_normal</title>
    <desc>Created with Sketch.</desc>
    <defs></defs>
    <g id="Page-1" stroke="none" stroke-width="1" fill="none" fill-rule="evenodd">
        <g id="icon_view_normal">
            <rect id="Rectangle-1" opacity="0" x="0" y="0" width="16" height="16"></rect>
            <path d="M9,12 L9,13 L10,13 L12,13 L13,13 L13,12 L13,10 L13,9 L12,9 L10,9 L9,9 L9,10 L9,12 Z M10,12 L12,12 L12,10 L10,10 L10,12 Z M3,12 L3,13 L4,13 L6,13 L7,13 L7,12 L7,10 L7,9 L6,9 L4,9 L3,9 L3,10 L3,12 Z M4,12 L6,12 L6,10 L4,10 L4,12 Z M9,6 L9,7 L10,7 L12,7 L13,7 L13,6 L13,4 L13,3 L12,3 L10,3 L9,3 L9,4 L9,6 Z M10,6 L12,6 L12,4 L10,4 L10,6 Z M3,6 L3,7 L4,7 L6,7 L7,7 L7,6 L7,4 L7,3 L6,3 L4,3 L3,3 L3,4 L3,6 Z M4,6 L6,6 L6,4 L4,4 L4,6 Z" id="图标视图-2" fill="#303030"></path>
        </g>
    </g>
</svg>