<?xml version="1.0" encoding="UTF-8" standalone="no"?>
<svg width="16px" height="16px" viewBox="0 0 16 16" version="1.1" xmlns="http://www.w3.org/2000/svg" xmlns:xlink="http://www.w3.org/1999/xlink">
    <!-- Generator: Sketch 3.8.3 (29802) - http://www.bohemiancoding.com/sketch -->
    <title>iphone_active_16px</title>
    <desc>Created with Sketch.</desc>
    <defs></defs>
    <g id="Page-1" stroke="none" stroke-width="1" fill="none" fill-rule="evenodd">
        <g id="iphone_active_16px">
            <rect id="Rectangle-1" opacity="0" x="0" y="0" width="16" height="16"></rect>
            <path d="M11.3780692,3 C11.7216374,3 12,3.22295086 12,3.49850233 L12,11.5014977 C12,11.7766635 11.7211829,12 11.3780692,12 L4.62193081,12 C4.27836257,12 4,11.7770491 4,11.5014977 L4,3.49850233 C4,3.22333648 4.27881707,3 4.62193081,3 L11.3780692,3 Z M7.5,14 L8.5,14 C8.77614237,14 9,13.7761424 9,13.5 C9,13.2238576 8.77614237,13 8.5,13 L7.5,13 C7.22385763,13 7,13.2238576 7,13.5 C7,13.7761424 7.22385763,14 7.5,14 Z M3,2.49850233 L3,13.5014977 C3,14.329072 3.80417173,15 4.79705358,15 L11.2029464,15 C12.195418,15 13,14.3286648 13,13.5014977 L13,2.49850233 C13,1.67092796 12.1958283,1 11.2029464,1 L4.79705358,1 C3.80458205,1 3,1.6713352 3,2.49850233 L3,2.49850233 L3,2.49850233 Z" id="Combined-Shape" fill="#FFFFFF"></path>
            <rect id="Rectangle" fill="#FFFFFF" x="5" y="4" width="6" height="7"></rect>
        </g>
    </g>
</svg>