<?xml version="1.0" standalone="no"?><!DOCTYPE svg PUBLIC "-//W3C//DTD SVG 1.1//EN" "http://www.w3.org/Graphics/SVG/1.1/DTD/svg11.dtd"><svg t="1589438622187" class="icon" viewBox="0 0 1024 1024" version="1.1" xmlns="http://www.w3.org/2000/svg" p-id="1362" width="32" height="32" xmlns:xlink="http://www.w3.org/1999/xlink"><defs><style type="text/css"></style></defs><path d="M617 746H407.2c-10.9 0-20-8.2-21.2-19-6.5-57.6-30.9-82.7-71.4-124.3l-16.9-17.5c-52.4-55-81.5-127-81.8-202.8-0.5-159 128.1-292.2 286.9-297l8.8-0.1c163.5 0 296.3 132.8 296.3 296 0 71.8-26.1 140.9-73.4 194.7v0.1c-9.6 10.8-19.4 21.5-29.3 32-34.9 37.1-60.2 64-67.1 119.1C636.8 738 627.7 746 617 746z m-191.4-42.7h173.3c12-57.1 42.8-89.9 75.3-124.4 9.7-10.2 19.1-20.5 28.4-31 40.5-46 62.8-105.2 62.8-166.6C765.3 241.6 651.7 128 512 128l-8.2 0.1c-135.5 4.1-245.6 118.1-245.1 254.1 0.3 64.8 25.1 126.4 69.9 173.4l16.7 17.3c38 39.2 68.8 70.9 80.3 130.4z m293-141.3h0.4-0.4zM607.9 842.3H416.1c-11.8 0-21.3-9.5-21.3-21.3s9.5-21.3 21.3-21.3h191.8c11.8 0 21.3 9.5 21.3 21.3s-9.5 21.3-21.3 21.3zM584.9 938.7H439.1c-11.8 0-21.3-9.5-21.3-21.3s9.5-21.3 21.3-21.3h145.8c11.8 0 21.3 9.5 21.3 21.3 0 11.7-9.5 21.3-21.3 21.3z" fill="#2c2c2c" p-id="1363"></path><path d="M358.3 355.6c-2.2 0-4.4-0.3-6.6-1-11.2-3.6-17.3-15.7-13.7-26.9 24.4-75.3 94-127.4 173.1-129.6 10.8-0.5 21.6 9 21.9 20.8 0.3 11.8-9 21.6-20.8 21.9-61.1 1.7-114.9 41.9-133.7 100.1-2.8 9-11.2 14.7-20.2 14.7z" fill="#2c2c2c" p-id="1364"></path></svg>