<?xml version="1.0" encoding="UTF-8" standalone="no"?>
<svg width="16px" height="16px" viewBox="0 0 16 16" version="1.1" xmlns="http://www.w3.org/2000/svg" xmlns:xlink="http://www.w3.org/1999/xlink">
    <!-- Generator: Sketch 3.6.1 (26313) - http://www.bohemiancoding.com/sketch -->
    <title>list_view_active</title>
    <desc>Created with Sketch.</desc>
    <defs></defs>
    <g id="Page-1" stroke="none" stroke-width="1" fill="none" fill-rule="evenodd">
        <g id="list_view_active">
            <rect id="Rectangle-1" opacity="0" x="0" y="0" width="16" height="16"></rect>
            <path d="M13.5,13 L14,13 L14,12 L13.5,12 L2.5,12 L2,12 L2,13 L2.5,13 L13.5,13 Z M13.5,10 L14,10 L14,9 L13.5,9 L2.5,9 L2,9 L2,10 L2.5,10 L13.5,10 Z M13.5,7 L14,7 L14,6 L13.5,6 L2.5,6 L2,6 L2,7 L2.5,7 L13.5,7 Z M13.5,4 L14,4 L14,3 L13.5,3 L2.5,3 L2,3 L2,4 L2.5,4 L13.5,4 Z" id="列表视图-2" fill="#FFFFFF"></path>
        </g>
    </g>
</svg>