<?xml version="1.0" encoding="UTF-8" standalone="no"?>
<svg width="16px" height="16px" viewBox="0 0 16 16" version="1.1" xmlns="http://www.w3.org/2000/svg" xmlns:xlink="http://www.w3.org/1999/xlink">
    <!-- Generator: Sketch 3.6.1 (26313) - http://www.bohemiancoding.com/sketch -->
    <title>phone_active_16px</title>
    <desc>Created with Sketch.</desc>
    <defs></defs>
    <g id="Page-1" stroke="none" stroke-width="1" fill="none" fill-rule="evenodd">
        <g id="phone_active_16px">
            <rect id="Rectangle-1" opacity="0" x="0" y="0" width="16" height="16"></rect>
            <g id="手机" transform="translate(3.000000, 1.000000)" fill="#FFFFFF">
                <path d="M1.49754465,0 C0.670485038,0 0,0.671335195 0,1.49850233 L0,12.5014977 C0,13.329072 0.670143112,14 1.49754465,14 L8.50245535,14 C9.32951496,14 10,13.3286648 10,12.5014977 L10,1.49850233 C10,0.670927965 9.32985689,0 8.50245535,0 L1.49754465,0 L1.49754465,0 Z M1.49754465,1 L8.50245535,1 C8.77730995,1 9,1.22295086 9,1.49850233 L9,12.5014977 C9,12.7766635 8.77694635,13 8.50245535,13 L1.49754465,13 C1.22269005,13 1,12.7770491 1,12.5014977 L1,1.49850233 C1,1.22333648 1.22305365,1 1.49754465,1 L1.49754465,1 Z M2,2.5 L2,9.5 C2,9.77614237 2.22385763,10 2.5,10 L7.5,10 C7.77614237,10 8,9.77614237 8,9.5 L8,2.5 C8,2.22385763 7.77614237,2 7.5,2 L2.5,2 C2.22385763,2 2,2.22385763 2,2.5 L2,2.5 Z M4.5,12 L5.5,12 C5.77614237,12 6,11.7761424 6,11.5 C6,11.2238576 5.77614237,11 5.5,11 L4.5,11 C4.22385763,11 4,11.2238576 4,11.5 C4,11.7761424 4.22385763,12 4.5,12 L4.5,12 Z" id="Combined-Shape"></path>
            </g>
        </g>
    </g>
</svg>