<?xml version="1.0" encoding="UTF-8" standalone="no"?>
<svg width="16px" height="16px" viewBox="0 0 16 16" version="1.1" xmlns="http://www.w3.org/2000/svg" xmlns:xlink="http://www.w3.org/1999/xlink">
    <!-- Generator: Sketch 40.2 (33826) - http://www.bohemiancoding.com/sketch -->
    <title>share-active-16px</title>
    <desc>Created with Sketch.</desc>
    <defs></defs>
    <g id="Page-1" stroke="none" stroke-width="1" fill="none" fill-rule="evenodd">
        <g id="share-active-16px" fill="#FFFFFF">
            <g id="Group-2" transform="translate(1.000000, 1.000000)">
                <circle id="Oval-2" cx="2.55335586" cy="6.50376388" r="2.20000005"></circle>
                <circle id="Oval-2" cx="10.5246774" cy="2.50045084" r="2.20000005"></circle>
                <circle id="Oval-2" cx="10.5258163" cy="10.5014862" r="2.20000005"></circle>
                <path d="M4.12669697,4.57707841 C3.7562131,4.76232034 3.60604484,5.21282512 3.79128678,5.583309 C3.97652871,5.95379287 4.42703349,6.10396113 4.79751737,5.91871919 L8.79751737,3.91871919 C9.16800124,3.73347726 9.3181695,3.28297248 9.13292756,2.9124886 C8.94768563,2.54200473 8.49718085,2.39183647 8.12669697,2.57707841 L4.12669697,4.57707841 Z M8.19223293,10.4424892 C8.56271681,10.6277311 9.01322159,10.4775629 9.19846352,10.107079 C9.38370546,9.73659513 9.2335372,9.28609035 8.86305333,9.10084842 L4.53387372,6.93625861 C4.16338985,6.75101668 3.71288507,6.90118494 3.52764313,7.27166881 C3.34240119,7.64215268 3.49256945,8.09265746 3.86305333,8.2778994 L8.19223293,10.4424892 Z" id="Path-2"></path>
            </g>
        </g>
    </g>
</svg>