<?xml version="1.0" encoding="UTF-8"?>
<svg width="16px" height="16px" viewBox="0 0 16 16" version="1.1" xmlns="http://www.w3.org/2000/svg" xmlns:xlink="http://www.w3.org/1999/xlink">
    <title>icon/more</title>
    <g id="桌面新规则" stroke="none" stroke-width="1" fill="none" fill-rule="evenodd" fill-opacity="1.0">
        <g id="自动排列-中-拖入集合" transform="translate(-375.000000, -266.000000)" fill="#FFFFFF" fill-rule="nonzero">
            <g id="编组-3" transform="translate(18.000000, 262.000000)">
                <g id="icon/more" transform="translate(357.000000, 4.000000)">
                    <path d="M8,0 C12.418278,0 16,3.581722 16,8 C16,12.418278 12.418278,16 8,16 C3.581722,16 0,12.418278 0,8 C0,3.581722 3.581722,0 8,0 Z M8,1 C4.13400675,1 1,4.13400675 1,8 C1,11.8659932 4.13400675,15 8,15 C11.8659932,15 15,11.8659932 15,8 C15,4.13400675 11.8659932,1 8,1 Z M4.5,7 C5.05228475,7 5.5,7.44771525 5.5,8 C5.5,8.55228475 5.05228475,9 4.5,9 C3.94771525,9 3.5,8.55228475 3.5,8 C3.5,7.44771525 3.94771525,7 4.5,7 Z M8,7 C8.55228475,7 9,7.44771525 9,8 C9,8.55228475 8.55228475,9 8,9 C7.44771525,9 7,8.55228475 7,8 C7,7.44771525 7.44771525,7 8,7 Z M11.5,7 C12.0522847,7 12.5,7.44771525 12.5,8 C12.5,8.55228475 12.0522847,9 11.5,9 C10.9477153,9 10.5,8.55228475 10.5,8 C10.5,7.44771525 10.9477153,7 11.5,7 Z" id="形状结合"></path>
                </g>
            </g>
        </g>
    </g>
</svg>