<?xml version="1.0" encoding="UTF-8" standalone="no"?>
<svg width="64px" height="64px" viewBox="0 0 64 64" version="1.1" xmlns="http://www.w3.org/2000/svg" xmlns:xlink="http://www.w3.org/1999/xlink">
    <!-- Generator: Sketch 3.8.3 (29802) - http://www.bohemiancoding.com/sketch -->
    <title>主界面-64px</title>
    <desc>Created with Sketch.</desc>
    <defs></defs>
    <g id="Page-1" stroke="none" stroke-width="1" fill="none" fill-rule="evenodd">
        <g id="主界面-64px" fill="#B5B5B6">
            <path d="M6,15.9972916 C6,14.8942179 6.90255737,14 8.00659927,14 L55.9934007,14 C57.1016149,14 58,14.8915398 58,15.9972916 L58,52.0027084 C58,53.1057821 57.0974426,54 55.9934007,54 L8.00659927,54 C6.89838509,54 6,53.1084602 6,52.0027084 L6,15.9972916 L6,15.9972916 L6,15.9972916 Z M57,22 L57,20 L7,20 L7,22 L18,22 L18,53 L20,53 L20,22 L57,22 Z M23,16 L46,16 L46,18 L23,18 L23,16 L23,16 Z M56,18 C56.5522847,18 57,17.5522847 57,17 C57,16.4477153 56.5522847,16 56,16 C55.4477153,16 55,16.4477153 55,17 C55,17.5522847 55.4477153,18 56,18 L56,18 Z M53,18 C53.5522847,18 54,17.5522847 54,17 C54,16.4477153 53.5522847,16 53,16 C52.4477153,16 52,16.4477153 52,17 C52,17.5522847 52.4477153,18 53,18 L53,18 Z M50,18 C50.5522847,18 51,17.5522847 51,17 C51,16.4477153 50.5522847,16 50,16 C49.4477153,16 49,16.4477153 49,17 C49,17.5522847 49.4477153,18 50,18 L50,18 Z" id="Combined-Shape"></path>
        </g>
    </g>
</svg>