<svg xmlns="http://www.w3.org/2000/svg" width="32" height="32" viewBox="0 0 32 32">
  <defs>
    <filter id="safebox6-a" width="128.6%" height="128.6%" x="-14.3%" y="-14.3%" filterUnits="objectBoundingBox">
      <feOffset dy="1" in="SourceAlpha" result="shadowOffsetOuter1"/>
      <feGaussianBlur in="shadowOffsetOuter1" result="shadowBlurOuter1" stdDeviation=".5"/>
      <feColorMatrix in="shadowBlurOuter1" result="shadowMatrixOuter1" values="0 0 0 0 0   0 0 0 0 0   0 0 0 0 0  0 0 0 0.15 0"/>
      <feMerge>
        <feMergeNode in="shadowMatrixOuter1"/>
        <feMergeNode in="SourceGraphic"/>
      </feMerge>
    </filter>
    <linearGradient id="safebox6-b" x1="50%" x2="50%" y1="0%" y2="100%">
      <stop offset="0%" stop-color="#B4B3B9"/>
      <stop offset="100%" stop-color="#5D5D65"/>
    </linearGradient>
    <linearGradient id="safebox6-c" x1="50%" x2="50%" y1="0%" y2="100%">
      <stop offset="0%" stop-color="#292929" stop-opacity=".8"/>
      <stop offset="100%" stop-color="#161616" stop-opacity=".8"/>
    </linearGradient>
    <linearGradient id="safebox6-d" x1="49.603%" x2="50.413%" y1="32.418%" y2="35.319%">
      <stop offset="0%" stop-color="#5B5B5B"/>
      <stop offset="100%" stop-color="#404040"/>
    </linearGradient>
    <linearGradient id="safebox6-e" x1="50%" x2="50%" y1="0%" y2="100%">
      <stop offset="0%" stop-color="#030303"/>
      <stop offset="100%" stop-color="#414141"/>
    </linearGradient>
    <linearGradient id="safebox6-f" x1="50%" x2="50%" y1="0%" y2="100%">
      <stop offset="0%"/>
      <stop offset="100%" stop-color="#ABABBB"/>
    </linearGradient>
    <linearGradient id="safebox6-g" x1="50%" x2="50%" y1="0%" y2="100%">
      <stop offset="0%" stop-color="#DCDBE3"/>
      <stop offset="100%" stop-color="#ACACB4"/>
    </linearGradient>
  </defs>
  <g fill="none" fill-rule="evenodd" filter="url(#safebox6-a)" transform="translate(2 2)">
    <rect width="28" height="28" fill="url(#safebox6-b)" rx="7"/>
    <path fill="url(#safebox6-c)" fill-rule="nonzero" d="M20.7708333,1 C24.2111071,1 27,3.78889291 27,7.22916667 L27,20.7708333 C27,24.2111071 24.2111071,27 20.7708333,27 L7.22916667,27 C3.78889291,27 1,24.2111071 1,20.7708333 L1,7.22916667 C1,3.78889291 3.78889291,1 7.22916667,1 L20.7708333,1 Z M20.8181818,2 L7.18181818,2 C4.39947456,2 2.12930583,4.19288141 2.00533221,6.944624 L2,7.18181818 L2,20.8181818 C2,23.6005254 4.19288141,25.8706942 6.944624,25.9946678 L7.18181818,26 L20.8181818,26 C23.6005254,26 25.8706942,23.8071186 25.9946678,21.055376 L26,20.8181818 L26,7.18181818 C26,4.39947456 23.8071186,2.12930583 21.055376,2.00533221 L20.8181818,2 Z"/>
    <rect width="1" height="11" x="24" y="8.5" fill="url(#safebox6-d)" rx=".5"/>
    <g transform="translate(5.75 5.75)">
      <circle cx="8.25" cy="8.25" r="8.5" fill="url(#safebox6-e)" stroke="url(#safebox6-f)"/>
      <path fill="#FFF" fill-opacity=".4" d="M8.35,13.65 L8.35,14.25 L8.15,14.25 L8.15,13.65 L8.35,13.65 Z M9.28618093,13.550597 L9.39036984,14.1414817 L9.19340829,14.1762113 L9.08921938,13.5853267 L9.28618093,13.550597 Z M7.21381907,13.550597 L7.41078062,13.5853267 L7.30659171,14.1762113 L7.10963016,14.1414817 L7.21381907,13.550597 Z M10.190878,13.2901381 L10.3960901,13.8539537 L10.2081516,13.9223577 L10.0029395,13.3585422 L10.190878,13.2901381 Z M6.30912196,13.2901381 L6.49706049,13.3585422 L6.2918484,13.9223577 L6.10390988,13.8539537 L6.30912196,13.2901381 Z M11.0366025,12.8765372 L11.3366025,13.3961524 L11.1633975,13.4961524 L10.8633975,12.9765372 L11.0366025,12.8765372 Z M5.46339746,12.8765372 L5.63660254,12.9765372 L5.33660254,13.4961524 L5.16339746,13.3961524 L5.46339746,12.8765372 Z M11.7976575,12.3223612 L12.1833301,12.7819879 L12.0301212,12.9105454 L11.6444486,12.4509188 L11.7976575,12.3223612 Z M4.70234246,12.3223612 L4.85555135,12.4509188 L4.46987879,12.9105454 L4.3166699,12.7819879 L4.70234246,12.3223612 Z M12.4509188,11.6444486 L12.9105454,12.0301212 L12.7819879,12.1833301 L12.3223612,11.7976575 L12.4509188,11.6444486 Z M4.04908125,11.6444486 L4.17763877,11.7976575 L3.7180121,12.1833301 L3.58945458,12.0301212 L4.04908125,11.6444486 Z M12.9765372,10.8633975 L13.4961524,11.1633975 L13.3961524,11.3366025 L12.8765372,11.0366025 L12.9765372,10.8633975 Z M3.52346282,10.8633975 L3.62346282,11.0366025 L3.10384758,11.3366025 L3.00384758,11.1633975 L3.52346282,10.8633975 Z M13.3585422,10.0029395 L13.9223577,10.2081516 L13.8539537,10.3960901 L13.2901381,10.190878 L13.3585422,10.0029395 Z M3.14145783,10.0029395 L3.20986186,10.190878 L2.64604629,10.3960901 L2.57764226,10.2081516 L3.14145783,10.0029395 Z M13.5853267,9.08921938 L14.1762113,9.19340829 L14.1414817,9.39036984 L13.550597,9.28618093 L13.5853267,9.08921938 Z M2.91467332,9.08921938 L2.94940295,9.28618093 L2.3585183,9.39036984 L2.32378866,9.19340829 L2.91467332,9.08921938 Z M14.25,8.15 L14.25,8.35 L13.65,8.35 L13.65,8.15 L14.25,8.15 Z M2.85,8.15 L2.85,8.35 L2.25,8.35 L2.25,8.15 L2.85,8.15 Z M14.1414817,7.10963016 L14.1762113,7.30659171 L13.5853267,7.41078062 L13.550597,7.21381907 L14.1414817,7.10963016 Z M2.3585183,7.10963016 L2.94940295,7.21381907 L2.91467332,7.41078062 L2.32378866,7.30659171 L2.3585183,7.10963016 Z M13.8539537,6.10390988 L13.9223577,6.2918484 L13.3585422,6.49706049 L13.2901381,6.30912196 L13.8539537,6.10390988 Z M2.64604629,6.10390988 L3.20986186,6.30912196 L3.14145783,6.49706049 L2.57764226,6.2918484 L2.64604629,6.10390988 Z M13.3961524,5.16339746 L13.4961524,5.33660254 L12.9765372,5.63660254 L12.8765372,5.46339746 L13.3961524,5.16339746 Z M3.10384758,5.16339746 L3.62346282,5.46339746 L3.52346282,5.63660254 L3.00384758,5.33660254 L3.10384758,5.16339746 Z M12.7819879,4.3166699 L12.9105454,4.46987879 L12.4509188,4.85555135 L12.3223612,4.70234246 L12.7819879,4.3166699 Z M3.7180121,4.3166699 L4.17763877,4.70234246 L4.04908125,4.85555135 L3.58945458,4.46987879 L3.7180121,4.3166699 Z M12.0301212,3.58945458 L12.1833301,3.7180121 L11.7976575,4.17763877 L11.6444486,4.04908125 L12.0301212,3.58945458 Z M4.46987879,3.58945458 L4.85555135,4.04908125 L4.70234246,4.17763877 L4.3166699,3.7180121 L4.46987879,3.58945458 Z M11.1633975,3.00384758 L11.3366025,3.10384758 L11.0366025,3.62346282 L10.8633975,3.52346282 L11.1633975,3.00384758 Z M5.33660254,3.00384758 L5.63660254,3.52346282 L5.46339746,3.62346282 L5.16339746,3.10384758 L5.33660254,3.00384758 Z M10.2081516,2.57764226 L10.3960901,2.64604629 L10.190878,3.20986186 L10.0029395,3.14145783 L10.2081516,2.57764226 Z M6.2918484,2.57764226 L6.49706049,3.14145783 L6.30912196,3.20986186 L6.10390988,2.64604629 L6.2918484,2.57764226 Z M9.19340829,2.32378866 L9.39036984,2.3585183 L9.28618093,2.94940295 L9.08921938,2.91467332 L9.19340829,2.32378866 Z M7.30659171,2.32378866 L7.41078062,2.91467332 L7.21381907,2.94940295 L7.10963016,2.3585183 L7.30659171,2.32378866 Z M8.35,2.25 L8.35,2.85 L8.15,2.85 L8.15,2.25 L8.35,2.25 Z"/>
      <circle cx="8.25" cy="8.25" r="4.5" fill="url(#safebox6-g)"/>
      <circle cx="8.25" cy="8.25" r="2" fill="url(#safebox6-e)"/>
      <circle cx="8.25" cy="8.25" r="1" fill="url(#safebox6-g)"/>
    </g>
  </g>
</svg>
