<svg xmlns="http://www.w3.org/2000/svg" xmlns:xlink="http://www.w3.org/1999/xlink" width="256" height="256" viewBox="0 0 256 256">
  <defs>
    <filter id="safebox1-a" width="126%" height="126%" x="-13%" y="-13%" filterUnits="objectBoundingBox">
      <feOffset dy="4" in="SourceAlpha" result="shadowOffsetOuter1"/>
      <feGaussianBlur in="shadowOffsetOuter1" result="shadowBlurOuter1" stdDeviation="5"/>
      <feColorMatrix in="shadowBlurOuter1" result="shadowMatrixOuter1" values="0 0 0 0 0   0 0 0 0 0   0 0 0 0 0  0 0 0 0.2 0"/>
      <feMerge>
        <feMergeNode in="shadowMatrixOuter1"/>
        <feMergeNode in="SourceGraphic"/>
      </feMerge>
    </filter>
    <linearGradient id="safebox1-b" x1="50%" x2="50%" y1="0%" y2="100%">
      <stop offset="0%" stop-color="#B4B3B9"/>
      <stop offset="100%" stop-color="#5D5D65"/>
    </linearGradient>
    <linearGradient id="safebox1-c" x1="50%" x2="50%" y1="0%" y2="100%">
      <stop offset="0%" stop-color="#292929" stop-opacity=".8"/>
      <stop offset="100%" stop-color="#161616" stop-opacity=".8"/>
    </linearGradient>
    <linearGradient id="safebox1-d" x1="0%" x2="100%" y1="32.266%" y2="32.266%">
      <stop offset="0%" stop-color="#888"/>
      <stop offset="100%" stop-color="#595959"/>
    </linearGradient>
    <rect id="safebox1-e" width="8" height="60" x="180" y="74" rx="4"/>
    <filter id="safebox1-f" width="150%" height="106.7%" x="-25%" y="-3.3%" filterUnits="objectBoundingBox">
      <feOffset dx="4" in="SourceAlpha" result="shadowOffsetInner1"/>
      <feComposite in="shadowOffsetInner1" in2="SourceAlpha" k2="-1" k3="1" operator="arithmetic" result="shadowInnerInner1"/>
      <feColorMatrix in="shadowInnerInner1" values="0 0 0 0 1   0 0 0 0 1   0 0 0 0 1  0 0 0 0.3 0"/>
    </filter>
    <linearGradient id="safebox1-g" x1="50%" x2="50%" y1="0%" y2="100%">
      <stop offset="0%" stop-color="#030303"/>
      <stop offset="100%" stop-color="#414141"/>
    </linearGradient>
    <linearGradient id="safebox1-h" x1="50%" x2="50%" y1="0%" y2="100%">
      <stop offset="0%"/>
      <stop offset="100%" stop-color="#ABABBB"/>
    </linearGradient>
    <linearGradient id="safebox1-i" x1="50%" x2="50%" y1="0%" y2="100%">
      <stop offset="0%" stop-color="#DCDBE3"/>
      <stop offset="100%" stop-color="#ACACBB"/>
    </linearGradient>
    <linearGradient id="safebox1-j" x1="50%" x2="50%" y1="0%" y2="100%">
      <stop offset="0%" stop-color="#DCDBE3"/>
      <stop offset="100%" stop-color="#ACACB4"/>
    </linearGradient>
  </defs>
  <g fill="none" fill-rule="evenodd" filter="url(#safebox1-a)" transform="translate(24 24)">
    <rect width="208" height="208" fill="url(#safebox1-b)" rx="56"/>
    <path fill="url(#safebox1-c)" fill-rule="nonzero" d="M148,10 L60,10 C32.3857625,10 10,32.3857625 10,60 L10,148 C10,175.614237 32.3857625,198 60,198 L148,198 C175.614237,198 198,175.614237 198,148 L198,60 C198,32.3857625 175.614237,10 148,10 Z M148,14 C173.405098,14 194,34.5949015 194,60 L194,148 C194,173.405098 173.405098,194 148,194 L60,194 C34.5949015,194 14,173.405098 14,148 L14,60 C14,34.5949015 34.5949015,14 60,14 L148,14 Z"/>
    <use fill="url(#safebox1-d)" xlink:href="#safebox1-e"/>
    <use fill="#000" filter="url(#safebox1-f)" xlink:href="#safebox1-e"/>
    <rect width="6" height="58" x="181" y="75" stroke="#323232" stroke-linejoin="square" stroke-width="2" rx="3"/>
    <g transform="translate(38 38)">
      <circle cx="66" cy="66" r="68" fill="url(#safebox1-g)" stroke="url(#safebox1-h)" stroke-width="4"/>
      <path fill="#FFF" fill-opacity=".4" d="M67,120 L67,126 L65,126 L65,120 L67,120 Z M76.3618093,119.00597 L77.4036984,124.914817 L75.4340829,125.262113 L74.3921938,119.353267 L76.3618093,119.00597 Z M55.6381907,119.00597 L57.6078062,119.353267 L56.5659171,125.262113 L54.5963016,124.914817 L55.6381907,119.00597 Z M85.4087804,116.401381 L87.4609012,122.039537 L85.581516,122.723577 L83.5293951,117.085422 L85.4087804,116.401381 Z M46.5912196,116.401381 L48.4706049,117.085422 L46.418484,122.723577 L44.5390988,122.039537 L46.5912196,116.401381 Z M93.8660254,112.265372 L96.8660254,117.461524 L95.1339746,118.461524 L92.1339746,113.265372 L93.8660254,112.265372 Z M38.1339746,112.265372 L39.8660254,113.265372 L36.8660254,118.461524 L35.1339746,117.461524 L38.1339746,112.265372 Z M101.476575,106.723612 L105.333301,111.319879 L103.801212,112.605454 L99.9444865,108.009188 L101.476575,106.723612 Z M30.5234246,106.723612 L32.0555135,108.009188 L28.1987879,112.605454 L26.666699,111.319879 L30.5234246,106.723612 Z M108.009188,99.9444865 L112.605454,103.801212 L111.319879,105.333301 L106.723612,101.476575 L108.009188,99.9444865 Z M23.9908125,99.9444865 L25.2763877,101.476575 L20.680121,105.333301 L19.3945458,103.801212 L23.9908125,99.9444865 Z M113.265372,92.1339746 L118.461524,95.1339746 L117.461524,96.8660254 L112.265372,93.8660254 L113.265372,92.1339746 Z M18.7346282,92.1339746 L19.7346282,93.8660254 L14.5384758,96.8660254 L13.5384758,95.1339746 L18.7346282,92.1339746 Z M117.085422,83.5293951 L122.723577,85.581516 L122.039537,87.4609012 L116.401381,85.4087804 L117.085422,83.5293951 Z M14.9145783,83.5293951 L15.5986186,85.4087804 L9.9604629,87.4609012 L9.27642261,85.581516 L14.9145783,83.5293951 Z M119.353267,74.3921938 L125.262113,75.4340829 L124.914817,77.4036984 L119.00597,76.3618093 L119.353267,74.3921938 Z M12.6467332,74.3921938 L12.9940295,76.3618093 L7.085183,77.4036984 L6.73788664,75.4340829 L12.6467332,74.3921938 Z M126,65 L126,67 L120,67 L120,65 L126,65 Z M12,65 L12,67 L6,67 L6,65 L12,65 Z M124.914817,54.5963016 L125.262113,56.5659171 L119.353267,57.6078062 L119.00597,55.6381907 L124.914817,54.5963016 Z M7.085183,54.5963016 L12.9940295,55.6381907 L12.6467332,57.6078062 L6.73788664,56.5659171 L7.085183,54.5963016 Z M122.039537,44.5390988 L122.723577,46.418484 L117.085422,48.4706049 L116.401381,46.5912196 L122.039537,44.5390988 Z M9.9604629,44.5390988 L15.5986186,46.5912196 L14.9145783,48.4706049 L9.27642261,46.418484 L9.9604629,44.5390988 Z M117.461524,35.1339746 L118.461524,36.8660254 L113.265372,39.8660254 L112.265372,38.1339746 L117.461524,35.1339746 Z M14.5384758,35.1339746 L19.7346282,38.1339746 L18.7346282,39.8660254 L13.5384758,36.8660254 L14.5384758,35.1339746 Z M111.319879,26.666699 L112.605454,28.1987879 L108.009188,32.0555135 L106.723612,30.5234246 L111.319879,26.666699 Z M20.680121,26.666699 L25.2763877,30.5234246 L23.9908125,32.0555135 L19.3945458,28.1987879 L20.680121,26.666699 Z M103.801212,19.3945458 L105.333301,20.680121 L101.476575,25.2763877 L99.9444865,23.9908125 L103.801212,19.3945458 Z M28.1987879,19.3945458 L32.0555135,23.9908125 L30.5234246,25.2763877 L26.666699,20.680121 L28.1987879,19.3945458 Z M95.1339746,13.5384758 L96.8660254,14.5384758 L93.8660254,19.7346282 L92.1339746,18.7346282 L95.1339746,13.5384758 Z M36.8660254,13.5384758 L39.8660254,18.7346282 L38.1339746,19.7346282 L35.1339746,14.5384758 L36.8660254,13.5384758 Z M85.581516,9.27642261 L87.4609012,9.9604629 L85.4087804,15.5986186 L83.5293951,14.9145783 L85.581516,9.27642261 Z M46.418484,9.27642261 L48.4706049,14.9145783 L46.5912196,15.5986186 L44.5390988,9.9604629 L46.418484,9.27642261 Z M75.4340829,6.73788664 L77.4036984,7.085183 L76.3618093,12.9940295 L74.3921938,12.6467332 L75.4340829,6.73788664 Z M56.5659171,6.73788664 L57.6078062,12.6467332 L55.6381907,12.9940295 L54.5963016,7.085183 L56.5659171,6.73788664 Z M67,6 L67,12 L65,12 L65,6 L67,6 Z"/>
      <circle cx="66" cy="66" r="38" fill="url(#safebox1-i)"/>
      <circle cx="66" cy="66" r="16" fill="url(#safebox1-g)"/>
      <circle cx="66" cy="66" r="8" fill="url(#safebox1-j)"/>
    </g>
  </g>
</svg>
