<svg xmlns="http://www.w3.org/2000/svg" width="20" height="20" viewBox="0 0 20 20">
  <path fill="#FFF" fill-rule="evenodd" d="M6.63264705,0.190363674 L6.67867947,0.238239288 L9.20138073,3.60184097 C9.35412245,3.8054966 9.29574797,3.96508091 9.08485932,3.99496122 L9.00899482,4 L7,3.99980489 L6.999,12.1158049 L10.7133134,10.5033912 C10.8698982,10.4354072 10.9791024,10.2933282 11.0071081,10.1287048 L11.0141877,10.044753 L11.014,8.99980489 L10.495389,9 C10.2468233,9 10.0487337,8.82475599 10.0077825,8.59365781 L10,8.50461102 L10,6.49538898 C10,6.24682331 10.175244,6.04873371 10.4063422,6.00778251 L10.495389,6 L12.504611,6 C12.7531767,6 12.9512663,6.17524401 12.9922175,6.40634219 L13,6.49538898 L13,8.50461102 C13,8.75317669 12.824756,8.95126629 12.5936578,8.99221749 L12.504611,9 L11.999,8.99980489 L12,10.694793 C12,10.8655823 11.9130815,11.022398 11.7731232,11.1136273 L11.6988809,11.1535374 L6.999,13.1908049 L7.00003836,16.0632048 C7.86183578,16.2853728 8.5,17.0676671 8.5,18.0012739 C8.5,19.1057325 7.60276806,20 6.49936367,20 C5.39341394,20 4.5,19.1057325 4.5,18.0012739 C4.5,17.0673051 5.13594151,16.2847662 5.99892551,16.0629466 L5.999,15.2908049 L2.1823973,12.1523148 C2.06691576,12.0573382 2,11.9156642 2,11.7661431 L2.00006249,9.93683102 C1.13718828,9.71456341 0.5,8.93145246 0.5,7.9990005 C0.5,6.89155422 1.39555222,6 2.5009995,6 C3.60244878,6 4.501999,6.89155422 4.501999,7.9990005 C4.501999,8.93129237 3.86218588,9.7142945 3.00104467,9.93671648 L3,11.2941365 C3,11.4436658 3.06692317,11.5853469 3.18241565,11.6803232 L5.999,13.9958049 L6,3.99980489 L3.99100518,4 C3.75419295,4 3.65422262,3.85560789 3.75682545,3.66642444 L3.79861927,3.60184097 L6.32132053,0.238239288 C6.40028967,0.132947104 6.53393154,0.11148778 6.63264705,0.190363674 Z" transform="translate(3)"/>
</svg>
