<?xml version="1.0" encoding="UTF-8"?>
<svg width="16px" height="16px" viewBox="0 0 16 16" version="1.1" xmlns="http://www.w3.org/2000/svg" xmlns:xlink="http://www.w3.org/1999/xlink">
    <!-- Generator: Sketch 48.2 (47327) - http://www.bohemiancoding.com/sketch -->
    <title>documents_active_16px</title>
    <desc>Created with Sketch.</desc>
    <defs></defs>
    <g id="UI图标" stroke="none" stroke-width="1" fill="none" fill-rule="evenodd">
        <g id="documents_active_16px">
            <rect id="Rectangle-1" fill-opacity="0.5" fill="#A1A1A1" opacity="0" x="0" y="0" width="16" height="16"></rect>
            <g id="文档" transform="translate(2.000000, 1.000000)" fill="#2CA7F8" fill-rule="nonzero">
                <path d="M8,0.501002377 C8,0.055549952 8.53857096,-0.167533444 8.85355339,0.147448987 L11.8535534,3.14744899 C12.1685358,3.46243142 11.9454524,4.00100238 11.5,4.00100238 L8.5,4.00100238 C8.22385763,4.00100238 8,3.77714475 8,3.50100238 L8,0.501002377 Z M0,0.501002377 C0,0.224860002 0.223857625,0.00100237728 0.5,0.00100237728 L6.5,0.00100237728 C6.77614237,0.00100237728 7,0.224860002 7,0.501002377 L7,5.00100238 L11.5,5.00100238 C11.7761424,5.00100238 12,5.22486 12,5.50100238 L12,13.5010024 C12,13.7771448 11.7761424,14.0010024 11.5,14.0010024 L0.5,14.0010024 C0.223857625,14.0010024 0,13.7771448 0,13.5010024 L0,0.501002377 Z M2,7.50100238 C2,7.76906878 2.22405275,8.00100238 2.50043583,8.00100238 L9.49956417,8.00100238 C9.76920319,8.00100238 10,7.77714475 10,7.50100238 C10,7.23293597 9.77594725,7.00100238 9.49956417,7.00100238 L2.50043583,7.00100238 C2.23079681,7.00100238 2,7.22486 2,7.50100238 Z M2,9.50100238 C2,9.76906878 2.22405275,10.0010024 2.50043583,10.0010024 L9.49956417,10.0010024 C9.76920319,10.0010024 10,9.77714475 10,9.50100238 C10,9.23293597 9.77594725,9.00100238 9.49956417,9.00100238 L2.50043583,9.00100238 C2.23079681,9.00100238 2,9.22486 2,9.50100238 Z M2,11.5010024 C2,11.7690688 2.22405275,12.0010024 2.50043583,12.0010024 L9.49956417,12.0010024 C9.76920319,12.0010024 10,11.7771448 10,11.5010024 C10,11.232936 9.77594725,11.0010024 9.49956417,11.0010024 L2.50043583,11.0010024 C2.23079681,11.0010024 2,11.22486 2,11.5010024 Z" id="Combined-Shape"></path>
            </g>
        </g>
    </g>
</svg>