<?xml version="1.0" encoding="UTF-8"?>
<svg width="16px" height="16px" viewBox="0 0 16 16" version="1.1" xmlns="http://www.w3.org/2000/svg" xmlns:xlink="http://www.w3.org/1999/xlink">
    <!-- Generator: Sketch 48.2 (47327) - http://www.bohemiancoding.com/sketch -->
    <title>music_active_16px</title>
    <desc>Created with Sketch.</desc>
    <defs></defs>
    <g id="UI图标" stroke="none" stroke-width="1" fill="none" fill-rule="evenodd">
        <g id="music_active_16px">
            <rect id="Rectangle-1" fill-opacity="0.5" fill="#A1A1A1" opacity="0" x="0" y="5.68434189e-14" width="16" height="16"></rect>
            <g id="音乐" transform="translate(0.000000, 1.000000)" fill="#2CA7F8" fill-rule="nonzero">
                <path d="M5,4.4475214 L5,11.5 C5,11.544328 4.99423152,11.5873086 4.98340428,11.6282322 C5.08454307,12.5859083 4.34478343,13.5605777 3.22666304,13.9675402 C1.95378408,14.4308303 0.583611264,14.0153261 0.193391206,12.9432053 C-0.196828853,11.8710845 0.585703508,10.6720598 1.85858247,10.2087697 C2.61296345,9.93419752 3.40151819,9.9682953 4,10.2648132 L4,3.5 L4,1.5 C4,1.24522539 4.1915679,1.03119328 4.44478424,1.00305813 L13.4447842,0.00305813266 C13.7409672,-0.0298510859 14,0.201994351 14,0.5 L14,2.5 L14,10.5 C14,10.5452345 13.9939932,10.589066 13.9827337,10.6307404 C14.0824262,11.587666 13.3429602,12.5610833 12.2257477,12.9677154 C10.9528688,13.4310055 9.58269596,13.0155014 9.1924759,11.9433806 C8.80225584,10.8712598 9.5847882,9.67223501 10.8576672,9.20894495 C11.6124328,8.93423273 12.401407,8.96850536 13,9.26544213 L13,3.55863251 L5,4.4475214 Z" id="Combined-Shape"></path>
            </g>
        </g>
    </g>
</svg>