<?xml version="1.0" encoding="UTF-8"?>
<svg width="16px" height="16px" viewBox="0 0 16 16" version="1.1" xmlns="http://www.w3.org/2000/svg" xmlns:xlink="http://www.w3.org/1999/xlink">
    <!-- Generator: Sketch 48.2 (47327) - http://www.bohemiancoding.com/sketch -->
    <title>recent_active_16px</title>
    <desc>Created with Sketch.</desc>
    <defs></defs>
    <g id="UI图标" stroke="none" stroke-width="1" fill="none" fill-rule="evenodd">
        <g id="recent_active_16px">
            <rect id="Combined-Shape" fill-opacity="0.5" fill="#A1A1A1" opacity="0" x="0" y="0" width="16" height="16"></rect>
            <path d="M8,15 C4.13400675,15 1,11.8659932 1,8 C1,4.13400675 4.13400675,1 8,1 C11.8659932,1 15,4.13400675 15,8 C15,11.8659932 11.8659932,15 8,15 Z M7,8.5 C7,8.77614237 7.22385763,9 7.5,9 L12,9 C12.2761424,9 12.5,8.77614237 12.5,8.5 C12.5,8.22385763 12.2761424,8 12,8 L8,8 L8,4 C8,3.72385763 7.77614237,3.5 7.5,3.5 C7.22385763,3.5 7,3.72385763 7,4 L7,8.5 Z" id="Combined-Shape" fill="#2CA7F8"></path>
        </g>
    </g>
</svg>