<svg xmlns="http://www.w3.org/2000/svg" width="32" height="32" viewBox="0 0 32 32">
  <path fill="#626E88" d="M10.4339301,9.86239576 L14.5734051,15.4829272 C14.6073352,15.5506444 14.6412654,15.6183617 14.6412654,15.6860789 L14.6412654,19.9184068 C14.6412654,20.0199827 14.7091256,20.1215585 14.7769859,20.1892758 L17.016374,21.6790552 C17.1181643,21.7467724 17.2199547,21.7129138 17.2878149,21.6113379 C17.3217451,21.5774793 17.3217451,21.5436207 17.3217451,21.5097621 L17.3217451,15.6522203 C17.3217451,15.5845031 17.3556752,15.5167858 17.3896053,15.4490686 L21.5630104,9.86239576 C21.6308706,9.76081991 21.5969405,9.65924402 21.5290803,9.59152679 C21.4951502,9.52380952 21.4272899,9.52380952 21.3933598,9.52380952 L10.6035807,9.52380952 C10.5017904,9.52380952 10.4,9.62538538 10.4,9.72696126 C10.4,9.76081988 10.4,9.82853712 10.4339301,9.86239576 Z M13.1068983,15.8099352 L8.14602716,9.10583154 C7.90318731,8.79481643 7.97257012,8.3801296 8.28479277,8.13822895 C8.38886698,8.03455725 8.56232402,8 8.70108966,8 L23.3061719,8 C23.6877773,8 24,8.31101511 24,8.69114471 C24,8.82937366 23.9653086,8.96760259 23.8612344,9.10583154 L18.9350546,15.8099352 C18.8309804,15.9136069 18.796289,16.0863931 18.796289,16.224622 L18.796289,23.3088553 C18.796289,23.6889849 18.4840663,24 18.1024609,24 C17.9636952,24 17.8249296,23.9654428 17.7208554,23.8963283 L13.5578866,21.1317495 C13.3497381,20.9935205 13.2456639,20.7861771 13.2456639,20.5442765 L13.2456639,16.224622 C13.2456639,16.0518358 13.2109725,15.9136069 13.1068983,15.8099352 Z"/>
</svg>
