<svg xmlns="http://www.w3.org/2000/svg" xmlns:xlink="http://www.w3.org/1999/xlink" width="64" height="64" viewBox="0 0 64 64">
  <defs>
    <filter id="safebox_64px-a" width="132%" height="132%" x="-16%" y="-16%" filterUnits="objectBoundingBox">
      <feOffset dy="1" in="SourceAlpha" result="shadowOffsetOuter1"/>
      <feGaussianBlur in="shadowOffsetOuter1" result="shadowBlurOuter1" stdDeviation="1.5"/>
      <feComposite in="shadowBlurOuter1" in2="SourceAlpha" operator="out" result="shadowBlurOuter1"/>
      <feColorMatrix in="shadowBlurOuter1" result="shadowMatrixOuter1" values="0 0 0 0 0   0 0 0 0 0   0 0 0 0 0  0 0 0 0.2 0"/>
      <feMerge>
        <feMergeNode in="shadowMatrixOuter1"/>
        <feMergeNode in="SourceGraphic"/>
      </feMerge>
    </filter>
    <linearGradient id="safebox_64px-b" x1="50%" x2="50%" y1="0%" y2="100%">
      <stop offset="0%" stop-color="#B4B3B9"/>
      <stop offset="100%" stop-color="#5D5D65"/>
    </linearGradient>
    <rect id="safebox_64px-d" width="46" height="46" x="2" y="2" rx="12"/>
    <filter id="safebox_64px-c" width="108.7%" height="108.7%" x="-4.3%" y="-2.2%" filterUnits="objectBoundingBox">
      <feOffset dy="1" in="SourceAlpha" result="shadowOffsetOuter1"/>
      <feMorphology in="SourceAlpha" radius="1" result="shadowInner"/>
      <feOffset dy="1" in="shadowInner" result="shadowInner"/>
      <feComposite in="shadowOffsetOuter1" in2="shadowInner" operator="out" result="shadowOffsetOuter1"/>
      <feGaussianBlur in="shadowOffsetOuter1" result="shadowBlurOuter1" stdDeviation=".5"/>
      <feColorMatrix in="shadowBlurOuter1" values="0 0 0 0 1   0 0 0 0 1   0 0 0 0 1  0 0 0 0.5 0"/>
    </filter>
    <linearGradient id="safebox_64px-e" x1="0%" x2="100%" y1="32.266%" y2="32.266%">
      <stop offset="0%" stop-color="#888"/>
      <stop offset="100%" stop-color="#595959"/>
    </linearGradient>
    <rect id="safebox_64px-f" width="1" height="15" x="44" y="17.5" rx=".5"/>
    <filter id="safebox_64px-g" width="400%" height="120%" x="-150%" y="-10%" filterUnits="objectBoundingBox">
      <feOffset dx="1" dy="1" in="SourceAlpha" result="shadowOffsetInner1"/>
      <feComposite in="shadowOffsetInner1" in2="SourceAlpha" k2="-1" k3="1" operator="arithmetic" result="shadowInnerInner1"/>
      <feColorMatrix in="shadowInnerInner1" values="0 0 0 0 1   0 0 0 0 1   0 0 0 0 1  0 0 0 0.3 0"/>
    </filter>
    <linearGradient id="safebox_64px-h" x1="50%" x2="50%" y1="0%" y2="100%">
      <stop offset="0%" stop-color="#030303"/>
      <stop offset="100%" stop-color="#414141"/>
    </linearGradient>
    <linearGradient id="safebox_64px-i" x1="50%" x2="50%" y1="0%" y2="100%">
      <stop offset="0%"/>
      <stop offset="100%" stop-color="#ABABBB"/>
    </linearGradient>
    <linearGradient id="safebox_64px-j" x1="50%" x2="50%" y1="0%" y2="100%">
      <stop offset="0%" stop-color="#DCDBE3"/>
      <stop offset="100%" stop-color="#ACACB4"/>
    </linearGradient>
  </defs>
  <g fill="none" fill-rule="evenodd" filter="url(#safebox_64px-a)" transform="translate(7 7)">
    <rect width="50" height="50" fill="url(#safebox_64px-b)" rx="14"/>
    <use fill="#000" filter="url(#safebox_64px-c)" xlink:href="#safebox_64px-d"/>
    <rect width="45" height="45" x="2.5" y="2.5" stroke="#000" stroke-linejoin="square" stroke-opacity=".8" rx="12"/>
    <use fill="url(#safebox_64px-e)" xlink:href="#safebox_64px-f"/>
    <use fill="#000" filter="url(#safebox_64px-g)" xlink:href="#safebox_64px-f"/>
    <rect width="2" height="16" x="43.5" y="17" stroke="#323232" rx="1"/>
    <g transform="translate(8.5 8.5)">
      <circle cx="16.5" cy="16.5" r="16.5" fill="url(#safebox_64px-h)" stroke="url(#safebox_64px-i)"/>
      <rect width="1" height="2" x="16" y="2" fill="#FFF" fill-opacity=".4"/>
      <circle cx="16.5" cy="16.5" r="9.5" fill="url(#safebox_64px-j)"/>
      <circle cx="16.5" cy="16.5" r="4" fill="url(#safebox_64px-h)"/>
      <circle cx="16.5" cy="16.5" r="2" fill="url(#safebox_64px-j)"/>
      <rect width="1" height="2" x="19.494" y="2.46" fill="#FFF" fill-opacity=".4" transform="rotate(15 19.994 3.46)"/>
      <rect width="1" height="2" x="22.75" y="3.809" fill="#FFF" fill-opacity=".4" transform="rotate(30 23.25 4.809)"/>
      <rect width="1" height="2" x="25.546" y="5.954" fill="#FFF" fill-opacity=".4" transform="rotate(45 26.046 6.954)"/>
      <rect width="1" height="2" x="27.691" y="8.75" fill="#FFF" fill-opacity=".4" transform="rotate(60 28.191 9.75)"/>
      <rect width="1" height="2" x="29.04" y="12.006" fill="#FFF" fill-opacity=".4" transform="rotate(75 29.54 13.006)"/>
      <rect width="1" height="2" x="29.5" y="15.5" fill="#FFF" fill-opacity=".4" transform="rotate(90 30 16.5)"/>
      <rect width="1" height="2" x="29.04" y="18.994" fill="#FFF" fill-opacity=".4" transform="rotate(105 29.54 19.994)"/>
      <rect width="1" height="2" x="27.691" y="22.25" fill="#FFF" fill-opacity=".4" transform="rotate(120 28.191 23.25)"/>
      <rect width="1" height="2" x="25.546" y="25.046" fill="#FFF" fill-opacity=".4" transform="rotate(135 26.046 26.046)"/>
      <rect width="1" height="2" x="22.75" y="27.191" fill="#FFF" fill-opacity=".4" transform="rotate(150 23.25 28.191)"/>
      <rect width="1" height="2" x="19.494" y="28.54" fill="#FFF" fill-opacity=".4" transform="rotate(165 19.994 29.54)"/>
      <rect width="1" height="2" x="16" y="29" fill="#FFF" fill-opacity=".4" transform="rotate(180 16.5 30)"/>
      <rect width="1" height="2" x="12.506" y="28.54" fill="#FFF" fill-opacity=".4" transform="rotate(-165 13.006 29.54)"/>
      <rect width="1" height="2" x="9.25" y="27.191" fill="#FFF" fill-opacity=".4" transform="rotate(-150 9.75 28.191)"/>
      <rect width="1" height="2" x="6.454" y="25.046" fill="#FFF" fill-opacity=".4" transform="rotate(-135 6.954 26.046)"/>
      <rect width="1" height="2" x="4.309" y="22.25" fill="#FFF" fill-opacity=".4" transform="rotate(-120 4.809 23.25)"/>
      <rect width="1" height="2" x="2.96" y="18.994" fill="#FFF" fill-opacity=".4" transform="rotate(-105 3.46 19.994)"/>
      <rect width="1" height="2" x="2.5" y="15.5" fill="#FFF" fill-opacity=".4" transform="rotate(-90 3 16.5)"/>
      <rect width="1" height="2" x="2.96" y="12.006" fill="#FFF" fill-opacity=".4" transform="rotate(-75 3.46 13.006)"/>
      <rect width="1" height="2" x="4.309" y="8.75" fill="#FFF" fill-opacity=".4" transform="rotate(-60 4.809 9.75)"/>
      <rect width="1" height="2" x="6.454" y="5.954" fill="#FFF" fill-opacity=".4" transform="rotate(-45 6.954 6.954)"/>
      <rect width="1" height="2" x="9.25" y="3.809" fill="#FFF" fill-opacity=".4" transform="rotate(-30 9.75 4.809)"/>
      <rect width="1" height="2" x="12.506" y="2.46" fill="#FFF" fill-opacity=".4" transform="rotate(-15 13.006 3.46)"/>
    </g>
  </g>
</svg>
