<?xml version="1.0" encoding="UTF-8" standalone="no"?>
<svg width="16px" height="16px" viewBox="0 0 16 16" version="1.1" xmlns="http://www.w3.org/2000/svg" xmlns:xlink="http://www.w3.org/1999/xlink">
    <!-- Generator: Sketch 3.6.1 (26313) - http://www.bohemiancoding.com/sketch -->
    <title>expanded_view_normal</title>
    <desc>Created with Sketch.</desc>
    <defs></defs>
    <g id="Page-1" stroke="none" stroke-width="1" fill="none" fill-rule="evenodd">
        <g id="expanded_view_normal">
            <rect id="Rectangle-1" opacity="0" x="0" y="0" width="16" height="16"></rect>
            <path d="M9,13 L2,13 L2,7 L13,7 L13,9 L12,9 L12,8 L3,8 L3,12 L9,12 L9,13 Z M2,5 L2,6 L13,6 L13,5 L2,5 Z M12.4930798,11.785973 C11.946571,11.2394642 10.8535534,10.1464466 10.8535534,10.1464466 C10.6582912,9.95118446 10.3417088,9.95118446 10.1464466,10.1464466 C9.95118446,10.3417088 9.95118446,10.6582912 10.1464466,10.8535534 L12.1464466,12.8535534 C12.3417088,13.0488155 12.6582912,13.0488155 12.8535534,12.8535534 L14.8535534,10.8535534 C15.0488155,10.6582912 15.0488155,10.3417088 14.8535534,10.1464466 C14.6582912,9.95118446 14.3417088,9.95118446 14.1464466,10.1464466 C14.1464466,10.1464466 12.6132376,11.9061309 12.4930798,11.785973 Z M3.5,4 L11.5,4 L12,4 L12,3 L11.5,3 L3.5,3 L3,3 L3,4 L3.5,4 Z" id="Combined-Shape" fill="#303030"></path>
        </g>
    </g>
</svg>