<?xml version="1.0" encoding="UTF-8" standalone="no"?>
<svg width="16px" height="16px" viewBox="0 0 16 16" version="1.1" xmlns="http://www.w3.org/2000/svg" xmlns:xlink="http://www.w3.org/1999/xlink">
    <!-- Generator: Sketch 3.6.1 (26313) - http://www.bohemiancoding.com/sketch -->
    <title>pictures_active_16px</title>
    <desc>Created with Sketch.</desc>
    <defs></defs>
    <g id="Page-1" stroke="none" stroke-width="1" fill="none" fill-rule="evenodd">
        <g id="pictures_active_16px">
            <rect id="Rectangle-1" opacity="0" x="0" y="0" width="16" height="16"></rect>
            <g transform="translate(1.000000, 2.000000)" id="Combined-Shape" fill="#FFFFFF">
                <path d="M0,0.500347316 C0,0.224013124 0.219906569,0 0.498267412,0 L13.5017326,0 C13.7769181,0 14,0.229000568 14,0.500347316 L14,11.4996527 C14,11.7759869 13.7800934,12 13.5017326,12 L0.498267412,12 C0.223081919,12 0,11.7709994 0,11.4996527 L0,0.500347316 Z M11.5,10 C11.8886472,10 12.1287038,9.57601438 11.9287465,9.24275212 L8.92874646,4.24275212 C8.73989719,3.92800333 8.28758145,3.91724 8.08397485,4.2226499 L6.72024506,7.04429842 C6.59860716,7.29597539 6.37731028,7.30163722 6.23410064,7.07009862 L5.35355339,5.64644661 C5.13507881,5.42797203 4.77271827,5.4579619 4.59313326,5.7093809 L2.09313326,9.2093809 C1.85675167,9.54031514 2.09331372,10 2.5,10 L11.5,10 Z M4.5,5 C5.32842712,5 6,4.32842712 6,3.5 C6,2.67157288 5.32842712,2 4.5,2 C3.67157288,2 3,2.67157288 3,3.5 C3,4.32842712 3.67157288,5 4.5,5 Z"></path>
            </g>
        </g>
    </g>
</svg>