<svg xmlns="http://www.w3.org/2000/svg" width="20" height="20" viewBox="0 0 20 20">
  <g fill="none" fill-rule="evenodd">
    <rect width="19" height="19" x=".5" y=".5" fill="#FFF" fill-opacity=".4" stroke="#CBCBCB" rx="4"/>
    <path fill="#000" d="M6.87866667,15 L6.87866667,14.314 C10.1546667,11.458 11.6106667,9.386 11.6106667,7.608 C11.6106667,6.404 10.9806667,5.494 9.66466667,5.494 C8.81066667,5.494 8.06866667,6.026 7.48066667,6.712 L6.80866667,6.068 C7.63466667,5.172 8.51666667,4.57 9.79066667,4.57 C11.6106667,4.57 12.7306667,5.746 12.7306667,7.566 C12.7306667,9.638 11.1066667,11.752 8.60066667,14.104 C9.14666667,14.048 9.76266667,14.02 10.2806667,14.02 L13.2206667,14.02 L13.2206667,15 L6.87866667,15 Z"/>
  </g>
</svg>
