<?xml version="1.0" encoding="UTF-8"?>
<svg width="24px" height="24px" viewBox="0 0 24 24" version="1.1" xmlns="http://www.w3.org/2000/svg" xmlns:xlink="http://www.w3.org/1999/xlink">
    <title>trayicon/transfer</title>
    <g id="trayicon/transfer" stroke="none" stroke-width="1" fill="none" fill-rule="evenodd">
        <g id="trayicon/volume">
            <path d="M10.0368153,-3.74156905e-16 L13.9631847,3.74156905e-16 C17.2667891,-2.32705376e-16 18.6036791,0.371302445 19.9073828,1.06853082 C21.2110865,1.76575919 22.2342408,2.78891348 22.9314692,4.09261719 C23.6286976,5.39632089 24,6.73321094 24,10.0368153 L24,13.9631847 C24,17.2667891 23.6286976,18.6036791 22.9314692,19.9073828 C22.2342408,21.2110865 21.2110865,22.2342408 19.9073828,22.9314692 C18.6036791,23.6286976 17.2667891,24 13.9631847,24 L10.0368153,24 C6.73321094,24 5.39632089,23.6286976 4.09261719,22.9314692 C2.78891348,22.2342408 1.76575919,21.2110865 1.06853082,19.9073828 C0.371302445,18.6036791 1.55136917e-16,17.2667891 -2.49437937e-16,13.9631847 L2.49437937e-16,10.0368153 C-1.55136917e-16,6.73321094 0.371302445,5.39632089 1.06853082,4.09261719 C1.76575919,2.78891348 2.78891348,1.76575919 4.09261719,1.06853082 C5.39632089,0.371302445 6.73321094,2.32705376e-16 10.0368153,-3.74156905e-16 Z" id="Rectangle-3" fill-opacity="0.5" fill="#000000"></path>
            <g id="24" transform="translate(4.800000, 4.800000)">
                <rect id="矩形" x="0" y="0" width="14.4" height="14.4"></rect>
                <g id="跨端快传" transform="translate(2.400000, 2.400000)" fill="#FFFFFF" fill-rule="nonzero">
                    <path d="M9.60007036,5.75526611 C9.93140235,5.75526611 10.2,6.01293815 10.2,6.33079272 C10.2,6.62594339 9.96840305,6.86920198 9.67003483,6.90244734 L9.60007036,6.90631933 L4.56726057,6.90623643 L4.56732644,9.02337323 C4.56732644,9.48921533 4.0266483,9.75324472 3.63766978,9.50446819 L3.58320815,9.46540663 L0.216937059,6.77282612 C-0.196009992,6.44252201 0.0201108196,5.81077084 0.532622797,5.75869835 L0.6011257,5.75526611 L9.60007036,5.75526611 Z M6.56233022,0.0955318125 L6.61679185,0.134593374 L9.98306294,2.82717388 C10.39601,3.15747799 10.1798892,3.78922916 9.6673772,3.84130165 L9.5988743,3.84473389 L0.599929644,3.84473389 C0.268597651,3.84473389 0,3.58706185 0,3.26920728 C0,2.97405661 0.231596954,2.73079802 0.529965174,2.69755266 L0.599929644,2.69368067 L5.6321395,2.69333075 L5.63267356,0.576626772 C5.63267356,0.110784665 6.1733517,-0.15324472 6.56233022,0.0955318125 Z" id="形状结合"></path>
                </g>
            </g>
        </g>
    </g>
</svg>