<?xml version="1.0" encoding="UTF-8"?>
<svg width="24px" height="24px" viewBox="0 0 24 24" version="1.1" xmlns="http://www.w3.org/2000/svg" xmlns:xlink="http://www.w3.org/1999/xlink">
    <title>图标/控件/24/相机</title>
    <g id="图标/控件/24/相机" stroke="none" stroke-width="1" fill="none" fill-rule="evenodd" stroke-opacity="0.85">
        <path d="M15.6248721,2.9999573 L16.8312489,5.49882279 L21,5.50000002 C21.2761424,5.50000002 21.5261424,5.61192883 21.7071068,5.79289324 C21.8880712,5.97385764 22,6.22385764 22,6.50000002 L22,6.50000002 L22,18.5 C22,18.7761424 21.8880712,19.0261424 21.7071068,19.2071068 C21.5261424,19.3880712 21.2761424,19.5 21,19.5 L21,19.5 L3,19.5 C2.72385763,19.5 2.47385763,19.3880712 2.29289322,19.2071068 C2.11192881,19.0261424 2,18.7761424 2,18.5 L2,18.5 L2,6.50000002 C2,6.22385764 2.11192881,5.97385764 2.29289322,5.79289324 C2.47385763,5.61192883 2.72385763,5.50000002 3.00032894,5.49999996 L3.00032894,5.49999996 L6.79618654,5.49875134 L7.50387302,3.00000003 L15.6248721,2.9999573 Z" id="形状结合" stroke="#000000" stroke-width="2"></path>
        <circle id="椭圆形" stroke="#000000" stroke-width="2" cx="12" cy="12" r="3"></circle>
    </g>
</svg>