<?xml version="1.0" encoding="UTF-8"?>
<svg width="24px" height="24px" viewBox="0 0 24 24" version="1.1" xmlns="http://www.w3.org/2000/svg" xmlns:xlink="http://www.w3.org/1999/xlink">
    <title>图标/控件/24/文件夹</title>
    <g id="图标/控件/24/文件夹" stroke="none" stroke-width="1" fill="none" fill-rule="evenodd">
        <g id="icon/提示/电脑" transform="translate(0.000000, -1.000000)">
            <rect id="矩形" x="0" y="0.992564655" width="24" height="24"></rect>
        </g>
        <g id="icon/提示/电脑备份" transform="translate(0.000000, -1.000000)">
            <rect id="矩形" x="0" y="0.992564655" width="24" height="24"></rect>
        </g>
        <path d="M12.8078191,3 C13.1003727,3 13.3782544,3.12811053 13.5682682,3.35060239 L13.5682682,3.35060239 L14.9769955,5 L21,5 C21.2761424,5 21.5261424,5.11192881 21.7071068,5.29289322 C21.8880712,5.47385763 22,5.72385763 22,6 L22,6 L22,19 C22,19.2761424 21.8880712,19.5261424 21.7071068,19.7071068 C21.5261424,19.8880712 21.2761424,20 21,20 L21,20 L3,20 C2.72385763,20 2.47385763,19.8880712 2.29289322,19.7071068 C2.11192881,19.5261424 2,19.2761424 2,19 L2,19 L2,4 C2,3.72385763 2.11192881,3.47385763 2.29289322,3.29289322 C2.47385763,3.11192881 2.72385763,3 3,3 L3,3 Z" id="形状结合" stroke-opacity="0.85" stroke="#000000" stroke-width="2"></path>
        <rect id="矩形" fill-opacity="0.85" fill="#000000" x="5" y="15" width="14" height="2" rx="1"></rect>
    </g>
</svg>