<?xml version="1.0" encoding="UTF-8"?>
<svg width="24px" height="24px" viewBox="0 0 24 24" version="1.1" xmlns="http://www.w3.org/2000/svg" xmlns:xlink="http://www.w3.org/1999/xlink">
    <title>图标/控件/24/图片</title>
    <g id="图标/控件/24/图片" stroke="none" stroke-width="1" fill="none" fill-rule="evenodd" fill-opacity="0.85">
        <path d="M21,2 C22.1045695,2 23,2.8954305 23,4 L23,20 C23,21.1045695 22.1045695,22 21,22 L3,22 C1.8954305,22 1,21.1045695 1,20 L1,4 C1,2.8954305 1.8954305,2 3,2 L21,2 Z M21,4 L3,4 L3,20 L21,20 L21,4 Z M20.2781746,9.25735931 C20.6686989,9.6478836 20.6686989,10.2810486 20.2781746,10.6715729 L13.2071068,17.7426407 L13.2071068,17.7426407 C12.8165825,18.133165 12.1834175,18.133165 11.7928932,17.7426407 L8.96375899,14.9149207 L6.13603897,17.7426407 C5.74551468,18.133165 5.1123497,18.133165 4.72182541,17.7426407 C4.33130112,17.3521164 4.33130112,16.7189514 4.72182541,16.3284271 L8.25735931,12.7928932 C8.6478836,12.4023689 9.28104858,12.4023689 9.67157288,12.7928932 L9.68288658,12.8056211 L12.4992929,15.6206132 L18.863961,9.25735931 C19.2544853,8.86683502 19.8876503,8.86683502 20.2781746,9.25735931 Z M7.3177711,5.87847667 C8.38060938,5.87847667 9.3177711,6.7534641 9.3177711,7.87847667 C9.3177711,9.00348924 8.44278367,9.87847667 7.3177711,9.87847667 C6.25561692,9.87847667 5.3177711,9.00348924 5.3177711,7.87847667 C5.3177711,6.7534641 6.25561692,5.87847667 7.3177711,5.87847667 Z" id="形状结合" fill="#000000" fill-rule="nonzero"></path>
    </g>
</svg>