<?xml version="1.0" encoding="iso-8859-1"?>
<!-- Generator: Adobe Illustrator 18.0.0, SVG Export Plug-In . SVG Version: 6.00 Build 0)  -->
<!DOCTYPE svg PUBLIC "-//W3C//DTD SVG 1.1//EN" "http://www.w3.org/Graphics/SVG/1.1/DTD/svg11.dtd">
<svg version="1.1" id="&#x56FE;&#x5C42;_1" xmlns="http://www.w3.org/2000/svg" xmlns:xlink="http://www.w3.org/1999/xlink" x="0px"
	 y="0px" viewBox="0 0 20 20" enable-background="new 0 0 20 20" xml:space="preserve">
<g>
	<path opacity="0.1" fill="#FFFFFF" d="M15.7,19.5H4.3c-2.09,0-3.8-1.71-3.8-3.8V4.3c0-2.09,1.71-3.8,3.8-3.8h11.4
		c2.09,0,3.8,1.71,3.8,3.8v11.4C19.5,17.79,17.79,19.5,15.7,19.5z"/>
	<path fill="none" stroke="#CBCBCB" stroke-miterlimit="10" d="M15.5,19.5h-11c-2.209,0-4-1.791-4-4v-11c0-2.209,1.791-4,4-4h11
		c2.209,0,4,1.791,4,4v11C19.5,17.709,17.709,19.5,15.5,19.5z"/>
	<path d="M9.371,12.406c0-0.182,0-0.31,0-0.383c0-0.474,0.072-0.893,0.219-1.258c0.072-0.255,0.236-0.51,0.492-0.766
		c0.146-0.219,0.428-0.51,0.848-0.875c0.419-0.364,0.692-0.665,0.82-0.902c0.127-0.236,0.191-0.482,0.191-0.738
		c0-0.474-0.183-0.893-0.547-1.258c-0.365-0.364-0.82-0.547-1.367-0.547c-0.511,0-0.948,0.164-1.313,0.492
		C8.35,6.5,8.113,7.011,8.004,7.703L6.746,7.539c0.109-0.911,0.446-1.613,1.012-2.105c0.564-0.492,1.321-0.738,2.27-0.738
		c0.984,0,1.768,0.265,2.352,0.793c0.583,0.529,0.875,1.176,0.875,1.941c0,0.438-0.109,0.839-0.328,1.203
		c-0.219,0.365-0.62,0.803-1.203,1.313c-0.401,0.365-0.666,0.629-0.793,0.793c-0.128,0.164-0.219,0.355-0.273,0.574
		s-0.082,0.584-0.082,1.094H9.371z M9.001,14.336v-0.077c0-0.535,0.434-0.968,0.968-0.968h0c0.535,0,0.968,0.434,0.968,0.968v0.077
		c0,0.535-0.434,0.968-0.968,0.968h0C9.435,15.305,9.001,14.871,9.001,14.336z"/>
</g>
</svg>
