<?xml version="1.0" encoding="UTF-8"?>
<svg width="16px" height="16px" viewBox="0 0 16 16" version="1.1" xmlns="http://www.w3.org/2000/svg" xmlns:xlink="http://www.w3.org/1999/xlink">
    <!-- Generator: Sketch 40.3 (33839) - http://www.bohemiancoding.com/sketch -->
    <title>bookmarks-active-16px</title>
    <desc>Created with Sketch.</desc>
    <defs></defs>
    <g id="Page-1" stroke="none" stroke-width="1" fill="none" fill-rule="evenodd">
        <g id="bookmarks-active-16px">
            <rect id="Rectangle-1" fill-opacity="0.5" fill="#A1A1A1" opacity="0" x="0" y="0" width="16" height="16"></rect>
            <path d="M1,4.45 L1,12.55 C1,12.7985281 1.22385763,13 1.5,13 L13.5,13 C13.7761424,13 14,12.7985281 14,12.55 L14,4.45 C14,4.20147186 13.7761424,4 13.5,4 L6,4 L1.5,4 C1.22385763,4 1,4.20147186 1,4.45 L1,4.45 L1,4.45 Z M4,4 L7,4 L7,11 L5.5,9.25 L4,11 L4,4 Z M2,2.5 C2,2.22385763 2.22385763,2 2.5,2 L9,2 L8.7763932,2.0527864 L10.7763932,1.0527864 C10.8458209,1.01807255 10.9223775,1 11,1 L12.5,1 C12.7761424,1 13,1.22385763 13,1.5 L13,3 L2,3 L2,2.5 Z" id="Combined-Shape" fill="#2CA7F8"></path>
        </g>
    </g>
</svg>