<?xml version="1.0" encoding="UTF-8"?>
<svg width="16px" height="16px" viewBox="0 0 16 16" version="1.1" xmlns="http://www.w3.org/2000/svg" xmlns:xlink="http://www.w3.org/1999/xlink">
    <!-- Generator: Sketch 40.3 (33839) - http://www.bohemiancoding.com/sketch -->
    <title>trash-active-16px</title>
    <desc>Created with Sketch.</desc>
    <defs></defs>
    <g id="Page-1" stroke="none" stroke-width="1" fill="none" fill-rule="evenodd">
        <g id="trash-active-16px">
            <rect id="Rectangle-1" fill-opacity="0.5" fill="#A1A1A1" opacity="0" x="0" y="0" width="16" height="16"></rect>
            <g id="回收站" transform="translate(1.000000, 1.000000)" fill="#2CA7F8">
                <path d="M2,3 L12,3 L12,13.4987692 C12,13.7755913 11.7723472,14 11.4903505,14 L2.50964952,14 C2.22817786,14 2,13.7702494 2,13.4987692 L2,3 Z M6,11.4259905 L6,4.53787667 C6,4.2617343 5.77614237,4.03787667 5.5,4.03787667 C5.22385763,4.03787667 5,4.2617343 5,4.53787667 L5,11.4259905 C5,11.7021329 5.22385763,11.9259905 5.5,11.9259905 C5.77614237,11.9259905 6,11.7021329 6,11.4259905 Z M9,11.4259905 L9,4.53787667 C9,4.2617343 8.77614237,4.03787667 8.5,4.03787667 C8.22385763,4.03787667 8,4.2617343 8,4.53787667 L8,11.4259905 C8,11.7021329 8.22385763,11.9259905 8.5,11.9259905 C8.77614237,11.9259905 9,11.7021329 9,11.4259905 Z M9.5,1 C9.77614237,1 10,0.776142375 10,0.5 C10,0.223857625 9.77614237,0 9.5,0 L4.5,0 C4.22385763,0 4,0.223857625 4,0.5 C4,0.776142375 4.22385763,1 4.5,1 L9.5,1 Z M13.4583333,3 C13.7344757,3 13.9583333,2.77614237 13.9583333,2.5 C13.9583333,2.22385763 13.7344757,2 13.4583333,2 L0.541666667,2 C0.265524292,2 0.0416666667,2.22385763 0.0416666667,2.5 C0.0416666667,2.77614237 0.265524292,3 0.541666667,3 L13.4583333,3 Z" id="Combined-Shape"></path>
            </g>
        </g>
    </g>
</svg>