<svg xmlns="http://www.w3.org/2000/svg" width="98" height="88" viewBox="0 0 98 88">
  <g fill-opacity=".1" fill-rule="evenodd">
    <path d="M78,3.90798505e-13 C84.627417,3.89581068e-13 90,5.372583 90,12 L90.0012591,32.5686154 C88.1839411,31.4039207 86.1613533,30.5332264 84.0007134,30.0223824 L84,12 C84,8.6862915 81.3137085,6 78,6 L12,6 C8.76160306,6 6.12242824,8.56557489 6.00413847,11.7750617 L6,12 L6,18 L5,18 C3.9456382,18 3.08183488,18.8158778 3.00548574,19.8507377 L3,20 L3,38 C3,39.0543618 3.81587779,39.9181651 4.85073766,39.9945143 L5,40 L6,40 L6,48 L5,48 C3.9456382,48 3.08183488,48.8158778 3.00548574,49.8507377 L3,50 L3,68 C3,69.0543618 3.81587779,69.9181651 4.85073766,69.9945143 L5,70 L6,70 L6,74 C6,77.2383969 8.56557489,79.8775718 11.7750617,79.9958615 L12,80 L54.5042985,80.0008879 C55.076855,82.224894 56.1155771,84.2617355 57.5100892,86.0010367 L12,86 C5.372583,86 4.34441886e-14,80.627417 4.26325641e-14,74 L4.26325641e-14,12 C4.18209396e-14,5.372583 5.372583,3.93792298e-13 12,3.90798505e-13 L78,3.90798505e-13 Z M77,12 C78.1045695,12 79,12.8954305 79,14 L79,29.5 L76.5,29.5 L76.1436997,29.5033631 L75.8011246,29.5131517 C65.3187656,29.9027181 57,38.4926778 57,49 L57,49 L57,54 L55,54 C54.4477153,54 54,54.4477153 54,55 L54,55 L54,75 L15,75 C13.8954305,75 13,74.1045695 13,73 L13,70 L14,70 C15.0543618,70 15.9181651,69.1841222 15.9945143,68.1492623 L16,68 L16,50 C16,48.9456382 15.1841222,48.0818349 14.1492623,48.0054857 L14,48 L13,48 L13,40 L14,40 C15.0543618,40 15.9181651,39.1841222 15.9945143,38.1492623 L16,38 L16,20 C16,18.9456382 15.1841222,18.0818349 14.1492623,18.0054857 L14,18 L13,18 L13,14 C13,12.8954305 13.8954305,12 15,12 L77,12 Z M12.5,51 C12.7761424,51 13,51.2238576 13,51.5 L13,66.5 C13,66.7761424 12.7761424,67 12.5,67 L6.5,67 C6.22385763,67 6,66.7761424 6,66.5 L6,51.5 C6,51.2238576 6.22385763,51 6.5,51 L12.5,51 Z M38,27 C29.163444,27 22,34.163444 22,43 C22,51.836556 29.163444,59 38,59 C46.836556,59 54,51.836556 54,43 C54,34.163444 46.836556,27 38,27 Z M30.6036213,50.5 C31.7081908,50.5 32.6036213,51.3954305 32.6036213,52.5 C32.6036213,53.6045695 31.7081908,54.5 30.6036213,54.5 C29.4990518,54.5 28.6036213,53.6045695 28.6036213,52.5 C28.6036213,51.3954305 29.4990518,50.5 30.6036213,50.5 Z M45.5074574,50.1074195 C46.6120269,50.1074195 47.5074574,51.00285 47.5074574,52.1074195 C47.5074574,53.211989 46.6120269,54.1074195 45.5074574,54.1074195 C44.4028879,54.1074195 43.5074574,53.211989 43.5074574,52.1074195 C43.5074574,51.00285 44.4028879,50.1074195 45.5074574,50.1074195 Z M38,35 C42.418278,35 46,38.581722 46,43 C46,47.418278 42.418278,51 38,51 C33.581722,51 30,47.418278 30,43 C30,38.581722 33.581722,35 38,35 Z M26.5129817,38 C27.6175512,38 28.5129817,38.8954305 28.5129817,40 C28.5129817,41.1045695 27.6175512,42 26.5129817,42 C25.4084122,42 24.5129817,41.1045695 24.5129817,40 C24.5129817,38.8954305 25.4084122,38 26.5129817,38 Z M49.2498096,37 C50.3543791,37 51.2498096,37.8954305 51.2498096,39 C51.2498096,40.1045695 50.3543791,41 49.2498096,41 C48.1452401,41 47.2498096,40.1045695 47.2498096,39 C47.2498096,37.8954305 48.1452401,37 49.2498096,37 Z M12.5,21 C12.7761424,21 13,21.2238576 13,21.5 L13,36.5 C13,36.7761424 12.7761424,37 12.5,37 L6.5,37 C6.22385763,37 6,36.7761424 6,36.5 L6,21.5 C6,21.2238576 6.22385763,21 6.5,21 L12.5,21 Z M38,29 C39.1045695,29 40,29.8954305 40,31 C40,32.1045695 39.1045695,33 38,33 C36.8954305,33 36,32.1045695 36,31 C36,29.8954305 36.8954305,29 38,29 Z"/>
    <path d="M97,57 C97.5522847,57 98,57.4477153 98,58 L98,76 C98,82.627417 92.627417,88 86,88 L70,88 C63.372583,88 58,82.627417 58,76 L58,58 C58,57.4477153 58.4477153,57 59,57 L97,57 Z M78,63 C75.2385763,63 73,65.2385763 73,68 C73,70.0504975 74.23431,71.8127064 76.0004611,72.5841577 L76.0004611,72.5841577 L76,79 C76,79.5522847 76.4477153,80 77,80 L77,80 L79,80 C79.5522847,80 80,79.5522847 80,79 L80,79 L80.0005324,72.5837237 C81.7661528,71.8120455 83,70.050113 83,68 C83,65.2385763 80.7614237,63 78,63 Z M79.5,33.5 C87.9547295,33.5 94.8284051,40.2692963 94.9968369,48.6836988 L95,49 L95,54 L88,54 L88,49 C88,44.3909327 84.331547,40.6386785 79.7551603,40.5037566 L79.5,40.5 L76.5,40.5 C71.8909327,40.5 68.1386785,44.168453 68.0037566,48.7448397 L68,49 L68,54 L61,54 L61,49 C61,40.5452705 67.7692963,33.6715949 76.1836988,33.5031631 L76.5,33.5 L79.5,33.5 Z"/>
  </g>
</svg>
