<?xml version="1.0" encoding="UTF-8" standalone="no"?>
<svg width="22px" height="22px" viewBox="0 0 22 22" version="1.1" xmlns="http://www.w3.org/2000/svg" xmlns:xlink="http://www.w3.org/1999/xlink">
    <!-- Generator: Sketch 3.6.1 (26313) - http://www.bohemiancoding.com/sketch -->
    <title>desktop_active_22px</title>
    <desc>Created with Sketch.</desc>
    <defs></defs>
    <g id="Page-1" stroke="none" stroke-width="1" fill="none" fill-rule="evenodd">
        <g id="desktop_active_22px">
            <rect id="Rectangle-1" opacity="0" x="0" y="0" width="22" height="22"></rect>
            <path d="M19,4 L19,17 L3,17 L3,4 L19,4 L19,4 Z M2,3.5 L2,17.5 C2,17.7761424 2.22385763,18 2.5,18 L19.5,18 C19.7761424,18 20,17.7761424 20,17.5 L20,3.5 C20,3.22385763 19.7761424,3 19.5,3 L3,3 L2.5,3 C2.22385763,3 2,3.22385763 2,3.5 L2,3.5 Z M14.5,16 C14.7761424,16 15,15.7761424 15,15.5 C15,15.2238576 14.7761424,15 14.5,15 L4.5,15 C4.22385763,15 4,15.2238576 4,15.5 C4,15.7761424 4.22385763,16 4.5,16 L14.5,16 L14.5,16 Z M16,4 L19,4 L19,17 L16,17 L16,4 L16,4 Z" id="Combined-Shape" fill="#FFFFFF"></path>
        </g>
    </g>
</svg>