<?xml version="1.0" encoding="UTF-8" standalone="no"?>
<svg width="22px" height="22px" viewBox="0 0 22 22" version="1.1" xmlns="http://www.w3.org/2000/svg" xmlns:xlink="http://www.w3.org/1999/xlink">
    <!-- Generator: Sketch 3.6.1 (26313) - http://www.bohemiancoding.com/sketch -->
    <title>disk_active_22px</title>
    <desc>Created with Sketch.</desc>
    <defs></defs>
    <g id="Page-1" stroke="none" stroke-width="1" fill="none" fill-rule="evenodd">
        <g id="disk_active_22px">
            <rect id="Rectangle-1" opacity="0" x="0" y="0" width="22" height="22"></rect>
            <path d="M3,19.5 C3,19.7761424 3.22385763,20 3.5,20 L18.5,20 C18.7761424,20 19,19.7761424 19,19.5 L19,2.5 C19,2.22385763 18.7761424,2 18.5,2 L3.5,2 C3.22385763,2 3,2.22385763 3,2.5 L3,19.5 Z M4,3 L18,3 L18,19 L4,19 L4,3 Z M4,15 L18,15 L18,19 L4,19 L4,15 Z M15.5,18 C15.7761424,18 16,17.7761424 16,17.5 C16,17.2238576 15.7761424,17 15.5,17 L6.5,17 C6.22385763,17 6,17.2238576 6,17.5 C6,17.7761424 6.22385763,18 6.5,18 L15.5,18 Z" id="Combined-Shape" fill="#FFFFFF"></path>
        </g>
    </g>
</svg>