<?xml version="1.0" encoding="UTF-8" standalone="no"?>
<svg width="22px" height="22px" viewBox="0 0 22 22" version="1.1" xmlns="http://www.w3.org/2000/svg" xmlns:xlink="http://www.w3.org/1999/xlink">
    <!-- Generator: Sketch 3.6.1 (26313) - http://www.bohemiancoding.com/sketch -->
    <title>download_active_22px</title>
    <desc>Created with Sketch.</desc>
    <defs></defs>
    <g id="Page-1" stroke="none" stroke-width="1" fill="none" fill-rule="evenodd">
        <g id="download_active_22px">
            <rect id="Rectangle-1" opacity="0" x="0" y="0" width="22" height="22"></rect>
            <path d="M15.5,3 C15.7761424,3 16,2.77614237 16,2.5 C16,2.22385763 15.7761424,2 15.5,2 L6.5,2 C6.22385763,2 6,2.22385763 6,2.5 C6,2.77614237 6.22385763,3 6.5,3 L15.5,3 Z" id="Line" fill="#FFFFFF"></path>
            <path d="M6,4.5 L6,6.5 C6,6.77614237 6.22385763,7 6.5,7 L15.5,7 C15.7761424,7 16,6.77614237 16,6.5 L16,4.5 C16,4.22385763 15.7761424,4 15.5,4 L6.5,4 C6.22385763,4 6,4.22385763 6,4.5 Z" id="Rectangle-29" fill="#FFFFFF"></path>
            <path d="M6.00097775,12 L2.50097768,12 C2.02355302,12 1.81770406,12.605221 2.1961223,12.896312 L10.6961223,20.896312 C10.8758482,21.0345627 11.1261072,21.0345627 11.3058331,20.896312 L19.8058331,12.896312 C20.1842513,12.605221 19.9784023,12 19.5009777,12 L16.0009775,12 L16.0009777,8.5 C16.0009777,8.22385763 15.7771201,8 15.5009777,8 L6.50097768,8 C6.2248353,8 6.00097768,8.22385763 6.00097768,8.5 L6.00097775,12 Z" id="Path-23" fill="#FFFFFF"></path>
        </g>
    </g>
</svg>