<?xml version="1.0" encoding="UTF-8" standalone="no"?>
<svg width="22px" height="22px" viewBox="0 0 22 22" version="1.1" xmlns="http://www.w3.org/2000/svg" xmlns:xlink="http://www.w3.org/1999/xlink">
    <!-- Generator: Sketch 3.8.3 (29802) - http://www.bohemiancoding.com/sketch -->
    <title>media_optical_symbolic_active_22px</title>
    <desc>Created with Sketch.</desc>
    <defs></defs>
    <g id="Page-1" stroke="none" stroke-width="1" fill="none" fill-rule="evenodd">
        <g id="media_optical_symbolic_active_22px">
            <rect id="Rectangle-1" opacity="0" x="0" y="0" width="22" height="22"></rect>
            <g id="Group" transform="translate(2.000000, 2.000000)" fill="#FFFFFF">
                <path d="M9,18 C13.9705627,18 18,13.9705627 18,9 C18,4.02943725 13.9705627,0 9,0 C4.02943725,0 0,4.02943725 0,9 C0,13.9705627 4.02943725,18 9,18 Z M9,2 C5.13400675,2 2,5.13400675 2,9 C2,9.27614237 2.22385763,9.5 2.5,9.5 C2.77614237,9.5 3,9.27614237 3,9 C3,5.6862915 5.6862915,3 9,3 C9.27614237,3 9.5,2.77614237 9.5,2.5 C9.5,2.22385763 9.27614237,2 9,2 Z M9,13 C11.209139,13 13,11.209139 13,9 C13,6.790861 11.209139,5 9,5 C6.790861,5 5,6.790861 5,9 C5,11.209139 6.790861,13 9,13 Z" id="Combined-Shape"></path>
            </g>
            <path d="M11,14 C12.6568542,14 14,12.6568542 14,11 C14,9.34314575 12.6568542,8 11,8 C9.34314575,8 8,9.34314575 8,11 C8,12.6568542 9.34314575,14 11,14 L11,14 Z M11,13 C9.8954305,13 9,12.1045695 9,11 C9,9.8954305 9.8954305,9 11,9 C12.1045695,9 13,9.8954305 13,11 C13,12.1045695 12.1045695,13 11,13 L11,13 Z" id="Oval-23" fill="#FFFFFF"></path>
        </g>
    </g>
</svg>