<?xml version="1.0" encoding="UTF-8" standalone="no"?>
<svg width="22px" height="22px" viewBox="0 0 22 22" version="1.1" xmlns="http://www.w3.org/2000/svg" xmlns:xlink="http://www.w3.org/1999/xlink">
    <!-- Generator: Sketch 3.6.1 (26313) - http://www.bohemiancoding.com/sketch -->
    <title>favourite_checked</title>
    <desc>Created with Sketch.</desc>
    <defs></defs>
    <g id="Page-1" stroke="none" stroke-width="1" fill="none" fill-rule="evenodd">
        <g id="favourite_checked">
            <rect id="Rectangle-1" opacity="0" x="0" y="0" width="22" height="22"></rect>
            <path d="M16.645182,20.5327357 C17.0119957,20.725581 17.4407119,20.4141005 17.3706567,20.0056474 C17.3706567,20.0056474 16.2338203,13.7768658 16.2985863,13.7137346 C17.8189145,12.2317808 20.859571,9.26787324 20.859571,9.26787324 C21.1563295,8.97860518 20.9925745,8.47461905 20.5824643,8.41502655 C20.5824643,8.41502655 14.3002902,7.5573427 14.2567882,7.46919796 C13.3206482,5.57237102 11.448368,1.77871714 11.448368,1.77871714 C11.2649612,1.40709429 10.7350388,1.40709429 10.551632,1.77871714 C10.551632,1.77871714 7.83639772,7.4823113 7.76000929,7.49341119 C5.64585142,7.80061631 1.41753568,8.41502655 1.41753568,8.41502655 C1.0074255,8.47461905 0.843670482,8.97860518 1.14042899,9.26787324 C1.14042899,9.26787324 5.72269993,13.6308892 5.70809326,13.7160526 C5.34850994,15.8125842 4.62934332,20.0056474 4.62934332,20.0056474 C4.55928813,20.4141005 4.98800435,20.725581 5.35481804,20.5327357 C5.35481804,20.5327357 9.11755265,18.554549 10.99892,17.5654557 C11.0768368,17.5244924 16.645182,20.5327357 16.645182,20.5327357 Z" id="Star-1" fill="#FFFFFF"></path>
        </g>
    </g>
</svg>