<?xml version="1.0" encoding="UTF-8" standalone="no"?>
<svg width="22px" height="22px" viewBox="0 0 22 22" version="1.1" xmlns="http://www.w3.org/2000/svg" xmlns:xlink="http://www.w3.org/1999/xlink">
    <!-- Generator: Sketch 3.6.1 (26313) - http://www.bohemiancoding.com/sketch -->
    <title>file_active_22px</title>
    <desc>Created with Sketch.</desc>
    <defs></defs>
    <g id="Page-1" stroke="none" stroke-width="1" fill="none" fill-rule="evenodd">
        <g id="file_active_22px">
            <rect id="Rectangle-1" opacity="0" x="0" y="0" width="22" height="22"></rect>
            <g transform="translate(2.500000, 3.000000)" id="Line" fill="#FFFFFF">
                <path d="M0.5,1 L17.5,1 C17.7761424,1 18,0.776142375 18,0.5 C18,0.223857625 17.7761424,0 17.5,0 L0.5,0 C0.223857625,0 0,0.223857625 0,0.5 C0,0.776142375 0.223857625,1 0.5,1 L0.5,1 Z"></path>
                <path d="M0.5,8 L17.5,8 C17.7761424,8 18,7.77614237 18,7.5 C18,7.22385763 17.7761424,7 17.5,7 L0.5,7 C0.223857625,7 0,7.22385763 0,7.5 C0,7.77614237 0.223857625,8 0.5,8 L0.5,8 Z"></path>
                <path d="M0.5,15 L17.5,15 C17.7761424,15 18,14.7761424 18,14.5 C18,14.2238576 17.7761424,14 17.5,14 L0.5,14 C0.223857625,14 0,14.2238576 0,14.5 C0,14.7761424 0.223857625,15 0.5,15 L0.5,15 Z"></path>
            </g>
        </g>
    </g>
</svg>