<?xml version="1.0" encoding="UTF-8" standalone="no"?>
<!-- Generator: Adobe Illustrator 18.0.0, SVG Export Plug-In . SVG Version: 6.00 Build 0)  -->

<svg
   xmlns:dc="http://purl.org/dc/elements/1.1/"
   xmlns:cc="http://creativecommons.org/ns#"
   xmlns:rdf="http://www.w3.org/1999/02/22-rdf-syntax-ns#"
   xmlns:svg="http://www.w3.org/2000/svg"
   xmlns="http://www.w3.org/2000/svg"
   xmlns:sodipodi="http://sodipodi.sourceforge.net/DTD/sodipodi-0.dtd"
   xmlns:inkscape="http://www.inkscape.org/namespaces/inkscape"
   version="1.1"
   id="图层_1"
   x="0px"
   y="0px"
   viewBox="0 0 16 16"
   style="enable-background:new 0 0 16 16;"
   xml:space="preserve"
   inkscape:version="0.91 r13725"
   sodipodi:docname="folder-pictures-symbolic.svg"><metadata
     id="metadata15"><rdf:RDF><cc:Work
         rdf:about=""><dc:format>image/svg+xml</dc:format><dc:type
           rdf:resource="http://purl.org/dc/dcmitype/StillImage" /></cc:Work></rdf:RDF></metadata><defs
     id="defs13" /><sodipodi:namedview
     pagecolor="#ffffff"
     bordercolor="#666666"
     borderopacity="1"
     objecttolerance="10"
     gridtolerance="10"
     guidetolerance="10"
     inkscape:pageopacity="0"
     inkscape:pageshadow="2"
     inkscape:window-width="1920"
     inkscape:window-height="984"
     id="namedview11"
     showgrid="false"
     inkscape:zoom="14.75"
     inkscape:cx="8.1355932"
     inkscape:cy="8"
     inkscape:window-x="0"
     inkscape:window-y="0"
     inkscape:window-maximized="1"
     inkscape:current-layer="图层_1" /><path
     style="fill:#9fa0a0"
     d="M 1.0058594 2 L 1.0058594 14 L 15.005859 14 L 15.005859 2 L 1.0058594 2 z M 2.0058594 3 L 14.005859 3 L 14.005859 13 L 2.0058594 13 L 2.0058594 3 z M 4.4941406 4.015625 A 1.5 1.5 0 0 0 2.9941406 5.515625 A 1.5 1.5 0 0 0 4.4941406 7.015625 A 1.5 1.5 0 0 0 5.9941406 5.515625 A 1.5 1.5 0 0 0 4.4941406 4.015625 z M 9.2851562 6.9882812 L 7.375 9.4882812 L 6.1445312 8.2539062 L 3.0058594 11.974609 L 2.9941406 12 L 3.0058594 12 L 13.005859 12 L 9.2851562 6.9882812 z "
     id="circle5" /></svg>