<?xml version="1.0" encoding="iso-8859-1"?>
<!-- Generator: Adobe Illustrator 18.0.0, SVG Export Plug-In . SVG Version: 6.00 Build 0)  -->
<!DOCTYPE svg PUBLIC "-//W3C//DTD SVG 1.1//EN" "http://www.w3.org/Graphics/SVG/1.1/DTD/svg11.dtd">
<svg version="1.1" id="&#x56FE;&#x5C42;_1" xmlns="http://www.w3.org/2000/svg" xmlns:xlink="http://www.w3.org/1999/xlink" x="0px"
	 y="0px" viewBox="0 0 16 16" style="enable-background:new 0 0 16 16;" xml:space="preserve">
<path style="fill:#9FA0A0;" d="M14,1H2v13h12V1z M10,2v5H6V2H10z M3,2h2v2H3V2z M3,5h2v2H3V5z M3,8h2v2H3V8z M3,13v-2h2v2H3z M6,13
	V8h4v5H6z M13,13h-2v-2h2V13z M13,10h-2V8h2V10z M13,7h-2V5h2V7z M11,4V2h2v2H11z"/>
</svg>
