<?xml version="1.0" encoding="iso-8859-1"?>
<!-- Generator: Adobe Illustrator 18.0.0, SVG Export Plug-In . SVG Version: 6.00 Build 0)  -->
<!DOCTYPE svg PUBLIC "-//W3C//DTD SVG 1.1//EN" "http://www.w3.org/Graphics/SVG/1.1/DTD/svg11.dtd">
<svg version="1.1" id="&#x56FE;&#x5C42;_1" xmlns="http://www.w3.org/2000/svg" xmlns:xlink="http://www.w3.org/1999/xlink" x="0px"
	 y="0px" viewBox="0 0 16 16" style="enable-background:new 0 0 16 16;" xml:space="preserve">
<g>
	<polygon style="fill:#9FA0A0;" points="7,4 7,9 12,9 12,8 8,8 8,4 	"/>
	<path style="fill:#9FA0A0;" d="M8.028,1.214c-1.891,0-3.229,0.308-4.876,1.935L3.011,3.288L1.938,2.216l-0.66,3.614l3.614-0.66
		L3.805,4.082L3.95,3.941c0.969-0.944,2.646-1.603,4.079-1.603c3.115,0,5.65,2.538,5.65,5.657c0,3.118-2.537,5.655-5.655,5.655
		c-3.023,0-5.508-2.395-5.647-5.386L1.262,8.474c0.245,3.547,3.182,6.301,6.76,6.301c3.739,0,6.78-3.042,6.78-6.781
		S11.764,1.214,8.028,1.214z"/>
</g>
</svg>
