<?xml version="1.0" encoding="UTF-8" standalone="no"?>
<svg width="16px" height="16px" viewBox="0 0 16 16" version="1.1" xmlns="http://www.w3.org/2000/svg" xmlns:xlink="http://www.w3.org/1999/xlink">
    <!-- Generator: Sketch 3.6.1 (26313) - http://www.bohemiancoding.com/sketch -->
    <title>hierarchical_view_active</title>
    <desc>Created with Sketch.</desc>
    <defs></defs>
    <g id="Page-1" stroke="none" stroke-width="1" fill="none" fill-rule="evenodd">
        <g id="hierarchical_view_active">
            <rect id="Rectangle-1" opacity="0" x="0" y="0" width="16" height="16"></rect>
            <path d="M6,4 L3,4 L3,12 L14,12 L14,4.5 L14,4 L15,4 L15,4.5 L15,12.5 L15,12.75 L15,13 L14.5,13 L2.5,13 L2.25,13 L2,13 L2,12.5 L2,3.5 L2,3.25 L2,3 L2.5,3 L14.5,3 L15,3 L15,4 L14.5,4 L11,4 L11,11.5 L11,12 L10,12 L10,11.5 L10,4 L7,4 L7,11.5 L7,12 L6,12 L6,11.5 L6,4 Z" id="分级视图-2" fill="#FFFFFF"></path>
        </g>
    </g>
</svg>