<?xml version="1.0" encoding="UTF-8" standalone="no"?>
<svg width="22px" height="22px" viewBox="0 0 22 22" version="1.1" xmlns="http://www.w3.org/2000/svg" xmlns:xlink="http://www.w3.org/1999/xlink">
    <!-- Generator: Sketch 3.6.1 (26313) - http://www.bohemiancoding.com/sketch -->
    <title>home_active_22px</title>
    <desc>Created with Sketch.</desc>
    <defs></defs>
    <g id="Page-1" stroke="none" stroke-width="1" fill="none" fill-rule="evenodd">
        <g id="home_active_22px">
            <rect id="Rectangle-1" opacity="0" x="0" y="0" width="22" height="22"></rect>
            <path d="M4.50100632,13 L4.00100632,12.5 L4.00100632,20.5 C4.00100632,20.7761424 4.22486395,21 4.50100632,21 L17.5010063,21 C17.7771487,21 18.0010063,20.7761424 18.0010063,20.5 L18.0010063,12.5 L17.5010063,13 L20.5010063,13 C20.9530024,13 21.1730064,12.4478815 20.8448786,12.1370237 L11.3448786,3.13702366 C11.1520305,2.95432545 10.8499821,2.95432545 10.657134,3.13702366 L1.157134,12.1370237 C0.829006235,12.4478815 1.04901025,13 1.50100632,13 L4.50100632,13 Z M10.4732732,11.5753005 L11.001292,12.0962063 L11.5293109,11.5753005 C12.3064815,10.8082332 13.5676694,10.8082332 14.34484,11.5753005 C15.2197284,12.4386159 15.2197284,13.8374201 14.34484,14.7007354 L11.001292,18 L7.65717261,14.7007354 C6.78228422,13.8374201 6.78228422,12.4386159 7.65717261,11.5753005 C8.43491467,10.8082332 9.69553113,10.8082332 10.4732732,11.5753005 Z" id="Combined-Shape" fill="#FFFFFF"></path>
        </g>
    </g>
</svg>