<?xml version="1.0" encoding="UTF-8" standalone="no"?>
<svg width="22px" height="22px" viewBox="0 0 22 22" version="1.1" xmlns="http://www.w3.org/2000/svg" xmlns:xlink="http://www.w3.org/1999/xlink">
    <!-- Generator: Sketch 3.8.3 (29802) - http://www.bohemiancoding.com/sketch -->
    <title>iphone_active_22px</title>
    <desc>Created with Sketch.</desc>
    <defs></defs>
    <g id="Page-1" stroke="none" stroke-width="1" fill="none" fill-rule="evenodd">
        <g id="iphone_active_22px">
            <rect id="Rectangle-1" opacity="0" x="0" y="0" width="22" height="22"></rect>
            <path d="M4,2.49850233 L4,19.5014977 C4,20.329072 4.76587784,21 5.7114796,21 L16.2885204,21 C17.2337314,21 18,20.3286648 18,19.5014977 L18,2.49850233 C18,1.67092796 17.2341222,1 16.2885204,1 L5.7114796,1 C4.76626861,1 4,1.6713352 4,2.49850233 Z M10.5,20 L11.5,20 C11.7761424,20 12,19.7761424 12,19.5 C12,19.2238576 11.7761424,19 11.5,19 L10.5,19 C10.2238576,19 10,19.2238576 10,19.5 C10,19.7761424 10.2238576,20 10.5,20 Z M16.4195312,3 C16.7401949,3 17,3.22295086 17,3.49850233 L17,17.5014977 C17,17.7766635 16.7397707,18 16.4195312,18 L5.58046875,18 C5.25980506,18 5,17.7770491 5,17.5014977 L5,3.49850233 C5,3.22333648 5.26022926,3 5.58046875,3 L16.4195312,3 Z M6,4 L16,4 L16,17 L6,17 L6,4 Z" id="Combined-Shape" fill="#FFFFFF"></path>
        </g>
    </g>
</svg>