<?xml version="1.0" encoding="UTF-8" standalone="no"?>
<svg width="16px" height="16px" viewBox="0 0 16 16" version="1.1" xmlns="http://www.w3.org/2000/svg" xmlns:xlink="http://www.w3.org/1999/xlink">
    <!-- Generator: Sketch 3.8.3 (29802) - http://www.bohemiancoding.com/sketch -->
    <title>network_server_symbolic_active_16px</title>
    <desc>Created with Sketch.</desc>
    <defs></defs>
    <g id="Page-1" stroke="none" stroke-width="1" fill="none" fill-rule="evenodd">
        <g id="network_server_symbolic_active_16px">
            <rect id="Rectangle-1" opacity="0" x="0" y="0" width="16" height="16"></rect>
            <path d="M7.92436674,5.06378433 C7.63393157,5.06378433 7.37160303,4.9529193 7.16861071,4.77647213 C6.42456578,5.30737512 5.79450885,5.88043806 5.26594807,6.46989653 C5.40257752,6.65961627 5.48533593,6.89149596 5.48533593,7.14289414 C5.48533593,7.26468954 5.461133,7.37867753 5.42678045,7.48876183 C6.64551512,8.35304067 8.24368927,9.0892782 10.2775162,9.36409858 C10.3805738,9.17672105 10.5328181,9.02291533 10.7178534,8.91751547 C10.2134955,7.24595178 9.39215736,5.92572096 8.51226373,4.89826752 C8.33893951,5.00132516 8.13985089,5.06378433 7.92436674,5.06378433" id="Fill-1" fill="#FFFFFF"></path>
            <path d="M12.4440825,10.2929446 C12.3621048,10.5318509 12.2090798,10.7371855 12.004526,10.8777186 C12.0732311,11.4679578 12.0888459,12.1034799 12.0786963,12.7585205 C11.8241751,12.9771277 11.5509162,13.1730933 11.263604,13.3487598 C11.3073255,12.5414749 11.2971758,11.7740078 11.2191019,11.0650961 C11.0645154,11.0471391 10.9200786,10.999514 10.7904758,10.9269052 C9.72086239,11.5983414 8.08521273,12.7475902 6.84695958,14.160729 C6.54793627,14.1045158 6.25750111,14.0256611 5.97565408,13.9288494 C7.28183159,12.3259908 9.06894475,11.0393317 10.2595728,10.2866987 C10.2478617,10.2531269 10.2361506,10.2203358 10.2275625,10.1852025 C8.0235343,9.89008291 6.29341513,9.08045584 4.97708801,8.13732229 C4.80532527,8.23881845 4.60701739,8.30127763 4.39231398,8.30127763 C4.2650534,8.30127763 4.14403875,8.27551322 4.02927002,8.23725697 C3.29849766,9.45833386 2.91827743,10.5943101 2.72387325,11.3664617 C2.51229279,11.0346473 2.33038044,10.681753 2.18282064,10.3109016 C2.43265734,9.56061076 2.81053535,8.65807567 3.38906347,7.71103842 C3.29381322,7.54239864 3.23447701,7.35033668 3.23447701,7.14344066 C3.23447701,6.98729272 3.26648733,6.83895218 3.32191985,6.70310347 C2.8940745,6.25417815 2.55757569,5.83179797 2.28509754,5.4547007 C2.41079663,5.17363441 2.55757569,4.90505995 2.72153103,4.64741586 C2.99713214,5.05886567 3.37969459,5.56634648 3.89029835,6.10427613 C4.04254259,6.03010586 4.21196311,5.98482295 4.39231398,5.98482295 C4.47663386,5.98482295 4.55861153,5.99497257 4.63746624,6.01214884 C5.24097802,5.32431717 5.9701889,4.65444251 6.8453981,4.04234259 C6.83993292,3.99705969 6.83212552,3.95255753 6.83212552,3.90571315 C6.83212552,3.7042823 6.88833878,3.51768552 6.97890458,3.3521687 C6.38944612,2.88138267 5.84761277,2.5339535 5.43069777,2.29660863 C5.74221291,2.15529475 6.06700062,2.04130675 6.40271869,1.95230243 C6.76342043,2.1857436 7.16628211,2.46915211 7.59646968,2.82048497 C7.71982656,2.77598281 7.85099082,2.74787618 7.98996249,2.74787618 C8.24916807,2.74787618 8.48651294,2.83609976 8.67935564,2.97975587 C9.2352423,2.70961993 9.85124592,2.47383654 10.4969177,2.25679091 C10.8404431,2.40591219 11.1683538,2.58470158 11.476746,2.79081686 C10.6124671,3.03518839 9.83250817,3.33421169 9.12437727,3.67227198 C9.13999206,3.74800373 9.14779946,3.8260777 9.14779946,3.90571315 C9.14779946,4.02750854 9.12359653,4.14305801 9.08924398,4.25392305 C10.0901523,5.38989931 11.0254784,6.8826736 11.5813651,8.78533624 C11.9608046,8.86184873 12.2731005,9.28579038 12.4198795,9.63400029 C12.8430404,9.62228919 13.5464869,9.54811892 14.0922239,9.47316791 C14.0336685,9.71441648 13.9610597,9.94941912 13.8759591,10.1781759 C13.384093,10.2367313 12.9023767,10.279672 12.4440825,10.2929446 M8.00479654,0.9998 C4.14247727,0.9998 1,4.14227727 1,8.00459654 C1,11.8676966 4.14247727,15.0101738 8.00479654,15.0101738 C11.8678966,15.0101738 15.0103738,11.8676966 15.0103738,8.00459654 C15.0103738,4.14227727 11.8678966,0.9998 8.00479654,0.9998" id="Fill-3" fill="#FFFFFF"></path>
        </g>
    </g>
</svg>