<?xml version="1.0" encoding="UTF-8" standalone="no"?>
<svg width="22px" height="22px" viewBox="0 0 22 22" version="1.1" xmlns="http://www.w3.org/2000/svg" xmlns:xlink="http://www.w3.org/1999/xlink">
    <!-- Generator: Sketch 3.8.3 (29802) - http://www.bohemiancoding.com/sketch -->
    <title>drive_harddisk_usb_symbolic_active_22px</title>
    <desc>Created with Sketch.</desc>
    <defs></defs>
    <g id="Page-1" stroke="none" stroke-width="1" fill="none" fill-rule="evenodd">
        <g id="drive_harddisk_usb_symbolic_active_22px">
            <rect id="Rectangle-1" opacity="0" x="0" y="0" width="22" height="22"></rect>
            <g id="Group" transform="translate(1.000000, 2.000000)" fill="#FFFFFF">
                <path d="M6.33015626,11.962737 L5.19072101,13.1021722 C5.18655521,13.1061957 5.18245662,13.1102939 5.178427,13.1144663 L3.87847811,14.4144151 C3.48309243,14.152493 3.0089771,14 2.49936367,14 C1.11716462,14 2.91254012e-16,15.118232 -5.55111512e-17,16.5012739 C-4.02559584e-16,17.8822599 1.1176566,19 2.49936367,19 C3.87945097,19 5,17.8813359 5,16.5012739 C5,15.991206 4.84745198,15.5169522 4.58555883,15.121548 L5.69183643,14.0152704 L10.9556553,15.3312251 C11.1260428,15.373822 11.3062863,15.3238974 11.4304765,15.1997072 L14.0450286,12.5851551 L14.8832161,13.4233426 C15.0784782,13.6186048 15.3950607,13.6186048 15.5903228,13.4233426 L17.9525302,11.0611352 C18.1477924,10.8658731 18.1477924,10.5492906 17.9525302,10.3540285 L15.5903228,7.99182108 C15.3950607,7.79655894 15.0784782,7.79655894 14.8832161,7.99182108 L12.5210087,10.3540285 C12.3257465,10.5492906 12.3257465,10.8658731 12.5210087,11.0611352 L13.3379218,11.8780484 L10.7233697,14.4926005 L11.1981909,14.3610826 L6.51645758,13.1906493 L7.26839667,12.4387102 C7.27394946,12.4334087 7.27936681,12.4279902 7.2846464,12.4224605 L15.6966508,4.01045638 L17.4341194,5.74792501 C17.7254634,6.03926903 18.2243787,5.87296392 18.2826475,5.4650823 L18.9749552,0.618928452 C19.0220957,0.288945287 18.739253,0.00610257453 18.4092698,0.0532430266 L13.5631159,0.745550719 C13.1552343,0.803819522 12.9889292,1.30273484 13.2802732,1.59407886 L14.989544,3.30334959 L7.09173357,11.2011597 L5.30572636,7.03380958 L5.21210083,7.5714785 L7.0835623,5.56139031 C7.48587565,5.83809422 7.97349567,6 8.49936367,6 C9.87945097,6 11,4.8813359 11,3.50127389 C11,2.11915718 9.87994345,1 8.49936367,1 C7.11716462,1 6,2.11823197 6,3.50127389 C6,3.99419465 6.14239149,4.45357739 6.38835755,4.84056483 L4.48020686,6.89005996 C4.34531294,7.03494602 4.30860089,7.24577452 4.38658133,7.42772888 L6.33015626,11.962737 L6.33015626,11.962737 Z" id="Combined-Shape"></path>
            </g>
        </g>
    </g>
</svg>