<?xml version="1.0" encoding="iso-8859-1"?>
<!-- Generator: Adobe Illustrator 18.0.0, SVG Export Plug-In . SVG Version: 6.00 Build 0)  -->
<!DOCTYPE svg PUBLIC "-//W3C//DTD SVG 1.1//EN" "http://www.w3.org/Graphics/SVG/1.1/DTD/svg11.dtd">
<svg version="1.1" id="&#x56FE;&#x5C42;_1" xmlns="http://www.w3.org/2000/svg" xmlns:xlink="http://www.w3.org/1999/xlink" x="0px"
	 y="0px" viewBox="0 0 16 16" style="enable-background:new 0 0 16 16;" xml:space="preserve">
<g>
	<path style="fill:#9FA0A0;" d="M13.505,2h-3c-0.275,0-0.5-0.225-0.5-0.5c0-0.275-0.225-0.5-0.5-0.5h-3c-0.275,0-0.5,0.225-0.5,0.5
		c0,0.275-0.225,0.5-0.5,0.5h-3c-0.275,0-0.5,0.225-0.5,0.5c0,0.275,0.225,0.5,0.5,0.5h11c0.275,0,0.5-0.225,0.5-0.5
		C14.005,2.225,13.78,2,13.505,2z"/>
	<path style="fill:#9FA0A0;" d="M3.005,15h10V4h-10V15z M10.005,5.99c0-0.547,0.443-0.99,0.99-0.99h0.02
		c0.547,0,0.99,0.443,0.99,0.99v7.02c0,0.547-0.443,0.99-0.99,0.99h-0.02c-0.547,0-0.99-0.443-0.99-0.99V5.99z M7.005,5.99
		C7.005,5.443,7.449,5,7.995,5h0.02c0.547,0,0.99,0.443,0.99,0.99v7.02c0,0.547-0.443,0.99-0.99,0.99h-0.02
		c-0.547,0-0.99-0.443-0.99-0.99V5.99z M4.005,5.99C4.005,5.443,4.449,5,4.995,5h0.02c0.547,0,0.99,0.443,0.99,0.99v7.02
		c0,0.547-0.443,0.99-0.99,0.99h-0.02c-0.547,0-0.99-0.443-0.99-0.99V5.99z"/>
</g>
</svg>
