<?xml version="1.0" encoding="UTF-8" standalone="no"?>
<svg width="48px" height="48px" viewBox="0 0 48 48" version="1.1" xmlns="http://www.w3.org/2000/svg" xmlns:xlink="http://www.w3.org/1999/xlink">
    <!-- Generator: Sketch 3.8.3 (29802) - http://www.bohemiancoding.com/sketch -->
    <title>drive-network</title>
    <desc>Created with Sketch.</desc>
    <defs>
        <filter x="-50%" y="-50%" width="200%" height="200%" filterUnits="objectBoundingBox" id="filter-1">
            <feOffset dx="0" dy="1" in="SourceAlpha" result="shadowOffsetOuter1"></feOffset>
            <feGaussianBlur stdDeviation="1" in="shadowOffsetOuter1" result="shadowBlurOuter1"></feGaussianBlur>
            <feColorMatrix values="0 0 0 0 0   0 0 0 0 0   0 0 0 0 0  0 0 0 0.3 0" type="matrix" in="shadowBlurOuter1" result="shadowMatrixOuter1"></feColorMatrix>
            <feMerge>
                <feMergeNode in="shadowMatrixOuter1"></feMergeNode>
                <feMergeNode in="SourceGraphic"></feMergeNode>
            </feMerge>
        </filter>
        <linearGradient x1="50%" y1="0.410554847%" x2="50%" y2="100%" id="linearGradient-2">
            <stop stop-color="#9DDA00" offset="0%"></stop>
            <stop stop-color="#73C300" offset="100%"></stop>
        </linearGradient>
    </defs>
    <g id="Page-1" stroke="none" stroke-width="1" fill="none" fill-rule="evenodd">
        <g id="drive-network">
            <g id="Group-3" filter="url(#filter-1)" transform="translate(7.000000, 4.000000)">
                <rect id="Rectangle-1" fill="url(#linearGradient-2)" x="0" y="0" width="34" height="35" rx="1"></rect>
                <rect id="Rectangle-3" fill="#FFFFFF" x="0" y="30" width="34" height="6"></rect>
                <rect id="Rectangle-1" fill="#DCDDDD" x="0" y="34" width="34" height="6" rx="1"></rect>
                <g id="Group" transform="translate(19.000000, 35.000000)" fill="#75C500">
                    <rect id="Rectangle-path" x="10.987" y="0.996" width="1" height="2"></rect>
                    <rect id="Rectangle-path" x="8.987" y="0.996" width="1" height="2"></rect>
                    <rect id="Rectangle-path" x="6.987" y="0.996" width="1" height="2"></rect>
                    <rect id="Rectangle-path" x="4.987" y="0.996" width="1" height="2"></rect>
                    <rect id="Rectangle-path" x="2.987" y="0.996" width="1" height="2"></rect>
                    <rect id="Rectangle-path" x="0.987" y="0.996" width="1" height="2"></rect>
                </g>
                <path d="M5,38 C5.55228475,38 6,37.5522847 6,37 C6,36.4477153 5.55228475,36 5,36 C4.44771525,36 4,36.4477153 4,37 C4,37.5522847 4.44771525,38 5,38 Z" id="Oval" fill="#75C600"></path>
            </g>
            <g id="Group-2" transform="translate(15.000000, 10.000000)">
                <path d="M17.4722,8.9722 C17.4722,13.6662 13.6662,17.4722 8.9722,17.4722 C4.2782,17.4722 0.4722,13.6662 0.4722,8.9722 C0.4722,4.2782 4.2782,0.4722 8.9722,0.4722 C13.6662,0.4722 17.4722,4.2782 17.4722,8.9722 L17.4722,8.9722 Z" id="Stroke-1" stroke="#FFFFFF" stroke-width="0.944"></path>
                <path d="M17.1966,11.1223 C7.1716,12.9643 2.6716,6.6013 1.5916,4.7493" id="Stroke-3" stroke="#FFFFFF"></path>
                <path d="M1.8102,13.5488 C2.2212,11.3958 4.2842,4.1378 13.6212,1.8568" id="Stroke-5" stroke="#FFFFFF"></path>
                <path d="M13.5357,16.1432 C14.3237,6.4222 7.5997,2.2082 5.5917,1.1732" id="Stroke-7" stroke="#FFFFFF"></path>
                <path d="M13.308,11.4479 C13.308,11.4479 8.832,13.7799 6.383,17.0689" id="Stroke-9" stroke="#FFFFFF"></path>
                <path d="M10.4526,3.6628 C10.4526,4.4908 9.7806,5.1628 8.9526,5.1628 C8.1246,5.1628 7.4526,4.4908 7.4526,3.6628 C7.4526,2.8348 8.1246,2.1628 8.9526,2.1628 C9.7806,2.1628 10.4526,2.8348 10.4526,3.6628" id="Fill-11" fill="#FFFFFF"></path>
                <path d="M5.793,7.856 C5.793,8.684 5.121,9.356 4.293,9.356 C3.465,9.356 2.793,8.684 2.793,7.856 C2.793,7.028 3.465,6.356 4.293,6.356 C5.121,6.356 5.793,7.028 5.793,7.856" id="Fill-13" fill="#FFFFFF"></path>
                <path d="M14.808,11.4533 C14.808,12.2813 14.136,12.9533 13.308,12.9533 C12.48,12.9533 11.808,12.2813 11.808,11.4533 C11.808,10.6253 12.48,9.9533 13.308,9.9533 C14.136,9.9533 14.808,10.6253 14.808,11.4533" id="Fill-15" fill="#FFFFFF"></path>
            </g>
        </g>
    </g>
</svg>