<?xml version="1.0" encoding="UTF-8" standalone="no"?>
<svg width="48px" height="48px" viewBox="0 0 48 48" version="1.1" xmlns="http://www.w3.org/2000/svg" xmlns:xlink="http://www.w3.org/1999/xlink">
    <!-- Generator: Sketch 3.8.3 (29802) - http://www.bohemiancoding.com/sketch -->
    <title>media-cdrw</title>
    <desc>Created with Sketch.</desc>
    <defs>
        <path d="M21,42 C32.5979797,42 42,32.5979797 42,21 C42,9.40202025 32.5979797,0 21,0 C9.40202025,0 0,9.40202025 0,21 C0,32.5979797 9.40202025,42 21,42 L21,42 Z M21,28 C24.8659932,28 28,24.8659932 28,21 C28,17.1340068 24.8659932,14 21,14 C17.1340068,14 14,17.1340068 14,21 C14,24.8659932 17.1340068,28 21,28 L21,28 Z" id="path-1"></path>
        <filter x="-50%" y="-50%" width="200%" height="200%" filterUnits="objectBoundingBox" id="filter-3">
            <feOffset dx="0" dy="1" in="SourceAlpha" result="shadowOffsetOuter1"></feOffset>
            <feGaussianBlur stdDeviation="1" in="shadowOffsetOuter1" result="shadowBlurOuter1"></feGaussianBlur>
            <feColorMatrix values="0 0 0 0 0   0 0 0 0 0   0 0 0 0 0  0 0 0 0.2 0" type="matrix" in="shadowBlurOuter1"></feColorMatrix>
        </filter>
        <filter x="-50%" y="-50%" width="200%" height="200%" filterUnits="objectBoundingBox" id="filter-4">
            <feGaussianBlur stdDeviation="7" in="SourceGraphic"></feGaussianBlur>
        </filter>
        <filter x="-50%" y="-50%" width="200%" height="200%" filterUnits="objectBoundingBox" id="filter-5">
            <feGaussianBlur stdDeviation="7" in="SourceGraphic"></feGaussianBlur>
        </filter>
        <linearGradient x1="6.70551579%" y1="17.4245954%" x2="94.6749459%" y2="17.4245954%" id="linearGradient-6">
            <stop stop-color="#FFFFFF" stop-opacity="0" offset="0%"></stop>
            <stop stop-color="#FFFFFF" offset="51.4547655%"></stop>
            <stop stop-color="#FFFFFF" stop-opacity="0" offset="100%"></stop>
        </linearGradient>
        <filter x="-50%" y="-50%" width="200%" height="200%" filterUnits="objectBoundingBox" id="filter-7">
            <feGaussianBlur stdDeviation="1.32157629" in="SourceGraphic"></feGaussianBlur>
        </filter>
        <filter x="-50%" y="-50%" width="200%" height="200%" filterUnits="objectBoundingBox" id="filter-8">
            <feGaussianBlur stdDeviation="0" in="SourceGraphic"></feGaussianBlur>
        </filter>
        <filter x="-50%" y="-50%" width="200%" height="200%" filterUnits="objectBoundingBox" id="filter-9">
            <feGaussianBlur stdDeviation="0" in="SourceGraphic"></feGaussianBlur>
        </filter>
        <filter x="-50%" y="-50%" width="200%" height="200%" filterUnits="objectBoundingBox" id="filter-10">
            <feGaussianBlur stdDeviation="0" in="SourceGraphic"></feGaussianBlur>
        </filter>
        <filter x="-50%" y="-50%" width="200%" height="200%" filterUnits="objectBoundingBox" id="filter-11">
            <feGaussianBlur stdDeviation="0" in="SourceGraphic"></feGaussianBlur>
        </filter>
        <filter x="-50%" y="-50%" width="200%" height="200%" filterUnits="objectBoundingBox" id="filter-12">
            <feGaussianBlur stdDeviation="0" in="SourceGraphic"></feGaussianBlur>
        </filter>
        <filter x="-50%" y="-50%" width="200%" height="200%" filterUnits="objectBoundingBox" id="filter-13">
            <feGaussianBlur stdDeviation="0" in="SourceGraphic"></feGaussianBlur>
        </filter>
        <filter x="-50%" y="-50%" width="200%" height="200%" filterUnits="objectBoundingBox" id="filter-14">
            <feGaussianBlur stdDeviation="0" in="SourceGraphic"></feGaussianBlur>
        </filter>
        <filter x="-50%" y="-50%" width="200%" height="200%" filterUnits="objectBoundingBox" id="filter-15">
            <feGaussianBlur stdDeviation="0" in="SourceGraphic"></feGaussianBlur>
        </filter>
    </defs>
    <g id="Page-1" stroke="none" stroke-width="1" fill="none" fill-rule="evenodd">
        <g id="media-cdrw">
            <g id="Group-4" transform="translate(3.000000, 3.000000)">
                <mask id="mask-2" fill="white">
                    <use xlink:href="#path-1"></use>
                </mask>
                <g id="Mask">
                    <use fill="black" fill-opacity="1" filter="url(#filter-3)" xlink:href="#path-1"></use>
                    <use fill="#D8D8D8" fill-rule="evenodd" xlink:href="#path-1"></use>
                </g>
                <g id="Group-2" opacity="0.7" mask="url(#mask-2)">
                    <g transform="translate(-6.000000, -8.000000)">
                        <path d="M27.7950338,29 L46.6925507,8 L8.89751688,8 L27.7950338,29 Z M27.7950338,29 L46.6925507,50 L8.89751688,50 L27.7950338,29 Z" id="Combined-Shape" fill="#55DADF" filter="url(#filter-4)"></path>
                        <path d="M26.8975169,28.8975169 L45.7950338,7.89751688 L8,7.89751688 L26.8975169,28.8975169 Z M26.8975169,28.8975169 L45.7950338,49.8975169 L8,49.8975169 L26.8975169,28.8975169 Z" id="Combined-Shape-Copy" fill="#F58CEA" filter="url(#filter-5)" transform="translate(26.897517, 28.897517) rotate(-90.000000) translate(-26.897517, -28.897517) "></path>
                        <g id="Group-5" stroke-width="1" fill="none" transform="translate(27.500000, 29.000000) rotate(-9.000000) translate(-27.500000, -29.000000) translate(4.000000, 4.000000)">
                            <path d="M23.7950338,25 L36.8462753,4 L10.7437922,4 L23.7950338,25 Z M23.7950338,25 L36.8462753,46 L10.7437922,46 L23.7950338,25 Z" id="Combined-Shape-Copy-2" fill="url(#linearGradient-6)" opacity="0.4" filter="url(#filter-7)" transform="translate(23.795034, 25.000000) rotate(-36.000000) translate(-23.795034, -25.000000) "></path>
                            <path d="M23.7950338,25 L26.1899163,3.16458835 L21.4001513,3.16458835 L23.7950338,25 Z M23.7950338,25 L26.1899163,46.8354117 L21.4001513,46.8354117 L23.7950338,25 Z" id="Combined-Shape-Copy-3" fill-opacity="0.3" fill="#FFFFFF" filter="url(#filter-8)" transform="translate(23.795034, 25.000000) rotate(-36.000000) translate(-23.795034, -25.000000) "></path>
                            <path d="M23.7950338,25 L27.979606,3.16458835 L19.6104616,3.16458835 L23.7950338,25 Z M23.7950338,25 L27.979606,46.8354117 L19.6104616,46.8354117 L23.7950338,25 Z" id="Combined-Shape-Copy-4" fill-opacity="0.05" fill="#FFFFFF" filter="url(#filter-9)" transform="translate(23.795034, 25.000000) rotate(-36.000000) translate(-23.795034, -25.000000) "></path>
                            <path d="M23.7950338,25 L29.1683434,3.16458835 L18.4217241,3.16458835 L23.7950338,25 Z M23.7950338,25 L29.1683434,46.8354117 L18.4217241,46.8354117 L23.7950338,25 Z" id="Combined-Shape-Copy-5" fill-opacity="0.05" fill="#FFFFFF" filter="url(#filter-10)" transform="translate(23.795034, 25.000000) rotate(-36.000000) translate(-23.795034, -25.000000) "></path>
                            <path d="M23.7950338,25 L30.1672207,3.16458835 L17.4228469,3.16458835 L23.7950338,25 Z M23.7950338,25 L30.1672207,46.8354117 L17.4228469,46.8354117 L23.7950338,25 Z" id="Combined-Shape-Copy-6" fill-opacity="0.05" fill="#FFFFFF" filter="url(#filter-11)" transform="translate(23.795034, 25.000000) rotate(-36.000000) translate(-23.795034, -25.000000) "></path>
                            <path d="M23.7950338,25 L31.3650604,3.16458835 L16.2250071,3.16458835 L23.7950338,25 Z M23.7950338,25 L31.3650604,46.8354117 L16.2250071,46.8354117 L23.7950338,25 Z" id="Combined-Shape-Copy-7" fill-opacity="0.05" fill="#FFFFFF" filter="url(#filter-12)" transform="translate(23.795034, 25.000000) rotate(-36.000000) translate(-23.795034, -25.000000) "></path>
                            <path d="M23.7950338,25 L32.6623814,3.16458835 L14.9276861,3.16458835 L23.7950338,25 Z M23.7950338,25 L32.6623814,46.8354117 L14.9276861,46.8354117 L23.7950338,25 Z" id="Combined-Shape-Copy-8" fill-opacity="0.05" fill="#FFFFFF" filter="url(#filter-13)" transform="translate(23.795034, 25.000000) rotate(-36.000000) translate(-23.795034, -25.000000) "></path>
                            <path d="M23.7950338,25 L34.1200589,3.16458835 L13.4700086,3.16458835 L23.7950338,25 Z M23.7950338,25 L34.1200589,46.8354117 L13.4700086,46.8354117 L23.7950338,25 Z" id="Combined-Shape-Copy-9" fill-opacity="0.05" fill="#FFFFFF" filter="url(#filter-14)" transform="translate(23.795034, 25.000000) rotate(-36.000000) translate(-23.795034, -25.000000) "></path>
                            <path d="M23.7950338,25 L35.5472988,3.16458835 L12.0427688,3.16458835 L23.7950338,25 Z M23.7950338,25 L35.5472988,46.8354117 L12.0427688,46.8354117 L23.7950338,25 Z" id="Combined-Shape-Copy-10" fill-opacity="0.05" fill="#FFFFFF" filter="url(#filter-15)" transform="translate(23.795034, 25.000000) rotate(-36.000000) translate(-23.795034, -25.000000) "></path>
                        </g>
                    </g>
                </g>
            </g>
            <path d="M44,24 C44,12.954305 35.045695,4 24,4 C12.954305,4 4,12.954305 4,24 C4,35.045695 12.954305,44 24,44 C35.045695,44 44,35.045695 44,24 Z M24,34 C29.5228475,34 34,29.5228475 34,24 C34,18.4771525 29.5228475,14 24,14 C18.4771525,14 14,18.4771525 14,24 C14,29.5228475 18.4771525,34 24,34 L24,34 Z" id="Combined-Shape" fill="" opacity="0.39738806"></path>
            <text id="CD-RW" font-family="PingFangTC-Regular, PingFang TC" font-size="6" font-weight="normal" fill="#8F859E">
                <tspan x="14" y="40">CD-RW</tspan>
            </text>
            <path d="M24,31 C27.8659932,31 31,27.8659932 31,24 C31,20.1340068 27.8659932,17 24,17 C20.1340068,17 17,20.1340068 17,24 C17,27.8659932 20.1340068,31 24,31 L24,31 Z M24,27 C25.6568542,27 27,25.6568542 27,24 C27,22.3431458 25.6568542,21 24,21 C22.3431458,21 21,22.3431458 21,24 C21,25.6568542 22.3431458,27 24,27 L24,27 Z" id="Combined-Shape" fill="#CBD4E6" opacity="0.8"></path>
            <path d="M24,34 C29.5228475,34 34,29.5228475 34,24 C34,18.4771525 29.5228475,14 24,14 C18.4771525,14 14,18.4771525 14,24 C14,29.5228475 18.4771525,34 24,34 L24,34 Z M24,30 C27.3137085,30 30,27.3137085 30,24 C30,20.6862915 27.3137085,18 24,18 C20.6862915,18 18,20.6862915 18,24 C18,27.3137085 20.6862915,30 24,30 L24,30 Z" id="Combined-Shape" fill="#B892B0" opacity="0.4"></path>
        </g>
    </g>
</svg>