<?xml version="1.0" encoding="UTF-8" standalone="no"?>
<svg width="48px" height="48px" viewBox="0 0 48 48" version="1.1" xmlns="http://www.w3.org/2000/svg" xmlns:xlink="http://www.w3.org/1999/xlink">
    <!-- Generator: Sketch 3.8.3 (29802) - http://www.bohemiancoding.com/sketch -->
    <title>文件管理器</title>
    <desc>Created with Sketch.</desc>
    <defs>
        <filter x="-50%" y="-50%" width="200%" height="200%" filterUnits="objectBoundingBox" id="filter-1">
            <feOffset dx="0" dy="1" in="SourceAlpha" result="shadowOffsetOuter1"></feOffset>
            <feGaussianBlur stdDeviation="1" in="shadowOffsetOuter1" result="shadowBlurOuter1"></feGaussianBlur>
            <feColorMatrix values="0 0 0 0 0   0 0 0 0 0   0 0 0 0 0  0 0 0 0.2 0" type="matrix" in="shadowBlurOuter1" result="shadowMatrixOuter1"></feColorMatrix>
            <feMerge>
                <feMergeNode in="shadowMatrixOuter1"></feMergeNode>
                <feMergeNode in="SourceGraphic"></feMergeNode>
            </feMerge>
        </filter>
    </defs>
    <g id="Page-1" stroke="none" stroke-width="1" fill="none" fill-rule="evenodd">
        <g id="文件管理器">
            <g id="Group">
                <rect id="Rectangle-33" opacity="0.497901119" x="0" y="0" width="48" height="48"></rect>
                <g id="Group-40" filter="url(#filter-1)" transform="translate(5.000000, 3.000000)">
                    <path d="M0,13.8 L0,8.00336342 C0,7.4492211 0.415310875,6.84728508 0.944029,6.65286891 L17.1592179,0.690344272 C18.1960791,0.309077659 19.8759224,0.309813395 20.9068011,0.690344272 L37.0596031,6.65286891 C37.57897,6.84458412 38,7.44616699 38,8.00336342 L38,13.8 L38,39.9996793 C38,40.5521411 37.5467697,41 37.0031246,41 L0.996875402,41 C0.44631632,41 0,40.5505869 0,39.9996793 L0,13.8 Z" id="Rectangle-239" fill="#00B8FF"></path>
                    <polygon id="Rectangle-241" fill="#FFD245" transform="translate(18.948870, 23.081103) rotate(-368.000000) translate(-18.948870, -23.081103) " points="2.94887033 8.68110338 34.9488703 8.68110338 34.9488703 37.4811034 2.94887033 37.4811034"></polygon>
                    <rect id="Rectangle-241" fill="#FFFFFF" x="3" y="10" width="32" height="28"></rect>
                    <rect id="Rectangle-239" fill="#39D4FF" opacity="0.7" x="0" y="14" width="38" height="27"></rect>
                    <polyline id="Path-1387" stroke="#FFFFFF" stroke-linecap="round" stroke-linejoin="round" points="16.5 29 16.5 21.5 21.5 21.5 21.5 33.5"></polyline>
                    <circle id="Oval-231" fill="#FFFFFF" cx="19" cy="21" r="4"></circle>
                    <circle id="Oval-231" fill="#4ED8FF" cx="19" cy="21" r="1"></circle>
                </g>
            </g>
        </g>
    </g>
</svg>