<?xml version="1.0" encoding="UTF-8" standalone="no"?>
<svg width="48px" height="48px" viewBox="0 0 48 48" version="1.1" xmlns="http://www.w3.org/2000/svg" xmlns:xlink="http://www.w3.org/1999/xlink">
    <!-- Generator: Sketch 3.8.3 (29802) - http://www.bohemiancoding.com/sketch -->
    <title>drive-harddisk-mac</title>
    <desc>Created with Sketch.</desc>
    <defs>
        <filter x="-50%" y="-50%" width="200%" height="200%" filterUnits="objectBoundingBox" id="filter-1">
            <feOffset dx="0" dy="1" in="SourceAlpha" result="shadowOffsetOuter1"></feOffset>
            <feGaussianBlur stdDeviation="1" in="shadowOffsetOuter1" result="shadowBlurOuter1"></feGaussianBlur>
            <feColorMatrix values="0 0 0 0 0   0 0 0 0 0   0 0 0 0 0  0 0 0 0.3 0" type="matrix" in="shadowBlurOuter1" result="shadowMatrixOuter1"></feColorMatrix>
            <feMerge>
                <feMergeNode in="shadowMatrixOuter1"></feMergeNode>
                <feMergeNode in="SourceGraphic"></feMergeNode>
            </feMerge>
        </filter>
        <linearGradient x1="50%" y1="0.410554847%" x2="50%" y2="100%" id="linearGradient-2">
            <stop stop-color="#9DDA00" offset="0%"></stop>
            <stop stop-color="#73C300" offset="100%"></stop>
        </linearGradient>
        <polygon id="path-3" points="14 6.76065 14 13 0 13 0 0.5213 14 0.5213 14 6.76065"></polygon>
        <polygon id="path-5" points="4.10229016 0.708 0.729356283 0.708 0.729356283 4.62876101 4.10229016 4.62876101 4.10229016 0.708"></polygon>
    </defs>
    <g id="Page-1" stroke="none" stroke-width="1" fill="none" fill-rule="evenodd">
        <g id="drive-harddisk-mac">
            <g id="Group-3" filter="url(#filter-1)" transform="translate(7.000000, 4.000000)">
                <rect id="Rectangle-1" fill="url(#linearGradient-2)" x="0" y="0" width="34" height="35" rx="1"></rect>
                <rect id="Rectangle-3" fill="#FFFFFF" x="0" y="30" width="34" height="6"></rect>
                <rect id="Rectangle-1" fill="#DCDDDD" x="0" y="34" width="34" height="6" rx="1"></rect>
                <g id="Group" transform="translate(19.000000, 35.000000)" fill="#75C500">
                    <rect id="Rectangle-path" x="10.987" y="0.996" width="1" height="2"></rect>
                    <rect id="Rectangle-path" x="8.987" y="0.996" width="1" height="2"></rect>
                    <rect id="Rectangle-path" x="6.987" y="0.996" width="1" height="2"></rect>
                    <rect id="Rectangle-path" x="4.987" y="0.996" width="1" height="2"></rect>
                    <rect id="Rectangle-path" x="2.987" y="0.996" width="1" height="2"></rect>
                    <rect id="Rectangle-path" x="0.987" y="0.996" width="1" height="2"></rect>
                </g>
                <path d="M5,38 C5.55228475,38 6,37.5522847 6,37 C6,36.4477153 5.55228475,36 5,36 C4.44771525,36 4,36.4477153 4,37 C4,37.5522847 4.44771525,38 5,38 Z" id="Oval" fill="#75C600"></path>
            </g>
            <g id="Page-1" transform="translate(17.000000, 9.000000)">
                <g id="Group-3" transform="translate(0.000000, 4.292500)">
                    <mask id="mask-4" fill="white">
                        <use xlink:href="#path-3"></use>
                    </mask>
                    <g id="Clip-2"></g>
                    <path d="M14,8.6603 C13.617,9.5083 13.434,9.8873 12.942,10.6363 C12.254,11.6833 11.286,12.9863 10.085,12.9973 C9.018,13.0073 8.744,12.3033 7.297,12.3113 C5.849,12.3193 5.547,13.0093 4.48,13.0003 C3.279,12.9893 2.361,11.8123 1.674,10.7653 C-0.249,7.8393 -0.45,4.4053 0.736,2.5793 C1.579,1.2823 2.907,0.5233 4.157,0.5233 C5.43,0.5233 6.23,1.2203 7.282,1.2203 C8.302,1.2203 8.924,0.5213 10.395,0.5213 C11.507,0.5213 12.685,1.1273 13.525,2.1743 C10.774,3.6813 11.221,7.6103 14,8.6603" id="Fill-1" fill="#FFFFFF" mask="url(#mask-4)"></path>
                </g>
                <g id="Group-6" transform="translate(6.000000, 0.292500)">
                    <mask id="mask-6" fill="white">
                        <use xlink:href="#path-5"></use>
                    </mask>
                    <g id="Clip-5"></g>
                    <path d="M3.2789,3.3527 C3.8129,2.6667 4.2189,1.6977 4.0719,0.7077 C3.1989,0.7677 2.1779,1.3237 1.5819,2.0477 C1.0399,2.7047 0.5929,3.6797 0.7679,4.6277 C1.7209,4.6567 2.7069,4.0877 3.2789,3.3527" id="Fill-4" fill="#FFFFFF" mask="url(#mask-6)"></path>
                </g>
            </g>
        </g>
    </g>
</svg>