<?xml version="1.0" encoding="UTF-8" standalone="no"?>
<svg width="48px" height="48px" viewBox="0 0 48 48" version="1.1" xmlns="http://www.w3.org/2000/svg" xmlns:xlink="http://www.w3.org/1999/xlink">
    <!-- Generator: Sketch 3.8.3 (29802) - http://www.bohemiancoding.com/sketch -->
    <title>drive-harddisk-deepin</title>
    <desc>Created with Sketch.</desc>
    <defs>
        <filter x="-50%" y="-50%" width="200%" height="200%" filterUnits="objectBoundingBox" id="filter-1">
            <feOffset dx="0" dy="1" in="SourceAlpha" result="shadowOffsetOuter1"></feOffset>
            <feGaussianBlur stdDeviation="1" in="shadowOffsetOuter1" result="shadowBlurOuter1"></feGaussianBlur>
            <feColorMatrix values="0 0 0 0 0   0 0 0 0 0   0 0 0 0 0  0 0 0 0.3 0" type="matrix" in="shadowBlurOuter1" result="shadowMatrixOuter1"></feColorMatrix>
            <feMerge>
                <feMergeNode in="shadowMatrixOuter1"></feMergeNode>
                <feMergeNode in="SourceGraphic"></feMergeNode>
            </feMerge>
        </filter>
        <linearGradient x1="50%" y1="0.410554847%" x2="50%" y2="100%" id="linearGradient-2">
            <stop stop-color="#9DDA00" offset="0%"></stop>
            <stop stop-color="#73C300" offset="100%"></stop>
        </linearGradient>
    </defs>
    <g id="Page-1" stroke="none" stroke-width="1" fill="none" fill-rule="evenodd">
        <g id="drive-harddisk-deepin">
            <g id="Group-3" filter="url(#filter-1)" transform="translate(7.000000, 4.000000)">
                <rect id="Rectangle-1" fill="url(#linearGradient-2)" x="0" y="0" width="34" height="35" rx="1"></rect>
                <path d="M17,22 C16.5433846,22 16.0964615,21.9558462 15.6646154,21.8718462 C17.4803077,21.3635385 19.6373846,20.1078462 20.6626154,18.0918462 C20.6626154,18.0918462 22.7647692,14.6467692 19.2076923,11.5463077 C19.2076923,11.5463077 20.122,12.9850769 20.15,14.4324615 C20.15,14.4324615 20.3675385,16.3353846 18.6843077,17.5243077 C16.202,19.2764615 12.3347692,18.4870769 10.6892308,18.0326154 C10.2476923,17.1150769 10,16.0866154 10,15 C10,13.3738462 10.5546154,11.878 11.4850769,10.6890769 C11.9438462,12.9043077 12.8915385,14.7544615 13.5290769,15.4415385 C14.3787692,16.3558462 15.6301538,17.3272308 17.2369231,16.9266154 C18.8426154,16.5249231 19.17,14.7684615 19.17,14.7684615 C19.5253846,13.2747692 19.0192308,11.5 18.9923077,11.4623077 C18.9653846,11.4246154 18.7241538,11.3836923 18.7241538,11.3836923 C18.9761538,13.7367692 18.3569231,14.7781538 18.3569231,14.7781538 C17.4566154,16.6229231 16.1341538,16.0521538 16.1341538,16.0521538 C14.6641538,15.3026154 14.7330769,13.1907692 14.7330769,13.1907692 C14.69,11.7746154 15.2295385,9.46784615 16.2698462,8.03769231 C16.51,8.01292308 16.7533846,8 17,8 C17.9369231,8 18.8307692,8.18415385 19.6481538,8.51907692 C18.7801538,9.24815385 17.4426154,10.6126154 17.4426154,10.6126154 C15.2758462,12.6210769 15.6958462,14.3107692 15.6958462,14.3107692 C16.0404615,16.0855385 17.1152308,14.8901538 17.1152308,14.8901538 C18.2449231,13.7227692 18.1609231,11.3976923 18.1609231,11.3976923 C17.7032308,11.472 17.4135385,11.724 17.4135385,11.724 C17.3575385,13.2747692 16.4421538,14.2364615 16.4421538,14.2364615 C16.0878462,14.6284615 15.8358462,14.2547692 15.8358462,14.2547692 C15.6495385,13.9747692 16.0221538,13.7787692 16.0221538,13.7787692 C16.5455385,13.3210769 16.7016923,12.5403077 16.6952308,12.2473846 C16.6876923,11.9533846 16.8438462,11.8736923 16.8438462,11.8736923 C17.5826154,11.304 18.3203077,10.968 18.3203077,10.968 C19.31,10.4629231 21.0750769,10.3789231 21.0750769,10.3789231 C21.4929231,10.3929231 21.8935385,10.3767692 22.2327692,10.3509231 C23.3323077,11.5872308 24,13.2155385 24,15 C24,18.8661538 20.8661538,22 17,22 M9,15 C9,19.4182857 12.5817143,23 17,23 C21.4182857,23 25,19.4182857 25,15 C25,10.5817143 21.4182857,7 17,7 C12.5817143,7 9,10.5817143 9,15 Z" id="Page-1" fill="#FFFFFF"></path>
                <rect id="Rectangle-3" fill="#FFFFFF" x="0" y="30" width="34" height="6"></rect>
                <rect id="Rectangle-1" fill="#DCDDDD" x="0" y="34" width="34" height="6" rx="1"></rect>
                <g id="Group" transform="translate(19.000000, 35.000000)" fill="#75C500">
                    <rect id="Rectangle-path" x="10.987" y="0.996" width="1" height="2"></rect>
                    <rect id="Rectangle-path" x="8.987" y="0.996" width="1" height="2"></rect>
                    <rect id="Rectangle-path" x="6.987" y="0.996" width="1" height="2"></rect>
                    <rect id="Rectangle-path" x="4.987" y="0.996" width="1" height="2"></rect>
                    <rect id="Rectangle-path" x="2.987" y="0.996" width="1" height="2"></rect>
                    <rect id="Rectangle-path" x="0.987" y="0.996" width="1" height="2"></rect>
                </g>
                <path d="M5,38 C5.55228475,38 6,37.5522847 6,37 C6,36.4477153 5.55228475,36 5,36 C4.44771525,36 4,36.4477153 4,37 C4,37.5522847 4.44771525,38 5,38 Z" id="Oval" fill="#75C600"></path>
            </g>
        </g>
    </g>
</svg>