<?xml version="1.0" encoding="UTF-8" standalone="no"?>
<svg width="48px" height="48px" viewBox="0 0 48 48" version="1.1" xmlns="http://www.w3.org/2000/svg" xmlns:xlink="http://www.w3.org/1999/xlink">
    <!-- Generator: Sketch 3.8.3 (29802) - http://www.bohemiancoding.com/sketch -->
    <title>drive-harddisk-linux</title>
    <desc>Created with Sketch.</desc>
    <defs>
        <filter x="-50%" y="-50%" width="200%" height="200%" filterUnits="objectBoundingBox" id="filter-1">
            <feOffset dx="0" dy="1" in="SourceAlpha" result="shadowOffsetOuter1"></feOffset>
            <feGaussianBlur stdDeviation="1" in="shadowOffsetOuter1" result="shadowBlurOuter1"></feGaussianBlur>
            <feColorMatrix values="0 0 0 0 0   0 0 0 0 0   0 0 0 0 0  0 0 0 0.3 0" type="matrix" in="shadowBlurOuter1" result="shadowMatrixOuter1"></feColorMatrix>
            <feMerge>
                <feMergeNode in="shadowMatrixOuter1"></feMergeNode>
                <feMergeNode in="SourceGraphic"></feMergeNode>
            </feMerge>
        </filter>
        <linearGradient x1="50%" y1="0.410554847%" x2="50%" y2="100%" id="linearGradient-2">
            <stop stop-color="#9DDA00" offset="0%"></stop>
            <stop stop-color="#73C300" offset="100%"></stop>
        </linearGradient>
    </defs>
    <g id="Page-1" stroke="none" stroke-width="1" fill="none" fill-rule="evenodd">
        <g id="drive-harddisk-linux">
            <g id="Group-3" filter="url(#filter-1)" transform="translate(7.000000, 4.000000)">
                <rect id="Rectangle-1" fill="url(#linearGradient-2)" x="0" y="0" width="34" height="35" rx="1"></rect>
                <path d="M22.0810675,18.2289397 C22.0810675,18.1077663 21.8959462,17.9664011 21.5256945,17.8048373 C21.5526222,17.7038602 21.577867,17.6112995 21.6014268,17.5271508 C21.6249888,17.4430043 21.6418194,17.3554922 21.6519165,17.2646121 C21.6620135,17.173732 21.6721105,17.1013655 21.6822098,17.0475124 C21.6923068,16.993657 21.6939897,16.9179247 21.6872583,16.8203133 C21.680527,16.7227019 21.6771613,16.6570689 21.6771613,16.6234099 C21.6771613,16.5897508 21.6653792,16.5157014 21.6418194,16.4012593 C21.6182574,16.2868195 21.6047947,16.2178186 21.6014268,16.1942589 C21.5980611,16.1706969 21.5812327,16.0865504 21.5509393,15.941815 C21.520646,15.7970818 21.5021348,15.7078868 21.4954011,15.6742278 C21.4280831,15.3511002 21.2698895,15.0044173 21.0208112,14.6341656 C20.771733,14.2639163 20.5293929,14.0114769 20.2937774,13.8768407 C20.4553413,14.0114769 20.6471962,14.2908439 20.8693467,14.7149487 C21.4550153,15.8055028 21.6367709,16.7412108 21.4146204,17.5221023 C21.3405709,17.7913745 21.172278,17.932742 20.9097371,17.9462048 C20.7010493,17.9731324 20.5714639,17.9108629 20.5209765,17.7593984 C20.4704868,17.6079316 20.4435614,17.3268839 20.4401957,16.9162419 C20.4368278,16.5055999 20.3981225,16.1454543 20.3240708,15.8357894 C20.2634841,15.5732484 20.1978511,15.3410054 20.1271674,15.1390512 C20.0564836,14.937097 19.9908484,14.7839496 19.9302617,14.6796068 C19.869675,14.575264 19.8175047,14.4928004 19.7737486,14.4322137 C19.7299903,14.371627 19.6862342,14.3211396 19.6424782,14.2807469 C19.5987221,14.2403565 19.5734773,14.2167968 19.5667459,14.2100632 C19.4725001,13.792692 19.3681574,13.4460069 19.2537175,13.1700033 C19.1392777,12.8939996 19.0399835,12.7055104 18.955837,12.6045333 C18.8716883,12.5035562 18.7925903,12.392482 18.7185409,12.2713109 C18.6444915,12.1501374 18.5940018,12.0155036 18.5670764,11.8674025 C18.5401487,11.726035 18.5603428,11.5459622 18.6276608,11.3271773 C18.6949789,11.1083925 18.7101267,10.9417824 18.673102,10.8273426 C18.636075,10.7129005 18.4862956,10.628754 18.2237547,10.5749009 C18.1227776,10.5547046 17.9729959,10.4941201 17.7744074,10.3931408 C17.5758188,10.2921637 17.4563305,10.2383106 17.4159401,10.2315792 C17.3620847,10.2248479 17.32506,10.1373357 17.304866,9.9690383 C17.2846696,9.80074312 17.3115973,9.62908453 17.3856467,9.454058 C17.4596962,9.27903147 17.5808673,9.18815139 17.7491625,9.18142004 C17.9982407,9.16122598 18.1698993,9.26220082 18.2641451,9.48435136 C18.3583908,9.70649963 18.3718535,9.90172023 18.3045355,10.0700154 C18.230486,10.1979202 18.2237547,10.2871152 18.2843414,10.3376048 C18.3449259,10.3880923 18.445903,10.3897751 18.5872705,10.3426534 C18.6747849,10.3157257 18.7185409,10.1945545 18.7185409,9.97913759 L18.7185409,9.60552253 C18.6848819,9.40356831 18.639443,9.2352754 18.5822219,9.10063926 C18.5250009,8.96600312 18.4543194,8.86334317 18.3701707,8.79265943 C18.286022,8.72197568 18.2069263,8.67148826 18.1328746,8.6411949 C18.0588252,8.61090154 17.9679474,8.5856567 17.8602389,8.56546264 C17.1399342,8.61931573 16.8403708,9.07034138 16.9615443,9.91855087 C16.9615443,10.019528 16.9581786,10.0700154 16.9514472,10.0700154 C16.8908605,10.0094287 16.7915685,9.97408907 16.6535644,9.96398978 C16.5155626,9.95389275 16.4044907,9.95557559 16.320342,9.9690383 C16.2361933,9.98250327 16.184023,9.96567262 16.163829,9.91855087 C16.1705603,9.53483652 16.116705,9.23190972 16.0022652,9.00975919 C15.8878253,8.78761091 15.7363608,8.6731711 15.5478693,8.66643974 C15.3661114,8.65970612 15.2264268,8.75226904 15.1288153,8.94412395 C15.0312039,9.13598113 14.975668,9.33625024 14.9622053,9.54493581 C14.9554716,9.64591518 14.9672538,9.77044976 14.9975471,9.91855087 C15.0278382,10.066652 15.0715966,10.1928717 15.1288153,10.2972145 C15.1860364,10.4015572 15.2382066,10.4469961 15.2853306,10.4335334 C15.3526487,10.4133371 15.4065018,10.3662154 15.4468922,10.2921659 C15.4738199,10.2315792 15.4502601,10.2046515 15.3762085,10.2113829 C15.3290867,10.2113829 15.2769165,10.1625783 15.2196954,10.0649669 C15.1624744,9.96735546 15.1304982,9.85459848 15.1237668,9.72669596 C15.1170355,9.57859484 15.1473288,9.454058 15.2146469,9.35308089 C15.281965,9.25210379 15.3964025,9.20498204 15.5579663,9.2117134 C15.6724084,9.2117134 15.7632862,9.28239714 15.8306043,9.42376464 C15.8979224,9.56513214 15.9298986,9.69640034 15.9265329,9.81757377 C15.9231672,9.9387472 15.9181187,10.0127966 15.9113851,10.039722 C15.7632862,10.1407014 15.6589434,10.2383106 15.598359,10.3325563 C15.5445036,10.4133371 15.451943,10.492435 15.3206725,10.5698502 C15.1894021,10.6472675 15.1204011,10.6893407 15.1136698,10.6960721 C15.0261554,10.7903178 14.9739851,10.8811957 14.9571545,10.9687101 C14.9403261,11.0562222 14.9655709,11.1168089 15.032889,11.1504679 C15.1271325,11.2043233 15.211279,11.2699563 15.2853306,11.3473714 C15.3593801,11.4247887 15.4132332,11.4887389 15.4468922,11.5392286 C15.4805512,11.589716 15.5428208,11.633472 15.6337009,11.670499 C15.7245787,11.7075237 15.844067,11.7294006 15.9921681,11.736132 C16.3085621,11.749597 16.6518816,11.6991095 17.022131,11.5846675 C17.0355937,11.5779361 17.1130088,11.5543741 17.2543763,11.5139837 C17.395746,11.4735933 17.5118687,11.4382514 17.6027465,11.4079581 C17.6936266,11.3776647 17.7929186,11.3339087 17.9006293,11.2766876 C18.0083378,11.2194689 18.0790215,11.160565 18.1126806,11.0999783 C18.1732673,11.0057348 18.2405831,10.9788071 18.3146325,11.0191975 C18.3482915,11.0393938 18.3701707,11.0680021 18.3802677,11.105029 C18.390367,11.1420537 18.3802677,11.1824441 18.3499744,11.2262002 C18.3196833,11.2699563 18.2641451,11.3019325 18.1833643,11.3221288 C18.0487282,11.3625192 17.8585561,11.4348858 17.6128458,11.5392286 C17.3671333,11.6435713 17.2139859,11.7092066 17.1534014,11.736132 C16.8572015,11.8640368 16.6215905,11.9414519 16.446564,11.9683796 C16.2782665,12.0020386 16.0123644,11.9953072 15.6488464,11.9481832 C15.5815283,11.9347205 15.551235,11.9414519 15.5579663,11.9683796 C15.5647,11.9953072 15.6219187,12.0592574 15.7296272,12.1602345 C15.8979224,12.3150669 16.1234363,12.3891164 16.4061713,12.382385 C16.5206134,12.3756537 16.6417846,12.3520917 16.7696893,12.3117013 C16.8975941,12.2713086 17.0187653,12.2241869 17.1332051,12.1703338 C17.2476449,12.1164784 17.3604019,12.0575768 17.4714783,11.9936244 C17.5825524,11.929672 17.6835273,11.872451 17.7744074,11.8219635 C17.8652874,11.7714739 17.9477511,11.7310835 18.0218005,11.7007901 C18.0958499,11.670499 18.1547538,11.6620826 18.1985098,11.6755475 C18.2422659,11.6890102 18.2708764,11.726035 18.2843414,11.7866217 C18.2843414,11.8000844 18.2809735,11.8152322 18.2742421,11.8320606 C18.2675108,11.8488912 18.254048,11.8657196 18.2338517,11.8825503 C18.2136577,11.8993786 18.1934613,11.9145242 18.173265,11.9279892 C18.1530709,11.9414519 18.1244604,11.9582825 18.0874357,11.9784766 C18.050411,11.9986729 18.0201176,12.0138185 17.9965556,12.0239178 C17.9729959,12.0340148 17.9393369,12.0508432 17.8955808,12.0744052 C17.8518225,12.0979672 17.8198463,12.1131127 17.7996522,12.1198441 C17.6111607,12.2140898 17.3839662,12.3621887 17.1180596,12.5641429 C16.8521507,12.7660971 16.6283218,12.910828 16.446564,12.9983424 C16.2648038,13.0858568 16.0998766,13.0892225 15.9517777,13.0084394 C15.810408,12.93439 15.598359,12.688682 15.315624,12.2713109 C15.1675229,12.062623 15.0833764,11.9885736 15.0631801,12.0491603 C15.0564488,12.0693567 15.0530831,12.1030157 15.0530831,12.1501374 C15.0530831,12.3184326 15.0025957,12.5086047 14.9016185,12.7206559 C14.8006414,12.9327094 14.7013472,13.1195136 14.6037357,13.2810774 C14.5061243,13.4426412 14.4354428,13.6378618 14.3916845,13.8667437 C14.3479284,14.0956256 14.386636,14.3076746 14.5078094,14.5028974 C14.352977,14.5432878 14.1426108,14.8462146 13.8767042,15.4116869 C13.6107976,15.9771614 13.4509189,16.4517468 13.3970635,16.8354611 C13.3836008,16.9566323 13.3785523,17.1888776 13.381918,17.5321993 C13.3852836,17.8755233 13.3667724,18.0741095 13.3263798,18.1279626 C13.2725267,18.2895265 13.1749152,18.2996235 13.0335477,18.158256 C12.8181286,17.9495704 12.6969597,17.6331787 12.670032,17.2090739 C12.656567,17.0205847 12.670032,16.8320954 12.7104224,16.6436039 C12.73735,16.5156992 12.7339844,16.4551147 12.7003253,16.4618461 L12.6599327,16.5123357 C12.4175881,16.9499032 12.4512471,17.508635 12.7609098,18.1885494 C12.7945688,18.2693301 12.8787153,18.3635759 13.0133514,18.4712843 C13.1479898,18.5789928 13.2287683,18.6463109 13.255696,18.6732386 C13.3903322,18.8280688 13.740383,19.1326807 14.3058552,19.5870788 C14.8713275,20.0414746 15.1843535,20.2989648 15.2449403,20.3595492 C15.3526487,20.4605286 15.4115503,20.5884311 15.4216496,20.7432613 C15.4317467,20.8980938 15.3846249,21.0428247 15.2802821,21.1774631 C15.1759371,21.3120992 15.022792,21.3895143 14.8208378,21.4097084 C14.8746909,21.5106855 14.9723023,21.6604672 15.1136698,21.8590557 C15.2550373,22.057644 15.3492808,22.2394006 15.3964048,22.4043301 C15.4435265,22.5692596 15.4670885,22.8065527 15.4670885,23.1162163 C15.7767512,22.9546527 15.8003132,22.6449936 15.5377723,22.1872298 C15.5108446,22.1333754 15.4755027,22.0795216 15.4317467,22.0256672 C15.3879906,21.9718125 15.3560144,21.9314223 15.3358181,21.9044949 C15.315624,21.8775676 15.3088904,21.8573729 15.315624,21.8439079 C15.3358181,21.8102489 15.3795741,21.7782749 15.4468922,21.7479816 C15.5142103,21.7176882 15.5815283,21.7261024 15.6488464,21.7732242 C15.9585091,22.1232797 16.5172432,22.2444507 17.32506,22.1367415 C18.2203935,22.0357642 18.8161501,21.7429353 19.1123501,21.2582439 C19.2671825,21.0024343 19.3816201,20.9014594 19.4556718,20.9553125 C19.5364525,20.9957052 19.5701116,21.1707295 19.5566489,21.4803921 C19.5499152,21.6486873 19.4725024,21.958347 19.3244013,22.4093788 C19.2638146,22.5642108 19.2436205,22.6904305 19.2638146,22.7880417 C19.2840109,22.8856531 19.3647917,22.9378241 19.5061592,22.9445559 C19.5263555,22.8166513 19.5751601,22.5574801 19.6525752,22.1670346 C19.7299926,21.7765898 19.7754315,21.4736608 19.7888942,21.2582439 C19.8023591,21.1168764 19.78048,20.8694855 19.7232589,20.5160645 C19.6660402,20.1626435 19.6407953,19.8361547 19.6475267,19.5365891 C19.654258,19.2370234 19.7316731,18.9997296 19.8797742,18.8247031 C19.9807513,18.7035297 20.1524099,18.6429452 20.3947545,18.6429452 C20.4014859,18.393867 20.5176086,18.215477 20.7431248,18.1077686 C20.968641,18.0000579 21.2126662,17.9647182 21.4752071,18.001743 C21.737748,18.0387677 21.9397,18.1144999 22.0810675,18.2289397 L22.0810675,18.2289397 Z M15.7397265,9.87816048 C15.7599206,9.76371841 15.7515064,9.66274356 15.7144816,9.57522917 C15.6774569,9.48771703 15.6387494,9.43722735 15.598359,9.42376464 C15.5377723,9.41030193 15.5074789,9.43386167 15.5074789,9.49444839 C15.5209416,9.52810742 15.5377723,9.54830375 15.5579663,9.5550351 C15.6252844,9.5550351 15.6488464,9.60552253 15.6286501,9.70649963 C15.608456,9.84113577 15.6353814,9.90845384 15.7094331,9.90845384 C15.7296272,9.90845384 15.7397265,9.89835455 15.7397265,9.87816048 L15.7397265,9.87816048 Z M18.173265,9.71659666 C18.173265,9.64254724 18.1564366,9.57691201 18.1227776,9.51969323 C18.0891185,9.46247219 18.0520938,9.42039896 18.0117034,9.39347128 C17.9713131,9.3665436 17.9410197,9.35644657 17.9208234,9.36317792 C17.8265776,9.36990928 17.8030179,9.39347128 17.8501396,9.43386167 C17.8636046,9.44059303 17.8770673,9.44732664 17.89053,9.454058 C17.9847758,9.48098568 18.0453625,9.5853262 18.0722902,9.76708635 C18.0722902,9.78728041 18.0992156,9.78054906 18.1530709,9.74689002 L18.173265,9.71659666 Z M24.7367565,21.1522182 C24.8108059,21.2363647 24.8511963,21.3171455 24.8579299,21.3945628 C24.8646613,21.4719779 24.8562471,21.5477102 24.8326851,21.6217596 C24.8091231,21.6958091 24.7569528,21.7698585 24.6761698,21.8439079 C24.595389,21.9179589 24.5162911,21.9835932 24.438876,22.0408136 C24.3614586,22.098034 24.2604838,22.1603024 24.1359447,22.2276207 C24.0114055,22.2949388 23.9053822,22.3504756 23.8178678,22.3942323 C23.7303534,22.4379891 23.6226472,22.49016 23.4947424,22.5507463 C23.3668376,22.6113328 23.2759598,22.6550888 23.2221045,22.6820161 C22.9662949,22.8099206 22.6785159,22.9984087 22.3587539,23.2474861 C22.038992,23.4965634 21.7848698,23.7119785 21.5963783,23.8937375 C21.4819384,24.0014467 21.2530588,24.0670809 20.9097371,24.0906423 C20.5664131,24.1142037 20.266852,24.0653987 20.0110424,23.944226 C19.8898713,23.8836396 19.790577,23.8045418 19.7131619,23.7069304 C19.6357468,23.6093192 19.5802086,23.5234897 19.5465496,23.4494398 C19.5128905,23.3753897 19.4388411,23.3097554 19.3244013,23.252535 C19.2099615,23.1953144 19.0517656,23.1633389 18.8498114,23.1566071 C18.5536114,23.1498753 18.1160485,23.1465094 17.5371113,23.1465094 C17.4092088,23.1465094 17.2173538,23.1515581 16.9615443,23.1616559 C16.7057347,23.1717536 16.5105164,23.1801682 16.3758802,23.1869 C16.0796803,23.1936318 15.8120931,23.2441197 15.5731142,23.3383652 C15.3341352,23.4326108 15.1540602,23.5335865 15.032889,23.6412956 C14.9117156,23.7490048 14.7652996,23.8449318 14.5936387,23.9290794 C14.4219779,24.0132272 14.2419051,24.0519346 14.0534136,24.0452027 C13.8581907,24.0384709 13.4845802,23.9341293 12.9325706,23.7321748 C12.3805611,23.5302201 11.8891473,23.3854881 11.4583099,23.2979746 C11.3304053,23.2710472 11.1587465,23.2390716 10.9433284,23.2020467 C10.7279102,23.1650215 10.5596173,23.1347289 10.4384445,23.1111675 C10.3172718,23.0876062 10.1843203,23.0556305 10.0395862,23.0152396 C9.8948521,22.9748486 9.78209581,22.9260437 9.7013139,22.8688232 C9.6205321,22.8116028 9.56331249,22.7459685 9.5296534,22.6719186 C9.4623352,22.5170866 9.48589623,22.293257 9.60033715,22.000423 C9.71477796,21.7075889 9.77536355,21.5241505 9.78209535,21.4500988 C9.78882716,21.3423903 9.77536377,21.2077564 9.74170474,21.0461926 C9.70804548,20.8846288 9.67438689,20.7415807 9.64072786,20.6170416 C9.60706876,20.4925025 9.59192239,20.3696485 9.5952883,20.2484751 C9.59865422,20.1273039 9.63399574,20.0364238 9.7013139,19.9758394 C9.79555942,19.8950563 9.98741343,19.8479346 10.2768816,19.8344719 C10.5663497,19.8210069 10.7683015,19.7806165 10.8827422,19.7132984 C11.0846968,19.592125 11.226063,19.4743218 11.3068447,19.3598797 C11.3876266,19.2454399 11.428017,19.0737813 11.428017,18.8448994 C11.4280169,19.0367546 11.6064094,18.5419681 11.5794822,18.3804043 C11.5592865,18.2726958 11.552555,18.1447933 11.5592868,17.9966944 C11.5660186,17.8014716 11.5996771,17.6264451 11.6602634,17.4716148 C11.7208499,17.3167824 11.8016307,17.1585865 11.9026078,16.9970227 C12.0035849,16.8354589 12.0776343,16.6940936 12.1247561,16.5729202 C12.1786114,16.4315527 12.2678064,16.1892104 12.3923455,15.8458886 C12.5168846,15.5025647 12.6161766,15.2400283 12.690226,15.0582681 C12.7642777,14.8765102 12.8652526,14.6711926 12.9931574,14.4423107 C13.1210621,14.2134288 13.2523303,14.0316732 13.3869665,13.8970371 C14.1274675,12.9343855 14.5448341,12.2780445 14.6390776,11.9279892 C14.5582968,11.1740254 14.5044437,10.1306089 14.4775161,8.79770794 C14.4640511,8.19184531 14.5448319,7.68191805 14.7198607,7.26791034 C14.8948872,6.85390262 15.2516693,6.50217124 15.7902139,6.21270264 C16.0527548,6.07133514 16.4028034,6.00065139 16.8403731,6.00065139 C17.1971598,5.99392004 17.5539397,6.03935894 17.9107263,6.13697037 C18.267513,6.2345818 18.5670741,6.3742642 18.8094187,6.55602434 C19.1931331,6.83875933 19.5011084,7.24771175 19.7333582,7.7828929 C19.9656058,8.31807178 20.0648978,8.81453633 20.0312388,9.27230011 C19.9975797,9.91182178 20.0985546,10.6321152 20.3341701,11.4332029 C20.563052,12.193898 21.0107097,12.9276564 21.6771613,13.6344961 C22.0474107,14.0316732 22.3823137,14.580308 22.6818793,15.2804187 C22.9814449,15.9805271 23.1817141,16.6234054 23.2826912,17.2090739 C23.3365465,17.5389329 23.3533749,17.8233485 23.3331786,18.0623274 C23.3129845,18.3013086 23.2725941,18.4881127 23.2120074,18.6227489 C23.1514207,18.757385 23.2995196,19.2992953 23.3937653,19.2185122 C23.4004967,19.4272 23.4274243,19.6173699 23.4745461,19.7890307 C23.5216701,19.9606938 23.5704747,20.0970105 23.6209644,20.1979876 C23.6714518,20.2989648 23.7404527,20.3948911 23.8279648,20.4857712 C23.9154792,20.5766512 23.986163,20.6406014 24.0400161,20.6776261 C24.0938714,20.714653 24.166238,20.7584091 24.2571181,20.8088965 C24.3479959,20.8593862 24.4035341,20.8913602 24.4237282,20.9048251 C24.5583643,20.9856059 24.6627071,21.0680695 24.7367565,21.1522182 Z" id="Page-1" fill="#FFFFFF"></path>
                <rect id="Rectangle-3" fill="#FFFFFF" x="0" y="30" width="34" height="6"></rect>
                <rect id="Rectangle-1" fill="#DCDDDD" x="0" y="34" width="34" height="6" rx="1"></rect>
                <g id="Group" transform="translate(19.000000, 35.000000)" fill="#75C500">
                    <rect id="Rectangle-path" x="10.987" y="0.996" width="1" height="2"></rect>
                    <rect id="Rectangle-path" x="8.987" y="0.996" width="1" height="2"></rect>
                    <rect id="Rectangle-path" x="6.987" y="0.996" width="1" height="2"></rect>
                    <rect id="Rectangle-path" x="4.987" y="0.996" width="1" height="2"></rect>
                    <rect id="Rectangle-path" x="2.987" y="0.996" width="1" height="2"></rect>
                    <rect id="Rectangle-path" x="0.987" y="0.996" width="1" height="2"></rect>
                </g>
                <path d="M5,38 C5.55228475,38 6,37.5522847 6,37 C6,36.4477153 5.55228475,36 5,36 C4.44771525,36 4,36.4477153 4,37 C4,37.5522847 4.44771525,38 5,38 Z" id="Oval" fill="#75C600"></path>
            </g>
        </g>
    </g>
</svg>