<?xml version="1.0" encoding="UTF-8"?>
<svg width="16px" height="16px" viewBox="0 0 16 16" version="1.1" xmlns="http://www.w3.org/2000/svg" xmlns:xlink="http://www.w3.org/1999/xlink">
    <title>View/combined shape</title>
    <g id="View/combined-shape" stroke="none" stroke-width="1" fill="none" fill-rule="evenodd">
        <path d="M13.5,1 C14.3284271,1 15,1.67157288 15,2.5 L15,4.5 C15,5.32842712 14.3284271,6 13.5,6 L2.5,6 C1.67157288,6 1,5.32842712 1,4.5 L1,2.5 C1,1.67157288 1.67157288,1 2.5,1 L13.5,1 Z M13.5,2 L2.5,2 C2.22385763,2 2,2.22385763 2,2.5 L2,4.5 C2,4.77614237 2.22385763,5 2.5,5 L13.5,5 C13.7761424,5 14,4.77614237 14,4.5 L14,2.5 C14,2.22385763 13.7761424,2 13.5,2 Z M4.5,9 L14.5,9 C14.7761424,9 15,9.22385763 15,9.5 C15,9.77614237 14.7761424,10 14.5,10 L4.5,10 C4.22385763,10 4,9.77614237 4,9.5 C4,9.22385763 4.22385763,9 4.5,9 Z M1.5,8 L2.5,8 C2.77614237,8 3,8.22385763 3,8.5 L3,9.5 C3,9.77614237 2.77614237,10 2.5,10 L1.5,10 C1.22385763,10 1,9.77614237 1,9.5 L1,8.5 C1,8.22385763 1.22385763,8 1.5,8 Z M1.5,12 L2.5,12 C2.77614237,12 3,12.2238576 3,12.5 L3,13.5 C3,13.7761424 2.77614237,14 2.5,14 L1.5,14 C1.22385763,14 1,13.7761424 1,13.5 L1,12.5 C1,12.2238576 1.22385763,12 1.5,12 Z M4.5,13 L14.5,13 C14.7761424,13 15,13.2238576 15,13.5 C15,13.7761424 14.7761424,14 14.5,14 L4.5,14 C4.22385763,14 4,13.7761424 4,13.5 C4,13.2238576 4.22385763,13 4.5,13 Z" id="形状结合" fill="#000000"></path>
    </g>
</svg>