<?xml version="1.0" encoding="UTF-8"?>
<svg width="16px" height="16px" viewBox="0 0 16 16" version="1.1" xmlns="http://www.w3.org/2000/svg" xmlns:xlink="http://www.w3.org/1999/xlink">
    <title>网格视图/密度/小</title>
    <g id="网格视图/密度/小" stroke="none" stroke-width="1" fill="none" fill-rule="evenodd">
        <g id="图标/单色图标/视图图标/网格密度-小" transform="translate(3, 3)" fill="#000000" fill-rule="nonzero">
            <path d="M2.5,7 C2.77614237,7 3,7.22385763 3,7.5 L3,9.5 C3,9.77614237 2.77614237,10 2.5,10 L0.5,10 C0.223857625,10 0,9.77614237 0,9.5 L0,7.5 C0,7.22385763 0.223857625,7 0.5,7 L2.5,7 Z M9.5,7 C9.77614237,7 10,7.22385763 10,7.5 L10,9.5 C10,9.77614237 9.77614237,10 9.5,10 L7.5,10 C7.22385763,10 7,9.77614237 7,9.5 L7,7.5 C7,7.22385763 7.22385763,7 7.5,7 L9.5,7 Z M9,8 L8,8 L8,9 L9,9 L9,8 Z M2,8 L1,8 L1,9 L2,9 L2,8 Z M2.5,0 C2.77614237,0 3,0.223857625 3,0.5 L3,2.5 C3,2.77614237 2.77614237,3 2.5,3 L0.5,3 C0.223857625,3 0,2.77614237 0,2.5 L0,0.5 C0,0.223857625 0.223857625,0 0.5,0 L2.5,0 Z M9.5,0 C9.77614237,0 10,0.223857625 10,0.5 L10,2.5 C10,2.77614237 9.77614237,3 9.5,3 L7.5,3 C7.22385763,3 7,2.77614237 7,2.5 L7,0.5 C7,0.223857625 7.22385763,0 7.5,0 L9.5,0 Z M9,1 L8,1 L8,2 L9,2 L9,1 Z M2,1 L1,1 L1,2 L2,2 L2,1 Z" id="形状结合"></path>
        </g>
    </g>
</svg>