<?xml version="1.0" encoding="UTF-8"?>
<svg width="16px" height="16px" viewBox="0 0 16 16" version="1.1" xmlns="http://www.w3.org/2000/svg" xmlns:xlink="http://www.w3.org/1999/xlink">
    <title>列表视图/图标/大</title>
    <g id="列表视图/图标/大" stroke="none" stroke-width="1" fill="none" fill-rule="evenodd">
        <path d="M6.5,3 L12.5,3 C12.7761424,3 13,3.22385763 13,3.5 C13,3.77614237 12.7761424,4 12.5,4 L6.5,4 C6.22385763,4 6,3.77614237 6,3.5 C6,3.22385763 6.22385763,3 6.5,3 Z M3.52883021,4.25 C3.94304377,4.25 4.27883021,3.875 4.27883021,3.5 C4.27883021,3.125 3.94304377,2.75 3.52883021,2.75 C3.11461665,2.75 2.77883021,3.08578644 2.77883021,3.5 C2.77883021,3.91421356 3.11461665,4.25 3.52883021,4.25 Z M3.52883021,8.26682852 C3.90383021,8.26682852 4.27883021,7.93104208 4.27883021,7.51682852 C4.27883021,7.10261496 3.94304377,6.76682852 3.52883021,6.76682852 C3.11461665,6.76682852 2.77883021,7.10261496 2.77883021,7.51682852 C2.77883021,7.93104208 3.15383021,8.26682852 3.52883021,8.26682852 Z M3.52883021,12.272631 C3.90383021,12.272631 4.27883021,11.9368446 4.27883021,11.522631 C4.27883021,11.1084175 3.94304377,10.772631 3.52883021,10.772631 C3.11461665,10.772631 2.77883021,11.1084175 2.77883021,11.522631 C2.77883021,11.9368446 3.15383021,12.272631 3.52883021,12.272631 Z M6.5,7 L12.5,7 C12.7761424,7 13,7.22385763 13,7.5 C13,7.77614237 12.7761424,8 12.5,8 L6.5,8 C6.22385763,8 6,7.77614237 6,7.5 C6,7.22385763 6.22385763,7 6.5,7 Z M6.5,11 L12.5,11 C12.7761424,11 13,11.2238576 13,11.5 C13,11.7761424 12.7761424,12 12.5,12 L6.5,12 C6.22385763,12 6,11.7761424 6,11.5 C6,11.2238576 6.22385763,11 6.5,11 Z" id="形状结合" fill="#000000" fill-rule="nonzero"></path>
    </g>
</svg>