<?xml version="1.0" encoding="UTF-8"?>
<svg width="16px" height="16px" viewBox="0 0 16 16" version="1.1" xmlns="http://www.w3.org/2000/svg" xmlns:xlink="http://www.w3.org/1999/xlink">
    <title>View/tree</title>
    <g id="View/tree" stroke="none" stroke-width="1" fill="none" fill-rule="evenodd">
        <path d="M4,1 C4.55228475,1 5,1.44771525 5,2 L5,5 C5,5.55228475 4.55228475,6 4,6 L3,6 L3,9 L11.5,9 C11.7761424,9 12,9.22385763 12,9.5 C12,9.77614237 11.7761424,10 11.5,10 L3,10 L3,13 L11.5,13 C11.7761424,13 12,13.2238576 12,13.5 C12,13.7761424 11.7761424,14 11.5,14 L3,14 C2.44771525,14 2,13.5522847 2,13 L2,6 C1.44771525,6 1,5.55228475 1,5 L1,2 C1,1.44771525 1.44771525,1 2,1 L4,1 Z M14.5,12 C14.7761424,12 15,12.2238576 15,12.5 L15,13.5 C15,13.7761424 14.7761424,14 14.5,14 L13.5,14 C13.2238576,14 13,13.7761424 13,13.5 L13,12.5 C13,12.2238576 13.2238576,12 13.5,12 L14.5,12 Z M14.5,8 C14.7761424,8 15,8.22385763 15,8.5 L15,9.5 C15,9.77614237 14.7761424,10 14.5,10 L13.5,10 C13.2238576,10 13,9.77614237 13,9.5 L13,8.5 C13,8.22385763 13.2238576,8 13.5,8 L14.5,8 Z M13.5,1 C14.3284271,1 15,1.67157288 15,2.5 L15,4.5 C15,5.32842712 14.3284271,6 13.5,6 L7.5,6 C6.67157288,6 6,5.32842712 6,4.5 L6,2.5 C6,1.67157288 6.67157288,1 7.5,1 L13.5,1 Z M13.5,2 L7.5,2 C7.22385763,2 7,2.22385763 7,2.5 L7,4.5 C7,4.77614237 7.22385763,5 7.5,5 L13.5,5 C13.7761424,5 14,4.77614237 14,4.5 L14,2.5 C14,2.22385763 13.7761424,2 13.5,2 Z" id="形状结合" fill="#000000"></path>
    </g>
</svg>