<?xml version="1.0" encoding="UTF-8"?>
<svg width="16px" height="16px" viewBox="0 0 16 16" version="1.1" xmlns="http://www.w3.org/2000/svg" xmlns:xlink="http://www.w3.org/1999/xlink">
    <title>View/grid</title>
    <g id="View/grid" stroke="none" stroke-width="1" fill="none" fill-rule="evenodd">
        <path d="M2,1 L6,1 C6.55228475,1 7,1.44771525 7,2 L7,6 C7,6.55228475 6.55228475,7 6,7 L2,7 C1.44771525,7 1,6.55228475 1,6 L1,2 C1,1.44771525 1.44771525,1 2,1 Z M5.5,9 C6.32842712,9 7,9.67157288 7,10.5 L7,13.5 C7,14.3284271 6.32842712,15 5.5,15 L2.5,15 C1.67157288,15 1,14.3284271 1,13.5 L1,10.5 C1,9.67157288 1.67157288,9 2.5,9 L5.5,9 Z M5.5,10 L2.5,10 C2.22385763,10 2,10.2238576 2,10.5 L2,13.5 C2,13.7761424 2.22385763,14 2.5,14 L5.5,14 C5.77614237,14 6,13.7761424 6,13.5 L6,10.5 C6,10.2238576 5.77614237,10 5.5,10 Z M13.5,1 C14.3284271,1 15,1.67157288 15,2.5 L15,5.5 C15,6.32842712 14.3284271,7 13.5,7 L10.5,7 C9.67157288,7 9,6.32842712 9,5.5 L9,2.5 C9,1.67157288 9.67157288,1 10.5,1 L13.5,1 Z M13.5,2 L10.5,2 C10.2238576,2 10,2.22385763 10,2.5 L10,5.5 C10,5.77614237 10.2238576,6 10.5,6 L13.5,6 C13.7761424,6 14,5.77614237 14,5.5 L14,2.5 C14,2.22385763 13.7761424,2 13.5,2 Z M13.5,9 C14.3284271,9 15,9.67157288 15,10.5 L15,13.5 C15,14.3284271 14.3284271,15 13.5,15 L10.5,15 C9.67157288,15 9,14.3284271 9,13.5 L9,10.5 C9,9.67157288 9.67157288,9 10.5,9 L13.5,9 Z M13.5,10 L10.5,10 C10.2238576,10 10,10.2238576 10,10.5 L10,13.5 C10,13.7761424 10.2238576,14 10.5,14 L13.5,14 C13.7761424,14 14,13.7761424 14,13.5 L14,10.5 C14,10.2238576 13.7761424,10 13.5,10 Z" id="形状结合" fill="#000000"></path>
    </g>
</svg>