<?xml version="1.0" encoding="UTF-8"?>
<svg width="16px" height="16px" viewBox="0 0 16 16" version="1.1" xmlns="http://www.w3.org/2000/svg" xmlns:xlink="http://www.w3.org/1999/xlink">
    <title>View/tree</title>
    <g id="View/tree" stroke="none" stroke-width="1" fill="none" fill-rule="evenodd">
        <path d="M3,1 C3.55228475,1 4,1.44771525 4,2 L4,3 C4,3.55228475 3.55228475,4 3,4 L3,8 L11.5,8 C11.7761424,8 12,8.22385763 12,8.5 C12,8.77614237 11.7761424,9 11.5,9 L3,9 L3,13 L14.5,13 C14.7761424,13 15,13.2238576 15,13.5 C15,13.7761424 14.7761424,14 14.5,14 L3,14 C2.44771525,14 2,13.5522847 2,13 L2,4 C1.44771525,4 1,3.55228475 1,3 L1,2 C1,1.44771525 1.44771525,1 2,1 L3,1 Z M14,1 C14.5522847,1 15,1.44771525 15,2 L15,3 C15,3.55228475 14.5522847,4 14,4 L6,4 C5.44771525,4 5,3.55228475 5,3 L5,2 C5,1.44771525 5.44771525,1 6,1 L14,1 Z" id="形状结合" fill="#000000"></path>
    </g>
</svg>