<?xml version="1.0" encoding="UTF-8"?>
<svg width="16px" height="16px" viewBox="0 0 16 16" version="1.1" xmlns="http://www.w3.org/2000/svg" xmlns:xlink="http://www.w3.org/1999/xlink">
    <title>View/preview view</title>
    <g id="View/preview-view" stroke="none" stroke-width="1" fill="none" fill-rule="evenodd">
        <path d="M2.5,15 C1.67157288,15 1,14.3284271 1,13.5 L1,2.5 C1,1.67157288 1.67157288,1 2.5,1 L13.5,1 C14.3284271,1 15,1.67157288 15,2.5 L15,13.5 C15,14.3284271 14.3284271,15 13.5,15 L2.5,15 Z M10,2 L2.5,2 C2.22385763,2 2,2.22385763 2,2.5 L2,13.5 C2,13.7761424 2.22385763,14 2.5,14 L10,14 L10,2 Z M13.5,2 L11,2 L11,14 L13.5,14 C13.7761424,14 14,13.7761424 14,13.5 L14,2.5 C14,2.22385763 13.7761424,2 13.5,2 Z" id="形状结合" fill="#000000" fill-rule="nonzero"></path>
    </g>
</svg>