<svg xmlns="http://www.w3.org/2000/svg" width="16" height="16" viewBox="0 0 16 16">
  <path fill="#626E88" d="M2.43393012,1.86239576 L6.57340511,7.48292718 C6.60733523,7.55064442 6.64126535,7.61836168 6.64126535,7.68607892 L6.64126535,11.9184068 C6.64126535,12.0199827 6.70912559,12.1215585 6.77698585,12.1892758 L9.01637396,13.6790552 C9.11816431,13.7467724 9.21995469,13.7129138 9.28781493,13.6113379 C9.32174505,13.5774793 9.32174505,13.5436207 9.32174505,13.5097621 L9.32174505,7.6522203 C9.32174505,7.58450306 9.35567517,7.5167858 9.38960529,7.44906856 L13.5630104,1.86239576 C13.6308706,1.76081991 13.5969405,1.65924402 13.5290803,1.59152679 C13.4951502,1.52380952 13.4272899,1.52380952 13.3933598,1.52380952 L2.60358074,1.52380952 C2.50179038,1.52380952 2.4,1.62538538 2.4,1.72696126 C2.4,1.76081988 2.4,1.82853712 2.43393012,1.86239576 Z M5.1068983,7.8099352 L0.14602716,1.10583154 C-0.0968126858,0.794816426 -0.0274298792,0.380129597 0.284792773,0.13822895 C0.388866982,0.0345572543 0.562324021,0 0.701089657,0 L15.3061719,0 C15.6877773,0 16,0.311015111 16,0.691144708 C16,0.829373658 15.9653086,0.967602587 15.8612344,1.10583154 L10.9350546,7.8099352 C10.8309804,7.9136069 10.796289,8.08639308 10.796289,8.22462203 L10.796289,15.3088553 C10.796289,15.6889849 10.4840663,16 10.1024609,16 C9.96369523,16 9.82492961,15.9654428 9.72085538,15.8963283 L5.55788659,13.1317495 C5.34973814,12.9935205 5.24566393,12.7861771 5.24566393,12.5442765 L5.24566393,8.22462203 C5.24566393,8.05183585 5.21097253,7.91360692 5.1068983,7.8099352 Z"/>
</svg>
