<?xml version="1.0" encoding="UTF-8"?>
<svg width="16px" height="16px" viewBox="0 0 16 16" version="1.1" xmlns="http://www.w3.org/2000/svg" xmlns:xlink="http://www.w3.org/1999/xlink">
    <title>grand-search</title>
    <g id="grand-search" stroke="none" stroke-width="1" fill="none" fill-rule="evenodd">
        <path d="M7.4,1 C10.9346224,1 13.8,3.8653776 13.8,7.4 C13.8,8.79338818 13.354713,10.082774 12.5986772,11.1336192 C12.6259149,11.1545442 12.6521827,11.1787099 12.6773946,11.2045307 L15.3918577,13.9845424 C15.7776957,14.3796975 15.7701426,15.0128174 15.3749875,15.3986553 C14.9798324,15.7844932 14.3467125,15.7769402 13.9608746,15.3817851 L11.2464114,12.6017734 L11.201008,12.5495266 C10.1381212,13.3353768 8.82331989,13.8 7.4,13.8 C3.8653776,13.8 1,10.9346224 1,7.4 C1,3.8653776 3.8653776,1 7.4,1 Z M7.4,2 C4.41766235,2 2,4.41766235 2,7.4 C2,10.3823376 4.41766235,12.8 7.4,12.8 C10.3823376,12.8 12.8,10.3823376 12.8,7.4 C12.8,4.41766235 10.3823376,2 7.4,2 Z" id="形状" fill="#000000"></path>
    </g>
</svg>