<?xml version="1.0" encoding="UTF-8"?>
<svg width="16px" height="16px" viewBox="0 0 16 16" version="1.1" xmlns="http://www.w3.org/2000/svg" xmlns:xlink="http://www.w3.org/1999/xlink">
    <title>View/list</title>
    <g id="View/list" stroke="none" stroke-width="1" fill="none" fill-rule="evenodd">
        <path d="M15,2.8 L15,2.2 C15,2.08954305 14.9104569,2 14.8,2 L6.2,2 C6.08954305,2 6,2.08954305 6,2.2 L6,2.8 C6,2.91045695 6.08954305,3 6.2,3 L14.8,3 C14.9104569,3 15,2.91045695 15,2.8 Z M15,7.8 L15,7.2 C15,7.08954305 14.9104569,7 14.8,7 L6.2,7 C6.08954305,7 6,7.08954305 6,7.2 L6,7.8 C6,7.91045695 6.08954305,8 6.2,8 L14.8,8 C14.9104569,8 15,7.91045695 15,7.8 Z M15,13.8 L15,13.2 C15,13.0895431 14.9104569,13 14.8,13 L6.2,13 C6.08954305,13 6,13.0895431 6,13.2 L6,13.8 C6,13.9104569 6.08954305,14 6.2,14 L14.8,14 C14.9104569,14 15,13.9104569 15,13.8 Z M3.5,6 C3.77614237,6 4,6.22385763 4,6.5 L4,8.5 C4,8.77614237 3.77614237,9 3.5,9 L1.5,9 C1.22385763,9 1,8.77614237 1,8.5 L1,6.5 C1,6.22385763 1.22385763,6 1.5,6 L3.5,6 Z M3,7 L2,7 L2,8 L3,8 L3,7 Z M3.5,1 C3.77614237,1 4,1.22385763 4,1.5 L4,3.5 C4,3.77614237 3.77614237,4 3.5,4 L1.5,4 C1.22385763,4 1,3.77614237 1,3.5 L1,1.5 C1,1.22385763 1.22385763,1 1.5,1 L3.5,1 Z M3,2 L2,2 L2,3 L3,3 L3,2 Z M3.5,12 C3.77614237,12 4,12.2238576 4,12.5 L4,14.5 C4,14.7761424 3.77614237,15 3.5,15 L1.5,15 C1.22385763,15 1,14.7761424 1,14.5 L1,12.5 C1,12.2238576 1.22385763,12 1.5,12 L3.5,12 Z M3,13 L2,13 L2,14 L3,14 L3,13 Z" id="形状结合" fill="#000000"></path>
    </g>
</svg>