<?xml version="1.0" encoding="UTF-8"?>
<svg width="16px" height="16px" viewBox="0 0 16 16" version="1.1" xmlns="http://www.w3.org/2000/svg" xmlns:xlink="http://www.w3.org/1999/xlink">
    <title>列表视图/图标/小</title>
    <g id="列表视图/图标/小" stroke="none" stroke-width="1" fill="none" fill-rule="evenodd">
        <path d="M6.5,4 L12.5,4 C12.7761424,4 13,4.22385763 13,4.5 C13,4.77614237 12.7761424,5 12.5,5 L6.5,5 C6.22385763,5 6,4.77614237 6,4.5 C6,4.22385763 6.22385763,4 6.5,4 Z M6.5,7 L12.5,7 C12.7761424,7 13,7.22385763 13,7.5 C13,7.77614237 12.7761424,8 12.5,8 L6.5,8 C6.22385763,8 6,7.77614237 6,7.5 C6,7.22385763 6.22385763,7 6.5,7 Z M6.5,10 L12.5,10 C12.7761424,10 13,10.2238576 13,10.5 C13,10.7761424 12.7761424,11 12.5,11 L6.5,11 C6.22385763,11 6,10.7761424 6,10.5 C6,10.2238576 6.22385763,10 6.5,10 Z M3.5,5 C3.77614237,5 4,4.77614237 4,4.5 C4,4.22385763 3.77614237,4 3.5,4 C3.22385763,4 3,4.22385763 3,4.5 C3,4.77614237 3.22385763,5 3.5,5 Z M3.5,8 C3.77614237,8 4,7.77614237 4,7.5 C4,7.22385763 3.77614237,7 3.5,7 C3.22385763,7 3,7.22385763 3,7.5 C3,7.77614237 3.22385763,8 3.5,8 Z M3.5,11 C3.77614237,11 4,10.7761424 4,10.5 C4,10.2238576 3.77614237,10 3.5,10 C3.22385763,10 3,10.2238576 3,10.5 C3,10.7761424 3.22385763,11 3.5,11 Z" id="形状结合" fill="#000000" fill-rule="nonzero"></path>
    </g>
</svg>