<?xml version="1.0" encoding="UTF-8"?>
<svg width="16px" height="16px" viewBox="0 0 16 16" version="1.1" xmlns="http://www.w3.org/2000/svg" xmlns:xlink="http://www.w3.org/1999/xlink">
    <title>网格视图/密度/大</title>
    <g id="网格视图/密度/大" stroke="none" stroke-width="1" fill="none" fill-rule="evenodd">
        <g id="图标/单色图标/视图图标/网格密度-大" transform="translate(2, 2)" fill="#000000" fill-rule="nonzero">
            <path d="M4.5,7 C4.77614237,7 5,7.22385763 5,7.5 L5,11.5 C5,11.7761424 4.77614237,12 4.5,12 L0,12 C0.223857625,12 0,11.7761424 0,11.5 L0,7.5 C0,7.22385763 0.223857625,7 0.5,7 L4.5,7 Z M11.5,7 C11.7761424,7 12,7.22385763 12,7.5 L12,11.5 C12,11.7761424 11.7761424,12 11.5,12 L7.5,12 C7.22385763,12 7,11.7761424 7,11.5 L7,7.5 C7,7.22385763 7.22385763,7 7.5,7 L11.5,7 Z M11,8 L8,8 L8,11 L11,11 L11,8 Z M4,8 L1,8 L1,11 L4,11 L4,8 Z M4.5,0 C4.77614237,0 5,0.223857625 5,0.5 L5,4.5 C5,4.77614237 4.77614237,5 4.5,5 L0,5 C0.223857625,5 0,4.77614237 0,4.5 L0,0 C0,0.223857625 0.223857625,0 0.5,0 L4.5,0 Z M11.5,0 C11.7761424,0 12,0.223857625 12,0.5 L12,4.5 C12,4.77614237 11.7761424,5 11.5,5 L7.5,5 C7.22385763,5 7,4.77614237 7,4.5 L7,0 C7,0.223857625 7.22385763,0 7.5,0 L11.5,0 Z M11,1 L8,1 L8,4 L11,4 L11,1 Z M4,1 L1,1 L1,4 L4,4 L4,1 Z" id="形状结合"></path>
        </g>
    </g>
</svg>