<?xml version="1.0" encoding="UTF-8"?>
<svg width="16px" height="16px" viewBox="0 0 16 16" version="1.1" xmlns="http://www.w3.org/2000/svg" xmlns:xlink="http://www.w3.org/1999/xlink">
    <title>View/list</title>
    <g id="View/list" stroke="none" stroke-width="1" fill="none" fill-rule="evenodd">
        <path d="M15,3.5 C15,3.22385763 14.7761424,3 14.5,3 L4.5,3 C4.22385763,3 4,3.22385763 4,3.5 C4,3.77614237 4.22385763,4 4.5,4 L14.5,4 C14.7761424,4 15,3.77614237 15,3.5 Z M15,8.5 C15,8.22385763 14.7761424,8 14.5,8 L4.5,8 C4.22385763,8 4,8.22385763 4,8.5 C4,8.77614237 4.22385763,9 4.5,9 L14.5,9 C14.7761424,9 15,8.77614237 15,8.5 Z M15,13.5 C15,13.2238576 14.7761424,13 14.5,13 L4.5,13 C4.22385763,13 4,13.2238576 4,13.5 C4,13.7761424 4.22385763,14 4.5,14 L14.5,14 C14.7761424,14 15,13.7761424 15,13.5 Z M1.5,7 L2.5,7 C2.77614237,7 3,7.22385763 3,7.5 L3,8.5 C3,8.77614237 2.77614237,9 2.5,9 L1.5,9 C1.22385763,9 1,8.77614237 1,8.5 L1,7.5 C1,7.22385763 1.22385763,7 1.5,7 Z M1.5,2 L2.5,2 C2.77614237,2 3,2.22385763 3,2.5 L3,3.5 C3,3.77614237 2.77614237,4 2.5,4 L1.5,4 C1.22385763,4 1,3.77614237 1,3.5 L1,2.5 C1,2.22385763 1.22385763,2 1.5,2 Z M1.5,12 L2.5,12 C2.77614237,12 3,12.2238576 3,12.5 L3,13.5 C3,13.7761424 2.77614237,14 2.5,14 L1.5,14 C1.22385763,14 1,13.7761424 1,13.5 L1,12.5 C1,12.2238576 1.22385763,12 1.5,12 Z" id="列表视图-2" fill="#000000"></path>
    </g>
</svg>