<?xml version="1.0" encoding="UTF-8"?>
<svg width="16px" height="16px" viewBox="0 0 16 16" version="1.1" xmlns="http://www.w3.org/2000/svg" xmlns:xlink="http://www.w3.org/1999/xlink">
    <title>单色图标/16*16/动作/固定</title>
    <defs>
        <path d="M0,0 L16,0 L16,16 L0,16 L0,0 Z" id="path-1"></path>
    </defs>
    <g id="单色图标/16*16/动作/固定" stroke="none" fill="none" xlink:href="#path-1" fill-rule="nonzero">
        <path d="M6,2 L4.5,2 C4.22385763,2 4,1.77614237 4,1.5 C4,1.22385763 4.22385763,1 4.5,1 L11.5,1 C11.7761424,1 12,1.22385763 12,1.5 C12,1.77614237 11.7761424,2 11.5,2 L10,2 L11,7 L12.5,7 C12.7761424,7 13,7.22385763 13,7.5 C13,7.77614237 12.7761424,8 12.5,8 L3.5,8 C3.22385763,8 3,7.77614237 3,7.5 C3,7.22385763 3.22385763,7 3.5,7 L5,7 L6,2 Z M9,9 L8.54152274,14.5017271 C8.51805275,14.7833669 8.28261605,15 8,15 C7.71738395,15 7.48194725,14.7833669 7.45847726,14.5017271 L7,9 L7,9 L9,9 Z" id="形状结合" fill="#000000"></path>
    </g>
</svg>