<?xml version="1.0" encoding="UTF-8"?>
<svg width="16px" height="16px" viewBox="0 0 16 16" version="1.1" xmlns="http://www.w3.org/2000/svg" xmlns:xlink="http://www.w3.org/1999/xlink">
    <title>列表视图</title>
    <g id="列表视图" stroke="none" stroke-width="1" fill="none" fill-rule="evenodd">
        <g id="图标/单色图标/视图图标/列表视图" transform="translate(1, 1)" fill="#000000" fill-rule="nonzero">
            <path d="M14,11.5 C14,11.2238576 13.7761424,11 13.5,11 L5,11 C4.72385763,11 4.5,11.2238576 4.5,11.5 C4.5,11.7761424 4.72385763,12 5,12 L13.5,12 C13.7761424,12 14,11.7761424 14,11.5 Z M14,6.5 C14,6.22385763 13.7761424,6 13.5,6 L5,6 C4.72385763,6 4.5,6.22385763 4.5,6.5 C4.5,6.77614237 4.72385763,7 5,7 L13.5,7 C13.7761424,7 14,6.77614237 14,6.5 Z M14,1.5 C14,1.22385763 13.7761424,1 13.5,1 L5,1 C4.72385763,1 4.5,1.22385763 4.5,1.5 C4.5,1.77614237 4.72385763,2 5,2 L13.5,2 C13.7761424,2 14,1.77614237 14,1.5 Z M0.5,0 L2.5,0 C2.77614237,0 3,0.223857625 3,0.5 L3,2.5 C3,2.77614237 2.77614237,3 2.5,3 L0.5,3 C0.223857625,3 0,2.77614237 0,2.5 L0,0.5 C0,0.223857625 0.223857625,5.55111512e-17 0.5,0 Z M0.5,5 L2.5,5 C2.77614237,5 3,5.22385763 3,5.5 L3,7.5 C3,7.77614237 2.77614237,8 2.5,8 L0.5,8 C0.223857625,8 0,7.77614237 0,7.5 L0,5.5 C0,5.22385763 0.223857625,5 0.5,5 Z M0.5,10 L2.5,10 C2.77614237,10 3,10.2238576 3,10.5 L3,12.5 C3,12.7761424 2.77614237,13 2.5,13 L0.5,13 C0.223857625,13 0,12.7761424 0,12.5 L0,10.5 C0,10.2238576 0.223857625,10 0.5,10 Z" id="形状结合"></path>
        </g>
    </g>
</svg>