<?xml version="1.0" encoding="UTF-8"?>
<svg width="16px" height="16px" viewBox="0 0 16 16" version="1.1" xmlns="http://www.w3.org/2000/svg" xmlns:xlink="http://www.w3.org/1999/xlink">
    <title>Arrange</title>
    <g id="Arrange" stroke="none" stroke-width="1" fill="none" fill-rule="evenodd">
        <g id="图标/单色图标/动作/Arrange" transform="translate(1, 2)" fill="#000000" fill-rule="nonzero">
            <path d="M10.5262731,0.000518745046 C10.616775,0.00466885157 10.7077144,0.0338386125 10.7883602,0.0920699339 C10.8132778,0.10940829 10.8366943,0.129005325 10.8582133,0.150696881 L12.4541365,1.74803208 C12.5293551,1.82325074 12.5992094,1.89310496 12.6642589,1.95815453 L13.1554646,2.44936023 C13.2091089,2.50300454 13.2573629,2.55125851 13.3015534,2.59544899 L13.516014,2.80990963 L13.5347662,2.82866181 L13.8535534,3.14744899 C14.0488155,3.34271113 14.0488155,3.65929362 13.8535534,3.85455577 C13.6582912,4.04981791 13.3417088,4.04981791 13.1464466,3.85455577 L12.8461317,3.5542409 C12.8216653,3.52977443 12.7965924,3.50470154 12.7703533,3.47846247 L12.5944466,3.30255577 C12.5502561,3.25836529 12.5020022,3.21011132 12.4483579,3.15646701 L11.9571521,2.66526131 C11.8921026,2.60021174 11.8222484,2.53035752 11.7470297,2.45513886 L11,1.70800238 L11,11.5010024 C11,11.7464623 10.8231248,11.9506107 10.5898756,11.9929467 L10.5,12.0010024 C10.2238576,12.0010024 10,11.7771448 10,11.5010024 L10,1.70800238 L9.2529703,2.45513886 C9.17775164,2.53035752 9.10789741,2.60021174 9.04284785,2.66526131 L8.55164215,3.15646701 C8.49799784,3.21011132 8.44974387,3.25836529 8.40555339,3.30255577 L8.22964669,3.47846247 C8.20340762,3.50470154 8.17833473,3.52977443 8.15386826,3.5542409 L7.85355339,3.85455577 C7.65829124,4.04981791 7.34170876,4.04981791 7.14644661,3.85455577 C6.95118446,3.65929362 6.95118446,3.34271113 7.14644661,3.14744899 L7.46523378,2.82866181 L7.48398597,2.80990963 L7.69844661,2.59544899 C7.76473232,2.52916327 7.8401609,2.4537347 7.92921046,2.36468514 L8.33574107,1.95815453 C8.40079063,1.89310496 8.47064486,1.82325074 8.54586352,1.74803208 L10.1417867,0.150696881 C10.1633057,0.129005325 10.1867222,0.10940829 10.2111644,0.0922760984 C10.2922856,0.0338386125 10.383225,0.00466885157 10.4737269,0.000518745046 Z M3.5,0 L3.58987563,0.00805566941 C3.82312484,0.0503916296 4,0.254540111 4,0.5 L4,10.293 L4.7470297,9.54586352 C4.82224836,9.47064486 4.89210259,9.40079063 4.95715215,9.33574107 L5.44835785,8.84453537 C5.50200216,8.79089105 5.55025613,8.74263709 5.59444661,8.69844661 L5.77035331,8.5225399 C5.79659238,8.49630084 5.82166527,8.47122795 5.84613174,8.44676148 L6.14644661,8.14644661 C6.34170876,7.95118446 6.65829124,7.95118446 6.85355339,8.14644661 C7.04881554,8.34170876 7.04881554,8.65829124 6.85355339,8.85355339 L6.53476622,9.17234056 L6.51601403,9.19109275 L6.30155339,9.40555339 C6.25736291,9.44974387 6.20910895,9.49799784 6.15546463,9.55164215 L5.66425893,10.0428479 C5.59920937,10.1078974 5.52935514,10.1777516 5.45413648,10.2529703 L3.85821326,11.8503055 C3.83669425,11.8719971 3.8132778,11.8915941 3.78836021,11.9089324 C3.70771442,11.9671638 3.61677502,11.9963335 3.52627313,12.0004836 L3.47372687,12.0004836 C3.38322498,11.9963335 3.29228558,11.9671638 3.21116441,11.9087263 C3.1867222,11.8915941 3.16330575,11.8719971 3.14178674,11.8503055 L1.54586352,10.2529703 C1.47064486,10.1777516 1.40079063,10.1078974 1.33574107,10.0428479 L0.929210458,9.63631724 C0.840160895,9.54726768 0.764732324,9.4718391 0.698446609,9.40555339 L0.483985968,9.19109275 L0.465233781,9.17234056 L0.146446609,8.85355339 C-0.0488155365,8.65829124 -0.0488155365,8.34170876 0.146446609,8.14644661 C0.341708755,7.95118446 0.658291245,7.95118446 0.853553391,8.14644661 L1.15386826,8.44676148 C1.17833473,8.47122795 1.20340762,8.49630084 1.22964669,8.5225399 L1.40555339,8.69844661 C1.44974387,8.74263709 1.49799784,8.79089105 1.55164215,8.84453537 L2.04284785,9.33574107 C2.10789741,9.40079063 2.17775164,9.47064486 2.2529703,9.54586352 L3,10.293 L3,0.5 C3,0.223857625 3.22385763,0 3.5,0 Z" id="形状结合"></path>
        </g>
    </g>
</svg>