<?xml version="1.0" encoding="UTF-8"?>
<svg width="16px" height="16px" viewBox="0 0 16 16" version="1.1" xmlns="http://www.w3.org/2000/svg" xmlns:xlink="http://www.w3.org/1999/xlink">
    <title>网格视图</title>
    <g id="网格视图" stroke="none" stroke-width="1" fill="none" fill-rule="evenodd">
        <g id="图标/单色图标/视图图标/网格密度-大" transform="translate(2, 2)" fill="#000000" fill-rule="nonzero">
            <path d="M0.5,0 L3.5,0 C3.77614237,0 4,0.223857625 4,0.5 L4,3.5 C4,3.77614237 3.77614237,4 3.5,4 L0.5,4 C0.223857625,4 0,3.77614237 0,3.5 L0,0.5 C0,0.223857625 0.223857625,5.55111512e-17 0.5,0 Z M0.5,8 L3.5,8 C3.77614237,8 4,8.22385763 4,8.5 L4,11.5 C4,11.7761424 3.77614237,12 3.5,12 L0.5,12 C0.223857625,12 0,11.7761424 0,11.5 L0,8.5 C0,8.22385763 0.223857625,8 0.5,8 Z M8.5,0 L11.5,0 C11.7761424,0 12,0.223857625 12,0.5 L12,3.5 C12,3.77614237 11.7761424,4 11.5,4 L8.5,4 C8.22385763,4 8,3.77614237 8,3.5 L8,0.5 C8,0.223857625 8.22385763,5.55111512e-17 8.5,0 Z M8.5,8 L11.5,8 C11.7761424,8 12,8.22385763 12,8.5 L12,11.5 C12,11.7761424 11.7761424,12 11.5,12 L8.5,12 C8.22385763,12 8,11.7761424 8,11.5 L8,8.5 C8,8.22385763 8.22385763,8 8.5,8 Z" id="形状结合"></path>
        </g>
    </g>
</svg>