<?xml version="1.0" encoding="UTF-8"?>
<svg width="16px" height="16px" viewBox="0 0 16 16" version="1.1" xmlns="http://www.w3.org/2000/svg" xmlns:xlink="http://www.w3.org/1999/xlink">
    <title>筛选</title>
    <g id="筛选" stroke="none" stroke-width="1" fill="none" fill-rule="evenodd">
        <path d="M13.9193752,1 C14.1464466,1 14.3667572,1.07728075 14.5440702,1.21913119 C14.9753321,1.56414074 15.0452535,2.19343311 14.700244,2.62469505 L9.99962485,8.5 L10,14 C10,14.5522847 9.55228475,15 9,15 C8.78362979,15 8.57309617,14.9298221 8.4,14.8 L6,13 L5.99962485,8.5 L1.29975604,2.62469505 C1.18627569,2.48284461 1.11411994,2.3134758 1.08979685,2.13514169 L1.08062485,2 C1.08062485,1.44771525 1.5283401,1 2.08062485,1 L13.9193752,1 Z M13.8,2 L2.19861871,2 L7,8 L7,12.5 L9,14 L9,8 L13.8,2 Z" id="形状结合" fill="#000000" fill-rule="nonzero"></path>
    </g>
</svg>