<?xml version="1.0" encoding="UTF-8"?>
<svg width="16px" height="16px" viewBox="0 0 16 16" version="1.1" xmlns="http://www.w3.org/2000/svg" xmlns:xlink="http://www.w3.org/1999/xlink">
    <title>View/tree</title>
    <g id="View/tree" stroke="none" stroke-width="1" fill="none" fill-rule="evenodd">
        <path d="M3.5,1 C3.77614237,1 4,1.22385763 4,1.5 L4,3.5 C4,3.77614237 3.77614237,4 3.5,4 L3,4 L3,8 L11.8,8 C11.9104569,8 12,8.08954305 12,8.2 L12,8.8 C12,8.91045695 11.9104569,9 11.8,9 L3,9 L3,13.8 C3,13.9104569 3.08954305,14 3.2,14 L14.8,14 C14.9104569,14 15,14.0895431 15,14.2 L15,14.8 C15,14.9104569 14.9104569,15 14.8,15 L3,15 C2.44771525,15 2,14.5522847 2,14 L2,4 L1.5,4 C1.22385763,4 1,3.77614237 1,3.5 L1,1.5 C1,1.22385763 1.22385763,1 1.5,1 L3.5,1 Z M14.5,1 C14.7761424,1 15,1.22385763 15,1.5 L15,3.5 C15,3.77614237 14.7761424,4 14.5,4 L5.5,4 C5.22385763,4 5,3.77614237 5,3.5 L5,1.5 C5,1.22385763 5.22385763,1 5.5,1 L14.5,1 Z" id="形状结合" fill="#000000"></path>
    </g>
</svg>