<?xml version="1.0" encoding="UTF-8" standalone="no"?>
<svg
   xmlns:dc="http://purl.org/dc/elements/1.1/"
   xmlns:cc="http://creativecommons.org/ns#"
   xmlns:rdf="http://www.w3.org/1999/02/22-rdf-syntax-ns#"
   xmlns:svg="http://www.w3.org/2000/svg"
   xmlns="http://www.w3.org/2000/svg"
   xmlns:xlink="http://www.w3.org/1999/xlink"
   xmlns:sodipodi="http://sodipodi.sourceforge.net/DTD/sodipodi-0.dtd"
   xmlns:inkscape="http://www.inkscape.org/namespaces/inkscape"
   width="200px"
   height="200px"
   viewBox="0 0 200 200"
   version="1.1"
   id="svg37"
   sodipodi:docname="cover_max_200px_bak.svg"
   inkscape:version="0.92.4 (5da689c313, 2019-01-14)">
  <metadata
     id="metadata41">
    <rdf:RDF>
      <cc:Work
         rdf:about="">
        <dc:format>image/svg+xml</dc:format>
        <dc:type
           rdf:resource="http://purl.org/dc/dcmitype/StillImage" />
      </cc:Work>
    </rdf:RDF>
  </metadata>
  <sodipodi:namedview
     pagecolor="#ffffff"
     bordercolor="#666666"
     borderopacity="1"
     objecttolerance="10"
     gridtolerance="10"
     guidetolerance="10"
     inkscape:pageopacity="0"
     inkscape:pageshadow="2"
     inkscape:window-width="640"
     inkscape:window-height="480"
     id="namedview39"
     showgrid="false"
     inkscape:zoom="1.18"
     inkscape:cx="100"
     inkscape:cy="100"
     inkscape:window-x="1058"
     inkscape:window-y="420"
     inkscape:window-maximized="0"
     inkscape:current-layer="svg37" />
  <!-- Generator: Sketch 46.2 (44496) - http://www.bohemiancoding.com/sketch -->
  <title
     id="title2">cover_max</title>
  <desc
     id="desc4">Created with Sketch.</desc>
  <defs
     id="defs19">
    <rect
       id="path-1"
       x="0"
       y="0"
       width="200"
       height="200"
       rx="4" />
    <filter
       x="-4.0%"
       y="-3.0%"
       width="108.0%"
       height="108.0%"
       filterUnits="objectBoundingBox"
       id="filter-2">
      <feMorphology
         radius="1"
         operator="dilate"
         in="SourceAlpha"
         result="shadowSpreadOuter1"
         id="feMorphology7" />
      <feOffset
         dx="0"
         dy="2"
         in="shadowSpreadOuter1"
         result="shadowOffsetOuter1"
         id="feOffset9" />
      <feGaussianBlur
         stdDeviation="2"
         in="shadowOffsetOuter1"
         result="shadowBlurOuter1"
         id="feGaussianBlur11" />
      <feComposite
         in="shadowBlurOuter1"
         in2="SourceAlpha"
         operator="out"
         result="shadowBlurOuter1"
         id="feComposite13" />
      <feColorMatrix
         values="0 0 0 0 0   0 0 0 0 0   0 0 0 0 0  0 0 0 0.1 0"
         type="matrix"
         in="shadowBlurOuter1"
         id="feColorMatrix15" />
    </filter>
    <path
       d="M82.9541109,68.0430098 C82.8894459,63.0927652 86.7806995,58.3001892 91.6689858,57.3338426 L127.790434,50.193132 C134.291064,48.9080474 139.59105,53.2323266 139.628399,59.8722547 L140,125.935974 C140,125.935974 140,136.738372 127.885326,139.189194 C115.770652,141.640015 112.922874,136.13517 111.849668,132.670718 C110.776462,129.206267 110.477462,124.981073 113.504917,121.012224 C116.532371,117.043375 121.57547,116.127515 123.802702,115.623461 C126.029935,115.119407 131.560034,115.00229 132.909346,113.004737 C134.258659,111.007185 134.109506,106.85938 134.109506,106.85938 L133.989785,77.4757102 C133.979661,74.9907538 131.994364,73.3625313 129.554105,73.8392465 L93.3883675,80.9043789 C90.9487334,81.3809719 88.9777477,83.7833901 88.9856336,86.2716376 C88.9856336,86.2716376 89.1293365,127.119187 88.9932188,131.435981 C88.857101,135.752775 88.4722246,138.337934 87.0750447,141.895667 C85.6778647,145.453399 83.9584453,146.812852 80.9368876,148.400672 C77.9153298,149.988491 70.7618932,150.498064 67.1822265,149.454725 C63.6025599,148.411385 60,144.604907 60,139.189194 C60,133.77348 61.8600259,131.514359 63.8722836,129.793164 C66.8118423,127.278798 72.3252335,125.819582 76.2971956,125.176614 C79.3610711,124.680644 81.9934442,125.176614 82.8370246,121.012224 C83.6806049,116.847835 82.9541109,68.0430098 82.9541109,68.0430098 Z"
       id="path-3" />
  </defs>
  <g
     id="Page-1"
     stroke="none"
     stroke-width="1"
     fill="none"
     fill-rule="evenodd">
    <g
       id="cover_max">
      <g
         id="Group-7">
        <g
           id="Group-22">
          <g
             id="Rectangle-90">
            <use
               fill="black"
               fill-opacity="1"
               filter="url(#filter-2)"
               xlink:href="#path-1"
               id="use21" />
            <use
               fill="#FFFFFF"
               fill-rule="evenodd"
               xlink:href="#path-1"
               id="use23" />
            <rect
               stroke-opacity="0.1"
               stroke="#000000"
               stroke-width="1"
               x="-0.5"
               y="-0.5"
               width="201"
               height="201"
               rx="4"
               id="rect25" />
          </g>
          <g
             id="Path-21">
            <use
               xlink:href="#path-3"
               id="use28"
               transform="translate(-10)"
               style="fill:#92de00;fill-rule:evenodd"
               x="0"
               y="0"
               width="100%"
               height="100%" />
            <path
               d="m 74.204004,68.026683 -3.2e-5,-0.0023 c 0.0023,0.152946 0.0065,0.446966 0.01251,0.870505 0.0099,0.705718 0.02103,1.517845 0.03296,2.424827 0.03409,2.59123 0.06818,5.423219 0.1,8.403557 0.05505,5.156944 0.09739,10.204593 0.121983,14.939087 0.07896,15.199851 -0.02699,24.710791 -0.409283,26.598021 -0.721619,3.56232 -2.309761,4.53791 -6.059788,4.95841 -0.853074,0.0957 -1.09603,0.12547 -1.505412,0.19174 -4.917133,0.79597 -9.4872,2.34387 -11.812148,4.33252 -2.389332,2.04373 -3.434793,4.1694 -3.434793,8.44612 0,4.40767 2.789619,8.04757 6.282001,9.06547 3.313745,0.96583 10.127331,0.45627 12.823413,-0.96051 3.153751,-1.65729 4.395577,-2.9002 5.556136,-5.85541 1.274927,-3.24643 1.692604,-5.61222 1.83229,-10.04216 0.05599,-1.7756 0.06904,-9.93246 0.04963,-22.35684 -0.0058,-3.70295 -0.01427,-7.6394 -0.02474,-11.679554 -0.0072,-2.792174 -0.01499,-5.468818 -0.02275,-7.935466 -0.0027,-0.863317 -0.0052,-1.638714 -0.0075,-2.314383 -0.0023,-0.687447 -0.0023,-0.687447 -0.0028,-0.83474 -0.0098,-3.087389 2.384814,-6.006448 5.413065,-6.59803 l 36.165734,-7.065132 c 3.20987,-0.627062 5.91201,1.588478 5.92533,4.85818 l 0.11893,29.343845 c 9.4e-4,0.0269 9.4e-4,0.0269 0.003,0.11809 0.007,0.38316 0.001,0.86422 -0.0278,1.40863 -0.0431,0.80322 -0.13015,1.59689 -0.27286,2.34924 -0.22873,1.20585 -0.58307,2.22524 -1.11587,3.014 -0.92565,1.37036 -2.7519,2.03227 -5.7046,2.51638 -0.45562,0.0747 -0.92176,0.14256 -1.51246,0.2224 -0.0567,0.008 -1.08892,0.14475 -1.36089,0.18273 -0.58563,0.0818 -0.98714,0.14848 -1.2886,0.2167 -0.0421,0.01 -0.85965,0.19047 -1.1326,0.2535 -0.48575,0.11217 -0.91906,0.22096 -1.35114,0.34195 -1.10327,0.30894 -2.1095,0.67466 -3.05263,1.13331 -1.65288,0.8038 -3.01405,1.84943 -4.04348,3.19895 -2.38126,3.12173 -2.67705,6.58582 -1.45508,10.5305 1.60047,5.16653 5.32533,7.5382 14.59378,5.66317 4.36904,-0.88386 7.30862,-2.94006 9.13292,-5.82438 0.86539,-1.36822 1.42426,-2.84091 1.73485,-4.31408 0.10836,-0.51397 0.1777,-0.98906 0.21588,-1.41151 0.022,-0.24317 0.0289,-0.40712 0.0289,-0.47103 l -0.3716,-66.063726 c -0.0329,-5.851999 -4.61177,-9.593378 -10.34557,-8.459885 l -36.121447,7.14071 c -4.293805,0.848826 -7.764224,5.116396 -7.707398,9.466572 z"
               id="path30"
               inkscape:connector-curvature="0"
               style="stroke:#05c208;stroke-width:2.5;stroke-opacity:0.5" />
          </g>
        </g>
      </g>
    </g>
  </g>
</svg>
