<?xml version="1.0" encoding="iso-8859-1"?>
<!-- Generator: Adobe Illustrator 18.0.0, SVG Export Plug-In . SVG Version: 6.00 Build 0)  -->
<!DOCTYPE svg PUBLIC "-//W3C//DTD SVG 1.1//EN" "http://www.w3.org/Graphics/SVG/1.1/DTD/svg11.dtd">
<svg version="1.1" id="&#x56FE;&#x5C42;_1" xmlns="http://www.w3.org/2000/svg" xmlns:xlink="http://www.w3.org/1999/xlink" x="0px"
	 y="0px" viewBox="0 0 46 20" enable-background="new 0 0 46 20" xml:space="preserve">
<g>
	<g>
		<path fill="#727171" d="M23.02,14.919c-0.422,0.859-0.711,1.461-0.867,1.805c-0.313-0.313-0.656-0.578-1.031-0.797
			c0.344-0.313,0.734-0.852,1.172-1.617s0.828-1.508,1.172-2.227c0.219,0.281,0.453,0.516,0.703,0.703
			C23.824,13.349,23.441,14.06,23.02,14.919z M23.793,10.442c-0.188,0.219-0.391,0.5-0.609,0.844
			c-0.594-0.531-1.219-0.984-1.875-1.359c0.188-0.188,0.375-0.438,0.563-0.75C22.59,9.646,23.23,10.067,23.793,10.442z
			 M24.168,7.536c-0.281,0.219-0.5,0.453-0.656,0.703c-0.531-0.625-1.109-1.125-1.734-1.5c0.219-0.219,0.438-0.453,0.656-0.703
			C23.184,6.599,23.762,7.099,24.168,7.536z M29.277,7.864c0.594,0,1.281-0.016,2.063-0.047v0.891
			c-0.844-0.031-1.516-0.047-2.016-0.047h-0.938v2.578h0.891c0.531,0,1.156-0.016,1.875-0.047v0.891
			c-0.688-0.031-1.313-0.047-1.875-0.047h-0.891v3.422h1.172c0.75,0,1.531-0.016,2.344-0.047v0.891
			c-0.813-0.031-1.578-0.047-2.297-0.047h-3.422c-0.813,0-1.484,0.016-2.016,0.047v-0.891c0.5,0.031,1.188,0.047,2.063,0.047h1.219
			v-3.422h-0.75c-0.594,0-1.156,0.016-1.688,0.047v-0.891c0.531,0.031,1.109,0.047,1.734,0.047h0.703V8.661h-0.891
			c-0.625,0-1.25,0.016-1.875,0.047V7.817c0.625,0.031,1.266,0.047,1.922,0.047H29.277z M27.215,5.614
			c0.406,0.344,0.906,0.844,1.5,1.5c-0.25,0.188-0.5,0.391-0.75,0.609c-0.531-0.656-1-1.172-1.406-1.547
			C26.777,6.021,26.996,5.833,27.215,5.614z"/>
		<path fill="#727171" d="M34.012,16.489c-0.375-0.156-0.688-0.266-0.938-0.328c0.375-0.5,0.688-1.188,0.938-2.063
			c0.281,0.125,0.578,0.219,0.891,0.281C34.621,14.974,34.324,15.677,34.012,16.489z M35.465,7.489
			c-0.563,0-1.156,0.016-1.781,0.047V6.739c0.656,0.031,1.25,0.047,1.781,0.047h2.813c-0.031-0.25-0.141-0.578-0.328-0.984
			c0.344-0.031,0.703-0.094,1.078-0.188c0.125,0.563,0.219,0.953,0.281,1.172h2.156c0.625,0,1.172-0.016,1.641-0.047v0.797
			c-0.531-0.031-1.078-0.047-1.641-0.047h-4.688c0.219,0.313,0.406,0.609,0.563,0.891l-0.656,0.281h2.953
			c0.125-0.156,0.266-0.516,0.422-1.078c0.375,0.094,0.719,0.188,1.031,0.281c-0.219,0.281-0.391,0.547-0.516,0.797h1.406
			c0.688,0,1.328-0.016,1.922-0.047v0.797c-0.594-0.031-1.234-0.047-1.922-0.047h-7.031c-0.656,0-1.266,0.016-1.828,0.047V8.614
			c0.594,0.031,1.203,0.047,1.828,0.047h1.547c-0.094-0.25-0.25-0.516-0.469-0.797c0.188-0.094,0.406-0.219,0.656-0.375H35.465z
			 M42.168,11.755c0,0.531,0.016,1.109,0.047,1.734h-7.453c0.031-0.625,0.047-1.219,0.047-1.781s-0.016-1.125-0.047-1.688h7.453
			C42.184,10.614,42.168,11.192,42.168,11.755z M41.23,11.427v-0.75h-5.484v0.75H41.23z M41.23,12.786V12.13h-5.484v0.656H41.23z
			 M36.824,14.942c0,0.188,0.008,0.359,0.023,0.516s0.164,0.234,0.445,0.234h2.766c0.188-0.063,0.344-0.422,0.469-1.078
			c0.25,0.219,0.594,0.391,1.031,0.516c-0.219,0.594-0.406,0.953-0.563,1.078s-0.422,0.188-0.797,0.188h-3.422
			c-0.531-0.031-0.813-0.164-0.844-0.398s-0.047-0.508-0.047-0.82s-0.031-0.672-0.094-1.078h1.078
			C36.84,14.442,36.824,14.724,36.824,14.942z M39.59,14.802c-0.281,0.188-0.563,0.359-0.844,0.516
			c-0.094-0.281-0.359-0.672-0.797-1.172c0.188-0.156,0.453-0.328,0.797-0.516C39.09,14.099,39.371,14.489,39.59,14.802z
			 M43.996,15.599c-0.281,0.219-0.531,0.406-0.75,0.563c-0.219-0.344-0.672-0.938-1.359-1.781c0.188-0.156,0.438-0.328,0.75-0.516
			C43.23,14.646,43.684,15.224,43.996,15.599z"/>
	</g>
	<path fill="#727171" d="M19.108,16.491L10.825,2.484C10.437,1.829,9.487,1.83,9.101,2.487L0.884,16.494
		C0.492,17.161,0.973,18,1.746,18h16.501C19.021,18,19.502,17.158,19.108,16.491z M11,15.008C11,15.556,10.556,16,10.008,16H9.992
		C9.444,16,9,15.556,9,15.008v-0.016C9,14.444,9.444,14,9.992,14h0.016C10.556,14,11,14.444,11,14.992V15.008z M11,12.076
		C11,12.586,10.584,13,10.072,13H9.928C9.416,13,9,12.586,9,12.076V7.949C9,7.438,9.416,7,9.928,7h0.144C10.584,7,11,7.438,11,7.949
		V12.076z"/>
</g>
</svg>
