<?xml version="1.0" encoding="UTF-8"?>
<svg width="16px" height="16px" viewBox="0 0 16 16" version="1.1" xmlns="http://www.w3.org/2000/svg" xmlns:xlink="http://www.w3.org/1999/xlink">
    <!-- Generator: Sketch 48.2 (47327) - http://www.bohemiancoding.com/sketch -->
    <title>disk_active_16px</title>
    <desc>Created with Sketch.</desc>
    <defs></defs>
    <g id="UI图标" stroke="none" stroke-width="1" fill="none" fill-rule="evenodd">
        <g id="disk_active_16px">
            <rect id="Rectangle-1" fill-opacity="0.5" fill="#A1A1A1" opacity="0" x="0" y="0" width="16" height="16"></rect>
            <g id="硬盘" transform="translate(2.000000, 1.000000)" fill="#2CA7F8" fill-rule="nonzero">
                <path d="M0,0.5 C0,0.223857625 0.223857625,0 0.5,0 L11.5,0 C11.7761424,0 12,0.223857625 12,0.5 L12,13.5 C12,13.7761424 11.7761424,14 11.5,14 L0.5,14 C0.223857625,14 0,13.7761424 0,13.5 L0,0.5 Z M1,10 L1,13 L11,13 L11,10 L1,10 Z M2.5,12 C2.22385763,12 2,11.7761424 2,11.5 C2,11.2238576 2.22385763,11 2.5,11 L9.5,11 C9.77614237,11 10,11.2238576 10,11.5 C10,11.7761424 9.77614237,12 9.5,12 L2.5,12 Z" id="Combined-Shape"></path>
            </g>
        </g>
    </g>
</svg>