<?xml version="1.0" encoding="UTF-8" standalone="no"?>
<svg width="22px" height="22px" viewBox="0 0 22 22" version="1.1" xmlns="http://www.w3.org/2000/svg" xmlns:xlink="http://www.w3.org/1999/xlink">
    <!-- Generator: Sketch 3.6.1 (26313) - http://www.bohemiancoding.com/sketch -->
    <title>documents_active_22px</title>
    <desc>Created with Sketch.</desc>
    <defs></defs>
    <g id="Page-1" stroke="none" stroke-width="1" fill="none" fill-rule="evenodd">
        <g id="documents_active_22px">
            <rect id="Rectangle-1" opacity="0" x="0" y="0" width="22" height="22"></rect>
            <path d="M13,7.50100238 C13,7.77714475 13.2238576,8.00100238 13.5,8.00100238 L17.5,8.00100238 C17.9454524,8.00100238 18.1685358,7.46243142 17.8535534,7.14744899 L13.8535534,3.14744899 C13.538571,2.83246656 13,3.05554995 13,3.50100238 L13,7.50100238 L13,7.50100238 Z M4.5,20.0010024 L17.5,20.0010024 C17.7761424,20.0010024 18,19.7771448 18,19.5010024 L18,9.50100238 C18,9.22486 17.7761424,9.00100238 17.5,9.00100238 L12.5075684,9.00100238 C12.2272461,9.00100238 12,8.77858389 12,8.49343402 L12,3.50100238 C12,3.22486 11.7761424,3.00100238 11.5,3.00100238 L4.5,3.00100238 C4.22385763,3.00100238 4,3.22486 4,3.50100238 L4,19.5010024 C4,19.7771448 4.22385763,20.0010024 4.5,20.0010024 Z M6,12.5010024 C6,12.22486 6.28691126,12.0010024 6.62210857,12.0010024 L15.3229598,12.0010024 C15.6665409,12.0010024 15.9450684,12.232936 15.9450684,12.5010024 C15.9450684,12.7771448 15.6581571,13.0010024 15.3229598,13.0010024 L6.62210857,13.0010024 C6.27852749,13.0010024 6,12.7690688 6,12.5010024 L6,12.5010024 Z M6,14.5010024 C6,14.22486 6.28691126,14.0010024 6.62210857,14.0010024 L15.3229598,14.0010024 C15.6665409,14.0010024 15.9450684,14.232936 15.9450684,14.5010024 C15.9450684,14.7771448 15.6581571,15.0010024 15.3229598,15.0010024 L6.62210857,15.0010024 C6.27852749,15.0010024 6,14.7690688 6,14.5010024 L6,14.5010024 Z M6,16.5010024 C6,16.22486 6.28691126,16.0010024 6.62210857,16.0010024 L15.3229598,16.0010024 C15.6665409,16.0010024 15.9450684,16.232936 15.9450684,16.5010024 C15.9450684,16.7771448 15.6581571,17.0010024 15.3229598,17.0010024 L6.62210857,17.0010024 C6.27852749,17.0010024 6,16.7690688 6,16.5010024 L6,16.5010024 Z" id="Combined-Shape" fill="#FFFFFF"></path>
        </g>
    </g>
</svg>