<?xml version="1.0" encoding="UTF-8" standalone="no"?>
<svg width="22px" height="22px" viewBox="0 0 22 22" version="1.1" xmlns="http://www.w3.org/2000/svg" xmlns:xlink="http://www.w3.org/1999/xlink">
    <!-- Generator: Sketch 3.8.3 (29802) - http://www.bohemiancoding.com/sketch -->
    <title>media_optical_symbolic_normal_22px</title>
    <desc>Created with Sketch.</desc>
    <defs></defs>
    <g id="Page-1" stroke="none" stroke-width="1" fill="none" fill-rule="evenodd">
        <g id="media_optical_symbolic_normal_22px">
            <rect id="Rectangle-1" opacity="0" x="0" y="0" width="22" height="22"></rect>
            <g id="Group" transform="translate(2.000000, 2.000000)" stroke="#2CA7F8">
                <path d="M9,17.5 C13.6944204,17.5 17.5,13.6944204 17.5,9 C17.5,4.30557963 13.6944204,0.5 9,0.5 C4.30557963,0.5 0.5,4.30557963 0.5,9 C0.5,13.6944204 4.30557963,17.5 9,17.5 Z" id="Oval-14"></path>
                <path d="M9,2.5 C5.41014913,2.5 2.5,5.41014913 2.5,9" id="Oval-14" stroke-linecap="round"></path>
                <path d="M9,12.5 C10.9329966,12.5 12.5,10.9329966 12.5,9 C12.5,7.06700338 10.9329966,5.5 9,5.5 C7.06700338,5.5 5.5,7.06700338 5.5,9 C5.5,10.9329966 7.06700338,12.5 9,12.5 Z" id="Oval-14"></path>
            </g>
        </g>
    </g>
</svg>