<?xml version="1.0" encoding="UTF-8" standalone="no"?>
<svg width="22px" height="22px" viewBox="0 0 22 22" version="1.1" xmlns="http://www.w3.org/2000/svg" xmlns:xlink="http://www.w3.org/1999/xlink">
    <!-- Generator: Sketch 3.8.3 (29802) - http://www.bohemiancoding.com/sketch -->
    <title>network_server_symbolic_active_22px</title>
    <desc>Created with Sketch.</desc>
    <defs></defs>
    <g id="Page-1" stroke="none" stroke-width="1" fill="none" fill-rule="evenodd">
        <g id="network_server_symbolic_active_22px">
            <rect id="Rectangle-1" opacity="0" x="0" y="0" width="22" height="22"></rect>
            <path d="M10.9528,7.2051 C10.5808,7.2051 10.2448,7.0631 9.9848,6.8371 C9.0318,7.5171 8.2248,8.2511 7.5478,9.0061 C7.7228,9.2491 7.8288,9.5461 7.8288,9.8681 C7.8288,10.0241 7.7978,10.1701 7.7538,10.3111 C9.3148,11.4181 11.3618,12.3611 13.9668,12.7131 C14.0988,12.4731 14.2938,12.2761 14.5308,12.1411 C13.8848,10.0001 12.8328,8.3091 11.7058,6.9931 C11.4838,7.1251 11.2288,7.2051 10.9528,7.2051" id="Fill-1" fill="#FFFFFF"></path>
            <path d="M16.7026256,13.9392817 C16.5973038,14.2462196 16.4007031,14.5100257 16.1379001,14.6905774 C16.2261698,15.4488945 16.2462311,16.2653893 16.2331912,17.1069608 C15.9061921,17.3878189 15.5551193,17.6395882 15.1859914,17.8652778 C15.2421631,16.8281087 15.2291232,15.8420959 15.1288167,14.931313 C14.9302099,14.9082425 14.7446429,14.8470555 14.5781341,14.7537705 C13.2039352,15.6164063 11.1025142,17.0929179 9.51165319,18.9084654 C9.12747933,18.8362447 8.75433918,18.7349351 8.39223274,18.6105551 C10.0703604,16.5512628 12.366376,14.8982118 13.89605,13.9312572 C13.881004,13.8881254 13.865958,13.8459967 13.8549243,13.8008588 C11.023272,13.4217003 8.80048016,12.3815219 7.10931271,11.1698195 C6.88863842,11.3002179 6.63385993,11.3804631 6.35801708,11.3804631 C6.1945175,11.3804631 6.03904244,11.347362 5.89159189,11.2982118 C4.95272313,12.8670053 4.46423051,14.3264648 4.21446734,15.318496 C3.94263675,14.8921934 3.70892262,14.4388081 3.51934335,13.9623522 C3.84032413,12.9984069 4.32580755,11.8388638 5.06907866,10.6221461 C4.94670474,10.405484 4.8704718,10.1587301 4.8704718,9.89291786 C4.8704718,9.69230488 4.91159746,9.50172254 4.98281507,9.32718924 C4.4331355,8.75042692 4.00081452,8.20776879 3.65074486,7.72328844 C3.81223831,7.36218507 4.00081452,7.01713073 4.21145815,6.68611931 C4.56554007,7.21473452 5.05704188,7.86672672 5.71304634,8.55783845 C5.908644,8.46254728 6.12630908,8.40436952 6.35801708,8.40436952 C6.46634809,8.40436952 6.57166991,8.41740936 6.67297947,8.43947679 C7.44834865,7.5557766 8.38521128,6.69514689 9.50964706,5.908744 C9.50262561,5.85056623 9.49259496,5.79339153 9.49259496,5.73320763 C9.49259496,5.47441688 9.56481563,5.23468437 9.68117116,5.02203461 C8.92385715,4.41718646 8.22773009,3.97082257 7.69209342,3.66589083 C8.09231633,3.48433608 8.50959133,3.3378886 8.94090925,3.2235392 C9.40432524,3.52345561 9.92190674,3.88756818 10.4745955,4.33894739 C10.6330798,4.28177269 10.8015947,4.24566236 10.9801402,4.24566236 C11.3131578,4.24566236 11.6180895,4.35900869 11.8658466,4.54357264 C12.5800288,4.19651218 13.371447,3.89358657 14.2009817,3.61473452 C14.6423303,3.80631992 15.0636175,4.03602179 15.4598282,4.30083093 C14.3494353,4.61479025 13.3473734,4.99896411 12.4375936,5.43329122 C12.4576549,5.53058852 12.4676855,5.63089501 12.4676855,5.73320763 C12.4676855,5.88968576 12.4365905,6.03813937 12.3924556,6.18057459 C13.6783849,7.64003405 14.8800566,9.55789418 15.5942389,12.0023634 C16.0817284,12.1006638 16.4829544,12.645328 16.6715306,13.092695 C17.2151918,13.077649 18.1189533,12.9823578 18.8200957,12.8860636 C18.7448658,13.1960106 18.6515807,13.4979332 18.5422467,13.7918312 C17.9103158,13.8670611 17.2914247,13.9222296 16.7026256,13.9392817 M10.9991985,1.9998 C6.03703631,1.9998 1.9997,6.03713631 1.9997,10.9992985 C1.9997,15.9624637 6.03703631,19.9998 10.9991985,19.9998 C15.9623637,19.9998 19.9997,15.9624637 19.9997,10.9992985 C19.9997,6.03713631 15.9623637,1.9998 10.9991985,1.9998" id="Fill-3" fill="#FFFFFF"></path>
        </g>
    </g>
</svg>