<?xml version="1.0" encoding="UTF-8" standalone="no"?>
<svg width="22px" height="22px" viewBox="0 0 22 22" version="1.1" xmlns="http://www.w3.org/2000/svg" xmlns:xlink="http://www.w3.org/1999/xlink">
    <!-- Generator: Sketch 3.6.1 (26313) - http://www.bohemiancoding.com/sketch -->
    <title>phone_active_22px</title>
    <desc>Created with Sketch.</desc>
    <defs></defs>
    <g id="Page-1" stroke="none" stroke-width="1" fill="none" fill-rule="evenodd">
        <g id="phone_active_22px">
            <rect id="Rectangle-1" opacity="0" x="0" y="0" width="22" height="22"></rect>
            <path d="M4,3.49850233 L4,18.5014977 C4,19.329072 4.67014311,20 5.49754465,20 L16.5024554,20 C17.329515,20 18,19.3286648 18,18.5014977 L18,3.49850233 C18,2.67092796 17.3298569,2 16.5024554,2 L5.49754465,2 C4.67048504,2 4,2.6713352 4,3.49850233 Z M16.5024554,3 C16.7773099,3 17,3.22295086 17,3.49850233 L17,18.5014977 C17,18.7766635 16.7769463,19 16.5024554,19 L5.49754465,19 C5.22269005,19 5,18.7770491 5,18.5014977 L5,3.49850233 C5,3.22333648 5.22305365,3 5.49754465,3 L16.5024554,3 Z M6,15.5 C6,15.7761424 6.22385763,16 6.5,16 L15.5,16 C15.7761424,16 16,15.7761424 16,15.5 L16,4.5 C16,4.22385763 15.7761424,4 15.5,4 L6.5,4 C6.22385763,4 6,4.22385763 6,4.5 L6,15.5 Z M10.5,18 L11.5,18 C11.7761424,18 12,17.7761424 12,17.5 C12,17.2238576 11.7761424,17 11.5,17 L10.5,17 C10.2238576,17 10,17.2238576 10,17.5 C10,17.7761424 10.2238576,18 10.5,18 L10.5,18 Z" id="Combined-Shape" fill="#FFFFFF"></path>
        </g>
    </g>
</svg>