<?xml version="1.0" encoding="UTF-8" standalone="no"?>
<svg width="16px" height="16px" viewBox="0 0 16 16" version="1.1" xmlns="http://www.w3.org/2000/svg" xmlns:xlink="http://www.w3.org/1999/xlink">
    <!-- Generator: Sketch 3.6.1 (26313) - http://www.bohemiancoding.com/sketch -->
    <title>videos_active_16px</title>
    <desc>Created with Sketch.</desc>
    <defs></defs>
    <g id="Page-1" stroke="none" stroke-width="1" fill="none" fill-rule="evenodd">
        <g id="videos_active_16px">
            <rect id="Rectangle-1" opacity="0" x="0" y="0" width="16" height="16"></rect>
            <g transform="translate(2.000000, 1.000000)" id="Combined-Shape" fill="#FFFFFF">
                <path d="M1,12 L11.0000002,12 L11.0000002,1 L1,1 L1,12 Z M0,11.5064806 L0,10.506201 L0,0.494254789 C0,0.221285407 0.229000568,0 0.500347316,0 L11.4996527,0 C11.7759869,0 12,0.225639343 12,0.493741035 L12,12.506259 C12,12.7789446 11.7709994,13 11.4996527,13 L0.500347316,13 C0.224013124,13 0,12.7792181 0,12.5048272 L0,11.5064806 L0,11.5064806 Z M1,1 L3,1 L3,3 L1,3 L1,1 L1,1 Z M1,4 L3,4 L3,6 L1,6 L1,4 L1,4 Z M1,7 L3,7 L3,9 L1,9 L1,7 L1,7 Z M1,10 L3,10 L3,12 L1,12 L1,10 L1,10 Z M9,1 L11,1 L11,3 L9,3 L9,1 L9,1 Z M9,4 L11,4 L11,6 L9,6 L9,4 L9,4 Z M9,7 L11,7 L11,9 L9,9 L9,7 L9,7 Z M9,10 L11,10 L11,12 L9,12 L9,10 L9,10 Z M4,1 L8,1 L8,6 L4,6 L4,1 L4,1 Z M4,7 L8,7 L8,12 L4,12 L4,7 L4,7 Z"></path>
            </g>
        </g>
    </g>
</svg>