<?xml version="1.0" encoding="UTF-8"?>
<svg width="128px" height="128px" viewBox="0 0 128 128" version="1.1" xmlns="http://www.w3.org/2000/svg" xmlns:xlink="http://www.w3.org/1999/xlink">
    <title>图标/单色图标/动作/Search-dark</title>
    <g id="主页" stroke="none" stroke-width="1" fill="none" fill-rule="evenodd" fill-opacity="0.7">
        <g id="文管-视图选项-显示预览-2备份" transform="translate(-1315, -264)" fill="#FFFFFF" fill-rule="nonzero">
            <g id="图标/单色图标/动作/Search-dark" transform="translate(1315, 264)">
                <path d="M56,8 C82.509668,8 104,29.490332 104,56 C104,67.0923701 100.237442,77.3059477 93.9189712,85.4340861 L120.242641,111.757359 C122.585786,114.100505 122.585786,117.899495 120.242641,120.242641 C118.112508,122.372773 114.779199,122.566422 112.430307,120.823586 L111.757359,120.242641 L85.4340861,93.9189712 C77.3059477,100.237442 67.0923701,104 56,104 C29.490332,104 8,82.509668 8,56 C8,29.490332 29.490332,8 56,8 Z M56,18.4 C45.6170467,18.4 36.2170467,22.6085234 29.412785,29.412785 C22.6085234,36.2170467 18.4,45.6170467 18.4,56 C18.4,66.3829533 22.6085234,75.7829533 29.412785,82.587215 C36.2170467,89.3914766 45.6170467,93.6 56,93.6 C66.3829533,93.6 75.7829533,89.3914766 82.587215,82.587215 C89.3914766,75.7829533 93.6,66.3829533 93.6,56 C93.6,45.6170467 89.3914766,36.2170467 82.587215,29.412785 C75.7829533,22.6085234 66.3829533,18.4 56,18.4 Z" id="形状结合"></path>
            </g>
        </g>
    </g>
</svg>