<?xml version="1.0" encoding="UTF-8"?>
<svg width="16px" height="16px" viewBox="0 0 16 16" version="1.1" xmlns="http://www.w3.org/2000/svg" xmlns:xlink="http://www.w3.org/1999/xlink">
    <title>icon/collect</title>
    <g id="icon/collect" stroke="none" stroke-width="1" fill="none" fill-rule="evenodd">
        <g id="编组" transform="translate(0.589452, 0.034715)" fill="#626E88" fill-rule="nonzero">
            <path d="M7.85311373,0.103486955 C8.05032633,0.200817194 8.20995386,0.360444715 8.30728409,0.55765732 L9.82291109,3.62865304 C9.9685731,3.92379651 10.2501387,4.12836589 10.5758488,4.17569434 L13.9648938,4.66815141 C14.5114387,4.74756902 14.8901202,5.25501188 14.8107025,5.80155674 C14.779078,6.01919377 14.6765908,6.22033618 14.5191072,6.37384479 L12.9929764,7.86185138 C12.773771,7.98608061 12.5926306,8.02055842 12.4495551,7.96528481 C12.4495551,7.96528481 12.4495551,7.96528481 12.4495551,7.96528481 C12.1966934,7.86759803 12.0708992,7.58342229 12.168586,7.33056054 C12.1940114,7.26474703 12.2333267,7.2051885 12.2838891,7.1559816 L13.8210955,5.65775842 L13.8210955,5.65775842 L10.4320505,5.16530136 C9.83491524,5.07853252 9.31196735,4.72751159 9.00456247,4.21493941 L8.92617501,4.07121875 L7.41054802,1.00022303 L5.89492102,4.07121875 C5.627874,4.61231512 5.13243347,5.00119668 4.54995502,5.13516259 L4.3890455,5.16530136 L1,5.65775842 L3.45233651,8.04819522 C3.88442766,8.46938 4.10117646,9.06074296 4.04858987,9.65611062 L4.02752977,9.81845806 L3.44861177,13.193809 L6.12144357,11.7884652 C6.34327781,11.6718114 6.61767177,11.7570924 6.73431308,11.9789332 C6.7436505,11.9966921 6.75179992,12.0150507 6.75870769,12.0338881 C6.75870769,12.0338881 6.75870769,12.0338881 6.75870769,12.0338881 C6.75870769,12.0338881 6.75870769,12.0338881 6.75870769,12.0338881 C6.85535628,12.297448 6.74197954,12.5918452 6.49352409,12.7225151 L3.9139529,14.0789404 L3.9139529,14.0789404 C3.42510831,14.3359412 2.82048116,14.1479947 2.56348035,13.6591501 C2.46114128,13.4644896 2.42582661,13.2415216 2.46300345,13.0247639 L3.04192145,9.649413 C3.09755938,9.32501894 2.9900109,8.99401874 2.75432481,8.76428158 L0.301988822,6.37384479 C-0.093494756,5.98834357 -0.101587062,5.35523031 0.28391415,4.95974673 C0.437422754,4.8022631 0.638565165,4.69977592 0.856202196,4.66815141 L4.24524719,4.17569434 C4.57095735,4.12836589 4.85252293,3.92379651 4.99818495,3.62865304 L6.51381194,0.55765732 C6.75823423,0.0624036607 7.35786007,-0.140935338 7.85311373,0.103486955 Z" id="路径"></path>
            <rect id="矩形" x="10.410548" y="7.96528481" width="1" height="7" rx="0.5"></rect>
            <rect id="矩形" transform="translate(10.910548, 11.465285) rotate(-270.000000) translate(-10.910548, -11.465285) " x="10.410548" y="7.96528481" width="1" height="7" rx="0.5"></rect>
        </g>
    </g>
</svg>