<?xml version="1.0" encoding="iso-8859-1"?>
<!-- Generator: Adobe Illustrator 18.0.0, SVG Export Plug-In . SVG Version: 6.00 Build 0)  -->
<!DOCTYPE svg PUBLIC "-//W3C//DTD SVG 1.1//EN" "http://www.w3.org/Graphics/SVG/1.1/DTD/svg11.dtd">
<svg version="1.1" id="&#x56FE;&#x5C42;_1" xmlns="http://www.w3.org/2000/svg" xmlns:xlink="http://www.w3.org/1999/xlink" x="0px"
	 y="0px" viewBox="0 0 30 20" enable-background="new 0 0 30 20" xml:space="preserve">
<g>
	<path opacity="0.1" fill="#FFFFFF" d="M25.667,19.5H4.333c-2.108,0-3.833-1.725-3.833-3.833V4.333C0.5,2.225,2.225,0.5,4.333,0.5
		h21.334c2.108,0,3.833,1.725,3.833,3.833v11.334C29.5,17.775,27.775,19.5,25.667,19.5z"/>
	<path d="M16,13.811c0,0.114-0.342,0.171-0.697,0.171c-0.967,0-1.303-0.535-1.303-1.606V9h-1V8h1V6.728l1-0.303V8h1v1h-1v3.204
		c0,0.355-0.027,0.612,0.094,0.765c0.121,0.153,0.232,0.227,0.512,0.227c0.215,0,0.394-0.181,0.394-0.181V13.811z"/>
	<path d="M20,9.077c0-0.125-0.423-0.189-0.703-0.189c-0.371,0-0.686,0.192-0.927,0.575C18.13,9.846,18,10.35,18,10.976V14h-1V8h1v1
		h-0.006c0.272-0.797,0.789-1.031,1.46-1.031C19.828,7.969,20,8.18,20,8.234V9.077z"/>
	<path d="M21,14V5h1v9H21z"/>
	<path fill="none" stroke="#CBCBCB" stroke-miterlimit="10" d="M25.5,19.5h-21c-2.209,0-4-1.791-4-4v-11c0-2.209,1.791-4,4-4h21
		c2.209,0,4,1.791,4,4v11C29.5,17.709,27.709,19.5,25.5,19.5z"/>
	<path d="M12,12.116C11.468,12.659,10.779,13,10.017,13C8.354,13,7,11.43,7,9.5S8.354,6,10.017,6C10.779,6,11.468,6.341,12,6.884
		V5.609C11.413,5.232,10.742,5,10.017,5C7.798,5,6,7.015,6,9.5S7.798,14,10.017,14c0.725,0,1.396-0.232,1.983-0.609V12.116z"/>
</g>
</svg>
