<svg xmlns="http://www.w3.org/2000/svg" width="14" height="14" viewBox="0 0 14 14">
  <path fill="none" stroke="#303030" d="M599.51104,7.28673117 L603.5,12.985246 L603.5,17.381966 C603.5,17.571352 603.607001,17.7444836 603.776393,17.8291796 L605.776393,18.8291796 C605.845821,18.8638935 605.922377,18.881966 606,18.881966 C606.276142,18.881966 606.5,18.6581084 606.5,18.381966 L606.5,12.985246 L610.48896,7.28673117 C610.54779,7.2026894 610.579344,7.10258605 610.579344,7 C610.579344,6.72385763 610.355487,6.5 610.079344,6.5 L599.920656,6.5 C599.81807,6.5 599.717966,6.5315548 599.633924,6.59038404 C599.4077,6.74874129 599.352682,7.06050652 599.51104,7.28673117 Z" transform="translate(-598 -6)"/>
</svg>
