<?xml version="1.0" encoding="UTF-8"?>
<svg width="16px" height="16px" viewBox="0 0 16 16" version="1.1" xmlns="http://www.w3.org/2000/svg" xmlns:xlink="http://www.w3.org/1999/xlink">
    <title>icon/列表模式-normal</title>
    <g id="组件" stroke="none" stroke-width="1" fill="none" fill-rule="evenodd" fill-opacity="0.7">
        <g id="icon/列表模式-normal" transform="translate(-10, -10)" fill="#000000">
            <path d="M24.5833333,25 L25,25 L25,23 L24.375,23 L15.625,23 L15,23 L15,25 L15.4166667,25 L24.5833333,25 Z M24.375,21 L25,21 L25,19 L24.375,19 L15.625,19 L15,19 L15,21 L15.625,21 L24.375,21 Z M24.5833333,17 L25,17 L25,15 L24.375,15 L15.625,15 L15,15 L15,17 L15.4166667,17 L24.5833333,17 Z M24.5833333,13 L25,13 L25,11 L24.5833333,11 L15.4166667,11 L15,11 L15,13 L15.4166667,13 L24.5833333,13 Z M12.9166667,13 L13,13 L13,11 L12.9166667,11 L11.0833333,11 L11,11 L11,13 L11.0833333,13 L12.9166667,13 Z M12.9166667,17 L13,17 L13,15 L12.9166667,15 L11.0833333,15 L11,15 L11,17 L11.0833333,17 L12.9166667,17 Z M12.9166667,21 L13,21 L13,19 L12.9166667,19 L11.0833333,19 L11,19 L11,21 L11.0833333,21 L12.9166667,21 Z M12.9166667,25 L13,25 L13,23 L12.9166667,23 L11.0833333,23 L11,23 L11,25 L11.0833333,25 L12.9166667,25 Z" id="列表视图-2"></path>
        </g>
    </g>
</svg>