<svg xmlns="http://www.w3.org/2000/svg" xmlns:xlink="http://www.w3.org/1999/xlink" width="24" height="24" viewBox="0 0 24 24">
  <defs>
    <path id="网络邻居-a" d="M17.0108248,13.1062387 C15.5186234,16.0118193 12.4914939,18 9,18 L8.77658889,17.9973075 C10.0068638,17.1472135 11.0542664,16.051294 11.8478097,14.7805361 L11.5714286,14.7857143 C13.5893294,14.7857143 15.4624622,14.1658884 17.0108248,13.1062387 Z M10.3431258,14.708221 C9.40584746,15.983613 8.16106065,17.0198256 6.71838526,17.7080865 C4.81106371,17.2097534 3.15040384,16.1014431 1.95729328,14.6040895 C2.06681112,12.9430424 2.50925465,11.3737892 3.21767574,9.96099607 C4.6900896,12.5095148 7.29443665,14.3206331 10.3431258,14.708221 Z M12.2142857,9 C12.2142857,10.6198943 11.8148532,12.1464961 11.1091072,13.4866865 C7.94328881,13.3143019 5.24682547,11.380225 3.98266785,8.64796829 C5.54434916,6.31176761 7.88996554,4.5449962 10.6431457,3.72305005 C11.6367339,5.23915023 12.2142857,7.05212789 12.2142857,9 Z M14.1428571,3.21428571 C14.7783579,3.21428571 15.402523,3.26281901 16.0118483,3.35638131 C17.2553478,4.90036005 18,6.86321861 18,9 C18,9.56778254 17.9474228,10.123285 17.8468715,10.6619043 C16.5199229,12.169684 14.6582457,13.195284 12.5583545,13.4423363 C13.1640459,12.0846399 13.5,10.5815531 13.5,9 C13.5,6.95668807 12.9392339,5.04435007 11.963203,3.40848724 C12.6705708,3.28078975 13.3989476,3.21428571 14.1428571,3.21428571 Z M2.12768481,3.18839785 C1.99683925,3.8194245 1.92857143,4.47316842 1.92857143,5.14285714 C1.92857143,6.33348338 2.14435628,7.47371036 2.5389513,8.52656342 C1.74853762,9.85131968 1.17924762,11.3229479 0.88104541,12.8906336 C0.316770164,11.7133258 0,10.3936557 0,9 C0,6.78473604 0.800357908,4.75640568 2.12768481,3.18839785 Z M6.71902102,0.291622027 C7.90582549,0.858200068 8.95865817,1.66010723 9.81710094,2.63694498 C7.27418335,3.49627555 5.07138907,5.09237701 3.46196988,7.17108632 C3.30024067,6.52190618 3.21428571,5.84241959 3.21428571,5.14285714 C3.21428571,3.82792389 3.51797214,2.58392041 4.05903408,1.47715759 C4.86464105,0.946508745 5.76067299,0.542017738 6.71902102,0.291622027 Z M9,0 C11.1061167,0 13.0432665,0.723432673 14.5765125,1.93536086 C14.4328089,1.93086513 14.2881009,1.92857143 14.1428571,1.92857143 C13.1215086,1.92857143 12.1266508,2.04199151 11.1701918,2.25692352 C10.491736,1.3903303 9.68434959,0.630085968 8.7775972,0.00338931972 L9,0 Z"/>
  </defs>
  <use fill="#626E88" fill-rule="evenodd" transform="translate(3 3)" xlink:href="#网络邻居-a"/>
</svg>
