<?xml version="1.0" encoding="UTF-8"?>
<svg width="18px" height="26px" viewBox="0 0 18 26" version="1.1" xmlns="http://www.w3.org/2000/svg" xmlns:xlink="http://www.w3.org/1999/xlink">
    <title>形状结合</title>
    <g id="控件" stroke="none" stroke-width="1" fill="none" fill-rule="evenodd" fill-opacity="0.85">
        <g id="icon/操作/手机黑/常态备份-2" transform="translate(-15.000000, -11.000000)" fill="#000000">
            <path d="M32.0066023,11 C32.5158786,11 32.9359082,11.387314 32.993314,11.8862937 L33,12.0032996 L33,35.9967004 C33,36.5092912 32.6165086,36.9350176 32.1224535,36.9932204 L32.0066023,37 L15.9933977,37 C15.4841214,37 15.0640918,36.612686 15.006686,36.1137063 L15,35.9967004 L15,12.0032996 C15,11.4907088 15.3834914,11.0649824 15.8775465,11.0067796 L15.9933977,11 L32.0066023,11 Z M25,32 L23,32 L22.8202487,32.0161113 C22.3537503,32.1007833 22,32.5090802 22,33 C22,33.5522847 22.4477153,34 23,34 L23,34 L25,34 L25.1797513,33.9838887 C25.6462497,33.8992167 26,33.4909198 26,33 C26,32.4477153 25.5522847,32 25,32 L25,32 Z M29,15 L19,15 L19,29 L29,29 L29,15 Z" id="形状结合"></path>
        </g>
    </g>
</svg>