<?xml version="1.0" encoding="UTF-8" standalone="no"?>
<svg width="64px" height="64px" viewBox="0 0 64 64" version="1.1" xmlns="http://www.w3.org/2000/svg" xmlns:xlink="http://www.w3.org/1999/xlink">
    <!-- Generator: Sketch 3.8.3 (29802) - http://www.bohemiancoding.com/sketch -->
    <title>磁盘管理-64px</title>
    <desc>Created with Sketch.</desc>
    <defs></defs>
    <g id="Page-1" stroke="none" stroke-width="1" fill="none" fill-rule="evenodd">
        <g id="磁盘管理-64px" fill="#B5B5B6">
            <path d="M12,11.9936145 C12,10.3402869 13.3423094,9 15.0065012,9 L48.9934988,9 C50.6539436,9 52,10.3433937 52,11.9936145 L52,53.0063855 C52,54.6597131 50.6576906,56 48.9934988,56 L15.0065012,56 C13.3460564,56 12,54.6566063 12,53.0063855 L12,11.9936145 L12,11.9936145 L12,11.9936145 L12,11.9936145 L12,11.9936145 L12,11.9936145 Z M17.5,53 C18.3284271,53 19,52.3284271 19,51.5 C19,50.6715729 18.3284271,50 17.5,50 C16.6715729,50 16,50.6715729 16,51.5 C16,52.3284271 16.6715729,53 17.5,53 L17.5,53 L17.5,53 Z M51,42 L51,47 L13,47 L13,42 L51,42 Z M47,50 L48,50 L48,53 L47,53 L47,50 L47,50 Z M45,50 L46,50 L46,53 L45,53 L45,50 L45,50 Z M43,50 L44,50 L44,53 L43,53 L43,50 L43,50 Z M41,50 L42,50 L42,53 L41,53 L41,50 L41,50 Z M39,50 L40,50 L40,53 L39,53 L39,50 L39,50 Z M37,50 L38,50 L38,53 L37,53 L37,50 L37,50 Z" id="Combined-Shape"></path>
        </g>
    </g>
</svg>