<?xml version="1.0" encoding="iso-8859-1"?>
<!-- Generator: Adobe Illustrator 18.0.0, SVG Export Plug-In . SVG Version: 6.00 Build 0)  -->
<!DOCTYPE svg PUBLIC "-//W3C//DTD SVG 1.1//EN" "http://www.w3.org/Graphics/SVG/1.1/DTD/svg11.dtd">
<svg version="1.1" id="&#x56FE;&#x5C42;_1" xmlns="http://www.w3.org/2000/svg" xmlns:xlink="http://www.w3.org/1999/xlink" x="0px"
	 y="0px" viewBox="0 0 24 24" style="enable-background:new 0 0 24 24;" xml:space="preserve">
<polygon style="fill:#B5B5B6;" points="9.985,12.375 9.985,12.375 9.985,12.375 "/>
<path style="fill:#B5B5B6;" d="M13,18.5v-5c0-2.512,1.695-4.632,4-5.287V3c0-0.552-0.448-1-1-1H8C7.448,2,7,2.448,7,3v5H2
	C1.448,8,1,8.448,1,9v9c0,0.552,0.448,1,1,1h11.025C13.01,18.835,13,18.669,13,18.5z M11,14H8v1.969
	c0,0.207-0.171,0.375-0.382,0.375c-0.082,0-0.16-0.026-0.226-0.075l-3.221-2.427c-0.096-0.072-0.151-0.182-0.151-0.302
	c0-0.119,0.054-0.228,0.149-0.299l3.224-2.517c0.066-0.049,0.144-0.075,0.225-0.075C7.829,10.65,8,10.818,8,11.025V13l2.501-0.004
	c0.276-0.001,0.499-0.224,0.499-0.5V7l1,0.016V13C12,13.552,11.552,14,11,14z"/>
<g>
	<path style="fill:#B5B5B6;" d="M19,13h3.95C22.716,10.92,21.08,9.284,19,9.05V13z"/>
	<path style="fill:#B5B5B6;" d="M14,14v3.5c0,2.485,2.015,4.5,4.5,4.5s4.5-2.015,4.5-4.5V14H14z"/>
	<path style="fill:#B5B5B6;" d="M18,13V9.05c-2.08,0.233-3.716,1.869-3.95,3.95H18z"/>
</g>
</svg>
