<?xml version="1.0" encoding="UTF-8" standalone="no"?>
<svg width="24px" height="24px" viewBox="0 0 24 24" version="1.1" xmlns="http://www.w3.org/2000/svg" xmlns:xlink="http://www.w3.org/1999/xlink">
    <!-- Generator: Sketch 3.8.3 (29802) - http://www.bohemiancoding.com/sketch -->
    <title>磁盘管理-24px</title>
    <desc>Created with Sketch.</desc>
    <defs></defs>
    <g id="Page-1" stroke="none" stroke-width="1" fill="none" fill-rule="evenodd">
        <g id="磁盘管理-24px" fill="#B5B5B6">
            <path d="M4,2 L20,2 C20.5,2 21,2.5 21,3 L21,21 C21,21.5 20.5,22 20,22 L4,22 C3.5,22 3,21.5 3,21 L3,3 C3,2.5 3.5,2 4,2 Z M6,21 C6.55228475,21 7,20.5522847 7,20 C7,19.4477153 6.55228475,19 6,19 C5.44771525,19 5,19.4477153 5,20 C5,20.5522847 5.44771525,21 6,21 L6,21 L6,21 Z M21,16 L21,18 L3.00000001,18 L3.00000001,16 L21,16 Z M18,19 L19,19 L19,21 L18,21 L18,19 Z M16,19 L17,19 L17,21 L16,21 L16,19 Z M14,19 L15,19 L15,21 L14,21 L14,19 Z" id="Combined-Shape"></path>
        </g>
    </g>
</svg>