<?xml version="1.0" encoding="iso-8859-1"?>
<!-- Generator: Adobe Illustrator 18.0.0, SVG Export Plug-In . SVG Version: 6.00 Build 0)  -->
<!DOCTYPE svg PUBLIC "-//W3C//DTD SVG 1.1//EN" "http://www.w3.org/Graphics/SVG/1.1/DTD/svg11.dtd">
<svg version="1.1" id="&#x56FE;&#x5C42;_1" xmlns="http://www.w3.org/2000/svg" xmlns:xlink="http://www.w3.org/1999/xlink" x="0px"
	 y="0px" viewBox="0 0 64 64" enable-background="new 0 0 64 64" xml:space="preserve">
<g>
	<path fill="#B5B5B6" d="M5,14.95V18h47v-3.05c0-1.657-1.343-2.95-3-2.95H8C6.343,12,5,13.293,5,14.95z"/>
	<g>
		<g>
			<path fill="#B5B5B6" d="M35.222,48.879L32,47.733v-7.467l3.222-1.146l-1.468-3.088l5.28-5.28l3.088,1.468L43.267,29H48v-9H9
				v27.196C9,49.033,9.835,51,11.673,51h22.54L35.222,48.879z M18,23h21v3H18V23z"/>
		</g>
		<path id="gear-icon_3_" fill="#B5B5B6" d="M59,45.616v-3.232l-1.746-0.621c-0.666-0.237-1.202-0.745-1.472-1.398
			c0,0,0-0.001,0-0.001c-0.272-0.655-0.253-1.394,0.052-2.033l0.795-1.673l-2.285-2.285l-1.673,0.795
			c-0.64,0.304-1.379,0.323-2.033,0.052l-0.001,0c-0.653-0.271-1.161-0.806-1.398-1.472L48.616,32h-3.232l-0.621,1.746
			c-0.237,0.666-0.745,1.202-1.398,1.472c0,0-0.001,0-0.001,0c-0.655,0.272-1.394,0.252-2.034-0.052l-1.673-0.795l-2.285,2.285
			l0.795,1.673c0.304,0.64,0.323,1.379,0.052,2.034l0,0.001c-0.271,0.653-0.806,1.161-1.472,1.398L35,42.384v3.232l1.746,0.621
			c0.666,0.237,1.202,0.745,1.472,1.398l0,0.001c0.271,0.655,0.252,1.393-0.052,2.033l-0.795,1.673l2.285,2.285l1.673-0.795
			c0.64-0.304,1.379-0.323,2.034-0.052l0.001,0c0.653,0.271,1.161,0.806,1.398,1.472L45.384,56h3.232l0.617-1.735
			c0.239-0.672,0.752-1.213,1.411-1.487l0.001,0c0.648-0.27,1.381-0.251,2.015,0.05l1.684,0.8l2.285-2.285l-0.796-1.674
			c-0.304-0.639-0.323-1.378-0.052-2.032l0-0.001c0.271-0.654,0.807-1.162,1.474-1.399L59,45.616z M47,48.401
			c-2.431,0-4.401-1.97-4.401-4.401s1.97-4.401,4.401-4.401c2.43,0,4.401,1.97,4.401,4.401S49.43,48.401,47,48.401z"/>
	</g>
</g>
</svg>
