<?xml version="1.0" encoding="iso-8859-1"?>
<!-- Generator: Adobe Illustrator 18.1.1, SVG Export Plug-In . SVG Version: 6.00 Build 0)  -->
<!DOCTYPE svg PUBLIC "-//W3C//DTD SVG 1.1//EN" "http://www.w3.org/Graphics/SVG/1.1/DTD/svg11.dtd" [
	<!ENTITY ns_extend "http://ns.adobe.com/Extensibility/1.0/">
	<!ENTITY ns_ai "http://ns.adobe.com/AdobeIllustrator/10.0/">
	<!ENTITY ns_graphs "http://ns.adobe.com/Graphs/1.0/">
	<!ENTITY ns_vars "http://ns.adobe.com/Variables/1.0/">
	<!ENTITY ns_imrep "http://ns.adobe.com/ImageReplacement/1.0/">
	<!ENTITY ns_sfw "http://ns.adobe.com/SaveForWeb/1.0/">
	<!ENTITY ns_custom "http://ns.adobe.com/GenericCustomNamespace/1.0/">
	<!ENTITY ns_adobe_xpath "http://ns.adobe.com/XPath/1.0/">
]>
<svg version="1.1" id="&#x56FE;&#x5C42;_1" xmlns:x="&ns_extend;" xmlns:i="&ns_ai;" xmlns:graph="&ns_graphs;"
	 xmlns="http://www.w3.org/2000/svg" xmlns:xlink="http://www.w3.org/1999/xlink" x="0px" y="0px" viewBox="0 0 24 24"
	 enable-background="new 0 0 24 24" xml:space="preserve">
<metadata>
	<sfw  xmlns="&ns_sfw;">
		<slices></slices>
		<sliceSourceBounds  height="692" width="1378.5" y="-691.04" x="21" bottomLeftOrigin="true"></sliceSourceBounds>
	</sfw>
</metadata>
<g>
	<g>
		<g>
			<path fill="#B5B5B6" d="M1,13v-1.53c0,0,3.328,0.061,3.328-2.47H6v12H3v-8H1z"/>
		</g>
		<g>
			<path fill="#B5B5B6" d="M9.611,5H7.101c0-1,0.755-2.81,1.838-3.512c0.683-0.441,1.507-0.574,2.473-0.574
				c1.248,0,2.278,0.381,3.091,1.054c0.812,0.673,1.218,1.625,1.218,2.813c0,0.916-0.237,1.813-0.803,2.514
				C14.542,7.77,13.877,8.376,13.078,9c-0.75,0.688-1.922,1.078-2.563,2h5.045v2H7.101c0-1,0.107-1.647,0.389-2.212
				c0.424-0.859,1.147-1.67,2.383-2.53c1.024-0.713,1.898-1.193,2.193-1.442c0.788-0.667,1.114-1.333,1.114-2.069
				c0-0.452-0.067-0.867-0.337-1.184c-0.318-0.373-0.759-0.559-1.325-0.559c-0.754,0-1.272,0.09-1.554,0.622
				C9.799,3.942,9.611,5,9.611,5z"/>
		</g>
		<g>
			<path fill="#B5B5B6" d="M17,16.399V15h0.442c0.655,0,1.146-0.336,1.473-0.507c0.576-0.288,0.865-0.957,0.865-1.756
				c0-0.419-0.098-0.842-0.295-1.143c-0.302-0.471-0.786-0.788-1.454-0.788c-1.306,0-2.239,1.195-2.239,2.195h-2.2
				c0-2,0.373-2.385,1.12-3.171c0.799-0.838,1.964-1.232,3.497-1.232c1.126,0,2.076,0.288,2.849,0.838
				c0.982,0.694,1.473,1.722,1.473,3.071c0,0.655-0.177,1.234-0.53,1.732c-0.288,0.406-0.668,0.716-1.139,0.925
				c0.681,0.249,1.201,0.656,1.562,1.219c0.36,0.563,0.54,1.251,0.54,2.063c0,1.323-0.439,2.404-1.316,3.242
				c-0.877,0.838-2.023,1.258-3.438,1.258c-1.166,0-2.194-0.166-2.992-0.765c-1.248-0.974-1.625-2.417-1.586-4.169l2.443,0.012
				c-0.013,0.819,0.034,1.321,0.243,1.714c0.341,0.629,0.942,0.938,1.754,0.938c0.589,0,1.067-0.148,1.434-0.515
				c0.419-0.419,0.629-0.984,0.629-1.731c0-0.838-0.365-1.399-1.086-1.7C18.603,16.545,18,16.399,17,16.399z"/>
		</g>
	</g>
</g>
</svg>
