<?xml version="1.0" encoding="UTF-8" standalone="no"?>
<svg width="24px" height="24px" viewBox="0 0 24 24" version="1.1" xmlns="http://www.w3.org/2000/svg" xmlns:xlink="http://www.w3.org/1999/xlink">
    <!-- Generator: Sketch 3.8.3 (29802) - http://www.bohemiancoding.com/sketch -->
    <title>使用入门-24px</title>
    <desc>Created with Sketch.</desc>
    <defs></defs>
    <g id="Page-1" stroke="none" stroke-width="1" fill="none" fill-rule="evenodd">
        <g id="使用入门-24px" fill="#B5B5B6">
            <g id="Group" transform="translate(1.000000, 1.000000)">
                <path d="M11,22 C17.0751322,22 22,17.0751322 22,11 C22,4.92486775 17.0751322,0 11,0 C4.92486775,0 0,4.92486775 0,11 C0,17.0751322 4.92486775,22 11,22 Z M3.99999998,10.0000002 C3.5,10.0000002 3,10.4999999 3,10.9997706 C3,11.4995412 3.5,11.9999999 3.99999998,11.9999999 L14.0000002,11.9999998 L14.0000002,14.9999999 C14.0000002,15.4846516 14.381302,15.5850521 14.7529769,15.270558 L19.1270231,11.569442 C19.5005215,11.2534049 19.498698,10.7450521 19.1270231,10.430558 L14.7529769,6.72944199 C14.3794785,6.41340487 14.0000002,6.51613881 14.0000002,7.00000001 L14.0000002,10 L3.99999998,10.0000002 Z" id="Combined-Shape"></path>
            </g>
        </g>
    </g>
</svg>