<?xml version="1.0" encoding="iso-8859-1"?>
<!-- Generator: Adobe Illustrator 18.0.0, SVG Export Plug-In . SVG Version: 6.00 Build 0)  -->
<!DOCTYPE svg PUBLIC "-//W3C//DTD SVG 1.1//EN" "http://www.w3.org/Graphics/SVG/1.1/DTD/svg11.dtd">
<svg version="1.1" id="&#x56FE;&#x5C42;_1" xmlns="http://www.w3.org/2000/svg" xmlns:xlink="http://www.w3.org/1999/xlink" x="0px"
	 y="0px" viewBox="0 0 64 64" enable-background="new 0 0 64 64" xml:space="preserve">
<g>
	<path fill="#B5B5B6" d="M12.5,38h8c0.276,0,0.5-0.224,0.5-0.5v-6c0-0.276-0.224-0.5-0.5-0.5h-8c-0.276,0-0.5,0.224-0.5,0.5v6
		C12,37.776,12.224,38,12.5,38z"/>
	<path fill="#B5B5B6" d="M23,37.5c0,0.276,0.224,0.5,0.5,0.5h8c0.276,0,0.5-0.224,0.5-0.5v-6c0-0.276-0.224-0.5-0.5-0.5h-8
		c-0.276,0-0.5,0.224-0.5,0.5V37.5z"/>
	<path fill="#B5B5B6" d="M34,37.5c0,0.276,0.224,0.5,0.5,0.5h8c0.276,0,0.5-0.224,0.5-0.5v-6c0-0.276-0.224-0.5-0.5-0.5h-8
		c-0.276,0-0.5,0.224-0.5,0.5V37.5z"/>
	<path fill="#B5B5B6" d="M45,37.5c0,0.276,0.224,0.5,0.5,0.5h8c0.276,0,0.5-0.224,0.5-0.5v-6c0-0.276-0.224-0.5-0.5-0.5h-8
		c-0.276,0-0.5,0.224-0.5,0.5V37.5z"/>
	<path fill="#B5B5B6" d="M12.5,29h8c0.276,0,0.5-0.224,0.5-0.5v-6c0-0.276-0.224-0.5-0.5-0.5h-8c-0.276,0-0.5,0.224-0.5,0.5v6
		C12,28.776,12.224,29,12.5,29z"/>
	<path fill="#B5B5B6" d="M23.5,29h8c0.276,0,0.5-0.224,0.5-0.5v-6c0-0.276-0.224-0.5-0.5-0.5h-8c-0.276,0-0.5,0.224-0.5,0.5v6
		C23,28.776,23.224,29,23.5,29z"/>
	<path fill="#B5B5B6" d="M34.5,29h8c0.276,0,0.5-0.224,0.5-0.5v-6c0-0.276-0.224-0.5-0.5-0.5h-8c-0.276,0-0.5,0.224-0.5,0.5v6
		C34,28.776,34.224,29,34.5,29z"/>
	<path fill="#B5B5B6" d="M45.5,29h8c0.276,0,0.5-0.224,0.5-0.5v-6c0-0.276-0.224-0.5-0.5-0.5h-8c-0.276,0-0.5,0.224-0.5,0.5v6
		C45,28.776,45.224,29,45.5,29z"/>
	<path fill="#B5B5B6" d="M12.5,47h8c0.276,0,0.5-0.224,0.5-0.5v-6c0-0.276-0.224-0.5-0.5-0.5h-8c-0.276,0-0.5,0.224-0.5,0.5v6
		C12,46.776,12.224,47,12.5,47z"/>
	<path fill="#B5B5B6" d="M23,46.5c0,0.276,0.224,0.5,0.5,0.5h8c0.276,0,0.5-0.224,0.5-0.5v-6c0-0.276-0.224-0.5-0.5-0.5h-8
		c-0.276,0-0.5,0.224-0.5,0.5V46.5z"/>
	<path fill="#B5B5B6" d="M34,46.5c0,0.276,0.224,0.5,0.5,0.5h8c0.276,0,0.5-0.224,0.5-0.5v-6c0-0.276-0.224-0.5-0.5-0.5h-8
		c-0.276,0-0.5,0.224-0.5,0.5V46.5z"/>
	<path fill="#B5B5B6" d="M45,46.5c0,0.276,0.224,0.5,0.5,0.5h8c0.276,0,0.5-0.224,0.5-0.5v-6c0-0.276-0.224-0.5-0.5-0.5h-8
		c-0.276,0-0.5,0.224-0.5,0.5V46.5z"/>
	<path fill="#B5B5B6" d="M10,16H8c-1.105,0-2,0.895-2,2v2h4V16z"/>
	<path fill="#B5B5B6" d="M56,16H12v4h43.5c0.276,0,0.5,0.224,0.5,0.5v28c0,0.276-0.224,0.5-0.5,0.5h-45c-0.276,0-0.5-0.224-0.5-0.5
		V22H6v27c0,1.105,0.895,2,2,2h48c1.105,0,2-0.895,2-2V18C58,16.895,57.105,16,56,16z"/>
</g>
</svg>
