<?xml version="1.0" encoding="iso-8859-1"?>
<!-- Generator: Adobe Illustrator 18.1.1, SVG Export Plug-In . SVG Version: 6.00 Build 0)  -->
<!DOCTYPE svg PUBLIC "-//W3C//DTD SVG 1.1//EN" "http://www.w3.org/Graphics/SVG/1.1/DTD/svg11.dtd" [
	<!ENTITY ns_extend "http://ns.adobe.com/Extensibility/1.0/">
	<!ENTITY ns_ai "http://ns.adobe.com/AdobeIllustrator/10.0/">
	<!ENTITY ns_graphs "http://ns.adobe.com/Graphs/1.0/">
	<!ENTITY ns_vars "http://ns.adobe.com/Variables/1.0/">
	<!ENTITY ns_imrep "http://ns.adobe.com/ImageReplacement/1.0/">
	<!ENTITY ns_sfw "http://ns.adobe.com/SaveForWeb/1.0/">
	<!ENTITY ns_custom "http://ns.adobe.com/GenericCustomNamespace/1.0/">
	<!ENTITY ns_adobe_xpath "http://ns.adobe.com/XPath/1.0/">
]>
<svg version="1.1" id="&#x56FE;&#x5C42;_1" xmlns:x="&ns_extend;" xmlns:i="&ns_ai;" xmlns:graph="&ns_graphs;"
	 xmlns="http://www.w3.org/2000/svg" xmlns:xlink="http://www.w3.org/1999/xlink" x="0px" y="0px" viewBox="0 0 64 64"
	 enable-background="new 0 0 64 64" xml:space="preserve">
<metadata>
	<sfw  xmlns="&ns_sfw;">
		<slices></slices>
		<sliceSourceBounds  height="776" width="16383" y="-784" x="-8088" bottomLeftOrigin="true"></sliceSourceBounds>
	</sfw>
</metadata>
<g>
	<path fill="#B5B5B6" d="M54,10c0-1.657-1.343-3-3-3H13c-1.657,0-3,1.343-3,3v44c0,1.657,1.343,3,3,3h38c1.657,0,3-1.343,3-3V10z
		 M50.871,55H12.962C12.41,55,12,54.61,12,54.058V10.126C12,9.574,12.41,9,12.962,9h36.909C50.971,9,52,10.026,52,11.126v42.932
		C52,54.608,51.421,55,50.871,55z"/>
	<rect x="14" y="16" fill="#B5B5B6" width="17" height="3"/>
	<rect x="33" y="16" fill="#B5B5B6" width="17" height="3"/>
	<rect x="42" y="49" fill="#B5B5B6" width="8" height="3"/>
	<rect x="32" y="49" fill="#B5B5B6" width="8" height="3"/>
	<rect x="14" y="21" fill="#B5B5B6" width="36" height="26"/>
	<path fill="#B5B5B6" d="M48.5,14L48.5,14c-0.828,0-1.5-0.672-1.5-1.5v0c0-0.828,0.672-1.5,1.5-1.5l0,0c0.828,0,1.5,0.672,1.5,1.5v0
		C50,13.328,49.328,14,48.5,14z"/>
	<path fill="#B5B5B6" d="M43.5,14L43.5,14c-0.828,0-1.5-0.672-1.5-1.5v0c0-0.828,0.672-1.5,1.5-1.5l0,0c0.828,0,1.5,0.672,1.5,1.5v0
		C45,13.328,44.328,14,43.5,14z"/>
	<path fill="#B5B5B6" d="M38.5,14L38.5,14c-0.828,0-1.5-0.672-1.5-1.5v0c0-0.828,0.672-1.5,1.5-1.5l0,0c0.828,0,1.5,0.672,1.5,1.5v0
		C40,13.328,39.328,14,38.5,14z"/>
</g>
</svg>
