<?xml version="1.0" encoding="iso-8859-1"?>
<!-- Generator: Adobe Illustrator 18.0.0, SVG Export Plug-In . SVG Version: 6.00 Build 0)  -->
<!DOCTYPE svg PUBLIC "-//W3C//DTD SVG 1.1//EN" "http://www.w3.org/Graphics/SVG/1.1/DTD/svg11.dtd">
<svg version="1.1" id="&#x56FE;&#x5C42;_1" xmlns="http://www.w3.org/2000/svg" xmlns:xlink="http://www.w3.org/1999/xlink" x="0px"
	 y="0px" viewBox="0 0 64 64" style="enable-background:new 0 0 64 64;" xml:space="preserve">
<g>
	<path style="fill:#B5B5B6;" d="M46.017,35.027L46.016,24.89c-2.3,0.222-4.437,1.219-6.089,2.866C38.042,29.632,37,32.128,37,34.783
		v0.241L46.017,35.027z"/>
	<path style="fill:#B5B5B6;" d="M48.003,35.028L57,35.031v-0.24c0-5.142-3.975-9.386-9.014-9.897L48.003,35.028z"/>
	<path style="fill:#B5B5B6;" d="M37.018,36.88l0.005,10.015c0.002,5.483,4.677,9.958,10.186,9.96c0,0,4.175-0.034,7.066-2.924
		c1.88-1.88,2.825-4.373,2.824-7.027l-0.045-10.016L37.018,36.88z"/>
</g>
<g>
	<path style="fill:#B5B5B6;" d="M24,28.031V28c0,0-0.007,0-0.008,0C23.992,28.011,24,28.019,24,28.031z"/>
	<path style="fill:#B5B5B6;" d="M43.102,7h-20C21.447,7,20,8.346,20,10v10H9.102C7.447,20,6,21.346,6,23v20.474
		C6,44.866,7.235,46,8.629,46h26.495l-0.005-11.216c-0.001-3.19,1.194-6.19,3.458-8.445c1.784-1.777,4.423-3.32,7.423-3.32V10
		C46,8.346,44.756,7,43.102,7z M33,33c0,1.105-0.794,2-1.898,2h-6.003l0.003,3.03c0,0.618-0.609,1.001-1.173,1.001
		c-0.243,0-0.463-0.069-0.639-0.2l-6.77-4.998c-0.272-0.204-0.432-0.52-0.432-0.848c0-0.302,0.137-0.576,0.376-0.755l6.806-5.004
		c0.564-0.42,1.73-0.081,1.73,0.804V32h4.602C29.878,32,30,31.776,30,31.5V21.03l0.051,0c0-0.827,0.647-1.5,1.475-1.5
		S33,20.203,33,21.03V33z"/>
</g>
</svg>
