<?xml version="1.0" encoding="iso-8859-1"?>
<!-- Generator: Adobe Illustrator 18.0.0, SVG Export Plug-In . SVG Version: 6.00 Build 0)  -->
<!DOCTYPE svg PUBLIC "-//W3C//DTD SVG 1.1//EN" "http://www.w3.org/Graphics/SVG/1.1/DTD/svg11.dtd">
<svg version="1.1" id="&#x56FE;&#x5C42;_1" xmlns="http://www.w3.org/2000/svg" xmlns:xlink="http://www.w3.org/1999/xlink" x="0px"
	 y="0px" viewBox="0 0 24 24" enable-background="new 0 0 24 24" xml:space="preserve">
<path fill="#B5B5B6" d="M1,4.156V5h20V4.156C21,2.985,20.196,2,19.025,2H3.121C1.949,2,1,2.985,1,4.156z"/>
<path id="gear-icon_1_" fill="#B5B5B6" d="M23,17.673v-1.347l-0.728-0.259c-0.277-0.099-0.501-0.311-0.613-0.583l0,0
	c-0.113-0.273-0.105-0.581,0.022-0.847l0.331-0.697l-0.952-0.952l-0.697,0.331c-0.266,0.127-0.575,0.135-0.847,0.022l0,0
	c-0.272-0.113-0.484-0.336-0.583-0.613L18.673,12h-1.347l-0.259,0.728c-0.099,0.277-0.311,0.501-0.583,0.613l0,0
	c-0.273,0.113-0.581,0.105-0.847-0.022l-0.697-0.331l-0.952,0.952l0.331,0.697c0.127,0.266,0.135,0.575,0.022,0.847l0,0
	c-0.113,0.272-0.336,0.484-0.613,0.582L13,16.327v1.347l0.728,0.259c0.277,0.099,0.501,0.311,0.613,0.583l0,0
	c0.113,0.273,0.105,0.581-0.022,0.847l-0.331,0.697l0.952,0.952l0.697-0.331c0.266-0.127,0.575-0.135,0.847-0.022l0,0
	c0.272,0.113,0.484,0.336,0.582,0.613L17.327,22h1.347l0.257-0.723c0.1-0.28,0.313-0.505,0.588-0.62l0,0
	c0.27-0.112,0.575-0.105,0.839,0.021l0.702,0.333l0.952-0.952l-0.332-0.698c-0.127-0.266-0.134-0.574-0.022-0.847l0,0
	c0.113-0.272,0.336-0.484,0.614-0.583L23,17.673z M18,18.834c-1.013,0-1.834-0.821-1.834-1.834s0.821-1.834,1.834-1.834
	c1.013,0,1.834,0.821,1.834,1.834S19.013,18.834,18,18.834z"/>
<g>
	<rect x="6" y="8" fill="none" width="10" height="1"/>
	<path fill="#B5B5B6" d="M12.665,18.616L12,18.379v-2.758l1.393-0.496l-0.308-0.756l-0.303-0.637l1.95-1.95l1.334,0.634l0.317-0.751
		L16.621,11H19V6H3v10.879C3,18.046,4.075,19,5.241,19h8.144l0.032-0.067L12.665,18.616z M6,8h10v1H6V8z"/>
</g>
</svg>
