<?xml version="1.0" encoding="iso-8859-1"?>
<!-- Generator: Adobe Illustrator 18.1.1, SVG Export Plug-In . SVG Version: 6.00 Build 0)  -->
<!DOCTYPE svg PUBLIC "-//W3C//DTD SVG 1.1//EN" "http://www.w3.org/Graphics/SVG/1.1/DTD/svg11.dtd" [
	<!ENTITY ns_extend "http://ns.adobe.com/Extensibility/1.0/">
	<!ENTITY ns_ai "http://ns.adobe.com/AdobeIllustrator/10.0/">
	<!ENTITY ns_graphs "http://ns.adobe.com/Graphs/1.0/">
	<!ENTITY ns_vars "http://ns.adobe.com/Variables/1.0/">
	<!ENTITY ns_imrep "http://ns.adobe.com/ImageReplacement/1.0/">
	<!ENTITY ns_sfw "http://ns.adobe.com/SaveForWeb/1.0/">
	<!ENTITY ns_custom "http://ns.adobe.com/GenericCustomNamespace/1.0/">
	<!ENTITY ns_adobe_xpath "http://ns.adobe.com/XPath/1.0/">
]>
<svg version="1.1" id="&#x56FE;&#x5C42;_1" xmlns:x="&ns_extend;" xmlns:i="&ns_ai;" xmlns:graph="&ns_graphs;"
	 xmlns="http://www.w3.org/2000/svg" xmlns:xlink="http://www.w3.org/1999/xlink" x="0px" y="0px" viewBox="0 0 24 24"
	 enable-background="new 0 0 24 24" xml:space="preserve">
<metadata>
	<sfw  xmlns="&ns_sfw;">
		<slices></slices>
		<sliceSourceBounds  height="692" width="1378.5" y="-691.04" x="21" bottomLeftOrigin="true"></sliceSourceBounds>
	</sfw>
</metadata>
<g>
	<path fill="#B5B5B6" d="M20,1H3C2.448,1,2,1.448,2,2v19c0,0.552,0.448,1,1,1h17c0.552,0,1-0.448,1-1V2C21,1.448,20.552,1,20,1z
		 M19.7,21H3.3C3.134,21,3,20.866,3,20.7V2.3C3,2.134,3.134,2,3.3,2h16.4C19.866,2,20,2.134,20,2.3v18.4
		C20,20.866,19.866,21,19.7,21z"/>
	<rect x="4" y="5" fill="#B5B5B6" width="7" height="1"/>
	<rect x="13" y="5" fill="#B5B5B6" width="6" height="1"/>
	<rect x="16" y="19" fill="#B5B5B6" width="3" height="1"/>
	<rect x="12" y="19" fill="#B5B5B6" width="3" height="1"/>
	<rect x="4" y="7" fill="#B5B5B6" width="15" height="11"/>
	<path fill="#B5B5B6" d="M18.575,4.115L18.575,4.115c-0.364,0-0.659-0.295-0.659-0.659v0c0-0.364,0.295-0.659,0.659-0.659h0
		c0.364,0,0.659,0.295,0.659,0.659v0C19.234,3.82,18.939,4.115,18.575,4.115z"/>
	<path fill="#B5B5B6" d="M16.377,4.115L16.377,4.115c-0.364,0-0.659-0.295-0.659-0.659v0c0-0.364,0.295-0.659,0.659-0.659h0
		c0.364,0,0.659,0.295,0.659,0.659v0C17.036,3.82,16.741,4.115,16.377,4.115z"/>
	<path fill="#B5B5B6" d="M14.179,4.115L14.179,4.115c-0.364,0-0.659-0.295-0.659-0.659v0c0-0.364,0.295-0.659,0.659-0.659h0
		c0.364,0,0.659,0.295,0.659,0.659v0C14.838,3.82,14.543,4.115,14.179,4.115z"/>
</g>
</svg>
