<?xml version="1.0" encoding="iso-8859-1"?>
<!-- Generator: Adobe Illustrator 18.1.1, SVG Export Plug-In . SVG Version: 6.00 Build 0)  -->
<!DOCTYPE svg PUBLIC "-//W3C//DTD SVG 1.1//EN" "http://www.w3.org/Graphics/SVG/1.1/DTD/svg11.dtd" [
	<!ENTITY ns_extend "http://ns.adobe.com/Extensibility/1.0/">
	<!ENTITY ns_ai "http://ns.adobe.com/AdobeIllustrator/10.0/">
	<!ENTITY ns_graphs "http://ns.adobe.com/Graphs/1.0/">
	<!ENTITY ns_vars "http://ns.adobe.com/Variables/1.0/">
	<!ENTITY ns_imrep "http://ns.adobe.com/ImageReplacement/1.0/">
	<!ENTITY ns_sfw "http://ns.adobe.com/SaveForWeb/1.0/">
	<!ENTITY ns_custom "http://ns.adobe.com/GenericCustomNamespace/1.0/">
	<!ENTITY ns_adobe_xpath "http://ns.adobe.com/XPath/1.0/">
]>
<svg version="1.1" id="&#x56FE;&#x5C42;_1" xmlns:x="&ns_extend;" xmlns:i="&ns_ai;" xmlns:graph="&ns_graphs;"
	 xmlns="http://www.w3.org/2000/svg" xmlns:xlink="http://www.w3.org/1999/xlink" x="0px" y="0px" viewBox="0 0 64 64"
	 enable-background="new 0 0 64 64" xml:space="preserve">
<metadata>
	<sfw  xmlns="&ns_sfw;">
		<slices></slices>
		<sliceSourceBounds  height="776" width="16383" y="-784" x="-8088" bottomLeftOrigin="true"></sliceSourceBounds>
	</sfw>
</metadata>
<g>
	<polygon fill="#B5B5B6" points="51,19 39,19 39,7 	"/>
	<path fill="#B5B5B6" d="M35,47.975c0-2.568,0.758-4.957,2.048-6.975H16v-3h23.678c2.257-1.886,5.158-3.025,8.322-3.025
		c1.034,0,2.035,0.134,3,0.363V21h-2H37V9V7H14c-1.657,0-3,1.343-3,3v44c0,1.657,1.343,3,3,3h24.663C36.4,54.66,35,51.48,35,47.975z
		 M16,17h18v3H16V17z M16,24h30v3H16V24z M16,31h30v3H16V31z M34,48H16v-3h18V48z"/>
	<path fill="#B5B5B6" d="M48,36.975c-6.075,0-11,4.925-11,11s4.925,11,11,11s11-4.925,11-11S54.075,36.975,48,36.975z
		 M55.655,44.865l-9.057,9.057c-0.459,0.459-1.205,0.459-1.664,0l-4.59-4.59c-0.459-0.459-0.459-1.204,0-1.664l0.123-0.123
		c0.459-0.46,1.204-0.46,1.664,0l3.219,3.219c0.23,0.23,0.602,0.23,0.832,0l7.686-7.686c0.459-0.459,1.204-0.459,1.664,0
		l0.123,0.123C56.115,43.66,56.115,44.405,55.655,44.865z"/>
</g>
</svg>
