<?xml version="1.0" encoding="iso-8859-1"?>
<!-- Generator: Adobe Illustrator 18.0.0, SVG Export Plug-In . SVG Version: 6.00 Build 0)  -->
<!DOCTYPE svg PUBLIC "-//W3C//DTD SVG 1.1//EN" "http://www.w3.org/Graphics/SVG/1.1/DTD/svg11.dtd">
<svg version="1.1" id="&#x56FE;&#x5C42;_1" xmlns="http://www.w3.org/2000/svg" xmlns:xlink="http://www.w3.org/1999/xlink" x="0px"
	 y="0px" viewBox="0 0 24 24" enable-background="new 0 0 24 24" xml:space="preserve">
<g>
	<rect x="4" y="11" fill="#B5B5B6" width="4" height="3"/>
	<rect x="9" y="11" fill="#B5B5B6" width="3" height="3"/>
	<rect x="13" y="11" fill="#B5B5B6" width="3" height="3"/>
	<rect x="17" y="11" fill="#B5B5B6" width="4" height="3"/>
	<rect x="4" y="7" fill="#B5B5B6" width="4" height="3"/>
	<rect x="9" y="7" fill="#B5B5B6" width="3" height="3"/>
	<rect x="13" y="7" fill="#B5B5B6" width="3" height="3"/>
	<rect x="17" y="7" fill="#B5B5B6" width="4" height="3"/>
	<rect x="4" y="15" fill="#B5B5B6" width="4" height="3"/>
	<rect x="9" y="15" fill="#B5B5B6" width="3" height="3"/>
	<rect x="13" y="15" fill="#B5B5B6" width="3" height="3"/>
	<rect x="17" y="15" fill="#B5B5B6" width="4" height="3"/>
	<path fill="#B5B5B6" d="M4,4v2h18v13H3V7H1v12c0,0.552,0.448,1,1,1h20c0.552,0,1-0.448,1-1V5c0-0.552-0.448-1-1-1H4z"/>
	<path fill="#B5B5B6" d="M3,4H2C1.448,4,1,4.448,1,5v1h2V4z"/>
</g>
</svg>
