<?xml version="1.0" encoding="UTF-8" standalone="no"?>
<svg width="24px" height="24px" viewBox="0 0 24 24" version="1.1" xmlns="http://www.w3.org/2000/svg" xmlns:xlink="http://www.w3.org/1999/xlink">
    <!-- Generator: Sketch 3.8.3 (29802) - http://www.bohemiancoding.com/sketch -->
    <title>主界面-24px</title>
    <desc>Created with Sketch.</desc>
    <defs></defs>
    <g id="Page-1" stroke="none" stroke-width="1" fill="none" fill-rule="evenodd">
        <g id="主界面-24px" fill="#B5B5B6">
            <path d="M2.84894584,4 L21.1510542,4 C21.619914,4 22,4.37718993 22,4.84500799 L22,20.0780689 C22,20.5 21.5,21 21,21 L3,21 C2.5,21 2,20.5 2,20 L2,4.84500799 C2,4.37832297 2.3818512,4 2.84894584,4 Z M22,8 L22,7 L2,7 L2,7.99999999 L7,8 L7,21 L8,21 L8,8 L22,8 Z M15,5.00000001 L15,5.99999999 L6,5.99999999 L6,5.00000001 L15,5.00000001 Z M16.5,6 C16.7761424,6 17,5.77614237 17,5.5 C17,5.22385763 16.7761424,5 16.5,5 C16.2238576,5 16,5.22385763 16,5.5 C16,5.77614237 16.2238576,6 16.5,6 Z M20.5,6 C20.7761424,6 21,5.77614237 21,5.5 C21,5.22385763 20.7761424,5 20.5,5 C20.2238576,5 20,5.22385763 20,5.5 C20,5.77614237 20.2238576,6 20.5,6 Z M18.5,6 C18.7761424,6 19,5.77614237 19,5.5 C19,5.22385763 18.7761424,5 18.5,5 C18.2238576,5 18,5.22385763 18,5.5 C18,5.77614237 18.2238576,6 18.5,6 Z" id="Combined-Shape"></path>
        </g>
    </g>
</svg>