<?xml version="1.0" encoding="iso-8859-1"?>
<!-- Generator: Adobe Illustrator 18.1.1, SVG Export Plug-In . SVG Version: 6.00 Build 0)  -->
<!DOCTYPE svg PUBLIC "-//W3C//DTD SVG 1.1//EN" "http://www.w3.org/Graphics/SVG/1.1/DTD/svg11.dtd" [
	<!ENTITY ns_extend "http://ns.adobe.com/Extensibility/1.0/">
	<!ENTITY ns_ai "http://ns.adobe.com/AdobeIllustrator/10.0/">
	<!ENTITY ns_graphs "http://ns.adobe.com/Graphs/1.0/">
	<!ENTITY ns_vars "http://ns.adobe.com/Variables/1.0/">
	<!ENTITY ns_imrep "http://ns.adobe.com/ImageReplacement/1.0/">
	<!ENTITY ns_sfw "http://ns.adobe.com/SaveForWeb/1.0/">
	<!ENTITY ns_custom "http://ns.adobe.com/GenericCustomNamespace/1.0/">
	<!ENTITY ns_adobe_xpath "http://ns.adobe.com/XPath/1.0/">
]>
<svg version="1.1" id="&#x56FE;&#x5C42;_1" xmlns:x="&ns_extend;" xmlns:i="&ns_ai;" xmlns:graph="&ns_graphs;"
	 xmlns="http://www.w3.org/2000/svg" xmlns:xlink="http://www.w3.org/1999/xlink" x="0px" y="0px" viewBox="0 0 64 64"
	 enable-background="new 0 0 64 64" xml:space="preserve">
<metadata>
	<sfw  xmlns="&ns_sfw;">
		<slices></slices>
		<sliceSourceBounds  height="776" width="16383" y="-784" x="-8088" bottomLeftOrigin="true"></sliceSourceBounds>
	</sfw>
</metadata>
<g>
	<g>
		<path fill="#B5B5B6" d="M7.866,33.136v-3.708h0.756c2.32,0,4.048-0.517,5.184-1.551c0.933-0.857,1.4-1.892,1.4-3.103h4.351v26.863
			H14.26V33.136H7.866z"/>
	</g>
	<g>
		<path fill="#B5B5B6" d="M26.921,15.634h-5.146c0-3.784,1.16-6.457,3.48-8.021c1.463-0.983,3.229-1.476,5.297-1.476
			c2.673,0,4.88,0.751,6.621,2.251c1.74,1.501,2.61,3.575,2.61,6.224c0,2.043-0.605,3.847-1.816,5.411
			c-0.808,1.06-2.068,2.169-3.783,3.33c-1.11,0.782-2.208,1.551-3.292,2.308c-1.489,1.11-2.396,1.993-2.724,2.648h11.615V33H21.473
			c0-2.018,0.303-3.657,0.908-4.918c0.908-1.917,2.687-3.834,5.335-5.751c2.194-1.589,3.607-2.661,4.238-3.216
			c1.689-1.488,2.535-3.051,2.535-4.691c0-1.009-0.29-1.866-0.87-2.573c-0.681-0.833-1.627-1.249-2.838-1.249
			c-1.614,0-2.724,0.593-3.329,1.778C27.098,13.086,26.921,14.171,26.921,15.634z"/>
	</g>
	<g>
		<path fill="#B5B5B6" d="M42.809,41.216v-4.8h1.057c1.6,0,2.8-0.208,3.6-0.624c1.408-0.704,2.112-2.032,2.112-3.984
			c0-1.024-0.24-1.903-0.72-2.64c-0.737-1.152-1.921-1.728-3.553-1.728c-1.984,0-3.328,0.768-4.031,2.304
			c-0.385,0.833-0.576,1.92-0.576,3.264h-6.24c0-3.328,0.912-5.952,2.736-7.872c1.951-2.048,4.8-3.072,8.544-3.072
			c2.751,0,5.071,0.672,6.96,2.016c2.399,1.696,3.6,4.192,3.6,7.488c0,1.601-0.432,3.008-1.296,4.224
			c-0.704,0.992-1.632,1.745-2.784,2.256c1.664,0.608,2.936,1.601,3.816,2.976c0.88,1.376,1.319,3.056,1.319,5.04
			c0,3.232-1.072,5.873-3.216,7.92c-2.144,2.048-4.943,3.072-8.399,3.072c-2.849,0-5.217-0.561-7.104-1.68
			c-3.168-1.855-4.752-5.088-4.752-9.696h6.576c-0.032,1.504,0.208,2.736,0.72,3.696c0.832,1.536,2.239,2.304,4.225,2.304
			c1.439,0,2.607-0.448,3.504-1.344c1.023-1.023,1.536-2.448,1.536-4.272c0-2.047-0.881-3.439-2.641-4.176
			C46.713,41.44,45.049,41.216,42.809,41.216z"/>
	</g>
</g>
</svg>
