<?xml version="1.0" encoding="UTF-8"?>
<svg width="16px" height="16px" viewBox="0 0 16 16" version="1.1" xmlns="http://www.w3.org/2000/svg" xmlns:xlink="http://www.w3.org/1999/xlink">
    <title>icon/collect cancel</title>
    <g id="icon/collect-cancel" stroke="none" stroke-width="1" fill="none" fill-rule="evenodd">
        <g id="编组" transform="translate(0.617244, 0.169342)" fill="#626E88" fill-rule="nonzero">
            <rect id="矩形" transform="translate(7.650523, 8.098425) rotate(-45.000000) translate(-7.650523, -8.098425) " x="7.15052297" y="-0.901575399" width="1" height="18" rx="0.5"></rect>
            <path d="M1.922,4.491 L2.765,5.334 L1,5.58333815 L3.53927656,7.98578473 C3.94714203,8.37167219 4.15173856,8.91347608 4.1021003,9.45894906 L4.08222096,9.607691 L3.48277907,13 L6.62149752,11.398369 C7.12148044,11.1432367 7.70994379,11.1200429 8.22601407,11.3287874 L8.37850248,11.398369 L9.299,11.868 L11.4200236,13.9914603 C11.310604,13.9770436 11.203863,13.9440652 11.1048265,13.8933011 L7.94249417,12.2723567 C7.66543469,12.1303419 7.33444181,12.1303419 7.05738233,12.2723567 L3.89504996,13.8933011 C3.43014142,14.1316034 2.85511955,13.9573313 2.61070267,13.5040534 C2.51337458,13.3235558 2.47978907,13.1168102 2.51514557,12.9158232 L3.11909731,9.48260769 C3.17201096,9.1818155 3.06972854,8.87489781 2.84558271,8.6618756 L0.287202081,6.2304589 C-0.0889168291,5.87300552 -0.0966128996,5.28595555 0.270012426,4.91924609 C0.416004554,4.77322046 0.607298121,4.67818992 0.814278657,4.64886631 L1.922,4.491 Z M11.143,10.884 L12.337,12.078 L12.4847309,12.9158232 C12.5233736,13.1354907 12.4793419,13.3503493 12.3746034,13.5301133 L11.447,12.602 L11.143,10.884 Z M7.92083394,0.0959575757 C8.10839012,0.186206378 8.26020156,0.334219912 8.35276607,0.51708396 L9.93393225,3.64072659 C10.072462,3.91439637 10.3402409,4.10408193 10.6500028,4.14796692 L14,4.64886631 C14.5197835,4.72250575 15.0655209,5.19302869 14.9899919,5.6998087 C14.9599159,5.90161115 14.8624469,6.08811909 14.7126744,6.2304589 L12.1542938,8.6618756 C11.930148,8.87489781 11.8278655,9.1818155 11.8807792,9.48260769 L12.035,10.362 L10.8922664,9.22053263 C10.9102533,8.80765547 11.0718981,8.40986474 11.3545654,8.09477807 L11.4607234,7.98578473 L14,5.58333815 L10.4908061,5.08840694 C9.92714988,5.00890975 9.43352167,4.68730607 9.14335179,4.21768991 L9.06935922,4.08601374 L7.5,1 L5.93064078,4.08601374 L5.868,4.195 L5.148,3.475 L6.64711043,0.51708396 C6.87956471,0.0578633702 7.44983014,-0.130681334 7.92083394,0.0959575757 Z M4.396,4.137 L5.14146638,4.88386121 C4.99171186,4.96312974 4.83028736,5.02302148 4.66108184,5.06079394 L4.5091939,5.08840694 L4.004,5.159 L3.16,4.315 L4.34987373,4.14796692 L4.396,4.137 Z" id="形状结合"></path>
        </g>
    </g>
</svg>