<?xml version="1.0" encoding="UTF-8"?>
<svg width="24px" height="25px" viewBox="0 0 24 25" version="1.1" xmlns="http://www.w3.org/2000/svg" xmlns:xlink="http://www.w3.org/1999/xlink">
    <title>apps/128/dde-file-manager</title>
    <defs>
        <filter x="-9.9%" y="-4.1%" width="119.8%" height="118.2%" filterUnits="objectBoundingBox" id="filter-1">
            <feOffset dx="0" dy="1" in="SourceAlpha" result="shadowOffsetOuter1"></feOffset>
            <feGaussianBlur stdDeviation="0.5" in="shadowOffsetOuter1" result="shadowBlurOuter1"></feGaussianBlur>
            <feColorMatrix values="0 0 0 0 0   0 0 0 0 0   0 0 0 0 0  0 0 0 0.20036604 0" type="matrix" in="shadowBlurOuter1" result="shadowMatrixOuter1"></feColorMatrix>
            <feMerge>
                <feMergeNode in="shadowMatrixOuter1"></feMergeNode>
                <feMergeNode in="SourceGraphic"></feMergeNode>
            </feMerge>
        </filter>
        <radialGradient cx="50%" cy="-3.47638585e-13%" fx="50%" fy="-3.47638585e-13%" r="108.653763%" gradientTransform="translate(0.5, -0), scale(0.5926, 1), rotate(90), translate(-0.5, 0)" id="radialGradient-2">
            <stop stop-color="#45ADF7" offset="0%"></stop>
            <stop stop-color="#0056FF" offset="100%"></stop>
        </radialGradient>
        <path d="M0,9.375 L20.25,9.375 L20.25,19.5 C20.25,20.5355339 19.4105339,21.375 18.375,21.375 L1.875,21.375 C0.839466094,21.375 2.22044605e-16,20.5355339 2.22044605e-16,19.5 L0,9.375 L0,9.375 Z" id="path-3"></path>
        <filter x="-7.4%" y="-12.5%" width="114.8%" height="125.0%" filterUnits="objectBoundingBox" id="filter-4">
            <feGaussianBlur stdDeviation="1" in="SourceAlpha" result="shadowBlurInner1"></feGaussianBlur>
            <feOffset dx="0" dy="-1" in="shadowBlurInner1" result="shadowOffsetInner1"></feOffset>
            <feComposite in="shadowOffsetInner1" in2="SourceAlpha" operator="arithmetic" k2="-1" k3="1" result="shadowInnerInner1"></feComposite>
            <feColorMatrix values="0 0 0 0 0   0 0 0 0 0.00205514409   0 0 0 0 0.616677989  0 0 0 0.5 0" type="matrix" in="shadowInnerInner1"></feColorMatrix>
        </filter>
    </defs>
    <g id="apps/128/dde-file-manager" stroke="none" fill="none">
        <g id="4-dde-filemanager" filter="url(#filter-1)" stroke-width="1" fill-rule="evenodd" transform="translate(1.875, 1.125)">
            <path d="M1.55695638,3.64935191 L9.3604409,0.325645543 C9.67768403,0.190523468 9.79291377,0.155593952 9.92713037,0.132614008 C10.061347,0.109634063 10.188653,0.109634063 10.3228696,0.132614008 C10.4570862,0.155593952 10.572316,0.190523468 10.8895591,0.325645543 L18.6930436,3.64935191 C19.2913171,3.9041721 19.4900882,4.03678412 19.6845716,4.22041728 C19.8790551,4.40405044 20.0204122,4.61790309 20.1131484,4.86879138 C20.2058846,5.11967966 20.25,5.35451947 20.25,6.00479979 L20.25,18.9713576 C20.25,19.8071564 20.162976,20.1102373 19.9995631,20.4157928 C19.8361502,20.7213484 19.5963484,20.9611502 19.2907928,21.1245631 C18.9852373,21.287976 18.6821564,21.375 17.8463576,21.375 L2.40364237,21.375 C1.56784356,21.375 1.26476271,21.287976 0.959207153,21.1245631 C0.653651597,20.9611502 0.413849809,20.7213484 0.25043691,20.4157928 C0.0870240105,20.1102373 0,19.8071564 0,18.9713576 L2.67620108e-16,6.00479979 C-1.1661526e-16,5.35451947 0.0441153772,5.11967966 0.136851611,4.86879138 C0.229587845,4.61790309 0.370944935,4.40405044 0.56542836,4.22041728 C0.759911786,4.03678412 0.958682895,3.9041721 1.55695638,3.64935191 Z" id="矩形" fill="#1C44DD"></path>
            <path d="M10.3228696,0.132614008 C10.4570862,0.155593952 10.572316,0.190523468 10.8895591,0.325645543 L18.6930436,3.64935191 C19.2913171,3.9041721 19.4900882,4.03678412 19.6845716,4.22041728 C19.8790551,4.40405044 20.0204122,4.61790309 20.1131484,4.86879138 C20.2058846,5.11967966 20.25,5.35451947 20.25,6.00479979 L20.25,18.9713576 C20.25,19.8071564 20.162976,20.1102373 19.9995631,20.4157928 C19.8361502,20.7213484 19.5963484,20.9611502 19.2907928,21.1245631 C18.9852373,21.287976 18.6821564,21.375 17.8463576,21.375 L2.40364237,21.375 C1.56784356,21.375 1.26476271,21.287976 0.959207153,21.1245631 C0.653651597,20.9611502 0.413849809,20.7213484 0.25043691,20.4157928 C0.0870240105,20.1102373 0,19.8071564 0,18.9713576 L0,6.00479979 C0,5.35451947 0.0441153772,5.11967966 0.136851611,4.86879138 C0.229587845,4.61790309 0.370944935,4.40405044 0.56542836,4.22041728 C0.759911786,4.03678412 0.958682895,3.9041721 1.55695638,3.64935191 L9.3604409,0.325645543 C9.67768403,0.190523468 9.79291377,0.155593952 9.92713037,0.132614008 C10.061347,0.109634063 10.188653,0.109634063 10.3228696,0.132614008 Z M9.95877281,0.317424738 C9.83072424,0.339348621 9.71930199,0.376596336 9.43391504,0.498150039 L1.63043052,3.82185641 C1.09651124,4.04926647 0.89135042,4.17055281 0.694153365,4.35674821 C0.520668041,4.52055476 0.395445417,4.70999832 0.312721784,4.93379855 C0.218691601,5.18818748 0.1875,5.42446787 0.1875,6.00479979 L0.1875,18.9713576 C0.1875,19.7050673 0.246576589,20.010991 0.415776884,20.3273681 C0.561714821,20.6002483 0.774751722,20.8132852 1.04763194,20.9592231 C1.36400898,21.1284234 1.66993267,21.1875 2.40364237,21.1875 L17.8463576,21.1875 C18.5800673,21.1875 18.885991,21.1284234 19.2023681,20.9592231 C19.4752483,20.8132852 19.6882852,20.6002483 19.8342231,20.3273681 C20.0034234,20.010991 20.0625,19.7050673 20.0625,18.9713576 L20.0625,6.00479979 C20.0625,5.42446787 20.0313084,5.18818748 19.9372782,4.93379855 C19.8545546,4.70999832 19.729332,4.52055476 19.5558466,4.35674821 C19.3586496,4.17055281 19.1534888,4.04926647 18.6195695,3.82185641 L10.816085,0.498150039 C10.530698,0.376596336 10.4192758,0.339348621 10.2912272,0.317424738 C10.1779532,0.298030486 10.0720468,0.298030486 9.95877281,0.317424738 Z" id="矩形" fill="#0062FF" fill-rule="nonzero"></path>
            <path d="M2.15679857,5.56991207 L16.8760837,5.56340216 C17.0978744,5.56330406 17.178333,5.58618661 17.2595718,5.6292809 C17.3408107,5.67237518 17.4047245,5.73568922 17.4485828,5.81651817 C17.4924412,5.89734712 17.5160813,5.97758636 17.5180743,6.19936811 L17.6338098,19.0783613 C17.6362912,19.3544925 17.4144542,19.5803527 17.138323,19.5828341 C17.136899,19.5828469 17.1354751,19.5828536 17.1340511,19.5828542 L2.41476592,19.5893641 C2.19297524,19.5894622 2.11251668,19.5665797 2.03127781,19.5234854 C1.95003894,19.4803911 1.88612512,19.4170771 1.84226681,19.3362481 C1.7984085,19.2554192 1.77476839,19.1751799 1.77277537,18.9533982 L1.65703988,6.07440505 C1.65455846,5.79827381 1.87639546,5.57241363 2.1525267,5.56993221 C2.15395062,5.56991942 2.15537459,5.5699127 2.15679857,5.56991207 Z" id="Rectangle-241" fill="#96D2FF" transform="translate(9.6454, 12.5764) rotate(-365) translate(-9.6454, -12.5764)"></path>
            <path d="M16.8760008,5.37590183 C17.1063959,5.37590183 17.2244012,5.39837679 17.3474369,5.46364278 C17.4612597,5.52402169 17.5519358,5.61384684 17.6133852,5.72709536 C17.6798083,5.84951024 17.7034964,5.96729737 17.7055667,6.19768323 L17.8213306,19.0766764 C17.8247142,19.4563568 17.5196883,19.7669146 17.1400078,19.7703265 L17.134134,19.7703542 L2.41484884,19.7768645 C2.18445371,19.7768645 2.06644847,19.7543895 1.94341277,19.6891235 C1.82958993,19.6287446 1.73891385,19.5389195 1.67746447,19.4256709 C1.61104137,19.3032561 1.58735328,19.1854689 1.58528294,18.9550831 L1.4695191,6.07608993 C1.46613549,5.69640948 1.77116137,5.38585173 2.15084182,5.38243978 L2.15671564,5.38241209 L16.8760008,5.37590183 Z M16.8760837,5.56340184 L2.15679857,5.56991207 L2.1525267,5.56993221 C1.87639546,5.57241363 1.65455846,5.79827381 1.65701926,6.07440505 L1.77277537,18.9533982 C1.77476839,19.1751799 1.7984085,19.2554192 1.84226681,19.3362481 C1.88612512,19.4170771 1.95003894,19.4803911 2.03127781,19.5234854 C2.11251668,19.5665797 2.19297524,19.5893645 2.41476592,19.5893645 L17.1340511,19.5828542 L17.138323,19.5828341 C17.4144542,19.5803527 17.6362912,19.3544925 17.6338304,19.0783613 L17.5180743,6.19936811 C17.5160813,5.97758636 17.4924412,5.89734712 17.4485828,5.81651817 C17.4047245,5.73568922 17.3408107,5.67237518 17.2595718,5.6292809 C17.178333,5.58618661 17.0978744,5.56340184 16.8760837,5.56340184 Z" id="Rectangle-241" fill-opacity="0.1" fill="#000000" fill-rule="nonzero" transform="translate(9.6454, 12.5764) rotate(-365) translate(-9.6454, -12.5764)"></path>
            <path d="M16.8760837,5.56340184 C17.0978744,5.56340184 17.178333,5.58618661 17.2595718,5.6292809 C17.3408107,5.67237518 17.4047245,5.73568922 17.4485828,5.81651817 C17.4924412,5.89734712 17.5160813,5.97758636 17.5180743,6.19936811 L17.6338304,19.0783613 C17.6362912,19.3544925 17.4144542,19.5803527 17.138323,19.5828341 L17.1340511,19.5828542 L2.41476592,19.5893645 C2.19297524,19.5893645 2.11251668,19.5665797 2.03127781,19.5234854 C1.95003894,19.4803911 1.88612512,19.4170771 1.84226681,19.3362481 C1.7984085,19.2554192 1.77476839,19.1751799 1.77277537,18.9533982 L1.65701926,6.07440505 C1.65455846,5.79827381 1.87639546,5.57241363 2.1525267,5.56993221 L2.15679857,5.56991207 L16.8760837,5.56340184 Z M16.9079493,5.93840212 L16.8762496,5.93840212 L2.15696442,5.94491204 C2.08686364,5.94553743 2.03140438,6.00200248 2.03201958,6.07103529 L2.14776023,18.9500284 C2.14907217,19.0960203 2.15525983,19.1267879 2.17187148,19.1574025 C2.18054767,19.1733923 2.19093697,19.1836841 2.20700789,19.1922092 C2.23777771,19.2085315 2.26860231,19.2143647 2.41460006,19.2143647 L17.1338852,19.2078543 C17.203986,19.2072289 17.2594453,19.1507638 17.2588301,19.081731 L17.1430894,6.20273786 C17.1417775,6.05674599 17.1355898,6.02597836 17.1189782,5.9953638 C17.110302,5.97937397 17.0999127,5.96908217 17.0838418,5.96055712 C17.0578058,5.94674596 17.0317305,5.94039885 16.9358744,5.9388119 L16.9079493,5.93840212 Z" id="Rectangle-241" fill-opacity="0.2" fill="#FFFFFF" fill-rule="nonzero" transform="translate(9.6454, 12.5764) rotate(-365) translate(-9.6454, -12.5764)"></path>
            <path d="M3.07847132,7.3125 L18.6715287,7.3125 C18.8944084,7.3125 18.9752299,7.3357064 19.0567114,7.37928318 C19.1381929,7.42285995 19.20214,7.4868071 19.2457168,7.56828858 C19.2892936,7.64977007 19.3125,7.73059163 19.3125,7.95347132 L19.3125,19.2340287 C19.3125,19.4569084 19.2892936,19.5377299 19.2457168,19.6192114 C19.20214,19.7006929 19.1381929,19.76464 19.0567114,19.8082168 C18.9752299,19.8517936 18.8944084,19.875 18.6715287,19.875 L3.07847132,19.875 C2.85559163,19.875 2.77477007,19.8517936 2.69328858,19.8082168 C2.6118071,19.76464 2.54785995,19.7006929 2.50428318,19.6192114 C2.4607064,19.5377299 2.4375,19.4569084 2.4375,19.2340287 L2.4375,7.95347132 C2.4375,7.73059163 2.4607064,7.64977007 2.50428318,7.56828858 C2.54785995,7.4868071 2.6118071,7.42285995 2.69328858,7.37928318 C2.77477007,7.3357064 2.85559163,7.3125 3.07847132,7.3125 Z" id="Rectangle-241" fill="#FFFFFF"></path>
            <path d="M3.07847132,7.125 L18.6715287,7.125 C18.9030387,7.125 19.0216583,7.1479065 19.1451362,7.2139432 C19.259293,7.27499494 19.3500051,7.36570697 19.4110568,7.4798638 C19.4770935,7.6033417 19.5,7.72196127 19.5,7.95347132 L19.5,19.2340287 C19.5,19.4655387 19.4770935,19.5841583 19.4110568,19.7076362 C19.3500051,19.821793 19.259293,19.9125051 19.1451362,19.9735568 C19.0216583,20.0395935 18.9030387,20.0625 18.6715287,20.0625 L3.07847132,20.0625 C2.84696127,20.0625 2.7283417,20.0395935 2.6048638,19.9735568 C2.49070697,19.9125051 2.39999494,19.821793 2.3389432,19.7076362 C2.2729065,19.5841583 2.25,19.4655387 2.25,19.2340287 L2.25,7.95347132 C2.25,7.72196127 2.2729065,7.6033417 2.3389432,7.4798638 C2.39999494,7.36570697 2.49070697,7.27499494 2.6048638,7.2139432 C2.7283417,7.1479065 2.84696127,7.125 3.07847132,7.125 Z M18.6715287,7.3125 L3.07847132,7.3125 C2.85559163,7.3125 2.77477007,7.3357064 2.69328858,7.37928318 C2.6118071,7.42285995 2.54785995,7.4868071 2.50428318,7.56828858 C2.4607064,7.64977007 2.4375,7.73059163 2.4375,7.95347132 L2.4375,19.2340287 C2.4375,19.4569084 2.4607064,19.5377299 2.50428318,19.6192114 C2.54785995,19.7006929 2.6118071,19.76464 2.69328858,19.8082168 C2.77477007,19.8517936 2.85559163,19.875 3.07847132,19.875 L18.6715287,19.875 C18.8944084,19.875 18.9752299,19.8517936 19.0567114,19.8082168 C19.1381929,19.76464 19.20214,19.7006929 19.2457168,19.6192114 C19.2892936,19.5377299 19.3125,19.4569084 19.3125,19.2340287 L19.3125,7.95347132 C19.3125,7.73059163 19.2892936,7.64977007 19.2457168,7.56828858 C19.20214,7.4868071 19.1381929,7.42285995 19.0567114,7.37928318 C18.9752299,7.3357064 18.8944084,7.3125 18.6715287,7.3125 Z" id="Rectangle-241" fill-opacity="0.1" fill="#000000" fill-rule="nonzero"></path>
            <g id="矩形">
                <use fill="url(#radialGradient-2)" fill-rule="evenodd" xlink:href="#path-3"></use>
                <use fill="black" fill-opacity="1" filter="url(#filter-4)" xlink:href="#path-3"></use>
            </g>
        </g>
        <g id="Guide/128"></g>
    </g>
</svg>