<svg xmlns="http://www.w3.org/2000/svg" width="24" height="24" viewBox="0 0 24 24">
  <path d="M15,0 C16.6568542,0 18,1.34314575 18,3 L18,18 C18,19.6568543 16.6568542,21 15,21 L3,21 C1.34314575,21 0,19.6568543 0,18 L0,3 C0,1.34314575 1.34314575,0 3,0 L15,0 Z M15.0069036,15 L2.99309636,15 C2.24132516,15 1.59828576,15.5784561 1.51025855,16.3236857 L1.5,16.4984349 L1.5,18.0015651 C1.5,18.7764063 2.0763952,19.4042745 2.81896977,19.4900167 L2.99309636,19.5 L15.0069036,19.5 C15.7586748,19.5 16.4017143,18.9215439 16.4897415,18.1763143 L16.5,18.0015651 L16.5,16.4984349 C16.5,15.6639905 15.831518,15 15.0069036,15 Z M3.75,16.5 L14.25,16.5 C14.6642136,16.5 15,16.8357864 15,17.25 C15,17.6181899 14.7346872,17.9244126 14.3848134,17.9879165 L14.25,18 L3.75,18 C3.33578645,18 3,17.6642136 3,17.25 C3,16.8818101 3.26531274,16.5755874 3.61518656,16.5120835 L3.75,16.5 L14.25,16.5 L3.75,16.5 Z M9,1.5 C7.34314575,1.5 6,2.84314575 6,4.5 L6,4.5 L6,6 C5.17157287,6 4.5,6.67157287 4.5,7.5 L4.5,7.5 L4.5,12 C4.5,12.8284271 5.17157287,13.5 6,13.5 L6,13.5 L12,13.5 C12.8284271,13.5 13.5,12.8284271 13.5,12 L13.5,12 L13.5,7.5 C13.5,6.67157287 12.8284271,6 12,6 L12,6 L12,4.5 C12,2.84314575 10.6568543,1.5 9,1.5 Z M9,3 C9.82842713,3 10.5,3.67157287 10.5,4.5 L10.5,4.5 L10.5,6 L7.5,6 L7.5,4.5 C7.5,3.67157287 8.17157287,3 9,3 Z" transform="translate(3 1.5)"/>
</svg>
