<?xml version="1.0" encoding="UTF-8"?>
<svg width="16px" height="16px" viewBox="0 0 16 16" version="1.1" xmlns="http://www.w3.org/2000/svg" xmlns:xlink="http://www.w3.org/1999/xlink">
    <title>icon/图标模式-normal</title>
    <g id="组件" stroke="none" stroke-width="1" fill="none" fill-rule="evenodd" fill-opacity="0.7">
        <g id="icon/图标模式-normal" transform="translate(-10, -10)" fill="#000000">
            <path d="M19,25 L25,25 L25,19 L19,19 L19,25 Z M10,25 L16,25 L16,19 L10,19 L10,25 Z M19,14 L19,16 L21,16 L24,16 L25,16 L25,14.3636364 L25,11.4545455 L25,10 L23.5454545,10 L20.6363636,10 L19,10 L19,11 L19,14 Z M10,14.3636364 L10,16 L11,16 L14,16 L16,16 L16,14 L16,11 L16,10 L14.3636364,10 L11.4545455,10 L10,10 L10,11.4545455 L10,14.3636364 Z" id="图标视图-2"></path>
        </g>
    </g>
</svg>