<?xml version="1.0" encoding="utf-8" ?>
<svg xmlns="http://www.w3.org/2000/svg" xmlns:xlink="http://www.w3.org/1999/xlink" width="12" height="12">
	<path fill-opacity="0.7019608" d="M0.5 0L3.5 0C3.7761424 -5.072653e-17 4 0.22385763 4 0.5L4 3.5C4 3.7761424 3.7761424 4 3.5 4L0.5 4C0.22385763 4 1.6908844e-17 3.7761424 0 3.5L0 0.5C-3.3817688e-17 0.22385763 0.22385763 3.3817688e-17 0.5 0ZM0.5 8L3.5 8C3.7761424 8 4 8.2238579 4 8.5L4 11.5C4 11.776142 3.7761424 12 3.5 12L0.5 12C0.22385763 12 1.6908844e-17 11.776142 0 11.5L0 8.5C-3.3817688e-17 8.2238579 0.22385763 8 0.5 8ZM8.5 0L11.5 0C11.776142 -5.072653e-17 12 0.22385763 12 0.5L12 3.5C12 3.7761424 11.776142 4 11.5 4L8.5 4C8.2238579 4 8 3.7761424 8 3.5L8 0.5C8 0.22385763 8.2238579 3.3817688e-17 8.5 0ZM8.5 8L11.5 8C11.776142 8 12 8.2238579 12 8.5L12 11.5C12 11.776142 11.776142 12 11.5 12L8.5 12C8.2238579 12 8 11.776142 8 11.5L8 8.5C8 8.2238579 8.2238579 8 8.5 8Z"/>
</svg>
