<?xml version="1.0" encoding="utf-8" ?>
<svg xmlns="http://www.w3.org/2000/svg" xmlns:xlink="http://www.w3.org/1999/xlink" width="14" height="13">
	<path fill-opacity="0.7019608" d="M14 11.5C14 11.223858 13.776142 11 13.5 11L5 11C4.7238574 11 4.5 11.223858 4.5 11.5C4.5 11.776142 4.7238574 12 5 12L13.5 12C13.776142 12 14 11.776142 14 11.5ZM14 6.5C14 6.2238574 13.776142 6 13.5 6L5 6C4.7238574 6 4.5 6.2238574 4.5 6.5C4.5 6.7761426 4.7238574 7 5 7L13.5 7C13.776142 7 14 6.7761426 14 6.5ZM14 1.5C14 1.2238576 13.776142 1 13.5 1L5 1C4.7238574 1 4.5 1.2238576 4.5 1.5C4.5 1.7761424 4.7238574 2 5 2L13.5 2C13.776142 2 14 1.7761424 14 1.5ZM0.5 0L2.5 0C2.7761424 -5.072653e-17 3 0.22385763 3 0.5L3 2.5C3 2.7761424 2.7761424 3 2.5 3L0.5 3C0.22385763 3 1.6908844e-17 2.7761424 0 2.5L0 0.5C-3.3817688e-17 0.22385763 0.22385763 3.3817688e-17 0.5 0ZM0.5 5L2.5 5C2.7761424 5 3 5.2238574 3 5.5L3 7.5C3 7.7761426 2.7761424 8 2.5 8L0.5 8C0.22385763 8 1.6908844e-17 7.7761426 0 7.5L0 5.5C-3.3817688e-17 5.2238574 0.22385763 5 0.5 5ZM0.5 10L2.5 10C2.7761424 10 3 10.223858 3 10.5L3 12.5C3 12.776142 2.7761424 13 2.5 13L0.5 13C0.22385763 13 1.6908844e-17 12.776142 0 12.5L0 10.5C-3.3817688e-17 10.223858 0.22385763 10 0.5 10Z"/>
</svg>
