<?xml version="1.0" encoding="utf-8" ?>
<svg xmlns="http://www.w3.org/2000/svg" xmlns:xlink="http://www.w3.org/1999/xlink" width="16" height="13">
	<path fill-opacity="0.7019608" transform="translate(0.046875 4.76837e-07)" d="M10.526273 0.00051874504C10.616775 0.0046688514 10.707714 0.033838611 10.788361 0.092069931C10.813278 0.10940829 10.836695 0.12900533 10.858213 0.15069687L12.454137 1.7480321C12.529355 1.8232508 12.59921 1.8931049 12.664259 1.9581546L13.155464 2.4493601C13.209109 2.5030046 13.257363 2.5512586 13.301554 2.595449L13.516014 2.8099096L13.534766 2.8286619L13.853554 3.147449C14.048816 3.3427112 14.048816 3.6592937 13.853554 3.8545558C13.658291 4.049818 13.341709 4.049818 13.146446 3.8545558L12.846131 3.5542409C12.821665 3.5297744 12.796593 3.5047016 12.770353 3.4784625L12.594446 3.3025558C12.550256 3.2583654 12.502002 3.2101114 12.448358 3.156467L11.957152 2.6652613C11.892102 2.6002119 11.822248 2.5303576 11.747029 2.4551389L11 1.7080023L11 11.501002C11 11.746462 10.823125 11.950611 10.589875 11.992947L10.5 12.001002C10.223858 12.001002 10 11.777144 10 11.501002L10 1.7080023L9.2529707 2.4551389C9.1777515 2.5303576 9.1078978 2.6002119 9.0428476 2.6652613L8.5516424 3.156467C8.4979982 3.2101114 8.4497442 3.2583654 8.4055538 3.3025558L8.2296467 3.4784625C8.2034073 3.5047016 8.1783352 3.5297744 8.1538687 3.5542409L7.8535533 3.8545558C7.6582913 4.049818 7.3417087 4.049818 7.1464467 3.8545558C6.9511843 3.6592937 6.9511843 3.3427112 7.1464467 3.147449L7.4652338 2.8286619L7.4839859 2.8099096L7.6984468 2.595449C7.7647324 2.5291634 7.8401608 2.4537346 7.9292107 2.3646851L8.335741 1.9581546C8.4007902 1.8931049 8.470645 1.8232508 8.5458632 1.7480321L10.142727 0.14975172C10.163987 0.12843575 10.187084 0.10915611 10.211164 0.092276096C10.292286 0.033838611 10.383225 0.0046688514 10.473727 0.00051874504L10.526273 0.00051874504ZM3.5 0L3.5898757 0.0080556693C3.8231249 0.050391629 4 0.25454012 4 0.5L4 10.293L4.7470298 9.5458632C4.8222485 9.470645 4.8921027 9.4007902 4.9571524 9.335741L5.4483581 8.8445358C5.5020022 8.7908907 5.5502563 8.7426367 5.5944467 8.6984463L5.7703533 8.5225401C5.7965922 8.4963007 5.8216653 8.4712276 5.8461318 8.4467611L6.1464467 8.1464462C6.3417087 7.9511843 6.6582913 7.9511843 6.8535533 8.1464462C7.0488157 8.3417091 7.0488157 8.6582909 6.8535533 8.8535538L6.5347662 9.1723404L6.5160141 9.1910925L6.3015532 9.4055538C6.2573628 9.4497442 6.2091088 9.4979982 6.1554646 9.5516424L5.664259 10.042848C5.5992093 10.107898 5.529355 10.177752 5.4541364 10.252971L3.8582132 11.850306C3.8366942 11.871997 3.8132777 11.891594 3.7883601 11.908933C3.7077143 11.967164 3.616775 11.996333 3.526273 12.000484L3.473727 12.000484C3.383225 11.996333 3.2922857 11.967164 3.2111645 11.908727C3.1870847 11.891847 3.1639872 11.872566 3.1427269 11.851251L1.5458635 10.252971C1.4706448 10.177752 1.4007907 10.107898 1.335741 10.042848L0.92921048 9.6363173C0.84016091 9.5472679 0.7647323 9.471839 0.69844663 9.4055538L0.48398596 9.1910925L0.46523377 9.1723404L0.14644662 8.8535538C-0.048815537 8.6582909 -0.048815537 8.3417091 0.14644662 8.1464462C0.34170875 7.9511843 0.65829122 7.9511843 0.85355341 8.1464462L1.1538683 8.4467611C1.1783347 8.4712276 1.2034076 8.4963007 1.2296467 8.5225401L1.4055533 8.6984463C1.4497439 8.7426367 1.4979979 8.7908907 1.5516422 8.8445358L2.0428479 9.335741C2.1078975 9.4007902 2.1777515 9.470645 2.2529702 9.5458632L3 10.293L3 0.5C3 0.22385763 3.2238576 0 3.5 0Z"/>
</svg>
