<?xml version="1.0" encoding="utf-8" ?>
<svg xmlns="http://www.w3.org/2000/svg" xmlns:xlink="http://www.w3.org/1999/xlink" width="13" height="13">
	<path fill-opacity="0.7019608" d="M2.5 0C2.7761424 -5.072653e-17 3 0.22385763 3 0.5L3 2.5C3 2.7761424 2.7761424 3 2.5 3L2 3L2 7L10.5 7C10.776142 7 11 7.2238574 11 7.5C11 7.7761426 10.776142 8 10.5 8L2 8L2 11.8C2 11.910457 2.0895431 12 2.2 12L12.5 12C12.776142 12 13 12.223858 13 12.5C13 12.776142 12.776142 13 12.5 13L2 13C1.4477153 13 1 12.552285 1 12L1 3L0.5 3C0.22385763 3 1.6908844e-17 2.7761424 0 2.5L0 0.5C-3.3817688e-17 0.22385763 0.22385763 3.3817688e-17 0.5 0L2.5 0ZM12.5 1C12.776142 1 13 1.2238576 13 1.5L13 2.5C13 2.7761424 12.776142 3 12.5 3L4.5 3C4.2238574 3 4 2.7761424 4 2.5L4 1.5C4 1.2238576 4.2238574 1 4.5 1L12.5 1Z"/>
</svg>
