<?xml version="1.0" encoding="utf-8" ?>
<svg xmlns="http://www.w3.org/2000/svg" xmlns:xlink="http://www.w3.org/1999/xlink" width="14" height="14">
	<path fill-opacity="0.7019608" d="M11 0C12.656855 0 14 1.3431457 14 3L14 11C14 12.656855 12.656855 14 11 14L3 14C1.3431457 14 0 12.656855 0 11L0 3C0 1.3431457 1.3431457 0 3 0L11 0ZM11 1L3 1C1.8954304 1 1 1.8954304 1 3L1 11C1 12.104569 1.8954304 13 3 13L11 13C12.104569 13 13 12.104569 13 11L13 3C13 1.8954304 12.104569 1 11 1ZM4 6C4.5522847 6 5 6.4477153 5 7C5 7.5522847 4.5522847 8 4 8C3.4477153 8 3 7.5522847 3 7C3 6.4477153 3.4477153 6 4 6ZM7 6C7.5522847 6 8 6.4477153 8 7C8 7.5522847 7.5522847 8 7 8C6.4477153 8 6 7.5522847 6 7C6 6.4477153 6.4477153 6 7 6ZM10 6C10.552285 6 11 6.4477153 11 7C11 7.5522847 10.552285 8 10 8C9.4477148 8 9 7.5522847 9 7C9 6.4477153 9.4477148 6 10 6Z"/>
</svg>
