<?xml version="1.0" encoding="UTF-8"?><svg version="1.1" width="18px" height="18px" viewBox="0 0 18.0 18.0" xmlns="http://www.w3.org/2000/svg" xmlns:xlink="http://www.w3.org/1999/xlink"><defs><clipPath id="i0"><path d="M1920,0 L1920,1080 L0,1080 L0,0 L1920,0 Z"></path></clipPath><clipPath id="i1"><path d="M9,0 C13.9705627,0 18,4.02943725 18,9 C18,13.9705627 13.9705627,18 9,18 C4.02943725,18 0,13.9705627 0,9 C0,4.02943725 4.02943725,0 9,0 Z M9,1 C4.581722,1 1,4.581722 1,9 C1,13.418278 4.581722,17 9,17 C13.418278,17 17,13.418278 17,9 C17,4.581722 13.418278,1 9,1 Z M5,7.5 C5.82842712,7.5 6.5,8.17157288 6.5,9 C6.5,9.82842712 5.82842712,10.5 5,10.5 C4.17157288,10.5 3.5,9.82842712 3.5,9 C3.5,8.17157288 4.17157288,7.5 5,7.5 Z M9,7.5 C9.82842712,7.5 10.5,8.17157288 10.5,9 C10.5,9.82842712 9.82842712,10.5 9,10.5 C8.17157288,10.5 7.5,9.82842712 7.5,9 C7.5,8.17157288 8.17157288,7.5 9,7.5 Z M13,7.5 C13.8284271,7.5 14.5,8.17157288 14.5,9 C14.5,9.82842712 13.8284271,10.5 13,10.5 C12.1715729,10.5 11.5,9.82842712 11.5,9 C11.5,8.17157288 12.1715729,7.5 13,7.5 Z"></path></clipPath></defs><g transform="translate(-742.0 -517.0)"><g clip-path="url(#i0)"><g transform="translate(398.0 510.0)"><g transform="translate(344.0 7.0)"><g clip-path="url(#i1)"><polygon points="0,0 18,0 18,18 0,18 0,0" stroke="none" fill="rgba(0, 0, 0, 0.7)"></polygon></g></g></g></g></g></svg>