<?xml version="1.0" encoding="utf-8"?>
<!-- Generator: Adobe Illustrator 16.0.0, SVG Export Plug-In . SVG Version: 6.00 Build 0)  -->
<!DOCTYPE svg PUBLIC "-//W3C//DTD SVG 1.1//EN" "http://www.w3.org/Graphics/SVG/1.1/DTD/svg11.dtd">
<svg version="1.1" id="图层_1" xmlns="http://www.w3.org/2000/svg" xmlns:xlink="http://www.w3.org/1999/xlink" x="0px" y="0px"
	 width="52px" height="52px" viewBox="0 0 52 52" enable-background="new 0 0 52 52" xml:space="preserve">
<g>
	<path fill="#3AA53A" d="M15.018,43.395V8.604h10.22c3.055,0,5.495,0.729,7.322,2.189s2.74,3.396,2.74,5.807
		c0,1.917-0.543,3.608-1.628,5.076c-1.086,1.468-2.58,2.508-4.481,3.122v0.09c2.366,0.27,4.257,1.164,5.671,2.684
		c1.416,1.521,2.123,3.448,2.123,5.784c0,2.994-1.074,5.416-3.223,7.266c-2.149,1.85-4.9,2.773-8.255,2.773H15.018z M19.51,12.534
		v10.894h4.088c2.171,0,3.875-0.528,5.109-1.584c1.236-1.056,1.854-2.519,1.854-4.391c0-3.279-2.187-4.919-6.559-4.919H19.51z
		 M19.51,27.336v12.129H24.9c2.351,0,4.166-0.543,5.447-1.629c1.279-1.086,1.92-2.594,1.92-4.525c0-3.983-2.703-5.975-8.108-5.975
		H19.51z"/>
</g>
</svg>
