<?xml version="1.0" encoding="UTF-8"?>
<svg width="80px" height="80px" viewBox="0 0 80 80" version="1.1" xmlns="http://www.w3.org/2000/svg" xmlns:xlink="http://www.w3.org/1999/xlink">
    <title>icon_ bluetooth/light</title>
    <g id="icon_-bluetooth/light" stroke="none" stroke-width="1" fill="none" fill-rule="evenodd" fill-opacity="0.1">
        <path d="M59.0012404,35 C69.4941662,35.000685 78,43.5070741 78,54 C78,64.4929259 69.4941662,72.999315 59.0012404,73 C52.2128988,73.0004432 45.9400228,69.3791606 42.5457241,63.5003581 C39.1514253,57.6215556 39.1514253,50.3784444 42.5457241,44.4996419 C45.9400228,38.6208394 52.2128988,34.9995568 59.0012404,35 Z M30.9369119,8.30436543 L31.1199958,8.41225443 L52.2172532,21.5980403 C52.7443316,21.9274643 53.1873883,22.3751869 53.5112728,22.9056873 C54.6252914,24.7303731 54.1037022,27.0946765 52.3600292,28.2886191 L52.1816036,28.4040489 L34.007,39.5 L39.0395686,42.5727122 L38.8654777,42.8823657 C37.927964,44.5799513 37.2204988,46.3667005 36.7430822,48.1988552 L31,44.693 L31,63.586 L36.7875661,59.9692483 C37.3011142,61.880648 38.0658141,63.7410149 39.081666,65.5004335 L39.1295686,65.5817122 L31.1199958,70.5877456 C30.4842694,70.9850746 29.7496789,71.1957524 29,71.1957524 C26.8578046,71.1957524 25.1089211,69.5117839 25.0048953,67.3953927 L25,67.1957524 L25,44.999 L6.06325966,56.5605115 C4.70150344,57.3918995 2.93902129,57.0086673 2.03939088,55.7163859 L1.93948848,55.5632597 C1.10810047,54.2015034 1.4913327,52.4390213 2.78361409,51.5393909 L2.93674034,51.4394885 L22.493,39.5 L2.93674034,27.5605115 C1.57498411,26.7291235 1.11052433,24.9862846 1.84893204,23.5955725 L1.93948848,23.4367403 C2.77087649,22.0749841 4.51371537,21.6105243 5.90442747,22.348932 L6.06325966,22.4394885 L25,34 L25,11.8042476 C25,11.1378664 25.1664615,10.4834069 25.4825097,9.8997074 L25.6080068,9.68425188 C26.741079,7.87133628 29.0887862,7.27951133 30.9369119,8.30436543 Z M59.1043987,60 L59.0452161,60 C57.3450601,60 56,61.3450087 56,63 C56.0176983,64.6619405 57.4024146,66.0000899 59.1043987,66 C60.730557,65.9059774 62,64.5907656 62,63 C62,61.4092344 60.730557,60.0940226 59.1043987,60 L59.1043987,60 Z M59,42 C57.3905188,42 56.0672809,43.1448596 56,44.5955867 L56,44.5955867 L56,55.2935445 C56,56.7882786 57.3431458,58 59,58 C60.6568542,58 62,56.7882786 62,55.2935445 L62,55.2935445 L62,44.5955867 C61.9327191,43.1448596 60.6094812,42 59,42 Z M31,15.413 L31,34.306 L46.292,24.97 L31,15.413 Z" id="形状结合" fill="#000000" fill-rule="nonzero"></path>
    </g>
</svg>